<svg xmlns="http://www.w3.org/2000/svg" shape-rendering="crispEdges" viewBox="0 -0.5 38 38"><path stroke="#ffb7be" d="M34 16h1m-2 1h1m-1 1h1m-2 1h1m-1 1h2m-2 2h1m-2 1h2m-2 1h1m-1 1h1m-2 1h2m-2 1h2m-2 1h1m-1 1h1m-2 1h1m-1 1h1m-1 1h1m-2 1h2m-1 1h1m-2 1h1m-1 1h1m-1 1h1"/><path stroke="#e78290" d="M35 16h2m-3 1h1m1 0h1m-3 1h1m-1 2h1m-2 1h1m-1 1h1m-2 2h1m-1 1h1m-2 3h1m-2 3h1m-1 1h1m-2 3h1m-1 1h1"/><path stroke="#b4465f" d="M35 17h1"/><path stroke="#e78291" d="M35 18h1m-7 19h1"/><path stroke="#e56482" d="M36 18h1m-2 1h1m-2 2h1m-1 1h1m-2 2h1m-1 1h1m-2 1h1m-1 1h1m-1 1h1m-2 1h1m-1 1h1m-1 2h1m-2 1h1m-1 1h1m-1 1h1m-1 1h1m-1 1h1"/><path stroke="#feb7be" d="M33 19h1"/><path stroke="#e68290" d="M34 19h1"/><path stroke="#e46482" d="M35 20h1"/><path stroke="#ffb6be" d="M32 21h1m-4 8h1"/><path stroke="#ffb7bf" d="M31 22h1m-2 8h1m-3 4h1"/><path stroke="#e56483" d="M33 23h1"/><path stroke="#e56582" d="M31 31h1"/></svg>