<svg xmlns="http://www.w3.org/2000/svg" shape-rendering="crispEdges" viewBox="0 -0.5 38 38"><path stroke="#6bf53d" d="M34 16h1m-2 1h1m-1 1h1m-2 1h2m-2 1h2m-2 1h1m-2 1h1m-1 1h2m-2 1h1m-1 1h1m-2 1h2m-2 1h2m-2 1h1m-2 1h2m-2 1h2m-2 1h1m-1 1h1m-2 1h2m-2 1h2m-2 1h1m-1 1h1m-1 1h1"/><path stroke="#28d940" d="M35 16h2m-3 1h1m1 0h1m-2 1h1m-2 1h1m-1 1h1m-2 1h1m-1 1h1m-3 6h1m-2 3h1m-2 4h1m-1 1h1"/><path stroke="#178463" d="M35 17h1"/><path stroke="#29d940" d="M34 18h1m-3 6h1m-3 8h1m-2 5h1"/><path stroke="#1eba64" d="M36 18h1m-2 1h1m-2 2h1m-1 1h1m-2 1h1m-1 1h1m-2 2h1m-1 1h1m-1 1h1m-2 1h1m-1 1h1m-1 2h1m-2 1h1m-1 2h1m-1 1h1m-1 1h1"/><path stroke="#1fba64" d="M35 20h1"/><path stroke="#6bf43d" d="M32 22h1"/><path stroke="#28d941" d="M32 25h1"/><path stroke="#1ebb65" d="M33 25h1"/><path stroke="#1ebb64" d="M31 31h1m-2 3h1"/></svg>