<svg xmlns="http://www.w3.org/2000/svg" shape-rendering="crispEdges" viewBox="0 -0.5 38 38"><path stroke="#0783ff" d="M34 16h1m-2 1h1m-1 1h1m-2 1h2m-2 1h2m-2 1h1m-2 1h2m-2 1h2m-2 1h1m-1 1h1m-1 1h1m-2 1h1m-1 1h1m-2 1h2m-2 1h2m-2 1h1m-1 1h1m-2 1h1m-1 1h2m-2 1h1m-1 1h1m-1 1h1"/><path stroke="#0065fe" d="M35 16h2m-1 1h1m-3 1h2m-2 2h1m-2 1h1m-1 1h1m-2 2h1m-1 1h1m-2 3h1m-2 3h1m-1 1h1m-2 3h1m-1 1h1m-1 1h1"/><path stroke="#0065ff" d="M34 17h1"/><path stroke="#072ec0" d="M35 17h1"/><path stroke="#0056e8" d="M36 18h1m-2 1h1m-1 1h1m-2 2h1m-2 1h1m-1 1h1m-2 3h1m-2 2h1m-1 1h1m-1 1h1m-1 1h1m-2 1h1m-1 1h1m-1 1h1m-1 1h1m-1 1h1"/><path stroke="#0064fe" d="M34 19h1"/><path stroke="#0056e9" d="M34 21h1m-3 7h1"/><path stroke="#0057e8" d="M33 25h1m-2 1h1"/><path stroke="#0683ff" d="M30 26h1"/><path stroke="#0783fe" d="M31 27h1"/><path stroke="#0782ff" d="M29 33h1"/></svg>