<svg xmlns="http://www.w3.org/2000/svg" shape-rendering="crispEdges" viewBox="0 -0.5 38 38"><path stroke="#fffc84" d="M34 16h1m-2 1h1m-1 1h1m-2 2h2m-2 1h1m-2 1h2m-2 1h2m-2 2h1m-2 1h2m-2 1h1m-1 1h1m-2 1h2m-1 1h1m-2 1h1m-1 1h1m-2 1h2m-2 1h2m-2 1h1"/><path stroke="#f1e24a" d="M35 16h1m-2 1h1m1 0h1m-3 1h2m-2 1h1m-1 1h1m-2 1h1m-2 3h1m-1 1h1m-3 6h1m-1 1h1m-2 3h1m-1 1h1m-1 1h1"/><path stroke="#f1e34a" d="M36 16h1"/><path stroke="#b88d13" d="M35 17h1"/><path stroke="#d8b535" d="M36 18h1m-2 2h1m-2 1h1m-1 1h1m-2 1h1m-1 1h1m-1 1h1m-2 1h1m-1 1h1m-1 1h1m-2 2h1m-1 1h1m-2 2h1m-1 1h1m-1 1h1m-1 1h1"/><path stroke="#fefc84" d="M32 19h1m-2 5h1m-4 13h1"/><path stroke="#fffc85" d="M33 19h1"/><path stroke="#d9b534" d="M35 19h1"/><path stroke="#f1e24b" d="M33 22h1"/><path stroke="#fefc85" d="M31 27h1"/><path stroke="#f0e24a" d="M31 28h1"/><path stroke="#d8b534" d="M31 29h1m-1 3h1m-2 5h1"/><path stroke="#fffd84" d="M29 30h1m-2 6h1"/></svg>