<svg xmlns="http://www.w3.org/2000/svg" shape-rendering="crispEdges" viewBox="0 -0.5 38 38"><path stroke="#ff006b" d="M30 18h2m-3 1h1m-1 1h1"/><path stroke="#6bf53d" d="M36 18h1m-1 1h1"/><path stroke="#d00057" d="M30 19h1"/><path stroke="#7e2f0b" d="M31 20h1"/><path stroke="rgba(255,255,255,0.6784313725490196)" d="M32 20h2m-3 1h1m-2 1h1m-1 1h1m-2 1h1m-1 1h1m-1 3h1m1 2h1m0 2h1m-1 1h1m-3 1h2"/><path stroke="rgba(255,255,255,0.43137254901960786)" d="M34 20h1m-1 1h1m0 1h1m-1 1h1m0 1h1m-1 1h1m-1 1h1m-1 1h1m-1 1h1m-8 1h2m4 0h2m-5 1h3m-2 1h1m-1 1h1m-1 1h1m1 1h1"/><path stroke="#28d940" d="M35 20h1m-1 1h1"/><path stroke="#fff6db" d="M32 21h2m-3 1h1"/><path stroke="#bc874c" d="M32 22h2"/><path stroke="#1eba64" d="M34 22h1"/><path stroke="#f3e7c3" d="M31 23h2m-3 1h2m-1 1h1m1 0h2m-4 1h1m1 0h1m-1 1h1m-4 1h2m-1 1h1"/><path stroke="#c4d88c" d="M33 23h1m-1 1h1m-2 1h1m-1 1h1m-2 1h1"/><path stroke="#e3d2b9" d="M34 23h1m0 2h1m-2 1h2m-2 1h2m-4 1h4m-3 1h2"/><path stroke="#f2e7c3" d="M32 24h1m-3 3h1"/><path stroke="#f2e7c2" d="M34 24h1"/><path stroke="#e3d3b9" d="M35 24h1"/><path stroke="#fff6da" d="M30 25h1m-1 1h1"/><path stroke="rgba(255,254,255,0.6784313725490196)" d="M29 26h1m-1 1h1"/><path stroke="#f3e6c3" d="M32 27h1"/><path stroke="#e3d2b8" d="M32 29h1"/><path stroke="rgba(255,255,254,0.6784313725490196)" d="M32 31h1"/><path stroke="rgba(255,255,254,0.43137254901960786)" d="M32 34h1m1 0h1"/><path stroke="rgba(255,254,255,0.43137254901960786)" d="M33 34h1"/></svg>