<svg xmlns="http://www.w3.org/2000/svg" shape-rendering="crispEdges" viewBox="0 -0.5 38 38"><path stroke="#7ed4ff" d="M0 0h11M7 1h3m1 0h1m-2 1h2m15 3h1m-2 3h1m-6 1h1m4 0h1m-16 1h1m9 0h1m5 0h2m1 0h3m1 0h1m-15 1h2m9 0h2m1 0h1m1 0h2M1 12h3m21 0h1m8 0h4M5 13h2m12 0h2m3 0h1m3 0h2m5 0h1m1 0h1m-14 1h1m5 0h3m1 0h4M6 15h1m11 0h2m3 0h1M6 16h1m10 0h1m4 0h1m-7 1h2M5 18h1m9 0h2m1 0h3M8 19h8m1 0h3m14 0h3M3 20h1m2 0h7m1 0h4m10 0h3M1 21h2m2 0h2m3 0h2m13 0h1m10 0h1M0 22h2m9 0h4m9 0h1m10 0h1m-25 1h1m1 0h2m7 0h1m4 0h1m1 0h2m-20 1h1m1 0h1m1 0h10m1 0h1m4 0h1m-21 1h1m2 0h2"/><path stroke="#a2deff" d="M11 0h14m1 0h1m1 0h4m1 0h2m1 0h2M12 1h1m1 0h3m1 0h3m1 0h1m2 0h1m1 0h11M13 2h1m1 0h5m1 0h5m1 0h10M12 3h17m1 0h4m-8 1h1m1 0h2M17 6h3m1 0h1m4 0h1M7 7h1m8 0h5m1 0h1m1 0h1M6 8h1m3 0h1m4 0h2m4 0h3M2 9h1m5 0h7m8 0h3M0 10h4m3 0h4m11 0h5M0 11h11m11 0h6m1 0h2M6 12h5m10 0h3m7 0h3M7 13h1m1 0h2m10 0h2m11 0h1m1 0h1M7 14h3m-3 1h3m10 0h2M7 16h2m9 0h2M6 17h3m9 0h1M7 18h2m8 0h1M7 19h1m8 0h1m14 1h5M3 21h2m21 0h6m2 0h1M2 22h1m22 0h6m1 0h2M0 23h3m30 0h2M0 24h2m34 1h1"/><path stroke="#a2dfff" d="M25 0h1m-5 1h1m-8 1h1m11 0h1M12 4h1m7 4h1m0 6h1m10 7h1M3 22h1"/><path stroke="#a2defe" d="M27 0h1m7 0h1M13 1h1m9 0h2m4 2h1m-3 1h1m-8 2h1m0 1h1m6 4h1M8 13h1m24 0h1m-14 1h1m10 8h1m2 0h1m0 2h1"/><path stroke="#a3deff" d="M32 0h1m-7 1h1m-7 1h1m3 6h2m0 4h1m-5 2h1m-3 2h1m12 5h1"/><path stroke="#63d2ff" d="M0 1h3m1 0h3M0 2h1m1 0h8m27 0h1M2 3h2m1 0h7m23 0h3M7 4h1m1 0h3m18 0h8M28 5h1m1 0h1m1 0h1m1 0h4M27 6h5m1 0h5M27 7h4m1 0h1M17 8h3m-5 1h5m-8 1h1m1 0h3m1 0h3m-10 1h4m1 0h1m1 0h2m-9 1h6M1 13h1m1 0h2m6 0h3m11 0h2M1 14h4m5 0h3m12 0h5M5 15h1m4 0h2m12 0h7m1 0h3M9 16h2m12 0h1m5 0h2m1 0h6M9 17h1m12 0h3m8 0h1m1 0h1m1 0h1m-17 1h2m-3 1h2m-4 1h1m-5 1h4"/><path stroke="#63d3ff" d="M3 1h1m25 4h1m3 0h1m-3 2h1m-15 4h1M2 13h1m2 1h1m29 1h2m-13 1h2m8 1h1m-16 3h1"/><path stroke="#7fd4ff" d="M10 1h1m1 1h1m16 8h1m3 0h1m-7 3h1m-9 1h1m6 6h1m-6 3h1m1 0h1m1 1h1m-10 1h1"/><path stroke="#a2dffe" d="M17 1h1"/><path stroke="#63d2fe" d="M1 2h1m2 1h1m26 2h1m0 1h1M20 9h1m-8 1h1m1 1h1"/><path stroke="#7cddff" d="M0 3h1M0 4h5m1 0h1M0 5h2m2 0h7M0 6h1m2 0h1m1 0h4M0 7h7m26 0h5M0 8h1m1 0h4m21 0h11M0 9h1m27 0h10m-3 1h3M0 12h1m16 0h1m1 0h1M0 13h1m13 0h1m1 0h3M0 14h1m13 0h5M0 15h3m1 0h1m7 0h1m1 0h4m19 0h1M0 16h4m1 0h1m5 0h1m1 0h4m9 0h1m1 0h1M0 17h2m1 0h1m1 0h1m4 0h1m1 0h2m1 0h1m9 0h1m1 0h6M0 18h2m1 0h2m4 0h5m9 0h4m1 0h2m1 0h1m1 0h2m1 0h2M2 19h2m18 0h3m1 0h8m3 0h1M1 20h2m17 0h2m1 0h3m11 0h1M0 21h1m17 0h6m11 0h1m-21 1h3m1 0h2m1 0h1m-7 1h2m1 0h2"/><path stroke="#62d2ff" d="M1 3h1m15 7h1m13 5h1m-1 1h1m4 1h1"/><path stroke="#62d3ff" d="M34 3h1"/><path stroke="#7cddfe" d="M5 4h1m9 9h1M3 15h1m9 0h1M4 16h1m22 0h1M2 17h1m-1 1h1m11 0h1m15 0h1M0 19h1m24 0h1M0 20h1m17 2h1"/><path stroke="#63d3fe" d="M8 4h1"/><path stroke="#b3e8ff" d="M13 4h1m-2 2h1M9 7h1M5 9h1m-1 1h1m15 6h1"/><path stroke="#b3e9ff" d="M14 4h12M11 5h9m1 0h6M9 6h3m1 0h4m5 0h4M8 7h1m1 0h6m7 0h1m1 0h1M7 8h3m1 0h4M3 9h2m1 0h2m-4 1h1m1 0h1m17 2h1m2 0h4m-8 1h1m6 0h3m-10 1h1m-2 1h1m-4 2h2M6 18h1m-2 1h2m-2 1h1"/><path stroke="#7dddff" d="M2 5h1M1 6h2m15 6h1m-6 2h1m-2 2h1m13 1h1m5 1h1m2 0h1m-14 2h1m14 1h1m-15 1h1"/><path stroke="#7cdcff" d="M3 5h1m0 1h1M1 8h1M1 9h1m2 8h1m6 0h1m2 0h1M1 19h1m19 3h1m-4 1h1"/><path stroke="#b2e8ff" d="M20 5h1"/><path stroke="#7ed5ff" d="M26 7h1m8 4h1m-23 9h1m-2 1h1m-1 2h1m15 0h1m-15 1h1"/><path stroke="#7ed4fe" d="M22 9h1m4 0h1m5 2h1M4 12h2m14 0h1M6 14h1m26 0h1M4 19h1m22 1h1m-15 1h1m1 2h1"/><path stroke="#b3e9fe" d="M21 17h1"/><path stroke="#7ddcff" d="M27 18h1"/><path stroke="#b2e9ff" d="M4 20h1"/><path stroke="#7dddfe" d="M36 20h1"/><path stroke="#b1c2d0" d="M7 21h3m-5 1h1m1 0h4m25 0h2M3 23h3m3 0h2m25 0h2M2 24h2m6 0h1m16 0h4M0 25h2m16 0h2m1 0h5m5 0h1"/><path stroke="#7cdcfe" d="M24 21h1"/><path stroke="#a3c5e4" d="M4 22h1"/><path stroke="#b0c2d0" d="M6 22h1m10 3h1"/><path stroke="#bfccce" d="M6 23h3m-5 1h4m1 0h1m27 0h1M5 25h6m16 0h4m6 0h1M0 26h3m1 0h8m5 0h3m2 0h8m1 0h1m5 0h1M0 27h2m1 0h3m2 0h2m1 0h1m6 0h5m1 0h7M2 28h2m16 0h4m1 0h2m1 0h3m-11 1h1m2 0h1"/><path stroke="#c3e8ec" d="M24 23h3m4 0h1m-20 1h1m19 0h2m-22 1h1m19 0h2m-22 1h1m2 0h2m15 0h1M7 27h1m4 0h2m2 0h2M4 28h2m12 0h1m12 0h1M0 29h3m15 0h2m4 0h1m1 0h2m-9 1h5"/><path stroke="#c2e8ec" d="M32 23h1m-19 3h1m-9 1h1m18 2h1"/><path stroke="#b1c2d1" d="M35 23h1m-16 2h1"/><path stroke="#bfcdce" d="M8 24h1m-7 1h1m1 0h1m-2 1h1m26 0h1M2 27h1m21 1h1m-4 1h2"/><path stroke="#c3e8ed" d="M34 24h1"/><path stroke="#beccce" d="M36 24h1M3 25h1m17 1h1m-12 1h1M0 28h2"/><path stroke="#c3e9ec" d="M13 25h1"/><path stroke="#b1c3d0" d="M26 25h1"/><path stroke="#e5e7dc" d="M34 25h2m-23 1h1m19 0h4m-23 1h2M6 28h1m1 0h10m14 0h1M3 29h3m8 0h4m10 0h3M0 30h3m13 0h3m5 0h4m-10 1h6"/><path stroke="#bfcccf" d="M20 26h1m2 1h1m7 0h1m-5 1h1"/><path stroke="#e5e7dd" d="M32 27h1"/><path stroke="#e5e6dc" d="M33 27h1"/><path stroke="#f0bdb5" d="M34 27h3m-4 1h5M7 29h4m1 0h2m17 0h4m1 0h2M3 30h4m1 0h7m13 0h2m1 0h4M1 31h6m1 0h10m6 0h5M1 32h2"/><path stroke="#e4e7dc" d="M37 27h1M7 28h1m-2 1h1"/><path stroke="#becccf" d="M19 28h1"/><path stroke="#f1bcb5" d="M11 29h1"/><path stroke="#f0bdb4" d="M35 29h1M7 30h1m7 0h1"/><path stroke="#f1bdb5" d="M30 30h1"/><path stroke="#efc6b8" d="M35 30h3m-7 1h7M5 32h3m1 0h1m1 0h4m1 0h2m1 0h1m2 0h2m4 0h1m4 0h3m1 0h1m-26 1h1m2 0h1m1 0h2"/><path stroke="#f3d2c2" d="M0 31h1m8 2h1m19 0h1M0 34h1m36 0h1M9 35h1m21 0h1m5 0h1M0 36h1m19 0h1m7 0h1m3 0h1m-7 1h1m2 0h2"/><path stroke="#f1bdb4" d="M7 31h1"/><path stroke="#f2d2c2" d="M29 31h2M0 32h1m2 0h2m20 0h1m1 0h1m1 0h4M0 33h9m10 0h5m2 0h3m1 0h1m1 0h1m1 0h4M1 34h2m1 0h1m1 0h7m1 0h10m1 0h4m1 0h3m1 0h3M0 35h3m1 0h5m2 0h8m1 0h1m1 0h6m1 0h2m1 0h4M2 36h2m1 0h1m1 0h2m1 0h1m2 0h1m1 0h4m2 0h1m1 0h5m1 0h1m1 0h1m1 0h1m3 0h1M0 37h2m1 0h3m1 0h5m1 0h5m1 0h3m1 0h3m1 0h1m3 0h2m1 0h2m1 0h1"/><path stroke="#efc7b8" d="M8 32h1m1 0h1m4 0h1m20 0h1m-21 1h1"/><path stroke="#eec6b8" d="M18 32h1m2 0h1m2 0h1m-14 1h1m2 0h1"/><path stroke="#efc6b9" d="M20 32h1m-8 1h1"/><path stroke="#f2d2c3" d="M26 32h1m6 1h1M3 34h1m20 0h1m11 2h1m-19 1h1"/><path stroke="#f3dac6" d="M10 33h1m13 0h1m6 0h1M5 34h1m7 0h1m14 1h1m7 0h1M1 36h1m4 0h1m4 0h1m7 0h1"/><path stroke="#f3d3c2" d="M25 33h1"/><path stroke="#f2cdc0" d="M29 34h1m3 0h1m1 2h1M2 37h1m9 0h1m15 0h1m7 0h1"/><path stroke="#f2d3c2" d="M3 35h1m6 0h1m8 0h1m1 0h1M4 36h1m7 0h1m1 0h1m7 0h1"/><path stroke="#f2cdc1" d="M9 36h1m20 0h1M6 37h1"/><path stroke="#f2d3c3" d="M34 36h1"/><path stroke="#f3dbc6" d="M22 37h1m10 0h1"/></svg>