<svg xmlns="http://www.w3.org/2000/svg" shape-rendering="crispEdges" viewBox="0 -0.5 38 38"><path stroke="#e6c7bc" d="M0 0h3m2 0h3m1 0h2m1 0h5m2 0h4m1 0h4m2 0h1m1 0h4m1 0h1M0 1h1m1 0h7m1 0h1m1 0h1m1 0h1m1 0h1m1 0h2m2 0h1m1 0h4m1 0h5m1 0h2M0 2h5m1 0h3m1 0h8m1 0h3m1 0h3m1 0h2m1 0h1m1 0h2m1 0h3M0 3h5m1 0h11m1 0h1m1 0h1m2 0h1m1 0h1m1 0h3m3 0h3m1 0h1M0 4h4m1 0h5m1 0h6m1 0h13m1 0h2m1 0h1m1 0h1M0 5h3m1 0h1m1 0h5m1 0h1m1 0h5m1 0h9m1 0h4m1 0h3M0 6h3m1 0h1m1 0h5m1 0h3m1 0h3m1 0h2m1 0h9m1 0h4M0 7h4m1 0h5m1 0h1m1 0h22m1 0h2M0 8h3m1 0h2m1 0h1m1 0h3m1 0h3m1 0h5m1 0h3m1 0h9m1 0h1M1 9h10m1 0h4m1 0h7m1 0h2m1 0h9M0 10h11m1 0h12m1 0h2m1 0h4m1 0h5M0 11h8m2 0h3m1 0h6m1 0h5m1 0h4m1 0h4m1 0h1M0 12h5m1 0h1m1 0h7m1 0h1m2 0h1m2 0h9m2 0h2m1 0h2M2 13h1m1 0h1m1 0h2m2 0h3m1 0h1m1 0h11m1 0h10M1 14h1m2 0h5m1 0h3m1 0h14m1 0h9M0 15h1m1 0h18m1 0h6m1 0h1m1 0h4m1 0h2M0 16h1m2 0h1m1 0h2m1 0h2m1 0h4m3 0h9m1 0h4m1 0h5M1 17h22m1 0h14M1 18h3m3 0h2m1 0h7m1 0h4m1 0h2m1 0h2m2 0h8M1 19h3m2 0h1m1 0h6m1 0h10m1 0h2m1 0h3m2 0h3M0 20h6m1 0h1m1 0h1m1 0h2m1 0h1m1 0h3m1 0h3m1 0h4m1 0h1m2 0h5M0 21h16m2 0h3m1 0h1m1 0h9m1 0h4M1 22h2m1 0h5m1 0h3m1 0h1m1 0h3m2 0h5m1 0h11M0 23h28m1 0h9M2 24h2m1 0h9m1 0h11m1 0h3m1 0h5m1 0h1M0 25h2m2 0h5m1 0h2m1 0h4m1 0h3m1 0h3m1 0h6m1 0h5M0 26h8m3 0h6m2 0h7m1 0h9M0 27h9m1 0h3m1 0h3m2 0h1m1 0h7m1 0h3m1 0h3m1 0h1M0 28h2m1 0h1m1 0h1m1 0h6m1 0h5m1 0h2m1 0h10m1 0h4M0 29h3m1 0h11m1 0h3m1 0h1m1 0h2m1 0h2m1 0h3m1 0h5M0 30h3m1 0h3m1 0h21m1 0h1m2 0h3M0 31h3m1 0h2m3 0h6m1 0h15m1 0h3m2 0h1M1 32h4m1 0h2m2 0h8m1 0h2m1 0h1m1 0h2m2 0h2m1 0h3m1 0h2M0 33h15m1 0h1m1 0h4m1 0h3m1 0h5m1 0h1m1 0h1M0 34h4m1 0h1m1 0h9m1 0h3m1 0h1m1 0h10m1 0h4M0 35h13m1 0h14m1 0h2m2 0h5M0 36h8m1 0h2m1 0h5m1 0h4m3 0h4m1 0h3m1 0h4M0 37h1m1 0h2m2 0h1m1 0h6m2 0h3m1 0h1m1 0h3m1 0h6m2 0h3"/><path stroke="#e6c6bc" d="M3 0h1m32 0h1M9 1h1m1 0h1m3 0h1m4 0h1m3 2h1m5 0h1m1 0h1M4 4h1m5 0h1M3 5h1m1 0h1m9 1h1m3 0h1M10 7h1M3 8h1m8 0h1m-2 2h1m15 0h1M8 11h1m11 0h1m11 1h1m2 0h1m-9 1h1M2 14h2m5 0h1m-6 2h1m11 0h1m0 2h1M0 19h1m13 0h1m10 0h1m-13 1h1m5 0h1m11 0h1m5 0h1m-15 1h1m-5 1h1M4 24h1m25 0h1M2 25h1m6 0h1m-2 1h1m1 0h1m15 0h1m-10 1h1M4 28h1m14 1h1M3 30h1m25 0h1m2 0h1m-2 1h1m3 0h1M5 32h1m2 0h2m11 0h1m1 0h1m-9 1h1m10 0h1M6 34h1m15 0h1m10 0h1m-21 1h1m18 0h1M8 36h1m2 0h1m10 0h1M4 37h1m20 0h1"/><path stroke="#e7d2c1" d="M4 0h1m26 0h1M13 1h1M9 2h1M5 3h1m20 0h1m9 0h1M17 4h1m13 0h1M11 5h1m7 0h1M3 6h1m18 2h1m-7 1h1m20 0h1M9 11h1m16 0h1m-10 1h1m3 0h1M1 13h1m27 2h1m-15 1h1m9 2h1M4 19h1m28 0h1M6 20h1m-7 2h1m8 0h1m5 0h1m4 0h1m7 1h1M1 24h1m24 0h1m-6 1h1m6 2h1m7 0h1m-24 1h1M3 29h1m27 1h1M8 31h1m25 1h1M4 34h1m26 1h1m-15 1h1M1 37h1m5 0h1"/><path stroke="#e6c7bd" d="M8 0h1m2 0h1m5 0h1m10 0h1m-8 1h1m1 0h1m4 0h1m5 0h1m2 0h1M18 2h1m0 1h1m2 0h1m13 1h1m-8 1h1m4 0h1M11 6h1m10 0h1m9 0h1m2 1h1M8 8h1m7 0h1m9 0h1m9 0h1M11 9h1m12 0h1m2 0h1m-4 1h1m7 0h1m-18 2h1m2 0h1m1 0h1M0 13h1m14 0h1M2 16h1m7 0h1m16 0h1M0 17h1m22 0h1M5 18h1m22 0h1M5 19h1m22 0h1m8 0h1M8 20h1m6 0h1m12 0h1M3 22h1m32 2h1m-25 1h1m19 0h1M9 26h1m3 1h1m4 0h1M6 28h1m12 0h1m13 0h1m-13 1h1m5 0h1m3 0h1M3 31h1m2 0h1m8 0h1m20 0h1m-11 1h1m-10 1h1m14 0h1m1 0h1m-19 1h1m3 0h1M5 37h1m8 0h2m3 0h1m1 0h1m11 0h1m3 0h1"/><path stroke="#e3c5ad" d="M18 0h1M1 1h1m15 2h1M4 7h1M0 9h1m-1 9h1M0 32h1"/><path stroke="#e7c7bd" d="M23 0h1M13 11h1m-1 2h1m3 3h1M4 18h1m28 3h1M3 25h1"/><path stroke="#e7c7bc" d="M29 0h1M17 1h1M5 2h1m20 0h1m2 0h1m1 0h1m2 0h1M21 3h1m9 0h1m2 1h1M13 5h1M5 6h1m31 0h1m-2 5h1M5 12h1m1 0h1m23 0h1M3 13h1m4 0h2M0 14h1m27 0h1M1 15h1m25 0h1m6 0h1M1 16h1m5 0h1m-2 2h1m15 0h1m6 0h1M7 19h1m24 0h1m-23 1h1m12 0h1m6 0h1m-15 1h1m4 0h1m-9 1h1m12 0h1M0 24h1m13 0h1m2 1h1m-1 1h2m17 0h2M9 27h1m22 0h1M2 28h1m19 0h1m-8 1h1m8 0h1m12 0h1M7 30h1m28 0h2M7 31h1m19 1h1m9 0h1m-16 1h1m13 0h1m-9 2h1m-5 1h1m8 0h1m-2 1h1"/><path stroke="#e7d2c0" d="M22 2h1M6 8h1m24 3h1M5 13h1"/><path stroke="#e6d2c1" d="M12 7h1m0 7h1m6 1h1m16 0h1M9 18h1m8 14h1"/><path stroke="#e6c6bd" d="M32 16h1m-8 9h1m4 7h1m-2 4h1"/><path stroke="#e7c6bc" d="M17 21h1m2 6h1m16 6h1"/><path stroke="#e7d3c1" d="M23 36h1"/></svg>