<svg xmlns="http://www.w3.org/2000/svg" shape-rendering="crispEdges" viewBox="0 -0.5 38 38"><path stroke="#042552" d="M12 25h4m1 0h2m1 0h1m1 0h2m-13 1h15m-15 1h1m1 0h4m1 0h4m1 0h3m-15 1h1m1 0h1m1 0h1m3 0h1m2 0h2m1 0h1m-15 1h1m1 0h1m1 0h1m1 0h1m1 0h1m1 0h1m1 0h1m1 0h1m-15 1h1m3 0h1m1 0h1m3 0h1m1 0h1m-13 1h1m1 0h1m1 0h1m1 0h1m3 0h1m1 0h1m1 0h1m-15 1h1m1 0h1m1 0h1m3 0h1m2 0h2m-13 1h6m1 0h8m-15 1h1m2 0h1m1 0h7m1 0h2m-15 1h1m2 0h12m-15 1h15m-15 1h1m1 0h10m1 0h2"/><path stroke="#042453" d="M16 25h1"/><path stroke="#052552" d="M19 25h1m-3 2h1m1 3h1m5 0h1m-3 4h1m-12 1h1m-1 2h1"/><path stroke="#042553" d="M21 25h1m-10 2h1m4 6h1m-3 1h1m-3 1h1"/><path stroke="#093a7e" d="M24 25h2"/><path stroke="#052452" d="M22 27h1"/><path stroke="#e9f7ff" d="M12 28h1m1 0h1m1 0h1m1 0h1m1 0h2m2 0h1m-13 1h1m3 0h1m1 0h1m1 0h1m1 0h1m1 0h1m-13 1h1m1 0h1m3 0h1m1 0h1m1 0h1m1 0h1m-13 1h1m1 0h1m1 0h1m1 0h1m1 0h1m1 0h1m1 0h1m-13 1h1m1 0h1m1 0h1m1 0h1m1 0h1m3 0h2"/><path stroke="#e8f6ff" d="M17 28h1m-5 2h1"/><path stroke="#e9f6ff" d="M14 29h1"/><path stroke="#e9f7fe" d="M16 30h1m4 2h1"/><path stroke="#042452" d="M19 31h1m-8 3h2m9 3h1"/><path stroke="#e9f6fe" d="M17 32h1"/></svg>