<svg xmlns="http://www.w3.org/2000/svg" shape-rendering="crispEdges" viewBox="0 -0.5 38 38"><path stroke="#1eba64" d="M12 25h1m-1 1h1m-2 1h2m-2 1h2m-2 1h2m-2 1h2m-2 1h2m-2 1h2m-1 1h1m-2 1h1m-1 1h2m-2 1h2m-2 1h2"/><path stroke="#6bf53d" d="M13 25h2m1 0h8m-11 1h13m-13 1h3m1 0h1m1 0h4m1 0h2m-11 1h6m3 0h2m-12 1h1m1 0h1m3 0h1m1 0h4m-12 1h1m1 0h1m1 0h1m1 0h1m2 0h1m1 0h1m-12 1h1m1 0h1m3 0h1m1 0h4m-12 1h1m3 0h3m1 0h2m1 0h1m-11 1h2m3 0h1m1 0h2m1 0h1m-13 1h2m1 0h10m-11 1h11m-13 1h5m1 0h7m-13 1h4m1 0h2m1 0h1m1 0h1m1 0h1"/><path stroke="#6bf53c" d="M15 25h1m-1 9h1m-3 1h1"/><path stroke="#83ff59" d="M24 25h2"/><path stroke="#1eba65" d="M11 26h1"/><path stroke="#6bf43d" d="M16 27h1m6 0h1m-10 8h1m7 2h1m1 0h1"/><path stroke="#6af53d" d="M18 27h1m-3 5h1m3 5h1"/><path stroke="#003f2e" d="M13 28h1m7 0h3m-11 1h1m3 0h3m1 0h1m-9 1h1m1 0h1m3 0h1m1 0h2m1 0h1m-12 1h1m1 0h1m1 0h2m2 0h1m-9 1h1m1 0h1m5 0h1m2 0h1m-12 1h1m3 0h3m1 0h1m2 0h1"/><path stroke="#003f2f" d="M14 28h1m2 2h1"/><path stroke="#013f2e" d="M15 29h1"/><path stroke="#003e2e" d="M19 31h1m-3 1h1m-4 1h1"/><path stroke="#1fba64" d="M11 33h1"/><path stroke="#1ebb64" d="M12 34h1"/><path stroke="#6af43d" d="M18 36h1"/><path stroke="#6af53c" d="M17 37h1"/></svg>