<svg xmlns="http://www.w3.org/2000/svg" shape-rendering="crispEdges" viewBox="0 -0.5 38 38"><path stroke="#0f0f0f" d="M12 25h1m-2 1h2m-2 1h2m-2 1h2m-1 1h1m-2 1h2m-1 1h1m-2 1h2m-2 1h2m-2 1h2m-2 1h1m-1 1h2m-2 1h2"/><path stroke="#161616" d="M13 25h1m1 0h6m1 0h2m-10 1h3m1 0h1m2 0h1m1 0h3m-13 1h5m5 0h1m-11 1h4m6 0h3m-13 1h2m1 0h1m6 0h2m-12 1h3m8 0h2m-13 1h3m8 0h2m-13 1h1m1 0h1m7 0h3m-13 1h2m1 0h2m4 0h2m1 0h1m-12 1h2m8 0h2m-13 1h3m8 0h2m-12 1h3m6 0h1m-11 1h4m6 0h3"/><path stroke="#161716" d="M14 25h1m6 0h1m-5 1h1m6 1h1"/><path stroke="#2b2a2b" d="M24 25h1"/><path stroke="#2a2a2a" d="M25 25h1"/><path stroke="#161617" d="M13 26h1m8 0h1m-1 1h1m2 2h1m-12 3h1m-2 4h1m10 0h2m-9 1h1"/><path stroke="#d0d0d0" d="M19 26h1m-2 1h1m-2 1h3m-3 1h3m-4 1h2"/><path stroke="#c8c9c9" d="M20 26h1m1 2h1m-1 2h1"/><path stroke="#d1d0d0" d="M19 27h1"/><path stroke="#c9c9c8" d="M20 27h1"/><path stroke="#c9c9c9" d="M21 27h1m-2 1h2m-2 1h2m1 1h1"/><path stroke="#171616" d="M25 27h1m-11 2h1m0 3h1m-4 2h1m8 3h1"/><path stroke="#0f0e0f" d="M11 29h1m0 6h1"/><path stroke="#c9c8c9" d="M22 29h1"/><path stroke="#b2b2b2" d="M18 30h2m-3 1h3m-3 1h3m-2 1h2m-4 1h2m1 0h1m-3 1h2m-2 1h3m-2 1h2"/><path stroke="#939393" d="M20 30h2m-2 1h4m-3 1h2m-3 1h2m-2 1h1m1 0h2m-3 1h2m-3 1h3m-3 1h2"/><path stroke="#0f0f0e" d="M11 31h1"/><path stroke="#b3b2b2" d="M16 31h1"/><path stroke="#929392" d="M20 32h1"/><path stroke="#909090" d="M15 33h1"/><path stroke="#777677" d="M24 33h1"/><path stroke="#0d0d0d" d="M18 34h1m2 0h1m-3 1h2"/><path stroke="#656565" d="M16 35h1"/><path stroke="#515151" d="M23 35h1"/></svg>