<svg xmlns="http://www.w3.org/2000/svg" shape-rendering="crispEdges" viewBox="0 -0.5 38 38"><path stroke="#c8c8c8" d="M12 25h1m-2 1h2m-2 1h2m-1 1h1m-2 1h2m-2 1h1m-1 1h2m-2 1h2m-2 1h2m-1 1h1m-1 1h1m-2 1h2m-2 1h2"/><path stroke="#ebebeb" d="M13 25h6m1 0h3m-10 1h6m2 0h4m-12 1h5m4 0h2m1 0h1m-13 1h2m1 0h1m6 0h3m-13 1h4m6 0h3m-13 1h3m9 0h1m-13 1h3m8 0h2m-13 1h4m6 0h3m-13 1h2m1 0h2m4 0h2m1 0h1m-13 1h3m2 0h1m2 0h1m2 0h2m-13 1h3m3 0h2m3 0h2m-12 1h3m6 0h1m1 0h1m-13 1h2m1 0h2m4 0h1m1 0h2"/><path stroke="#ebebea" d="M19 25h1m4 5h1"/><path stroke="#ebeaeb" d="M23 25h1m1 1h1m-11 2h1m-3 8h1m10 0h1m-10 1h1"/><path stroke="#fff" d="M24 25h2"/><path stroke="#979797" d="M19 26h1m-2 1h2m-3 1h3m-3 1h3m-4 1h2"/><path stroke="#888" d="M20 26h1m-1 1h2m-2 1h3m-3 1h2m0 1h1"/><path stroke="#eaebeb" d="M24 27h1"/><path stroke="#c9c8c8" d="M11 28h1m0 2h1m-2 5h1"/><path stroke="#888988" d="M22 29h1"/><path stroke="#6a6a6a" d="M18 30h2m-4 1h4m-2 1h2m-2 1h2m-4 1h1m2 0h1m-2 1h1m-2 1h2m-1 1h2"/><path stroke="#575757" d="M20 30h2m-2 1h1m1 0h1m-3 1h3m-2 1h1m-2 1h1m1 0h2m-3 1h2m-2 1h2m-3 1h1"/><path stroke="#888989" d="M23 30h1"/><path stroke="#575656" d="M21 31h1"/><path stroke="#575657" d="M23 31h1m-4 2h1"/><path stroke="#6a6b6a" d="M17 32h1m-1 2h1m1 2h1"/><path stroke="#929292" d="M15 33h1"/><path stroke="#858584" d="M24 33h1"/><path stroke="#c8c8c9" d="M11 34h1"/><path stroke="#bfbebf" d="M16 35h1"/><path stroke="#6b6a6a" d="M17 35h1"/><path stroke="#b8b8b8" d="M23 35h1"/><path stroke="#575756" d="M20 36h1"/><path stroke="#565757" d="M21 37h1"/><path stroke="#eaebea" d="M23 37h1"/></svg>