<svg xmlns="http://www.w3.org/2000/svg" shape-rendering="crispEdges" viewBox="0 -0.5 38 38"><path stroke="#abaaaa" d="M12 25h1m11 0h1M14 36h1m5 0h1"/><path stroke="#aaa" d="M13 25h2m10 0h1m-12 2h1m2 0h1m2 0h1m2 0h1m1 0h1m-1 1h1m-1 1h1m-12 1h1m10 0h1m-1 1h1m-1 1h1m-3 1h1m1 0h1m-1 1h1m-1 1h1m-9 1h1m5 0h1m1 0h1m-1 1h1"/><path stroke="#858585" d="M15 25h7m1 0h1m-10 1h1m3 0h7m-10 1h2m1 0h2m1 0h2m1 0h1m-12 1h1m1 0h2m1 0h1m-6 1h11m-11 1h1m1 0h8m1 0h1m-12 1h1m1 0h5m2 0h1m1 0h1m-12 1h2m1 0h9m-12 1h1m2 0h7m1 0h1m-12 1h1m1 0h2m1 0h3m3 0h1m-12 1h1m2 0h9m-12 1h1m1 0h2m1 0h2m1 0h2m1 0h1m-12 1h1m1 0h2m1 0h1m3 0h1m1 0h1"/><path stroke="#858485" d="M22 25h1m-10 1h1m5 2h1m2 0h1m1 0h1m-10 5h1m6 1h1"/><path stroke="#767676" d="M11 26h2m-2 1h1m-1 1h2m1 0h1m2 0h1m2 0h1m2 0h1m-13 1h2m-2 1h2m-2 1h2m1 0h1m8 0h1m-13 1h2m-2 1h2m-2 1h2m10 0h1m-13 1h2m-2 1h2m1 1h1m2 0h1m2 0h1m2 0h1"/><path stroke="#848585" d="M15 26h1m-3 1h1m1 5h1m5 5h1"/><path stroke="#848485" d="M16 26h1"/><path stroke="#858584" d="M17 26h1m3 2h1m2 1h1m-5 2h2m-5 3h1m3 0h1m-8 1h2m3 2h1"/><path stroke="#aaabaa" d="M25 26h1m-3 4h1"/><path stroke="#767776" d="M12 27h1"/><path stroke="#aaaaab" d="M14 33h1"/><path stroke="#767677" d="M14 34h1m-3 3h1"/><path stroke="#777676" d="M11 37h1"/></svg>