<svg xmlns="http://www.w3.org/2000/svg" shape-rendering="crispEdges" viewBox="0 -0.5 38 38"><path stroke="#04286d" d="M12 25h1m-1 1h1m-2 1h2m-2 1h2m-2 1h2m-2 1h2m-2 1h2m-2 1h2m-2 1h2m-2 1h2m-2 1h2m-2 1h2m-2 1h2"/><path stroke="#043b72" d="M13 25h8m2 0h1m-11 1h11m1 0h1m-12 1h3m1 0h7m-12 1h1m2 0h2m7 0h1m-13 1h1m1 0h1m1 0h1m1 0h1m1 0h1m1 0h1m1 0h1m-13 1h1m1 0h1m1 0h1m3 0h1m3 0h1m-13 1h1m1 0h1m1 0h1m1 0h1m1 0h1m1 0h1m1 0h1m-13 1h1m2 0h1m2 0h1m1 0h1m3 0h1m-13 1h3m1 0h9m-13 1h1m11 0h1m-13 1h6m1 0h3m1 0h2m-12 1h3m2 0h7m-13 1h11m1 0h1"/><path stroke="#043b73" d="M21 25h2m-10 2h1m4 9h1m5 1h1"/><path stroke="#056380" d="M24 25h2"/><path stroke="#04286c" d="M11 26h1"/><path stroke="#043a72" d="M24 26h1m-8 1h1m-1 5h1m-2 1h1m2 2h1m-7 1h1m3 0h1"/><path stroke="#053b72" d="M25 27h1m-3 3h1m-1 5h1"/><path stroke="#e9f7ff" d="M14 28h1m3 0h3m1 0h2m-10 1h1m1 0h1m1 0h1m1 0h1m1 0h1m1 0h1m-11 1h1m1 0h1m1 0h3m1 0h1m1 0h1m-11 1h1m1 0h1m1 0h1m1 0h1m1 0h1m1 0h1m-11 1h2m2 0h1m1 0h1m2 0h1"/><path stroke="#e8f7ff" d="M15 28h1"/><path stroke="#053a72" d="M21 28h1"/><path stroke="#e9f6ff" d="M24 28h1m-1 4h1"/><path stroke="#e9f7fe" d="M22 32h1"/><path stroke="#c40404" d="M14 34h5m2 0h2m1 0h1"/><path stroke="#c40504" d="M19 34h2m2 0h1"/></svg>