<svg xmlns="http://www.w3.org/2000/svg" shape-rendering="crispEdges" viewBox="0 -0.5 38 38"><path stroke="#7124ee" d="M12 25h1m1 0h1m1 0h1m1 0h1m1 0h4m-13 1h2m1 0h1m2 0h6m-12 1h2m2 0h8m-8 1h5m-2 1h2m-7 3h13m-12 1h3m1 0h8m-12 1h2m1 0h6m2 0h1"/><path stroke="#af1a29" d="M13 25h1"/><path stroke="#7124ef" d="M15 25h1m4 3h1m-4 1h1m-2 5h1m7 0h1"/><path stroke="#7125ee" d="M17 25h1m7 1h1m-12 1h1m-4 1h1m5 5h1"/><path stroke="#7024ef" d="M19 25h1m3 9h1"/><path stroke="#ae1a29" d="M24 25h1m-12 1h1m10 0h1m-1 1h1m-13 4h1m5 0h1m6 0h1m-15 1h1m-1 3h2m12 0h1"/><path stroke="#7e3aeb" d="M15 26h2m-5 2h1m-1 1h1m-1 1h1"/><path stroke="#7024ee" d="M23 26h1m1 1h1"/><path stroke="#ae1b29" d="M13 27h1"/><path stroke="#6514dd" d="M23 27h1m-2 1h1m2 0h1m-15 1h1m8 0h1m4 0h1m-15 1h1m7 0h1m5 0h1m-15 1h1m0 1h1m-1 1h2m-3 1h3m-1 2h2m9 0h1m-10 1h1m6 0h3"/><path stroke="#ff0c27" d="M13 28h2m8 0h2m-12 1h4m4 0h3m-11 1h5m2 0h1m1 0h3m-12 5h7m1 0h4m-9 1h3m1 0h4m-6 1h1m1 0h1"/><path stroke="#6414dd" d="M21 28h1m3 8h1"/><path stroke="#fe0c27" d="M24 29h1m-6 7h1"/><path stroke="#6515dd" d="M18 30h1"/><path stroke="#ff0d27" d="M21 30h1"/><path stroke="#d10824" d="M13 31h2m1 0h1m3 0h5m-10 5h1m1 1h1m3 0h1"/><path stroke="#d00824" d="M15 31h1"/><path stroke="#d10924" d="M17 31h1"/><path stroke="#af1a28" d="M19 31h1"/><path stroke="#6514dc" d="M11 33h1"/><path stroke="#ff0d26" d="M20 35h1"/><path stroke="#5519af" d="M11 36h1m0 1h1"/><path stroke="#5519ae" d="M12 36h1m-2 1h1m1 0h2m10 0h1"/><path stroke="#d10825" d="M16 37h1"/><path stroke="#ff0c26" d="M19 37h1"/></svg>