<svg xmlns="http://www.w3.org/2000/svg" shape-rendering="crispEdges" viewBox="0 -0.5 38 38"><path stroke="#f69fe2" d="M12 25h1m-2 1h2m-2 1h2m-2 1h1m-1 1h2m-2 2h2m-2 1h2m-2 1h2m-2 1h2m-2 1h2m-2 1h2m-1 1h1"/><path stroke="#ffd3f3" d="M13 25h7m1 0h3m-9 1h1m2 0h1m2 0h4"/><path stroke="#db9ee5" d="M20 25h1"/><path stroke="#ffd3f2" d="M24 25h1m-9 1h1"/><path stroke="#fed3f3" d="M25 25h1"/><path stroke="#f9bae8" d="M13 26h2m10 0h1m-13 1h1m1 0h1m1 0h3m1 0h5m-13 1h4m1 0h2m2 0h4m-12 1h6m3 0h1m1 0h1m-13 1h7m2 0h3m-12 1h7m2 0h4m-13 1h4m1 0h2m3 0h3m-13 1h7m2 0h2m1 0h1m-13 1h7m2 0h1m1 0h2m-13 1h7m2 0h4m-13 1h1m1 0h1m1 0h3m2 0h4m-12 1h4m4 0h2"/><path stroke="#ffd2f3" d="M17 26h1m1 0h1"/><path stroke="#f9bae9" d="M20 26h1m-5 1h1m5 2h1m-6 3h1m4 0h1m1 1h1m-2 1h1m-10 2h1m-2 1h1m10 0h1"/><path stroke="#f8bbe8" d="M14 27h1"/><path stroke="#fbccef" d="M20 27h1m-1 2h2m-2 1h2m-1 1h1m-2 1h1m0 2h1m-1 1h1m-2 1h2m-1 1h1"/><path stroke="#f79fe2" d="M12 28h1m-1 2h1m-2 7h1"/><path stroke="#f8bae8" d="M17 28h1m7 2h1m-8 7h1m6 0h1"/><path stroke="#db9ee4" d="M20 28h1m-1 3h1m-1 3h1m-1 3h1"/><path stroke="#fbcdef" d="M21 28h1m-1 4h1"/><path stroke="#f9bbe8" d="M13 29h1m10 0h1m-6 8h1"/><path stroke="#f69fe3" d="M11 30h1"/><path stroke="#fbccee" d="M20 33h2m-2 2h1"/><path stroke="#f9bbe9" d="M16 36h1"/></svg>