<svg xmlns="http://www.w3.org/2000/svg" shape-rendering="crispEdges" viewBox="0 -0.5 38 38"><path stroke="#7124ee" d="M12 25h1m1 0h1m1 0h2m1 0h5m-13 1h2m1 0h1m2 0h5m1 0h1m1 0h1m-15 1h2m2 0h1m1 0h3m1 0h2m2 0h1m-15 1h1m4 0h3m1 0h1m-3 1h2m-7 3h5m1 0h3m1 0h3m-12 1h4m2 0h1m1 0h1m1 0h2m-12 1h3m2 0h7"/><path stroke="#e06a34" d="M13 25h1m10 0h1m-12 1h1m10 0h1m-1 1h1m-13 4h1m5 0h1m6 0h1m-15 1h1m-1 3h2m12 0h1"/><path stroke="#7125ee" d="M15 25h1m-2 2h1m1 0h1m3 0h1m-2 1h1m-3 1h1m0 3h1m-2 2h1"/><path stroke="#7124ef" d="M18 25h1m3 1h1m-8 2h1m6 4h1m-4 1h1m1 0h1m1 0h1"/><path stroke="#7e3aeb" d="M15 26h2m-5 2h1m-1 1h1m-1 1h1"/><path stroke="#e06b34" d="M13 27h1m5 4h1"/><path stroke="#6514dd" d="M23 27h1m-2 1h1m2 0h1m-15 1h1m8 0h1m-10 1h1m6 0h2m-9 1h1m0 1h1m-1 1h1m-2 1h3m-1 2h2m9 0h2m-11 1h1m6 0h3"/><path stroke="#ffa100" d="M13 28h2m8 0h2m-12 1h1m1 0h2m4 0h4m-12 1h4m4 0h4m-12 5h7m1 0h4m-9 1h2m1 0h1m1 0h3m-6 1h3"/><path stroke="#6414dd" d="M21 28h1m3 2h1m-13 3h1"/><path stroke="#ffa000" d="M14 29h1m5 1h1m-3 6h1m1 0h1"/><path stroke="#6515dd" d="M25 29h1"/><path stroke="#fea100" d="M17 30h1"/><path stroke="#e09109" d="M13 31h5m3 0h4m-10 5h1m0 1h2m3 0h1"/><path stroke="#e19009" d="M20 31h1"/><path stroke="#6514dc" d="M11 33h1"/><path stroke="#7024ee" d="M18 33h1m-1 1h1"/><path stroke="#ffa101" d="M20 35h1"/><path stroke="#5519ae" d="M11 36h2m-2 1h4m10 0h1"/></svg>