<svg xmlns="http://www.w3.org/2000/svg" shape-rendering="crispEdges" viewBox="0 -0.5 38 38"><path stroke="#e56482" d="M12 25h1m-2 1h2m-2 1h2m-2 2h1m-1 1h1m-1 1h1m-1 1h1m-1 1h2m-2 1h2m-2 1h2m-2 1h2m-2 1h2"/><path stroke="#e78290" d="M13 25h8m1 0h1m-8 1h11m-13 1h5m3 0h5m-11 1h1m3 0h1m2 0h2m1 0h1m-13 1h1m3 0h1m1 0h1m1 0h1m3 0h1m-11 1h1m1 0h1m3 0h1m1 0h1m1 0h1m-11 1h1m1 0h1m1 0h1m1 0h1m1 0h1m1 0h1m-13 1h1m1 0h1m3 0h1m2 0h2m-11 1h5m1 0h7m-13 1h3m2 0h8m-13 1h7m1 0h5m-13 1h8m2 0h1m1 0h1m-13 1h5m1 0h7"/><path stroke="#e68290" d="M21 25h1m1 0h1m-4 2h1m-8 1h1m3 6h1m2 1h1"/><path stroke="#ffb7be" d="M24 25h2"/><path stroke="#e78390" d="M13 26h1m4 1h1m4 2h1m-3 7h2m-5 1h1"/><path stroke="#e78391" d="M14 26h1"/><path stroke="#e78291" d="M19 27h1m-5 2h1m3 1h1m-7 1h1m4 2h1m-3 1h1m7 2h1"/><path stroke="#e56483" d="M11 28h1"/><path stroke="#2f0911" d="M12 28h1m1 0h1m1 0h3m1 0h2m2 0h1m-13 1h1m1 0h1m1 0h1m1 0h1m1 0h1m3 0h1m-12 1h2m1 0h1m3 0h1m1 0h1m1 0h1m-13 1h1m1 0h1m1 0h1m1 0h1m5 0h1m-13 1h1m1 0h1m1 0h3m1 0h2m2 0h2"/><path stroke="#2f0811" d="M22 29h1m-5 1h1m1 1h1m1 0h1"/><path stroke="#2f0910" d="M12 30h1"/></svg>