<svg xmlns="http://www.w3.org/2000/svg" shape-rendering="crispEdges" viewBox="0 -0.5 38 38"><path stroke="#ddb7a4" d="M12 25h1m-2 1h2m-2 1h2m-2 1h2m-2 1h2m-2 1h2m-2 1h2m-2 1h2m-2 1h1m0 1h1m-2 1h2m-1 1h1m-2 1h2"/><path stroke="#f0dfd7" d="M13 25h1m1 0h5m1 0h3m-11 1h3m1 0h4m1 0h4m-12 1h12m-13 1h3m3 0h2m3 0h2m-13 1h2m10 0h1m-13 1h2m10 0h1m-13 1h2m10 0h1m-13 1h2m9 0h2m-13 1h2m1 0h1m7 0h2m-12 1h4m4 0h1m1 0h2m-13 1h1m1 0h4m2 0h2m1 0h2m-13 1h8m1 0h4m-13 1h4m1 0h5m1 0h2"/><path stroke="#f0dfd6" d="M14 25h1m6 1h1m-9 1h1"/><path stroke="#f1dfd7" d="M20 25h1m-5 1h1m-2 7h1m7 0h1m-11 1h1m9 0h1m-1 1h1"/><path stroke="#faeae2" d="M24 25h2"/><path stroke="#b94c4c" d="M16 28h3m2 0h3m-7 1h2m2 0h3m-9 1h4m1 0h2m1 0h1m-9 1h7m-6 1h6m-5 1h4"/><path stroke="#b94c4d" d="M15 29h2"/><path stroke="#af4c4c" d="M19 29h1m4 0h1m-6 1h1m4 0h1m-2 1h2m-3 1h2m-3 1h2m-5 1h4m-3 1h2"/><path stroke="#b84c4c" d="M20 29h1m1 2h1"/><path stroke="#b84c4d" d="M22 30h1"/><path stroke="#f0ded7" d="M15 32h1m-2 3h1m6 1h1m-5 1h1m5 0h1"/><path stroke="#ddb6a5" d="M12 33h1"/><path stroke="#dcb6a4" d="M11 34h1"/><path stroke="#ddb6a4" d="M11 36h1"/></svg>