<svg xmlns="http://www.w3.org/2000/svg" shape-rendering="crispEdges" viewBox="0 -0.5 38 38"><path stroke="#001b3f" d="M12 25h1m-1 1h1m-2 1h2m-2 1h1m-1 2h1m-1 1h1m-1 1h1m0 1h1m-2 1h2m-2 1h2m-2 2h2"/><path stroke="#042552" d="M13 25h3m1 0h3m-6 1h12m-13 1h1m1 0h3m1 0h7m-7 1h1m3 0h1m1 0h1m-13 1h1m1 0h1m3 0h1m3 0h1m1 0h1m-11 1h1m1 0h1m1 0h1m1 0h1m1 0h1m1 0h1m-13 1h3m1 0h1m1 0h1m1 0h1m3 0h1m-13 1h1m5 0h1m3 0h1m-11 1h3m2 0h1m1 0h2m1 0h3m-13 1h1m1 0h4m1 0h1m1 0h1m1 0h1m-12 1h5m1 0h7m-13 1h1m1 0h3m1 0h7m-12 1h3m1 0h8"/><path stroke="#052552" d="M16 25h1m4 0h2m-8 7h1m0 1h1m2 0h1m2 0h1m-5 3h1m-2 1h1"/><path stroke="#042452" d="M20 25h1m2 0h1m-11 1h1m4 1h1m-4 1h1m1 1h1m-4 3h1m2 1h1m-4 1h1m4 0h1m3 0h1m1 0h1m-12 2h1"/><path stroke="#093a7e" d="M24 25h2"/><path stroke="#011b3f" d="M11 26h1m-1 3h1m-1 7h2"/><path stroke="#042553" d="M14 27h1m6 2h1m1 2h1m-3 3h1m-4 1h1m-6 2h1"/><path stroke="#e9f7ff" d="M12 28h3m1 0h3m2 0h2m1 0h1m-13 1h1m1 0h1m1 0h1m1 0h1m1 0h1m1 0h1m1 0h1m-13 1h3m1 0h1m1 0h1m1 0h1m1 0h1m1 0h1m-13 1h1m3 0h1m1 0h1m1 0h1m1 0h1m-11 1h1m3 0h1m1 0h1m1 0h1m1 0h1m1 0h2"/><path stroke="#e9f6ff" d="M20 28h1"/><path stroke="#e8f7ff" d="M24 31h1m-8 1h1"/><path stroke="#e9f7fe" d="M21 32h1"/><path stroke="#001a3f" d="M11 33h1"/></svg>