<svg xmlns="http://www.w3.org/2000/svg" shape-rendering="crispEdges" viewBox="0 -0.5 38 38"><path stroke="#0076f5" d="M12 25h1m-1 1h1m-2 1h2m-2 1h1m-1 2h1m-1 2h1m0 1h1m-2 1h2m-1 1h1m-2 1h1m-1 1h2"/><path stroke="#008ff5" d="M13 25h2m1 0h5m1 0h2m-11 1h13m-13 1h9m1 0h1m1 0h1m-13 1h1m1 0h1m3 0h1m2 0h2m1 0h1m-11 1h1m1 0h1m1 0h1m1 0h1m1 0h1m-9 1h1m1 0h1m1 0h1m1 0h1m1 0h1m1 0h1m-13 1h1m1 0h1m1 0h1m1 0h1m5 0h1m-7 1h1m2 0h2m-10 1h12m-12 1h1m1 0h2m1 0h2m2 0h2m-12 1h2m1 0h1m1 0h5m1 0h1m-12 1h3m1 0h4m1 0h4m-13 1h6m3 0h2"/><path stroke="#008ef4" d="M15 25h1"/><path stroke="#008ff4" d="M21 25h1m2 2h1m-12 6h1m7 1h1m3 0h1m-3 1h1m1 0h1m-10 1h1m2 1h1m1 0h1"/><path stroke="#0af" d="M24 25h2"/><path stroke="#0076f4" d="M11 26h1m-1 5h1m0 5h1"/><path stroke="#008ef5" d="M22 27h1m2 2h1m-11 3h1m-3 2h1m1 0h1m-1 1h1m8 2h2"/><path stroke="#001249" d="M12 28h1m1 0h1m1 0h3m1 0h1m3 0h1m-11 1h1m1 0h1m1 0h1m1 0h1m-9 1h1m1 0h1m1 0h1m1 0h1m1 0h1m1 0h1m1 0h1m-13 1h1m3 0h1m1 0h1m1 0h1m1 0h1m1 0h1m-13 1h1m1 0h1m2 0h2m1 0h2m2 0h2"/><path stroke="#011249" d="M21 28h1m-10 1h1m1 2h1"/><path stroke="#0077f5" d="M11 29h1m-1 4h1"/><path stroke="#018ef5" d="M13 29h1"/><path stroke="#001248" d="M22 29h1m-7 3h1"/><path stroke="#001349" d="M24 29h1m-12 1h1"/><path stroke="#018ff5" d="M21 31h1m1 0h1m-6 3h1m3 0h1m-6 1h1m3 1h1m-2 1h1"/><path stroke="#018ef4" d="M13 32h1"/><path stroke="#0176f5" d="M11 35h1"/></svg>