<svg xmlns="http://www.w3.org/2000/svg" shape-rendering="crispEdges" viewBox="0 -0.5 38 38"><path stroke="#38a2ff" d="M12 25h1m-2 1h1m-1 1h1m-1 1h1m-1 1h1m-1 1h1m-1 1h1m-1 1h2m-2 1h2m-2 1h2m-2 1h2m-1 1h1m-2 1h2"/><path stroke="#43ccfe" d="M13 25h2m10 0h1"/><path stroke="#34c1ff" d="M15 25h9m-11 1h1m10 0h2m-1 5h1m-1 1h1m-2 1h2m-13 1h2m8 0h3m-13 1h3m6 0h4m-13 1h5m2 0h6m-13 1h2m1 0h2m1 0h7"/><path stroke="#43cdfe" d="M24 25h1"/><path stroke="#39a2ff" d="M12 26h1m-2 10h1"/><path stroke="gray" d="M14 26h1m2 0h1m2 0h1m2 0h1m-12 1h1m12 0h1m-14 4h1m10 2h1m-8 2h1m4 0h1m-4 1h2"/><path stroke="#a8a8a8" d="M15 26h2m-4 1h2m-2 2h1m11 1h1m-3 2h2m-4 1h1m-4 1h4m-5 1h4"/><path stroke="#bfbfbf" d="M18 26h1m-2 2h1m-3 1h2m6 0h1m1 0h1m-13 1h1m7 0h1m-9 1h1m7 0h1"/><path stroke="#d1d1d1" d="M19 26h1m2 0h1m-6 1h3m-4 5h4m-5 1h1m1 0h1m-3 1h2"/><path stroke="#d1d0d1" d="M21 26h1"/><path stroke="silver" d="M15 27h2m-5 2h1m-1 1h1m10 1h1m-4 1h3m-5 1h3m-4 1h1"/><path stroke="#ddd" d="M20 27h5m-9 3h1m-2 1h2m-4 1h3"/><path stroke="#a9a8a8" d="M12 28h1m9 6h1"/><path stroke="#a8a8a9" d="M13 28h1m8 5h1"/><path stroke="#0c3356" d="M14 28h2m2 0h3m1 0h2m-6 1h1m3 0h1m-9 1h1m3 0h1m3 0h1m-5 1h1m3 0h1"/><path stroke="#002547" d="M16 28h1m7 0h1m-5 1h1m-6 1h1m4 0h1m2 0h2m-6 1h2"/><path stroke="#d0d0d0" d="M21 28h1m3 0h1m-9 1h1m1 0h1m1 0h1m-5 1h1m1 0h1m-3 1h1m-4 2h1"/><path stroke="#0c3357" d="M14 29h1"/><path stroke="#002546" d="M24 29h1"/><path stroke="#0c3256" d="M14 31h1"/><path stroke="#c0c0c1" d="M24 31h1"/><path stroke="#34c0ff" d="M13 33h1m1 4h1m2 0h1"/><path stroke="#d1d1d0" d="M16 33h1"/></svg>