<svg xmlns="http://www.w3.org/2000/svg" shape-rendering="crispEdges" viewBox="0 -0.5 38 38"><path stroke="#1eba64" d="M12 25h1m-2 1h1m-1 1h2m-2 2h1m-1 1h1m-1 1h1m-1 1h1m-1 1h2m-1 1h1m-2 1h2m-2 1h2m-2 1h2"/><path stroke="#6bf53d" d="M13 25h5m1 0h3m1 0h1m-11 1h13m-13 1h2m3 0h8m-11 1h1m3 0h1m3 0h1m1 0h1m-13 1h1m1 0h1m3 0h1m1 0h1m1 0h1m1 0h1m-11 1h1m1 0h1m1 0h1m1 0h1m1 0h1m1 0h1m-13 1h3m1 0h1m1 0h1m1 0h1m1 0h1m1 0h1m-13 1h3m3 0h1m3 0h1m-11 1h3m1 0h3m1 0h1m2 0h2m-13 1h13m-13 1h8m1 0h1m1 0h2m-13 1h13m-13 1h13"/><path stroke="#6bf53c" d="M18 25h1m3 0h1m-6 4h1m5 6h1"/><path stroke="#83ff59" d="M24 25h2"/><path stroke="#1eba65" d="M12 26h1"/><path stroke="#6bf43d" d="M15 27h2m-1 6h1m5 0h2"/><path stroke="#6af53d" d="M17 27h1m3 8h1"/><path stroke="#1fbb64" d="M11 28h1"/><path stroke="#003f2e" d="M12 28h3m1 0h3m1 0h3m1 0h1m-13 1h1m1 0h1m1 0h1m1 0h1m1 0h1m1 0h1m1 0h1m-13 1h3m5 0h1m1 0h1m1 0h1m-13 1h1m3 0h1m1 0h1m1 0h1m1 0h1m1 0h1m-13 1h1m3 0h3m1 0h3m1 0h2"/><path stroke="#013f2e" d="M16 30h1m1 0h1"/><path stroke="#6bf43c" d="M20 33h1"/><path stroke="#1ebb64" d="M11 34h1"/></svg>