<svg xmlns="http://www.w3.org/2000/svg" shape-rendering="crispEdges" viewBox="0 -0.5 38 38"><path stroke="#ddd" d="M12 25h1m-1 1h1m-2 1h2m-2 1h2m-2 1h1m-1 1h2m-2 1h2m-1 1h1m-2 1h2m-1 1h1m-2 1h2m-2 1h2m-2 1h2"/><path stroke="#fff" d="M13 25h2m1 0h4m2 0h1m1 0h1m-10 1h1m2 0h2m1 0h2m1 0h1"/><path stroke="#fffefe" d="M15 25h1"/><path stroke="#d3d3d3" d="M20 25h1m-1 3h1m-1 6h1"/><path stroke="#feffff" d="M21 25h1m1 1h1"/><path stroke="#fffffe" d="M23 25h1m1 0h1m-9 1h1"/><path stroke="#dcdddd" d="M11 26h1m-1 8h1"/><path stroke="#ebebeb" d="M13 26h2m10 0h1m-11 1h5m2 0h2m1 0h1m-13 1h7m2 0h1m1 0h2m-13 1h1m1 0h5m2 0h4m-13 1h4m1 0h1m4 0h3m-13 1h7m2 0h4m-13 1h7m2 0h4m-13 1h4m1 0h2m2 0h4m-12 1h6m2 0h4m-13 1h3m1 0h3m2 0h4m-12 1h6m2 0h3m-12 1h7m2 0h4"/><path stroke="#fffeff" d="M16 26h1"/><path stroke="#eaebeb" d="M20 26h1m0 1h1m2 0h1m-2 1h1m-2 2h1"/><path stroke="#ebebea" d="M13 27h2m2 3h1m-5 4h1m-1 2h1m11 0h1"/><path stroke="#f5f5f5" d="M20 27h1m0 1h1m-1 1h1m-2 1h2m-1 1h1m-2 1h2m-2 3h2m-2 1h2m-1 1h1"/><path stroke="#dddddc" d="M12 29h1"/><path stroke="#ebeaeb" d="M14 29h1"/><path stroke="#f4f5f5" d="M20 29h1m0 5h1"/><path stroke="#eaebea" d="M19 30h1"/><path stroke="#d3d3d2" d="M20 31h1"/><path stroke="#dddcdd" d="M11 32h1"/><path stroke="#ebeaea" d="M17 33h1m-2 2h1"/><path stroke="#f5f5f4" d="M20 33h2"/><path stroke="#d3d2d3" d="M20 37h1"/></svg>