<svg xmlns="http://www.w3.org/2000/svg" shape-rendering="crispEdges" viewBox="0 -0.5 38 38"><path stroke="#e56482" d="M12 25h1m-2 1h2m-2 1h2m-2 1h1m-1 2h1m-1 1h1m-1 1h1m0 1h1m-2 1h2m-2 1h1m-1 1h2m-2 1h2"/><path stroke="#e78290" d="M13 25h11m-11 1h2m3 0h1m2 0h5m-13 1h12m-10 1h1m7 0h1m1 0h1m-13 1h1m1 0h1m1 0h1m1 0h1m1 0h1m1 0h1m1 0h1m-11 1h1m1 0h1m1 0h1m1 0h1m1 0h1m1 0h1m-13 1h3m5 0h1m1 0h1m1 0h1m-13 1h2m4 0h1m3 0h1m-9 1h4m2 0h5m-13 1h1m2 0h2m1 0h2m2 0h3m-13 1h5m1 0h6m-12 1h10m1 0h2m-13 1h7m1 0h5"/><path stroke="#ffb7be" d="M24 25h1"/><path stroke="#feb7be" d="M25 25h1"/><path stroke="#e78390" d="M15 26h1m1 0h1m1 0h2m-6 6h1m-3 1h1m0 1h1m3 0h1"/><path stroke="#e78291" d="M16 26h1m8 1h1m-7 1h1m-3 3h1m-4 2h1m4 0h2m-6 1h1m5 0h2"/><path stroke="#2f0911" d="M12 28h1m1 0h1m1 0h3m1 0h2m2 0h1m-13 1h1m1 0h1m1 0h1m1 0h1m1 0h1m-9 1h3m3 0h1m1 0h1m1 0h1m1 0h1m-9 1h1m1 0h1m1 0h1m1 0h1m1 0h1m-13 1h1m3 0h3m1 0h3m1 0h2"/><path stroke="#2e0911" d="M13 28h1m10 1h1"/><path stroke="#2f0910" d="M22 28h1m-1 1h1"/><path stroke="#e46482" d="M11 29h1m0 6h1"/><path stroke="#2f0811" d="M16 30h1m-5 1h1"/><path stroke="#e68290" d="M19 31h1m-2 4h1m6 0h1m-3 1h1m-4 1h1"/><path stroke="#e56483" d="M11 33h1"/></svg>