<svg xmlns="http://www.w3.org/2000/svg" shape-rendering="crispEdges" viewBox="0 -0.5 38 38"><path stroke="#9facf6" d="M12 25h1m-1 2h1m-2 1h2m-2 2h1m0 1h1m-2 1h2m-2 1h2m-2 1h2m-2 1h2m-2 1h2m-2 1h2"/><path stroke="#d3d8ff" d="M13 25h7m1 0h5m-11 1h5m1 0h4"/><path stroke="#8d9af5" d="M20 25h1m-1 3h1m-1 3h1m-1 3h1"/><path stroke="#9fadf6" d="M11 26h1"/><path stroke="#9eacf6" d="M12 26h1m-2 3h1m-1 2h1"/><path stroke="#bac1f9" d="M13 26h1m6 0h1m4 0h1m-13 1h4m1 0h2m1 0h4m-11 1h2m2 0h1m4 0h1m1 0h1m-13 1h2m1 0h2m1 0h1m2 0h4m-13 1h4m1 0h2m2 0h4m-13 1h5m1 0h1m2 0h4m-13 1h7m2 0h2m1 0h1m-13 1h2m1 0h4m2 0h3m-12 1h7m2 0h4m-12 1h4m1 0h1m2 0h4m-13 1h1m4 0h2m2 0h2m1 0h1m-12 1h6m2 0h4"/><path stroke="#bbc1f9" d="M14 26h1m-2 2h1m1 1h1m2 2h1m-6 4h1m0 1h2m1 0h1m-5 1h1"/><path stroke="#9facf7" d="M11 27h1m0 2h1m-1 1h1"/><path stroke="#bac0f9" d="M17 27h1m-1 1h1m1 0h1m-2 1h1m-4 4h1m9 0h1m-8 2h1m-3 1h1m7 0h1"/><path stroke="#ccd2fb" d="M20 27h1m0 1h1m-2 1h2m-2 1h2m-1 1h1m-2 1h2m-2 1h2m-1 1h1m-2 1h2m-2 1h2m-1 1h1"/><path stroke="#bac1f8" d="M25 27h1m-10 1h1m5 0h1m1 0h1m-8 2h1m6 2h1"/><path stroke="#8c9af5" d="M20 37h1"/></svg>