<svg xmlns="http://www.w3.org/2000/svg" shape-rendering="crispEdges" viewBox="0 -0.5 38 38"><path stroke="#7124ee" d="M12 25h1m2 0h1m1 0h2m1 0h4m-12 1h1m1 0h1m2 0h3m1 0h3m1 0h1m-15 1h1m2 0h1m1 0h4m1 0h2m2 0h1m-15 1h1m5 0h4m-4 1h3m-7 3h5m1 0h1m1 0h2m1 0h1m-11 1h12m-12 1h3m1 0h8"/><path stroke="#fff" d="M13 25h1m10 1h1m-12 1h1m-2 4h1m5 0h2m5 0h1m-15 1h1m0 3h1m12 0h1"/><path stroke="#7124ef" d="M14 25h1m0 2h1m0 1h1m1 4h1"/><path stroke="#7024ee" d="M16 25h1m2 0h1m0 2h1m-6 1h1m9 4h1"/><path stroke="#feffff" d="M24 25h1m-12 1h1m-3 9h1"/><path stroke="#7125ee" d="M11 26h1m8 0h1m-9 1h1m4 7h1"/><path stroke="#7e3aeb" d="M15 26h2m-5 2h1m-1 1h1m-1 1h1"/><path stroke="#6514dd" d="M23 27h1m-3 1h2m-12 1h1m8 0h1m4 0h1m-15 1h1m6 0h2m5 0h1m-15 1h1m0 1h1m-1 1h2m-3 1h3m-1 2h2m9 0h1m-10 1h1m6 0h3"/><path stroke="#fffeff" d="M24 27h1"/><path stroke="#eaeaea" d="M13 28h2m8 0h2m-12 1h2m1 0h1m4 0h4m-12 1h3m1 0h1m2 0h5m-12 5h3m1 0h4m1 0h3m-9 1h1m2 0h4m-5 1h3"/><path stroke="#6414dd" d="M25 28h1m-1 8h1"/><path stroke="#eaeaeb" d="M15 29h1m0 1h1m0 6h1"/><path stroke="#d5d5d5" d="M13 31h5m2 0h1m2 0h1m-8 6h2m3 0h1"/><path stroke="#d5d5d4" d="M21 31h2"/><path stroke="#d4d5d5" d="M24 31h1"/><path stroke="#7024ef" d="M20 32h1"/><path stroke="#7025ee" d="M23 32h1"/><path stroke="#6514dc" d="M11 33h1"/><path stroke="#eaebea" d="M16 35h1m4 0h1"/><path stroke="#5519ae" d="M11 36h2m-2 1h1m2 0h1m10 0h1"/><path stroke="#d5d4d5" d="M15 36h1"/><path stroke="#ebeaea" d="M18 36h1m4 0h1"/><path stroke="#5419ae" d="M12 37h1"/><path stroke="#5519af" d="M13 37h1"/></svg>