<svg xmlns="http://www.w3.org/2000/svg" shape-rendering="crispEdges" viewBox="0 -0.5 38 38"><path stroke="#1eba64" d="M12 25h1m-1 1h1m-2 1h2m-2 1h1m-1 1h1m-1 1h1m-1 1h1m-1 2h2m-2 1h2m-2 1h2m-2 1h2m-2 1h2"/><path stroke="#6bf53d" d="M13 25h4m1 0h6m-11 1h4m2 0h3m1 0h2m-11 1h5m1 0h5m-12 1h1m1 0h1m3 0h1m3 0h1m1 0h1m-13 1h1m1 0h1m1 0h1m1 0h1m1 0h1m1 0h1m1 0h1m-11 1h1m1 0h1m1 0h1m1 0h1m1 0h1m1 0h1m-13 1h1m1 0h1m3 0h1m1 0h1m3 0h1m-13 1h1m1 0h1m3 0h1m2 0h2m-11 1h9m1 0h3m-13 1h2m1 0h10m-13 1h4m1 0h8m-12 1h12m-13 1h4m1 0h8"/><path stroke="#6af53d" d="M17 25h1m-1 1h1m4 0h1m-10 1h1m3 8h1m-5 1h1"/><path stroke="#83ff59" d="M24 25h2"/><path stroke="#1fba65" d="M11 26h1"/><path stroke="#6bf43d" d="M18 26h1m6 0h1m-7 1h1m2 1h1m-6 3h1m5 0h1"/><path stroke="#6bf53c" d="M25 27h1m-4 6h1m-8 1h1"/><path stroke="#003f2e" d="M12 28h1m1 0h1m1 0h3m1 0h2m2 0h1m-13 1h1m1 0h1m1 0h1m3 0h1m1 0h1m1 0h1m-13 1h3m3 0h1m1 0h1m1 0h1m1 0h1m-9 1h1m1 0h1m1 0h1m1 0h1m1 0h1m-13 1h1m1 0h1m1 0h3m1 0h2m2 0h2"/><path stroke="#003f2f" d="M18 29h1"/><path stroke="#003e2e" d="M16 30h1m-3 1h1"/><path stroke="#013f2e" d="M12 31h1"/><path stroke="#1fba64" d="M11 32h1"/><path stroke="#6bf43c" d="M17 37h1"/></svg>