<svg xmlns="http://www.w3.org/2000/svg" shape-rendering="crispEdges" viewBox="0 -0.5 38 38"><path stroke="#7124ee" d="M7 6h1m0 1h1m0 1h5m1 0h8M6 9h1m5 0h3m1 0h10M7 10h19m-16 1h1m1 0h12M6 12h8m5 0h2m4 0h1M8 13h6m5 0h2m4 0h1m-14 1h2m4 0h2m5 0h1m-13 1h1m4 0h3m-9 1h1m6 0h2m4 0h1m-14 1h2m4 0h3m4 0h1m-14 1h5m1 0h2m1 0h3m1 0h1m-14 1h5m7 0h1m-12 1h1m1 0h2m7 0h2m-13 1h3m9 0h1m-13 1h7m5 0h1"/><path stroke="#6514dd" d="M8 8h1m1 1h1m-4 4h1m3 1h1m2 3h3m4 0h4m-13 4h1m4 0h1m-6 1h1m0 1h2m1 0h5m1 0h4"/><path stroke="#7024ee" d="M14 8h1m0 1h1m8 2h1m-7 2h1m1 1h1m-4 4h1m-4 2h1"/><path stroke="#5519ae" d="M9 9h1m-2 2h1m17 1h1m-1 1h1M8 14h1m1 0h1m15 0h1m-16 1h1m14 0h1m-16 1h1m14 0h1m-1 1h1m-16 1h1m14 0h1m-16 1h1m14 0h1m-16 1h1m14 0h1m-13 4h8m1 0h1"/><path stroke="#7124ef" d="M11 9h1m-1 2h1m6 5h1m5 2h1m0 1h1"/><path stroke="#7125ee" d="M5 11h1m12 1h1m-7 3h1m12 0h1m-13 1h1m6 2h1m-9 2h1m3 1h1"/><path stroke="#6514dc" d="M9 11h1m5 12h1"/><path stroke="#7125ef" d="M25 11h1"/><path stroke="#c4e5f8" d="M14 12h2m5 0h2"/><path stroke="#000048" d="M16 12h1"/><path stroke="#000049" d="M17 12h1m5 0h2m-9 1h2m5 0h2m-11 1h4m3 0h4m-11 1h4m3 0h4m-11 1h4m3 0h3"/><path stroke="#def0fb" d="M14 13h2m6 0h1"/><path stroke="#dff1fb" d="M21 13h1"/><path stroke="#5519af" d="M9 14h1m12 10h1"/><path stroke="#010049" d="M24 16h1"/><path stroke="#5418ae" d="M11 17h1"/><path stroke="#6515dd" d="M17 17h1m3 6h1"/><path stroke="#ff7f08" d="M17 19h2m1 0h2m-3 1h1m3 0h1m-4 1h5m-2 1h2"/><path stroke="#ff7f09" d="M19 19h1"/><path stroke="#ff9112" d="M22 19h2"/><path stroke="#f26d00" d="M17 20h1m0 1h2m1 1h1"/><path stroke="#fe7f08" d="M18 20h1m2 0h1"/><path stroke="#a7431c" d="M20 20h1m1 0h1"/><path stroke="#f26c00" d="M20 22h1"/><path stroke="#ff7e08" d="M22 22h1"/><path stroke="#6414dd" d="M12 23h1"/></svg>