<svg xmlns="http://www.w3.org/2000/svg" shape-rendering="crispEdges" viewBox="0 -0.5 38 38"><path stroke="#7124ee" d="M7 6h1m0 1h1m0 1h2m3 0h6m1 0h2M6 9h1m5 0h8m2 0h1m2 0h1M7 10h3m2 0h4m1 0h9M5 11h1m4 0h1m1 0h14M6 12h7m5 0h2m5 0h1M8 13h3m1 0h1m-1 2h1m5 0h2m-8 1h1m5 0h2m-8 1h1m5 0h2m-8 1h12m-12 1h5m7 0h1m-13 1h5m7 0h2m-12 1h3m8 0h1m-13 1h2m1 0h4m5 0h1"/><path stroke="#641ecc" d="M8 8h1m1 1h1m-2 2h1m-3 2h1m4 8h1m4 0h1m-6 1h1m-1 1h2m1 0h10"/><path stroke="#7125ee" d="M11 8h1m9 1h1m-12 1h1m0 3h1m12 5h1m-12 3h1"/><path stroke="#7024ee" d="M12 8h1m7 0h1M11 9h1m11 0h2m-14 1h1m-1 1h1m13 7h1m-1 1h1"/><path stroke="#7124ef" d="M13 8h1m6 1h1m-5 1h1m-2 12h1"/><path stroke="#5519ae" d="M9 9h1m-2 2h1m17 1h1m-1 1h1M8 14h3m15 0h1m-1 1h1m-16 3h1m-1 1h1m14 0h1m-13 5h10"/><path stroke="#feffff" d="M13 12h1m-1 4h1m0 1h1"/><path stroke="#fff" d="M14 12h4m2 0h5m-8 1h1m2 0h1m-8 1h1m3 0h1m6 0h1m-12 1h1m3 0h1m2 0h5m-5 1h1m-8 1h1m1 0h3m2 0h1"/><path stroke="#fffeff" d="M13 13h1m10 0h1m-5 1h1"/><path stroke="#f6001b" d="M14 13h2m5 0h2m-11 1h1m1 0h1m3 0h2m1 0h1m-11 1h1m4 0h1m-6 1h1m2 0h2m6 0h1m1 0h1m-3 1h3"/><path stroke="#ff0c27" d="M16 13h1m2 0h1m3 0h1m-9 1h2m5 0h2m-10 1h2m5 1h1m-1 1h1"/><path stroke="#fe0c27" d="M18 13h1"/><path stroke="#622adf" d="M25 13h1m-1 1h1m-1 1h1m-1 1h1m-1 1h1"/><path stroke="#f6001a" d="M11 14h1"/><path stroke="#f7011b" d="M16 16h1"/><path stroke="#fffffe" d="M17 16h1"/><path stroke="#f7001b" d="M23 16h1"/><path stroke="#5419ae" d="M26 16h1m-16 1h1m14 0h1m-16 3h1"/><path stroke="#5418ae" d="M26 18h1"/><path stroke="#ff7f08" d="M17 19h5m-4 1h2m1 0h1m1 1h2m-3 1h3"/><path stroke="#ff9112" d="M22 19h2"/><path stroke="#f26d00" d="M17 20h1m0 1h2m0 1h2"/><path stroke="#a7431d" d="M20 20h1"/><path stroke="#a7431c" d="M22 20h1"/><path stroke="#ff7e08" d="M23 20h1m-4 1h1m1 0h1"/><path stroke="#5519af" d="M26 20h1"/><path stroke="#fe7f08" d="M21 21h1"/><path stroke="#641fcc" d="M14 23h1"/><path stroke="#651ecc" d="M25 23h1"/></svg>