<svg xmlns="http://www.w3.org/2000/svg" shape-rendering="crispEdges" viewBox="0 -0.5 38 38"><path stroke="#7124ee" d="M7 6h1m0 1h1m0 1h1m2 0h9m1 0h1M6 9h1m6 0h8m1 0h4M7 10h3m7 0h1m2 0h3m1 0h2M5 11h1m4 0h3m8 0h4M6 12h7m-5 1h3m1 0h2m4 0h1m-6 1h1m4 0h2m-8 1h2m4 0h2m-7 1h1m4 0h3m-9 1h1m5 0h1m1 0h1m4 0h1m-14 1h12m1 0h1m-14 1h5m7 0h2m-14 1h5m7 0h2m-13 1h3m9 0h1m-13 1h5m7 0h1"/><path stroke="#6514dd" d="M8 8h1m1 2h3m0 1h4M7 13h1m3 1h1m2 3h3m5 0h2m-12 4h1m-1 1h1m0 1h7m1 0h2m1 0h2"/><path stroke="#7024ee" d="M10 8h1m10 0h1m-10 8h1m11 2h1"/><path stroke="#7124ef" d="M11 8h1m9 1h1m-4 1h2m3 0h1m-13 3h1m0 1h1m0 3h1m4 5h1"/><path stroke="#f6001b" d="M10 9h1m15 1h1m-9 2h1m7 0h1m-8 1h1m5 0h2m-3 1h2m-6 1h3m1 0h2m-3 1h1"/><path stroke="#ff0c27" d="M11 9h1m1 1h4m0 1h3m0 1h6m-5 1h1m1 0h2m-5 1h4"/><path stroke="#ff0c26" d="M12 9h1m12 2h1"/><path stroke="#5519ae" d="M8 11h1m-1 3h3m15 0h1m-16 1h1m14 0h1m-16 1h1m14 0h1m-16 1h1m14 0h1m-16 1h1m14 0h1m-16 1h1m14 0h1m-16 1h1m14 0h1m-13 4h10"/><path stroke="#6515dd" d="M9 11h1m11 6h1m-10 6h1m7 0h1"/><path stroke="#ff0d27" d="M20 11h1"/><path stroke="#f6001a" d="M26 11h1m-4 4h1"/><path stroke="#7025ee" d="M13 12h1m5 10h1"/><path stroke="#c4e5f8" d="M14 12h1"/><path stroke="#c4e5f9" d="M15 12h1"/><path stroke="#000049" d="M16 12h2m-1 1h1m-4 1h1m1 0h1m-3 1h4m-4 1h4"/><path stroke="#f7001b" d="M19 12h1"/><path stroke="#def0fb" d="M14 13h2"/><path stroke="#000149" d="M16 13h1m0 1h1"/><path stroke="#fe0c27" d="M20 13h1m1 0h1"/><path stroke="#000048" d="M15 14h1"/><path stroke="#f6011b" d="M21 16h2m1 0h1"/><path stroke="#6414dd" d="M25 16h1m-9 5h1"/><path stroke="#6515dc" d="M17 17h1"/><path stroke="#7125ee" d="M19 17h1"/><path stroke="#6514dc" d="M24 17h1m-2 6h1"/><path stroke="#ff7f08" d="M17 19h5m-4 1h2m1 0h1m1 0h1m-4 1h5m-3 1h3"/><path stroke="#ff9112" d="M22 19h2"/><path stroke="#f36d00" d="M17 20h1"/><path stroke="#a7431c" d="M20 20h1m1 0h1"/><path stroke="#7125ef" d="M16 21h1"/><path stroke="#f26d00" d="M18 21h2m0 1h2"/></svg>