<svg xmlns="http://www.w3.org/2000/svg" shape-rendering="crispEdges" viewBox="0 -0.5 38 38"><path stroke="#7124ee" d="M7 6h1m0 1h1m0 1h1m1 0h5m2 0h1m1 0h3M6 9h1m4 0h2m1 0h1m1 0h10M7 10h10m1 0h2m1 0h3m1 0h1M5 11h1m4 0h3m2 0h2m1 0h3m1 0h4M6 12h1m1 0h4m7 0h1M8 13h5m6 0h1m-8 2h1m6 0h1m-8 1h1m6 0h1m-8 1h1m6 0h1m-8 1h14m-14 1h5m7 0h2m-13 1h2m1 0h1m7 0h1m-12 1h4m8 0h1m-12 1h6m5 0h1"/><path stroke="#6514dd" d="M8 8h1m1 1h1m-2 2h1m-3 2h1m4 8h1m4 0h1m-6 1h1m2 1h1m1 0h2"/><path stroke="#7024ee" d="M10 8h1m6 0h1m1 0h1m-3 2h1m2 0h1m-8 1h1m7 0h1m-10 1h1m2 8h1m-3 2h1"/><path stroke="#7124ef" d="M16 8h1m-4 1h1m0 2h1m10 9h1"/><path stroke="#5519ae" d="M9 9h1m-2 2h1m17 1h1m-1 1h1M8 14h3m15 0h1m-1 1h1m-16 2h1m14 0h1m-16 1h1m-1 1h1m14 0h1m-16 1h1m14 0h1m-12 4h5m2 0h2"/><path stroke="#7125ee" d="M15 9h1m8 1h1m-8 1h1m-6 9h1"/><path stroke="#7024ef" d="M7 12h1"/><path stroke="#ffa408" d="M13 12h3m1 0h2m2 0h5m-13 1h1m4 0h1m1 0h1m4 0h1m-15 1h3m4 0h3m4 0h1m-15 1h1m1 0h1m4 0h1m1 0h1m-10 1h1m6 0h1m1 0h1m4 0h1m-12 1h5m1 0h4m1 0h1"/><path stroke="#ffa409" d="M16 12h1m-4 4h1m10 1h1"/><path stroke="#ffa508" d="M20 12h1"/><path stroke="#def0fb" d="M14 13h2m5 0h1m-8 1h2m6 0h1m-9 1h1m6 0h1"/><path stroke="#000049" d="M16 13h1m6 0h2m-9 1h2m5 0h2m-8 1h1m4 0h2m-9 1h3m6 0h1"/><path stroke="#000048" d="M17 13h1"/><path stroke="#000148" d="M22 13h1"/><path stroke="#def0fa" d="M21 14h1m-8 2h1"/><path stroke="#c4e5f8" d="M15 15h1m5 1h1"/><path stroke="#010049" d="M16 15h1m6 1h1"/><path stroke="#000149" d="M24 15h1"/><path stroke="#fea408" d="M25 15h1m-13 2h1"/><path stroke="#c5e5f8" d="M22 16h1"/><path stroke="#5419ae" d="M26 16h1m-13 8h1"/><path stroke="#5518ae" d="M26 18h1m-6 6h1"/><path stroke="#ff7f08" d="M17 19h3m-2 1h2m1 0h1m1 0h1m-4 1h2m1 0h1m-2 1h2"/><path stroke="#fe7f08" d="M20 19h1m3 2h1"/><path stroke="#ff7e08" d="M21 19h1m2 3h1"/><path stroke="#ff9112" d="M22 19h2"/><path stroke="#f26d00" d="M17 20h1m0 1h2m0 1h2"/><path stroke="#a7431c" d="M20 20h1m1 0h1"/><path stroke="#ff7f09" d="M22 21h1"/><path stroke="#641ecc" d="M12 23h3m4 0h5m1 0h1"/><path stroke="#6515dd" d="M16 23h1"/><path stroke="#641fcc" d="M24 23h1"/><path stroke="#5519af" d="M20 24h1"/></svg>