<svg xmlns="http://www.w3.org/2000/svg" shape-rendering="crispEdges" viewBox="0 -0.5 38 38"><path stroke="#7124ee" d="M7 6h1m0 1h1m0 1h1m3 0h2m1 0h7M11 9h7m2 0h6M7 10h8m2 0h9M5 11h1m4 0h13m1 0h2M6 12h20m-16 1h1m1 0h14m-14 1h3m2 0h2m5 0h2m-14 1h1m5 0h3m-9 1h11m1 0h1m-13 1h4m1 0h6m1 0h2m-14 1h1m1 0h6m2 0h1m1 0h2m-13 1h4m7 0h2m-14 1h5m7 0h2m-13 1h4m8 0h1m-13 1h2m1 0h1m1 0h2m5 0h1"/><path stroke="#6514dd" d="M8 8h1m-2 5h1m3 1h1m1 1h1m1 0h2m5 0h2m1 0h1m-14 6h1m4 0h1m-6 1h1m-1 1h7m1 0h2m1 0h2"/><path stroke="#7125ee" d="M10 8h1m4 0h1m0 2h1m8 6h1m-13 2h1m6 0h1m-9 1h1m2 3h1"/><path stroke="#7124ef" d="M11 8h1m6 1h2m3 2h1M9 13h1m9 1h1m3 2h1m-8 1h1m6 1h1m-7 4h1"/><path stroke="#7024ee" d="M12 8h1M6 9h1m8 1h1m-8 3h1m11 1h2m1 3h1"/><path stroke="#5519ae" d="M9 9h1m16 3h1m-1 1h1M8 14h3m15 1h1m-16 1h1m14 0h1m-16 1h1m14 0h1m-16 1h1m14 0h1m-16 1h1m14 0h1m-16 1h1m14 0h1m-13 4h1m1 0h5m1 0h1"/><path stroke="#6515dd" d="M10 9h1m-2 2h1"/><path stroke="#5419ae" d="M8 11h1m17 3h1m-4 10h1"/><path stroke="#7125ef" d="M11 13h1"/><path stroke="#000049" d="M15 14h1m6 0h2m-10 1h1m2 0h1m3 0h1"/><path stroke="#010049" d="M16 14h1"/><path stroke="#5518ae" d="M11 15h1m9 9h1"/><path stroke="#000048" d="M24 15h1"/><path stroke="#7024ef" d="M21 18h1"/><path stroke="#ff7f08" d="M17 19h5m-4 1h1m4 0h1m-4 1h5m-3 1h2"/><path stroke="#ff9112" d="M22 19h2"/><path stroke="#f26d00" d="M17 20h1m0 1h2m0 1h2"/><path stroke="#ff7e08" d="M19 20h1m1 0h1m2 2h1"/><path stroke="#a7431c" d="M20 20h1m1 0h1"/><path stroke="#6414dd" d="M19 23h1m2 0h1"/><path stroke="#6514dc" d="M25 23h1"/><path stroke="#5519af" d="M15 24h1"/></svg>