<svg xmlns="http://www.w3.org/2000/svg" shape-rendering="crispEdges" viewBox="0 -0.5 38 38"><path stroke="#7124ee" d="M7 6h1m0 1h1m0 1h7m1 0h6M6 9h1m4 0h2m1 0h4m1 0h3m1 0h3M7 10h19M5 11h1m6 0h7m1 0h3m1 0h2M6 12h2m4 3h1m6 0h1m6 0h1m-8 1h2m5 0h1m-15 1h2m5 0h2m4 0h1m-14 1h14m-14 1h5m7 0h2m-14 1h5m7 0h2m-12 1h3m8 0h1m-13 1h7m5 0h1"/><path stroke="#6514dd" d="M8 8h1m1 1h1m-3 4h3m0 1h2m6 0h1m6 0h1m-14 2h1m4 0h1m6 0h1m-12 1h3m4 0h4m-13 4h1m4 0h1m-6 1h1m2 1h4"/><path stroke="#7125ee" d="M16 8h1m-4 1h1m8 0h1"/><path stroke="#5518ae" d="M9 9h1"/><path stroke="#7024ee" d="M18 9h1m-7 7h1m0 5h1"/><path stroke="#03102a" d="M8 11h3m-3 1h1m2 0h5m3 0h4m2 0h1m-15 1h4m2 0h5m2 0h2m-13 1h1m2 0h3m1 0h1m2 0h2m-11 1h3m5 0h2m-10 1h2m5 0h2"/><path stroke="#7124ef" d="M11 11h1m7 0h1m3 0h1m-6 6h1"/><path stroke="#00102f" d="M9 12h2"/><path stroke="#29447a" d="M16 12h2m5 0h2m-10 1h2m5 0h2m-10 1h2m5 0h2m-3 1h1"/><path stroke="#03102b" d="M18 12h1"/><path stroke="#02102a" d="M26 12h1m-2 2h1m-5 1h1"/><path stroke="#6515dd" d="M7 13h1"/><path stroke="#03112a" d="M26 13h1"/><path stroke="#5519ae" d="M8 14h3m0 2h1m-1 1h1m14 0h1m-16 1h1m14 0h1m-16 1h1m14 1h1m-13 4h6m1 0h3"/><path stroke="#5518af" d="M11 15h1"/><path stroke="#29457a" d="M13 15h1"/><path stroke="#081630" d="M17 15h1"/><path stroke="#091630" d="M18 15h1m6 0h1m-10 1h2m5 0h2"/><path stroke="#091730" d="M24 15h1"/><path stroke="#6415dc" d="M17 17h1"/><path stroke="#ff7f08" d="M17 19h1m1 0h3m-4 1h1m2 0h1m1 0h1m-4 1h5m-3 1h3"/><path stroke="#fe7f08" d="M18 19h1"/><path stroke="#ff9112" d="M22 19h2"/><path stroke="#5419ae" d="M26 19h1m-16 1h1m8 4h1"/><path stroke="#f26d00" d="M17 20h1m0 1h2m0 1h2"/><path stroke="#ff7f09" d="M19 20h1"/><path stroke="#a7431d" d="M20 20h1"/><path stroke="#a7431c" d="M22 20h1"/><path stroke="#641ecc" d="M12 23h3m4 0h7"/></svg>