<svg xmlns="http://www.w3.org/2000/svg" shape-rendering="crispEdges" viewBox="0 -0.5 38 38"><path stroke="#7124ee" d="M7 6h1m1 2h4m1 0h1m1 0h7M6 9h1m4 0h3m1 0h6m1 0h3M7 10h4m1 0h10m1 0h3m-15 1h10m1 0h1m1 0h2M6 12h2m4 3h1m-1 1h1m6 0h1m6 0h1m-15 1h2m4 0h3m4 0h1m-13 1h6m1 0h4m1 0h1m-14 1h5m7 0h2m-14 1h5m7 0h2m-13 1h2m1 0h1m8 0h1m-13 1h3m1 0h1m1 0h1m5 0h1"/><path stroke="#7024ee" d="M8 7h1m12 2h1m0 1h1M5 11h1"/><path stroke="#641ecc" d="M8 8h1m1 1h1m-4 4h4m6 8h1m-6 1h1m-1 1h11m1 0h2"/><path stroke="#7125ee" d="M13 8h1m11 1h1m-2 9h1m-9 4h1"/><path stroke="#7124ef" d="M15 8h1m-2 1h1m-4 1h1m9 1h1m1 0h1m-12 7h1m6 0h1m-5 3h1m2 1h1"/><path stroke="#5519ae" d="M9 9h1m-2 5h3m0 1h1m-1 1h1m-1 1h1m14 0h1m-16 1h1m14 0h1m-16 1h1m14 0h1m-16 1h1m14 0h1m-12 4h7m1 0h1"/><path stroke="#95ffc0" d="M8 11h1m-1 1h8m3 0h3m3 0h2m-16 1h1m1 0h2m2 0h5m2 0h3m-11 1h3m1 0h1m2 0h3m-12 1h3m1 0h1m3 0h1m2 0h1m-12 1h2m1 0h1m3 0h4"/><path stroke="#95fec0" d="M9 11h2m6 4h1m3 0h1m2 0h1"/><path stroke="#aaffd1" d="M16 12h2m5 0h2m-10 1h2m5 0h2m-10 1h2m5 0h2m-10 1h1"/><path stroke="#95ffc1" d="M18 12h1m-7 1h1m0 1h1m2 2h1"/><path stroke="#94fec0" d="M22 12h1"/><path stroke="#315074" d="M11 14h2m6 0h1m6 0h1m-8 1h1m6 0h1m-14 1h1m4 0h1m1 0h1m4 0h1m-12 1h4m3 0h4"/><path stroke="#aaffd0" d="M20 15h1"/><path stroke="#94ffc0" d="M23 15h1"/><path stroke="#ff7f08" d="M17 19h5m-4 1h1m2 0h1m1 0h1m-4 1h5m-3 1h3"/><path stroke="#ff9113" d="M22 19h1"/><path stroke="#ff9112" d="M23 19h1"/><path stroke="#f26d00" d="M17 20h1m0 1h2"/><path stroke="#ff7f09" d="M19 20h1"/><path stroke="#a7431c" d="M20 20h1m1 0h1"/><path stroke="#651ecc" d="M12 21h1"/><path stroke="#f26d01" d="M20 22h1"/><path stroke="#f36d00" d="M21 22h1"/><path stroke="#641fcc" d="M23 23h1"/><path stroke="#5519af" d="M14 24h1m7 0h1"/></svg>