<svg xmlns="http://www.w3.org/2000/svg" shape-rendering="crispEdges" viewBox="0 -0.5 38 38"><path stroke="#7124ee" d="M7 6h1m0 1h1m0 1h2m2 0h10M6 9h1m6 0h2m1 0h2m1 0h2m1 0h4M7 10h3m2 0h1m4 0h2m1 0h2m1 0h3M5 11h1m4 0h3m8 0h4M7 12h2m1 0h4m-5 1h2m1 0h2m4 0h1m-7 1h2m-2 1h1m5 0h2m-8 1h2m4 0h3m-9 1h2m4 0h1m1 0h1m4 0h1m-14 1h1m2 0h1m1 0h1m1 0h2m1 0h4m-14 1h5m7 0h2m-14 1h5m7 0h1m-12 1h4m8 0h1m-13 1h5m1 0h1m5 0h1"/><path stroke="#6414dd" d="M8 8h1m-2 5h1m17 3h1m-14 6h1"/><path stroke="#7024ef" d="M11 8h1"/><path stroke="#7125ee" d="M12 8h1m9 2h1M8 13h1m2 0h1m6 1h2m-7 1h1m7 3h1"/><path stroke="#171332" d="M10 9h1m8 4h1m5 0h2m-3 1h2m-6 1h1m1 0h2m1 0h1m-5 1h1m1 0h2"/><path stroke="#1b192f" d="M11 9h2m0 1h4m0 1h2m1 0h1m4 0h1m-5 1h2m1 0h2m-6 1h5m-5 1h4"/><path stroke="#7024ee" d="M15 9h1m3 8h1m-6 1h1m1 0h1m1 0h1"/><path stroke="#7124ef" d="M18 9h1m2 0h1m-3 1h1M6 12h1m2 0h1m3 6h1m11 2h1m-8 2h1"/><path stroke="#6514dd" d="M10 10h2m-3 1h1m3 0h4m-6 3h1m4 3h2m3 0h3m-12 4h1m4 0h1m-3 2h4"/><path stroke="#19133a" d="M26 10h1"/><path stroke="#5519ae" d="M8 11h1m-1 3h3m15 0h1m-16 1h1m14 0h1m-16 1h1m14 0h1m-16 1h1m14 0h1m-16 1h1m14 0h1m-16 1h1m14 0h1m-16 1h1m14 0h1m-13 4h10"/><path stroke="#1a192f" d="M19 11h1m0 1h1"/><path stroke="#232134" d="M26 11h1"/><path stroke="#c4e5f8" d="M14 12h2"/><path stroke="#000049" d="M16 12h2m-2 1h2m-4 1h4m-4 1h3m-3 1h2m1 0h1"/><path stroke="#171333" d="M18 12h2m6 0h1m-6 3h1m2 0h1"/><path stroke="#1b192e" d="M23 12h1"/><path stroke="#def0fb" d="M14 13h2"/><path stroke="#010049" d="M17 15h1m-2 1h1"/><path stroke="#161332" d="M22 16h1"/><path stroke="#6515dd" d="M14 17h1"/><path stroke="#6514dc" d="M15 17h1m8 0h1"/><path stroke="#fe7e08" d="M17 19h1"/><path stroke="#ff7f08" d="M18 19h2m-2 1h1m2 0h1m-2 1h5m-3 1h3"/><path stroke="#ff7e08" d="M20 19h1m2 1h1"/><path stroke="#fe7f08" d="M21 19h1m-3 1h1"/><path stroke="#ff9112" d="M22 19h2"/><path stroke="#f26d00" d="M17 20h1m2 2h2"/><path stroke="#a7431c" d="M20 20h1m1 0h1"/><path stroke="#f26d01" d="M18 21h2"/><path stroke="#641ecc" d="M12 23h3m4 0h3m1 0h3"/><path stroke="#641ecd" d="M22 23h1"/></svg>