<svg xmlns="http://www.w3.org/2000/svg" shape-rendering="crispEdges" viewBox="0 -0.5 38 38"><path stroke="#7124ee" d="M15 8h6m1 0h1M13 9h6m1 0h5M7 10h4m1 0h2m2 0h7m1 0h2M9 11h1m1 0h1m1 0h4m1 0h7M9 12h2m1 0h2m4 0h1m1 0h1m4 0h1m-14 1h2m4 0h3m4 0h1m-13 1h1m4 0h3m-9 1h2m4 0h3m4 0h1m-14 1h2m5 0h2m-9 1h2m4 0h3m4 0h1m-13 1h1m1 0h9m1 0h1m-14 1h1m1 0h3m7 0h2m-13 1h4m8 0h1m-13 1h1m2 0h1m-1 1h2"/><path stroke="#7024ee" d="M21 8h1m-3 1h1m-5 1h1m7 0h1m-5 2h1m-2 4h1m5 2h1"/><path stroke="#6514dd" d="M10 9h1m14 0h1m-15 1h1m-4 1h1m16 0h1M7 12h1m3 0h1m-6 1h1m7 4h2m1 0h1m3 0h4m-8 4h1m7 0h1m-8 1h2m5 0h1"/><path stroke="#7124ef" d="M11 9h2m1 1h1m-3 1h1m4 0h1m-6 3h1m-1 4h1m1 0h1m-2 1h1m-2 1h1m1 1h1"/><path stroke="#7125ee" d="M10 11h1m14 3h1m-1 2h1m-2 4h1m-10 1h1"/><path stroke="#5519ae" d="M8 12h1m17 0h1M7 13h5m14 0h1m-17 1h2m14 0h1m-16 1h1m14 0h1m-16 1h1m14 0h1m-16 1h1m14 0h1m-16 1h1m-1 1h1m14 0h1m-16 1h1"/><path stroke="#522401" d="M14 12h1"/><path stroke="#522400" d="M15 12h3m3 0h2m-9 1h1m2 0h1m3 0h1m2 0h1m-11 1h1m2 0h1m3 0h1m2 0h1m-11 1h1m2 0h1m3 0h1m2 0h1m-11 1h2m1 0h1m3 0h4"/><path stroke="#532500" d="M23 12h1"/><path stroke="#532400" d="M24 12h1m-9 4h1"/><path stroke="#1f1106" d="M15 13h2m5 0h2m-9 1h2m5 0h2m-8 1h1m5 0h2"/><path stroke="#1f1107" d="M15 15h1"/><path stroke="#6514dc" d="M16 17h1"/><path stroke="#5518ae" d="M26 18h1"/><path stroke="#ff7f08" d="M17 19h5m-4 1h2m1 0h1m1 0h1m-4 1h3m-1 1h3"/><path stroke="#ff9112" d="M22 19h2"/><path stroke="#f26d00" d="M17 20h1m0 1h2m1 1h1"/><path stroke="#a6431c" d="M20 20h1"/><path stroke="#a7431c" d="M22 20h1"/><path stroke="#5519af" d="M26 20h1"/><path stroke="#5d24ee" d="M12 21h1m-1 1h4m0 1h4m1 0h5"/><path stroke="#ff7f09" d="M23 21h2"/><path stroke="#f26d01" d="M20 22h1"/><path stroke="#4521ba" d="M12 23h3m1 1h9"/><path stroke="#4521bb" d="M15 23h1"/><path stroke="#5d25ee" d="M20 23h1"/><path stroke="#1d37aa" d="M14 24h2m-1 1h1m2 0h7m-6 1h4"/><path stroke="#1c37aa" d="M16 25h1"/><path stroke="#1d37ab" d="M17 25h1"/><path stroke="#1663b1" d="M16 26h1m1 1h2"/><path stroke="#1662b1" d="M17 26h1"/><path stroke="#1d36ab" d="M18 26h1"/><path stroke="#4b9dcc" d="M23 26h1m-4 1h2"/><path stroke="#4b9dcd" d="M22 27h1"/></svg>