<svg xmlns="http://www.w3.org/2000/svg" shape-rendering="crispEdges" viewBox="0 -0.5 38 38"><path stroke="#7124ee" d="M7 6h1m0 1h1m0 1h8m3 0h3M6 9h1m4 0h5m1 0h7m1 0h1M7 10h5m1 0h3m1 0h3m1 0h1m1 0h3M5 11h1m4 0h1m1 0h1m1 0h8m1 0h3M6 12h4m1 0h9m1 0h2m1 0h2M8 13h3m1 0h1m5 0h3m4 0h1m-14 1h2m4 0h3m-9 1h2m4 0h3m4 0h1m-14 1h3m2 0h4m3 0h2m-14 1h9m2 0h3m-14 1h5m1 0h5m1 0h1m-13 1h5m7 0h2m-14 1h3m1 0h1m-3 1h1m10 0h1m-12 1h5m6 0h1"/><path stroke="#6514dd" d="M8 8h1m1 1h1m-2 2h1m-3 2h1m6 0h4m3 0h4m-14 1h1m4 0h1m5 0h1m-9 1h1m9 0h1m-10 1h2m5 0h2m-12 5h1m4 0h1m-6 1h1m-1 1h2m2 0h10"/><path stroke="#7124ef" d="M17 8h1m-6 2h1m3 0h1m-4 1h1m8 0h1m2 9h1m-13 2h1m5 0h1"/><path stroke="#7024ee" d="M18 8h2m-4 1h1m5 1h1m-13 2h1m9 0h1m2 0h1m-13 1h1m13 1h1m-5 2h1m-1 1h1m-5 1h1m7 0h1m-13 3h1"/><path stroke="#5519ae" d="M9 9h1m-2 2h1m17 1h1m-1 1h1M8 14h3m15 0h1m-16 1h1m14 0h1m-16 1h1m14 0h1m-16 1h1m14 0h1m-1 1h1m-16 1h1m-1 1h1m14 0h1m-13 4h10"/><path stroke="#7125ee" d="M24 9h1m-5 1h1m-10 1h1m1 2h1m1 7h1m8 0h1m-10 1h2"/><path stroke="#010049" d="M14 14h1"/><path stroke="#6514dc" d="M15 14h1m-2 9h1"/><path stroke="#000049" d="M17 14h1m3 0h1m2 0h1m-10 1h2m5 0h2"/><path stroke="#6414dd" d="M23 14h1m-3 1h1m-7 8h1"/><path stroke="#6515dd" d="M17 15h1"/><path stroke="#7025ee" d="M22 17h1"/><path stroke="#5519af" d="M11 18h1"/><path stroke="#7125ef" d="M23 18h1"/><path stroke="#ff7f08" d="M17 19h5m-4 1h2m1 0h1m1 0h1m-4 1h5m-1 1h1"/><path stroke="#ff9112" d="M22 19h1"/><path stroke="#ff9012" d="M23 19h1"/><path stroke="#5518ae" d="M26 19h1"/><path stroke="#f26d00" d="M17 20h1m1 1h1m0 1h2"/><path stroke="#a7431c" d="M20 20h1"/><path stroke="#a7421c" d="M22 20h1"/><path stroke="#f26c00" d="M18 21h1"/><path stroke="#ff7e08" d="M22 22h1"/><path stroke="#fe7f08" d="M23 22h1"/></svg>