<svg xmlns="http://www.w3.org/2000/svg" shape-rendering="crispEdges" viewBox="0 -0.5 38 38"><path stroke="#7124ee" d="M7 6h1m0 1h1m0 1h2m1 0h11M6 9h1m4 0h13m1 0h1M7 10h7m1 0h3m1 0h5m1 0h1m-16 1h1m1 0h14M6 12h6m1 0h1m4 0h3M8 13h4m7 0h2m4 0h1m-14 1h1m7 0h1m4 0h1m-8 1h3m4 0h1m-14 1h2m4 0h3m4 0h1m-14 1h2m4 0h3m4 0h1m-14 1h7m2 0h5m-13 1h4m7 0h2m-14 1h1m1 0h1m1 0h1m7 0h2m-13 1h1m1 0h2m8 0h1m-13 1h7m5 0h1"/><path stroke="#6514dd" d="M8 8h1m0 3h1m-3 2h1m3 1h1m2 3h4m3 0h3m-12 4h1m4 0h1m-6 1h1m2 1h1m1 0h2"/><path stroke="#7024ee" d="M11 8h1m0 5h1"/><path stroke="#5519ae" d="M9 9h1m-2 2h1m17 1h1m-1 1h1M8 14h1m1 0h1m15 0h1m-16 1h1m14 0h1m-16 1h1m14 0h1m-16 1h1m14 1h1m-16 1h1m14 0h1m-16 1h1m14 0h1m-13 4h9"/><path stroke="#6414dc" d="M10 9h1"/><path stroke="#7025ef" d="M24 9h1"/><path stroke="#7125ee" d="M14 10h1m9 0h1m-14 1h1m13 1h1m-8 2h1m1 4h1m-6 2h1"/><path stroke="#7124ef" d="M18 10h1M5 11h1m6 1h1m0 1h1m4 0h1m-6 1h1m5 0h1m-8 1h2m-2 4h1"/><path stroke="#fff" d="M14 12h2m5 0h2m-9 1h1m6 0h2m-9 1h2m5 0h1"/><path stroke="#ff0c27" d="M16 12h1m6 0h1m-8 1h1m6 0h1m-8 1h1m5 0h2m-10 1h1m1 0h1m4 0h3"/><path stroke="#f6001b" d="M17 12h1m6 0h1m-8 2h1m6 0h1m-8 1h1m6 0h1m-11 1h4m3 0h1m1 0h2"/><path stroke="#fffeff" d="M15 13h1"/><path stroke="#f7001b" d="M17 13h1m4 3h1"/><path stroke="#f6001a" d="M24 13h1"/><path stroke="#5519af" d="M9 14h1m16 3h1"/><path stroke="#ff0c26" d="M15 15h1"/><path stroke="#6414dd" d="M24 17h1"/><path stroke="#5419ae" d="M11 18h1"/><path stroke="#7024ef" d="M19 18h1m-6 3h1"/><path stroke="#ff7f08" d="M17 19h1m1 0h2m-3 1h2m2 1h3m-3 1h3"/><path stroke="#fe7f08" d="M18 19h1m4 1h1"/><path stroke="#ff7e08" d="M21 19h1m-1 2h1"/><path stroke="#ff9112" d="M22 19h2"/><path stroke="#7025ee" d="M13 20h1"/><path stroke="#f26d00" d="M17 20h1m0 1h2m0 1h2"/><path stroke="#a7431c" d="M20 20h1m1 0h1"/><path stroke="#ff7e09" d="M21 20h1"/><path stroke="#ff7f09" d="M20 21h1"/><path stroke="#641ecc" d="M12 23h3m4 0h7"/><path stroke="#6515dd" d="M16 23h1"/><path stroke="#5518ae" d="M23 24h1"/></svg>