<svg xmlns="http://www.w3.org/2000/svg" shape-rendering="crispEdges" viewBox="0 -0.5 38 38"><path stroke="#7124ee" d="M7 6h1m0 1h1m0 1h10m1 0h3M6 9h1m4 0h1m1 0h13M7 10h3m1 0h3m1 0h4m1 0h1m1 0h2m1 0h1M5 11h1m4 0h12m1 0h3M6 12h2m1 0h1m1 0h2m5 0h2m5 0h1M8 13h1m1 0h4m4 0h3m4 0h1m-13 1h1m4 0h3m4 0h1m-14 1h2m4 0h3m-8 1h1m5 0h2m4 0h1m-14 1h2m4 0h1m1 0h1m4 0h1m-14 1h1m2 0h10m-12 1h4m7 0h2m-14 1h5m7 0h2m-13 1h4m8 0h1m-13 1h3m1 0h3m5 0h1"/><path stroke="#6514dd" d="M8 8h1m1 1h1m-2 2h1m-3 2h1m6 4h1m1 0h2m3 0h1m1 0h2m-13 4h1m4 0h1m-6 2h5m1 0h7"/><path stroke="#7124ef" d="M19 8h1m-1 2h1m1 0h1M8 12h1m0 1h1m9 4h1m-7 1h1"/><path stroke="#5519ae" d="M9 9h1m-2 2h1m17 1h1m-1 1h1M9 14h2m0 1h1m14 0h1m-16 1h1m14 0h1m-16 1h1m14 0h1m-1 1h1m-16 1h1m14 0h1m-16 1h1m14 0h1m-13 4h2m1 0h1m1 0h3m1 0h1"/><path stroke="#7125ee" d="M12 9h1m0 3h1m-2 2h1m-1 2h1m5 0h1m-5 2h1"/><path stroke="#7125ef" d="M10 10h1m-1 2h1"/><path stroke="#7024ef" d="M14 10h1"/><path stroke="#7024ee" d="M24 10h1m-3 1h1m-3 1h1m4 3h1m-1 3h1m-14 1h1m3 3h1"/><path stroke="#441b82" d="M14 12h1m9 0h1m-4 4h1"/><path stroke="#451a82" d="M15 12h1m6 0h1"/><path stroke="#451b82" d="M16 12h2m3 0h1m1 0h1m-10 4h4m4 0h3"/><path stroke="#f4defb" d="M14 13h1m6 0h1m-8 1h1m-1 1h1m6 0h1"/><path stroke="#16167a" d="M15 13h2m5 0h1"/><path stroke="#000049" d="M17 13h1m-2 1h1m5 0h3m-10 1h3m4 0h1m1 0h1"/><path stroke="#16167b" d="M23 13h1"/><path stroke="#000149" d="M24 13h1m-8 1h1m5 1h1"/><path stroke="#5518ae" d="M8 14h1m7 10h1"/><path stroke="#6515dd" d="M11 14h1m3 3h1"/><path stroke="#000048" d="M15 14h1"/><path stroke="#f5defb" d="M21 14h1"/><path stroke="#5519af" d="M26 14h1m-16 4h1m6 6h1"/><path stroke="#6514dc" d="M22 17h1m2 6h1"/><path stroke="#ff7f08" d="M17 19h4m-3 1h2m1 0h1m1 0h1m-4 1h1m3 0h1m-3 1h2"/><path stroke="#fe7f08" d="M21 19h1m-1 2h1"/><path stroke="#ff9112" d="M22 19h1"/><path stroke="#fe9012" d="M23 19h1"/><path stroke="#f26d00" d="M17 20h1m0 1h2m0 1h2"/><path stroke="#a7431c" d="M20 20h1m1 0h1"/><path stroke="#ff7e08" d="M22 21h2"/><path stroke="#6414dd" d="M12 22h1m4 1h1"/><path stroke="#ff7f09" d="M24 22h1"/><path stroke="#5419ae" d="M22 24h1"/></svg>