<svg xmlns="http://www.w3.org/2000/svg" viewBox="0 -0.5 38 38" shape-rendering="crispEdges">
<metadata>Made with Pixels to Svg https://codepen.io/shshaw/pen/XbxvNj</metadata>
<path stroke="#959595" d="M4 20h1M1 22h1M3 32h1M4 33h1M6 33h1M8 33h1M7 34h1" />
<path stroke="#a2a2a2" d="M5 20h1M2 22h1" />
<path stroke="#d0d0d0" d="M6 20h1M5 21h1M7 21h1M4 22h1M6 22h1M2 24h1M2 25h1" />
<path stroke="#cacaca" d="M7 20h1M3 23h1" />
<path stroke="#959495" d="M3 21h1" />
<path stroke="#bdbdbd" d="M4 21h1M2 23h1" />
<path stroke="#cfcfcf" d="M6 21h1" />
<path stroke="#b4b4b4" d="M8 21h1" />
<path stroke="#bbbbbb" d="M3 22h1" />
<path stroke="#d0d0d1" d="M5 22h1" />
<path stroke="#cdcccd" d="M7 22h1" />
<path stroke="#b9b9b9" d="M8 22h2M9 23h1M8 24h2M5 25h1M8 25h1M5 26h1M5 27h1M2 28h1" />
<path stroke="#b1b1b1" d="M10 22h1M6 24h1M6 25h1M6 26h1M6 27h1M5 28h1M2 30h1M2 31h1" />
<path stroke="#a2a2a3" d="M1 23h1" />
<path stroke="#839aad" d="M4 23h2" />
<path stroke="#8599aa" d="M6 23h1M4 25h1" />
<path stroke="#b9b9b8" d="M7 23h1" />
<path stroke="#b8b9b9" d="M8 23h1M10 23h1M3 30h1" />
<path stroke="#a3a2a2" d="M1 24h1" />
<path stroke="#bcbcbd" d="M3 24h1" />
<path stroke="#8499aa" d="M4 24h1" />
<path stroke="#cdcdcd" d="M5 24h1M1 26h2M2 27h1" />
<path stroke="#536f86" d="M7 24h1" />
<path stroke="#9d9d9d" d="M10 24h1M9 25h2M8 26h3M8 27h3M8 28h2M7 29h3M4 30h3M3 31h5M4 32h1M6 32h1M7 35h1" />
<path stroke="#d1d1d1" d="M1 25h1" />
<path stroke="#bbbaba" d="M3 25h1" />
<path stroke="#536f87" d="M7 25h1M7 26h1" />
<path stroke="#bababa" d="M3 26h1" />
<path stroke="#4b657d" d="M4 26h1M4 27h1M4 28h1M4 29h1" />
<path stroke="#c7c7c7" d="M1 27h1M1 28h1" />
<path stroke="#9e9e9e" d="M3 27h1M1 29h1M3 29h1" />
<path stroke="#0c3256" d="M7 27h1" />
<path stroke="#9e9e9f" d="M3 28h1" />
<path stroke="#919191" d="M6 28h1M10 28h1M9 30h1M8 31h2M7 32h1M4 34h1M6 34h1M4 35h3" />
<path stroke="#0c3356" d="M7 28h1" />
<path stroke="#b9b8b9" d="M2 29h1" />
<path stroke="#002547" d="M5 29h2" />
<path stroke="#767676" d="M10 29h1M9 32h1M5 36h2" />
<path stroke="#9d9c9d" d="M7 30h1" />
<path stroke="#9c9d9d" d="M8 30h1M5 32h1" />
<path stroke="#a1a1a1" d="M2 32h1" />
<path stroke="#919190" d="M8 32h1" />
<path stroke="#949595" d="M3 33h1" />
<path stroke="#929292" d="M5 33h1M7 33h1" />
<path stroke="#7b7a7a" d="M3 34h1" />
<path stroke="#919091" d="M5 34h1" />
<path stroke="#7a7a7a" d="M8 34h1" />
</svg>