<svg xmlns="http://www.w3.org/2000/svg" viewBox="0 -0.5 38 38" shape-rendering="crispEdges">
<metadata>Made with Pixels to Svg https://codepen.io/shshaw/pen/XbxvNj</metadata>
<path stroke="#000000" d="M28 24h2M27 25h1M30 27h1M30 28h1M30 29h1" />
<path stroke="#000100" d="M30 25h1M30 26h1" />
<path stroke="#1823e1" d="M29 29h1M31 29h1M28 30h5M30 31h3M30 32h2M30 33h3M30 34h3M30 35h3M31 36h1M31 37h1" />
<path stroke="#0b15c9" d="M28 31h2M28 32h2M29 33h1M28 35h2M29 36h2M29 37h2" />
<path stroke="#1823e0" d="M32 32h1" />
<path stroke="#0b15c8" d="M28 33h1" />
<path stroke="#0a15c9" d="M28 34h2" />
</svg>