<svg xmlns="http://www.w3.org/2000/svg" viewBox="0 -0.5 38 38" shape-rendering="crispEdges">
<metadata>Made with Pixels to Svg https://codepen.io/shshaw/pen/XbxvNj</metadata>
<path stroke="#fddc24" d="M21 12h5M21 13h1M21 14h1M21 15h1M21 16h1M27 17h1M28 18h1" />
<path stroke="rgba(166,217,236,0.47058823529411764)" d="M22 13h3M22 14h3M22 15h3" />
<path stroke="#f0bf0f" d="M25 13h1M25 14h1M25 15h1M24 16h1M26 17h1" />
<path stroke="#f0bf0e" d="M22 16h2" />
<path stroke="#da9f22" d="M25 16h1" />
<path stroke="#fddd24" d="M28 19h1" />
<path stroke="#f1bf0f" d="M28 20h1M28 21h1" />
<path stroke="#db9f22" d="M27 22h1M26 23h1" />
</svg>