<svg xmlns="http://www.w3.org/2000/svg" viewBox="0 -0.5 38 38" shape-rendering="crispEdges">
<metadata>Made with Pixels to Svg https://codepen.io/shshaw/pen/XbxvNj</metadata>
<path stroke="#000000" d="M6 23h1M5 24h1M8 24h1M5 25h1M5 26h1M5 27h1M5 28h1" />
<path stroke="#010000" d="M7 23h1" />
<path stroke="#1823e1" d="M4 28h1M6 28h1M3 29h3M7 29h1M3 30h2M3 31h3M3 32h3M3 33h3M3 34h2M4 35h1M4 36h1M4 37h1" />
<path stroke="#1923e1" d="M6 29h1" />
<path stroke="#1923e0" d="M5 30h1" />
<path stroke="#0b15c9" d="M6 30h2M6 31h2M6 32h2M6 33h1M6 34h2M5 35h2M5 36h2M5 37h2" />
<path stroke="#0b14c9" d="M7 33h1" />
<path stroke="#1823e0" d="M5 34h1" />
</svg>