<svg xmlns="http://www.w3.org/2000/svg" viewBox="0 -0.5 38 38" shape-rendering="crispEdges">
<metadata>Made with Pixels to Svg https://codepen.io/shshaw/pen/XbxvNj</metadata>
<path stroke="rgba(188,172,158,0.13333333333333333)" d="M31 0h2M34 0h3M30 1h7M30 2h1M32 2h3M31 3h2M34 3h1M28 4h1M31 4h4M31 5h2M35 5h2" />
<path stroke="rgba(188,173,158,0.13333333333333333)" d="M33 0h1M28 5h1" />
<path stroke="rgba(188,172,159,0.13333333333333333)" d="M31 2h1M35 2h1M33 3h1M33 5h1" />
<path stroke="rgba(189,172,158,0.13333333333333333)" d="M36 4h1" />
<path stroke="rgba(191,175,154,0.18823529411764706)" d="M28 6h1M31 6h3M31 7h1M33 7h1M32 8h2M35 8h1M34 9h1M35 10h1M33 11h2" />
<path stroke="rgba(191,175,155,0.18823529411764706)" d="M29 7h1M32 7h1M34 10h1" />
<path stroke="rgba(191,174,155,0.18823529411764706)" d="M34 7h1" />
<path stroke="rgba(190,175,154,0.18823529411764706)" d="M34 8h1M30 9h1" />
<path stroke="rgba(191,174,154,0.18823529411764706)" d="M35 9h1M35 11h1" />
<path stroke="rgba(189,174,155,0.25882352941176473)" d="M32 12h3M32 13h1M32 14h2" />
<path stroke="rgba(188,174,155,0.25882352941176473)" d="M33 13h1" />
<path stroke="rgba(189,175,154,0.25882352941176473)" d="M36 14h1" />
<path stroke="rgba(188,175,154,0.3568627450980392)" d="M32 15h1M33 16h1" />
<path stroke="rgba(189,174,154,0.3568627450980392)" d="M33 15h1M33 18h1" />
<path stroke="rgba(188,174,154,0.3568627450980392)" d="M34 15h1M34 16h1M33 17h1" />
<path stroke="#596a59" d="M31 18h1M29 19h2M28 20h3M25 21h4" />
<path stroke="#ffc82d" d="M32 18h1" />
<path stroke="#8c4734" d="M31 19h1" />
<path stroke="#ff8600" d="M32 19h1" />
<path stroke="#8d4734" d="M33 19h1M31 20h1M32 21h1" />
<path stroke="#596a58" d="M27 20h1" />
<path stroke="#c42f07" d="M32 20h1" />
<path stroke="#8d4634" d="M33 20h1" />
<path stroke="#4f564f" d="M29 21h2M25 22h5" />
<path stroke="#4f564e" d="M31 21h1" />
</svg>