<svg xmlns="http://www.w3.org/2000/svg" viewBox="0 -0.5 38 38" shape-rendering="crispEdges">
<metadata>Made with Pixels to Svg https://codepen.io/shshaw/pen/XbxvNj</metadata>
<path stroke="#eff2f4" d="M32 18h2" />
<path stroke="rgba(211,227,244,0.6392156862745098)" d="M32 19h1" />
<path stroke="rgba(132,135,135,0.40784313725490196)" d="M33 19h1M33 20h1" />
<path stroke="rgba(210,226,244,0.6392156862745098)" d="M32 20h1" />
<path stroke="rgba(255,255,255,0.6392156862745098)" d="M31 21h1" />
<path stroke="rgba(226,239,243,0.8823529411764706)" d="M32 21h1M32 22h1M32 23h1M32 24h1" />
<path stroke="rgba(210,227,244,0.6392156862745098)" d="M33 21h1M33 22h1" />
<path stroke="rgba(125,128,130,0.40784313725490196)" d="M34 21h1M34 22h1" />
<path stroke="rgba(197,219,241,0.6392156862745098)" d="M31 22h1" />
<path stroke="rgba(79,114,189,0.8784313725490196)" d="M31 23h1M34 23h1M31 24h1M34 24h1M31 25h1M34 25h1M34 26h1M31 27h1M34 27h1M31 28h4" />
<path stroke="rgba(108,146,204,0.9019607843137255)" d="M33 23h1" />
<path stroke="rgba(108,147,204,0.9019607843137255)" d="M33 24h1M32 25h2M32 26h2M32 27h2" />
<path stroke="rgba(79,115,189,0.8784313725490196)" d="M31 26h1" />
</svg>