<svg xmlns="http://www.w3.org/2000/svg" viewBox="0 -0.5 38 38" shape-rendering="crispEdges">
<metadata>Made with Pixels to Svg https://codepen.io/shshaw/pen/XbxvNj</metadata>
<path stroke="#4c5076" d="M31 20h1" />
<path stroke="#4d5076" d="M32 20h3M35 21h1M29 22h1M32 22h2M36 22h1M29 23h1M32 23h1M29 24h1M32 24h2M29 25h1M32 25h1M36 25h1M30 26h1M35 26h1M31 27h4" />
<path stroke="#4d5176" d="M30 21h1M34 23h1" />
<path stroke="#ffffff" d="M31 21h2M30 22h1" />
<path stroke="#fafafa" d="M33 21h2M34 22h1M30 23h2M33 23h1M30 24h2M34 24h1M30 25h1M33 25h1" />
<path stroke="#fbfafb" d="M31 22h1" />
<path stroke="#f6f7f7" d="M35 22h1" />
<path stroke="#f7f7f7" d="M35 23h1M35 24h1M34 25h1M31 26h4" />
<path stroke="#4d5077" d="M36 23h1M36 24h1" />
<path stroke="#fafafb" d="M31 25h1" />
<path stroke="#f7f6f7" d="M35 25h1" />
<path stroke="#64366a" d="M30 28h1M35 28h1M29 29h1M36 29h1M32 30h2M36 30h1M29 31h3M34 31h2" />
<path stroke="#eabee2" d="M31 28h4M30 29h2M34 29h2M30 30h1" />
<path stroke="#c894bf" d="M32 29h1M31 30h1M35 30h1" />
<path stroke="#c994bf" d="M33 29h1M34 30h1" />
<path stroke="#64376a" d="M29 30h1M36 31h1" />
</svg>