<svg xmlns="http://www.w3.org/2000/svg" viewBox="0 -0.5 38 38" shape-rendering="crispEdges">
<metadata>Made with Pixels to Svg https://codepen.io/shshaw/pen/XbxvNj</metadata>
<path stroke="#000000" d="M6 23h2M5 24h1M8 24h1M5 25h1M5 27h1M5 28h1" />
<path stroke="#000001" d="M5 26h1" />
<path stroke="#e78290" d="M4 28h1M6 28h1M3 29h5M3 30h3M3 31h3M3 32h2M3 33h3M3 34h1M5 34h1M4 35h1M4 36h1M4 37h1" />
<path stroke="#e56482" d="M6 30h2M6 31h2M6 32h2M6 33h2M6 34h1M5 35h2M5 36h2M5 37h1" />
<path stroke="#e78291" d="M5 32h1" />
<path stroke="#e78390" d="M4 34h1" />
<path stroke="#e56583" d="M7 34h1" />
<path stroke="#e56582" d="M6 37h1" />
</svg>