<svg xmlns="http://www.w3.org/2000/svg" viewBox="0 -0.5 38 38" shape-rendering="crispEdges">
<metadata>Made with Pixels to Svg https://codepen.io/shshaw/pen/XbxvNj</metadata>
<path stroke="#4d5076" d="M4 20h1M6 20h1M3 21h1M8 21h1M2 22h1M5 22h2M9 22h1M2 23h1M5 23h1M7 23h1M9 23h1M2 24h1M5 24h1M9 24h1M2 25h1M5 25h1M9 25h1M3 26h1M8 26h1M4 27h2" />
<path stroke="#4c5076" d="M5 20h1" />
<path stroke="#4d5077" d="M7 20h1M6 24h1M7 27h1" />
<path stroke="#feffff" d="M4 21h1" />
<path stroke="#ffffff" d="M5 21h1M3 22h1" />
<path stroke="#fafafa" d="M6 21h2M4 22h1M7 22h1M3 23h2M3 24h2M7 24h1M4 25h1M6 25h1" />
<path stroke="#f7f7f7" d="M8 22h1M8 24h1M7 25h2M6 26h2" />
<path stroke="#fbfafa" d="M6 23h1" />
<path stroke="#f7f7f6" d="M8 23h1" />
<path stroke="#fafafb" d="M3 25h1" />
<path stroke="#f7f6f7" d="M4 26h1" />
<path stroke="#f6f7f7" d="M5 26h1" />
<path stroke="#4d5176" d="M6 27h1" />
<path stroke="#64366a" d="M3 28h1M9 29h1M9 30h1M2 31h3M7 31h3" />
<path stroke="#eabee2" d="M4 28h4M3 29h2M7 29h2" />
<path stroke="#65366a" d="M8 28h1" />
<path stroke="#64376a" d="M2 29h1M5 30h1" />
<path stroke="#c894bf" d="M5 29h2M4 30h1M7 30h2" />
<path stroke="#64366b" d="M2 30h1M6 30h1" />
<path stroke="#ebbee2" d="M3 30h1" />
</svg>