<svg xmlns="http://www.w3.org/2000/svg" viewBox="0 -0.5 38 38" shape-rendering="crispEdges">
<metadata>Made with Pixels to Svg https://codepen.io/shshaw/pen/XbxvNj</metadata>
<path stroke="#fbf236" d="M5 14h1M4 15h2M5 16h1M2 17h2M5 17h1M7 17h2M1 18h1M3 18h1M6 18h3M5 19h1M3 20h2M6 20h1M3 21h1M6 21h1" />
<path stroke="#fbf237" d="M6 15h1" />
<path stroke="#fbf336" d="M4 16h1M2 18h1" />
<path stroke="#ffd85e" d="M6 16h1M4 17h1M6 17h1M5 18h1M9 18h1M2 19h3M6 19h3M5 20h1M7 20h1M4 21h1M7 21h1M3 22h1M7 22h1" />
<path stroke="#faf236" d="M4 18h1" />
<path stroke="#c856ac" d="M5 21h1" />
<path stroke="#ff79df" d="M5 22h1M5 23h1M5 24h1M5 25h1M5 26h1" />
<path stroke="#c856ad" d="M5 27h1" />
</svg>