<svg xmlns="http://www.w3.org/2000/svg" viewBox="0 -0.5 38 38" shape-rendering="crispEdges">
<metadata>Made with Pixels to Svg https://codepen.io/shshaw/pen/XbxvNj</metadata>
<path stroke="#929b9d" d="M29 19h1M33 29h1M35 30h1" />
<path stroke="#929b9c" d="M30 19h1M37 26h1M32 29h1M37 29h1M33 30h2M36 30h1M34 31h1M32 32h1M31 33h2" />
<path stroke="#707677" d="M31 19h1M30 20h1M32 20h1M31 21h1M34 26h2M33 27h4M34 28h1M36 28h1M31 29h1M32 30h1M31 32h1" />
<path stroke="#b3d9e9" d="M32 19h1M34 19h1M35 20h2M30 24h1M32 25h1" />
<path stroke="#b3d9e8" d="M33 19h1" />
<path stroke="#53565c" d="M28 20h2M30 21h1M30 22h1M36 24h2M35 25h3M32 28h1M34 29h3M31 30h1M31 31h3" />
<path stroke="#717777" d="M31 20h1" />
<path stroke="#889ea8" d="M33 20h1M37 22h1M35 23h2M34 25h1M32 26h2" />
<path stroke="#899ea9" d="M34 20h1" />
<path stroke="#b2d9e9" d="M37 20h1" />
<path stroke="#53565d" d="M29 21h1M33 28h1" />
<path stroke="#889ea9" d="M32 21h1M33 25h1" />
<path stroke="#5c6569" d="M33 21h1M36 22h1" />
<path stroke="#64747e" d="M34 21h2M34 22h2" />
<path stroke="#9cbed1" d="M36 21h1M33 22h1M30 25h2M31 26h1" />
<path stroke="#b3d8e9" d="M37 21h1M31 24h1" />
<path stroke="rgba(155,190,210,0.5725490196078431)" d="M26 22h1M26 27h1M26 28h1M28 32h1" />
<path stroke="rgba(147,155,155,0.5725490196078431)" d="M27 22h1M27 28h1M29 33h2" />
<path stroke="#697487" d="M31 22h1M34 24h2M28 25h1M31 27h1M30 29h1" />
<path stroke="#7e9cb3" d="M32 22h1M31 23h1M33 23h2M32 24h2M29 25h1M29 26h2M30 27h1" />
<path stroke="rgba(178,217,233,0.5725490196078431)" d="M25 23h1" />
<path stroke="#7e9db3" d="M32 23h1" />
<path stroke="#707676" d="M37 23h1M36 26h1M35 28h1M37 28h1" />
<path stroke="#a5bdc6" d="M29 24h1M30 28h2" />
<path stroke="rgba(178,217,232,0.5725490196078431)" d="M25 26h1M25 27h1M28 31h1" />
<path stroke="#697586" d="M32 27h1" />
<path stroke="#717677" d="M37 27h1" />
<path stroke="rgba(154,190,210,0.5725490196078431)" d="M29 32h1" />
<path stroke="rgba(84,87,93,0.5725490196078431)" d="M35 32h1" />
<path stroke="#52565c" d="M31 34h1" />
</svg>