<svg xmlns="http://www.w3.org/2000/svg" viewBox="0 -0.5 38 38" shape-rendering="crispEdges">
<metadata>Made with Pixels to Svg https://codepen.io/shshaw/pen/XbxvNj</metadata>
<path stroke="#6bf53d" d="M7 16h1M6 18h1M5 19h2M5 20h2M4 22h2M5 23h1M4 24h1M4 25h1M3 26h2M4 27h1M3 28h1M2 29h1M2 30h2M2 31h1M1 33h2M1 34h2M1 36h1" />
<path stroke="#28d940" d="M8 16h2M7 17h1M9 17h1M7 18h2M7 19h1M7 20h1M6 21h1M6 22h1M5 24h1M5 25h1M4 28h1M3 31h1M3 32h1M2 35h1M2 36h1" />
<path stroke="#6bf43d" d="M6 17h1M2 32h1" />
<path stroke="#178463" d="M8 17h1" />
<path stroke="#1eba64" d="M9 18h1M8 19h1M8 20h1M7 21h1M7 22h1M6 23h1M6 24h1M6 25h1M5 26h1M5 28h1M4 29h1M4 30h1M4 31h1M4 32h1M3 33h1M3 34h1M3 35h1M3 37h1" />
<path stroke="#6af53d" d="M5 21h1" />
<path stroke="#6bf53c" d="M4 23h1M3 27h1M3 29h1M1 35h1M1 37h1" />
<path stroke="#1eba65" d="M5 27h1" />
<path stroke="#1fbb64" d="M3 36h1" />
<path stroke="#28d840" d="M2 37h1" />
</svg>