<svg xmlns="http://www.w3.org/2000/svg" viewBox="0 -0.5 38 38" shape-rendering="crispEdges">
<metadata>Made with Pixels to Svg https://codepen.io/shshaw/pen/XbxvNj</metadata>
<path stroke="#000000" d="M28 24h2M27 25h1M30 25h1M30 27h1M30 28h1M30 29h1" />
<path stroke="#000100" d="M30 26h1" />
<path stroke="#e78290" d="M29 29h1M31 29h1M28 30h5M30 31h3M31 32h2M30 33h3M30 34h1M32 34h1M30 35h3M31 36h1" />
<path stroke="#e56483" d="M28 31h1M29 35h1" />
<path stroke="#e56482" d="M29 31h1M28 32h2M28 33h2M28 34h1M28 35h1M29 36h2M29 37h1" />
<path stroke="#e78390" d="M30 32h1M31 34h1" />
<path stroke="#e56582" d="M29 34h1" />
<path stroke="#e46482" d="M30 37h1" />
<path stroke="#e78291" d="M31 37h1" />
</svg>