<svg xmlns="http://www.w3.org/2000/svg" viewBox="0 -0.5 38 38" shape-rendering="crispEdges">
<metadata>Made with Pixels to Svg https://codepen.io/shshaw/pen/XbxvNj</metadata>
<path stroke="#fffc84" d="M34 16h1M33 17h1M33 18h1M32 20h2M32 21h1M31 22h2M31 23h2M31 25h1M30 26h2M30 27h1M30 28h1M29 29h2M30 30h1M29 31h1M29 32h1M28 33h2M28 34h2M28 35h1" />
<path stroke="#f1e24a" d="M35 16h1M34 17h1M36 17h1M34 18h2M34 19h1M34 20h1M33 21h1M32 24h1M32 25h1M30 31h1M30 32h1M29 35h1M29 36h1M29 37h1" />
<path stroke="#f1e34a" d="M36 16h1" />
<path stroke="#b88d13" d="M35 17h1" />
<path stroke="#d8b535" d="M36 18h1M35 20h1M34 21h1M34 22h1M33 23h1M33 24h1M33 25h1M32 26h1M32 27h1M32 28h1M31 30h1M31 31h1M30 33h1M30 34h1M30 35h1M30 36h1" />
<path stroke="#fefc84" d="M32 19h1M31 24h1M28 37h1" />
<path stroke="#fffc85" d="M33 19h1" />
<path stroke="#d9b534" d="M35 19h1" />
<path stroke="#f1e24b" d="M33 22h1" />
<path stroke="#fefc85" d="M31 27h1" />
<path stroke="#f0e24a" d="M31 28h1" />
<path stroke="#d8b534" d="M31 29h1M31 32h1M30 37h1" />
<path stroke="#fffd84" d="M29 30h1M28 36h1" />
</svg>