<svg xmlns="http://www.w3.org/2000/svg" viewBox="0 -0.5 38 38" shape-rendering="crispEdges">
<metadata>Made with Pixels to Svg https://codepen.io/shshaw/pen/XbxvNj</metadata>
<path stroke="#feffff" d="M32 8h1" />
<path stroke="#ffffea" d="M33 8h1" />
<path stroke="#fffeea" d="M34 8h1M31 12h1M32 16h1" />
<path stroke="#eafffe" d="M32 9h1M29 13h1" />
<path stroke="#feeaff" d="M34 9h1M34 10h1M31 14h1M32 17h1" />
<path stroke="#eaffec" d="M32 10h2M29 14h2M31 17h1" />
<path stroke="#ffffff" d="M29 12h2M31 16h1M32 19h1" />
<path stroke="#ffeaff" d="M31 13h1" />
<path stroke="#eafeff" d="M30 18h1" />
<path stroke="#64403e" d="M30 20h1M33 20h1M31 21h2M27 22h4" />
<path stroke="#7e4e4b" d="M31 20h2" />
<path stroke="#64413e" d="M25 21h2" />
<path stroke="#64403f" d="M27 21h1" />
<path stroke="#50343d" d="M30 21h1" />
<path stroke="#50353d" d="M33 21h1M25 22h2M27 23h1M29 23h1" />
<path stroke="#50343c" d="M31 22h1" />
<path stroke="#3b242b" d="M32 22h1" />
<path stroke="#51353d" d="M28 23h1" />
</svg>