<svg xmlns="http://www.w3.org/2000/svg" viewBox="0 -0.5 38 38" shape-rendering="crispEdges">
<metadata>Made with Pixels to Svg https://codepen.io/shshaw/pen/XbxvNj</metadata>
<path stroke="#ff006b" d="M30 18h2M29 19h1M29 20h1" />
<path stroke="#6bf53d" d="M36 18h1M36 19h1" />
<path stroke="#d00057" d="M30 19h1" />
<path stroke="#7e2f0b" d="M31 20h1" />
<path stroke="rgba(255,255,255,0.6784313725490196)" d="M32 20h2M31 21h1M30 22h1M30 23h1M29 24h1M29 25h1M29 28h1M31 30h1M32 32h1M32 33h1M30 34h2" />
<path stroke="rgba(255,255,255,0.43137254901960786)" d="M34 20h1M34 21h1M35 22h1M35 23h1M36 24h1M36 25h1M36 26h1M36 27h1M36 28h1M29 29h2M35 29h2M32 30h3M33 31h1M33 32h1M33 33h1M35 34h1" />
<path stroke="#28d940" d="M35 20h1M35 21h1" />
<path stroke="#fff6db" d="M32 21h2M31 22h1" />
<path stroke="#bc874c" d="M32 22h2" />
<path stroke="#1eba64" d="M34 22h1" />
<path stroke="#f3e7c3" d="M31 23h2M30 24h2M31 25h1M33 25h2M31 26h1M33 26h1M33 27h1M30 28h2M31 29h1" />
<path stroke="#c4d88c" d="M33 23h1M33 24h1M32 25h1M32 26h1M31 27h1" />
<path stroke="#e3d2b9" d="M34 23h1M35 25h1M34 26h2M34 27h2M32 28h4M33 29h2" />
<path stroke="#f2e7c3" d="M32 24h1M30 27h1" />
<path stroke="#f2e7c2" d="M34 24h1" />
<path stroke="#e3d3b9" d="M35 24h1" />
<path stroke="#fff6da" d="M30 25h1M30 26h1" />
<path stroke="rgba(255,254,255,0.6784313725490196)" d="M29 26h1M29 27h1" />
<path stroke="#f3e6c3" d="M32 27h1" />
<path stroke="#e3d2b8" d="M32 29h1" />
<path stroke="rgba(255,255,254,0.6784313725490196)" d="M32 31h1" />
<path stroke="rgba(255,255,254,0.43137254901960786)" d="M32 34h1M34 34h1" />
<path stroke="rgba(255,254,255,0.43137254901960786)" d="M33 34h1" />
</svg>