<svg xmlns="http://www.w3.org/2000/svg" viewBox="0 -0.5 38 38" shape-rendering="crispEdges">
<metadata>Made with Pixels to Svg https://codepen.io/shshaw/pen/XbxvNj</metadata>
<path stroke="#6bf53d" d="M34 16h1M33 17h1M33 18h1M32 19h2M32 20h2M32 21h1M31 22h1M31 23h2M31 24h1M31 25h1M30 26h2M30 27h2M30 28h1M29 29h2M29 30h2M29 31h1M29 32h1M28 33h2M28 34h2M28 35h1M28 36h1M28 37h1" />
<path stroke="#28d940" d="M35 16h2M34 17h1M36 17h1M35 18h1M34 19h1M34 20h1M33 21h1M33 22h1M31 28h1M30 31h1M29 35h1M29 36h1" />
<path stroke="#178463" d="M35 17h1" />
<path stroke="#29d940" d="M34 18h1M32 24h1M30 32h1M29 37h1" />
<path stroke="#1eba64" d="M36 18h1M35 19h1M34 21h1M34 22h1M33 23h1M33 24h1M32 26h1M32 27h1M32 28h1M31 29h1M31 30h1M31 32h1M30 33h1M30 35h1M30 36h1M30 37h1" />
<path stroke="#1fba64" d="M35 20h1" />
<path stroke="#6bf43d" d="M32 22h1" />
<path stroke="#28d941" d="M32 25h1" />
<path stroke="#1ebb65" d="M33 25h1" />
<path stroke="#1ebb64" d="M31 31h1M30 34h1" />
</svg>