<svg xmlns="http://www.w3.org/2000/svg" viewBox="0 -0.5 38 38" shape-rendering="crispEdges">
<metadata>Made with Pixels to Svg https://codepen.io/shshaw/pen/XbxvNj</metadata>
<path stroke="#bd5a02" d="M29 18h1" />
<path stroke="#b04b00" d="M30 18h1" />
<path stroke="#ffc96d" d="M31 18h4" />
<path stroke="#b04a00" d="M35 18h1" />
<path stroke="#bd5b02" d="M36 18h1" />
<path stroke="#a24501" d="M28 19h1" />
<path stroke="#a24500" d="M29 19h1" />
<path stroke="#873900" d="M30 19h1M30 20h1M35 20h2M32 23h2" />
<path stroke="#ffb83f" d="M31 19h4M31 20h3" />
<path stroke="#843800" d="M35 19h2M28 20h2" />
<path stroke="#feb83f" d="M34 20h1" />
<path stroke="#6d2200" d="M29 21h2M36 21h1M32 22h1" />
<path stroke="#f0a424" d="M31 21h2" />
<path stroke="#f0a629" d="M33 21h2" />
<path stroke="#6d2300" d="M35 21h1" />
<path stroke="#6d2201" d="M33 22h1" />
<path stroke="#964507" d="M32 24h2" />
<path stroke="#6a2100" d="M32 25h2M32 28h2M32 29h2" />
<path stroke="#813802" d="M32 26h2M32 27h2" />
</svg>