<svg xmlns="http://www.w3.org/2000/svg" viewBox="0 -0.5 38 38" shape-rendering="crispEdges">
<metadata>Made with Pixels to Svg https://codepen.io/shshaw/pen/XbxvNj</metadata>
<path stroke="#fbf336" d="M32 14h1M31 18h1" />
<path stroke="#fbf236" d="M31 15h2M31 16h2M29 17h2M32 17h1M34 17h1M28 18h2M33 18h3M32 19h1M30 20h2M33 20h1M30 21h1M33 21h1" />
<path stroke="#faf236" d="M33 15h1M35 17h1M30 18h1" />
<path stroke="#ffd85e" d="M33 16h1M31 17h1M33 17h1M32 18h1M36 18h1M29 19h3M33 19h3M32 20h1M34 20h1M31 21h1M34 21h1M30 22h1M34 22h1" />
<path stroke="#c856ad" d="M32 21h1M32 27h1" />
<path stroke="#ff79df" d="M32 22h1M32 23h1M32 25h1M32 26h1" />
<path stroke="#fe78df" d="M32 24h1" />
</svg>