<svg xmlns="http://www.w3.org/2000/svg" viewBox="0 -0.5 38 38" shape-rendering="crispEdges">
<metadata>Made with Pixels to Svg https://codepen.io/shshaw/pen/XbxvNj</metadata>
<path stroke="#fcfaf6" d="M24 20h4M29 20h1M31 20h4M29 21h1M32 21h2M33 22h2M25 23h1M33 23h2M24 24h1M26 24h1M32 24h2M25 25h3M31 25h4M26 26h3M30 26h5M24 27h3M28 27h4M33 27h1" />
<path stroke="#fcfaf7" d="M28 20h1M26 21h1M34 24h1M24 25h1" />
<path stroke="#fcfbf6" d="M30 20h1M25 24h1M32 27h1" />
<path stroke="#f3e9e1" d="M25 21h1M25 22h1M24 23h1" />
<path stroke="#e6001a" d="M27 21h2M31 21h1M26 22h1M28 22h4M27 23h2M27 24h1M29 26h1" />
<path stroke="#e6001b" d="M30 21h1M26 23h1" />
<path stroke="#fdfaf6" d="M34 21h1M24 26h2M27 27h1M34 27h1" />
<path stroke="#ff3d3d" d="M27 22h1" />
<path stroke="#d40017" d="M32 22h1M28 24h4M28 25h3" />
<path stroke="#e6011a" d="M29 23h1" />
<path stroke="#d40116" d="M30 23h1" />
<path stroke="#d50017" d="M31 23h2" />
</svg>