<svg xmlns="http://www.w3.org/2000/svg" viewBox="0 -0.5 38 38" shape-rendering="crispEdges">
<metadata>Made with Pixels to Svg https://codepen.io/shshaw/pen/XbxvNj</metadata>
<path stroke="#eff2f4" d="M4 18h2" />
<path stroke="rgba(210,227,244,0.6392156862745098)" d="M4 19h1M4 20h1M5 21h1M5 22h1" />
<path stroke="rgba(132,135,135,0.40784313725490196)" d="M5 19h1M5 20h1" />
<path stroke="rgba(255,255,255,0.6392156862745098)" d="M3 21h1" />
<path stroke="rgba(226,238,243,0.8823529411764706)" d="M4 21h1" />
<path stroke="rgba(125,128,130,0.40784313725490196)" d="M6 21h1M6 22h1" />
<path stroke="rgba(197,219,241,0.6392156862745098)" d="M3 22h1" />
<path stroke="rgba(226,239,243,0.8823529411764706)" d="M4 22h1M4 23h1" />
<path stroke="rgba(79,114,189,0.8784313725490196)" d="M3 23h1M6 23h1M3 24h1M6 24h1M3 25h1M6 25h1M3 26h1M6 26h1M3 27h1M6 27h1M3 28h3" />
<path stroke="rgba(108,147,205,0.9019607843137255)" d="M5 23h1" />
<path stroke="rgba(227,239,243,0.8823529411764706)" d="M4 24h1" />
<path stroke="rgba(108,147,204,0.9019607843137255)" d="M5 24h1M4 25h2M4 26h1M4 27h2" />
<path stroke="rgba(109,147,204,0.9019607843137255)" d="M5 26h1" />
<path stroke="rgba(79,114,188,0.8784313725490196)" d="M6 28h1" />
</svg>