<svg xmlns="http://www.w3.org/2000/svg" viewBox="0 -0.5 38 38" shape-rendering="crispEdges">
<metadata>Made with Pixels to Svg https://codepen.io/shshaw/pen/XbxvNj</metadata>
<path stroke="#000000" d="M6 23h2M5 24h1M5 25h1M5 27h1M5 28h1" />
<path stroke="#000001" d="M8 24h1" />
<path stroke="#000100" d="M5 26h1" />
<path stroke="#29d940" d="M4 28h1M4 33h2" />
<path stroke="#28d940" d="M6 28h1M4 29h2M7 29h1M3 30h3M3 31h3M3 32h3M3 33h1M3 34h1M5 34h1M4 35h1M4 36h1" />
<path stroke="#28d941" d="M3 29h1M6 29h1" />
<path stroke="#1eba64" d="M6 30h2M6 31h2M6 32h2M6 33h1M6 34h2M5 35h2M5 36h2M5 37h2" />
<path stroke="#1ebb64" d="M7 33h1" />
<path stroke="#28d840" d="M4 34h1M4 37h1" />
</svg>