<svg xmlns="http://www.w3.org/2000/svg" viewBox="0 -0.5 38 38" shape-rendering="crispEdges">
<metadata>Made with Pixels to Svg https://codepen.io/shshaw/pen/XbxvNj</metadata>
<path stroke="#fffc84" d="M7 16h1M6 17h1M5 19h1M5 20h1M5 21h1M4 22h2M4 23h2M4 24h1M4 25h1M4 26h1M3 27h2M3 28h1M2 29h2M2 30h1M2 31h1M2 32h1M1 33h2M1 34h2M1 35h1M1 36h1M1 37h1" />
<path stroke="#f1e24a" d="M8 16h2M7 17h1M9 17h1M7 18h2M7 19h1M7 20h1M5 25h1M4 28h1M3 31h1M3 32h1M2 35h1M2 36h1M2 37h1" />
<path stroke="#b88d12" d="M8 17h1" />
<path stroke="#fefc84" d="M6 18h1M6 19h1" />
<path stroke="#d8b535" d="M9 18h1M8 19h1M8 20h1M7 21h1M7 22h1M6 23h1M6 24h1M6 25h1M5 26h1M5 27h1M5 28h1M4 29h1M4 31h1M4 32h1M3 33h1M3 35h1M3 36h1M3 37h1" />
<path stroke="#fffd84" d="M6 20h1M3 26h1" />
<path stroke="#f1e34a" d="M6 21h1" />
<path stroke="#f0e24a" d="M6 22h1" />
<path stroke="#f1e24b" d="M5 24h1" />
<path stroke="#fefd84" d="M3 30h1" />
<path stroke="#d8b435" d="M4 30h1" />
<path stroke="#d8b534" d="M3 34h1" />
</svg>