<svg xmlns="http://www.w3.org/2000/svg" viewBox="0 -0.5 38 38" shape-rendering="crispEdges">
<metadata>Made with Pixels to Svg https://codepen.io/shshaw/pen/XbxvNj</metadata>
<path stroke="#bd5b02" d="M2 18h1M9 18h1" />
<path stroke="#b04b00" d="M3 18h1M8 18h1" />
<path stroke="#ffc96d" d="M4 18h4" />
<path stroke="#a24501" d="M1 19h1" />
<path stroke="#a24400" d="M2 19h1" />
<path stroke="#873800" d="M3 19h1" />
<path stroke="#ffb83f" d="M4 19h4M4 20h4" />
<path stroke="#843800" d="M8 19h2M1 20h2" />
<path stroke="#873900" d="M3 20h1M8 20h2M6 23h1" />
<path stroke="#6d2200" d="M2 21h2M8 21h1M5 22h2" />
<path stroke="#f0a424" d="M4 21h2" />
<path stroke="#f0a629" d="M6 21h1" />
<path stroke="#f1a728" d="M7 21h1" />
<path stroke="#6d2201" d="M9 21h1" />
<path stroke="#873901" d="M5 23h1" />
<path stroke="#964407" d="M5 24h1" />
<path stroke="#964507" d="M6 24h1" />
<path stroke="#6a2100" d="M5 25h2M5 28h2M5 29h1" />
<path stroke="#813902" d="M5 26h1" />
<path stroke="#813802" d="M6 26h1M5 27h2" />
<path stroke="#6a2000" d="M6 29h1" />
</svg>