<svg xmlns="http://www.w3.org/2000/svg" viewBox="0 -0.5 38 38" shape-rendering="crispEdges">
<metadata>Made with Pixels to Svg https://codepen.io/shshaw/pen/XbxvNj</metadata>
<path stroke="#ff006b" d="M3 18h2M2 19h1M2 20h1" />
<path stroke="#6bf53d" d="M9 18h1M9 19h1" />
<path stroke="#d00157" d="M3 19h1" />
<path stroke="#7e2e0b" d="M4 20h1" />
<path stroke="rgba(255,254,255,0.6784313725490196)" d="M5 20h1M4 30h1" />
<path stroke="rgba(254,255,255,0.6784313725490196)" d="M6 20h1M2 25h1" />
<path stroke="rgba(255,255,255,0.43137254901960786)" d="M7 20h1M7 21h1M8 23h1M9 24h1M9 25h1M9 26h1M9 27h1M3 29h1M8 29h2M5 30h3M6 31h1M6 32h1M6 33h1M6 34h1M8 34h1" />
<path stroke="#28d940" d="M8 20h1M8 21h1" />
<path stroke="rgba(255,255,255,0.6784313725490196)" d="M4 21h1M3 22h1M3 23h1M2 24h1M2 26h1M2 27h1M2 28h1M5 31h1M5 32h1M5 33h1M3 34h2" />
<path stroke="#fff6db" d="M5 21h2M4 22h1M3 25h1M3 26h1" />
<path stroke="#bc874c" d="M5 22h2" />
<path stroke="#1ebb64" d="M7 22h1" />
<path stroke="rgba(255,255,254,0.43137254901960786)" d="M8 22h1" />
<path stroke="#f3e7c3" d="M4 23h2M4 24h2M4 25h1M6 25h2M4 26h1M6 26h1M3 27h1M5 27h2M3 28h2M4 29h1" />
<path stroke="#c4d88c" d="M6 23h1M6 24h1M5 26h1M4 27h1" />
<path stroke="#e3d2b9" d="M7 23h1M8 25h1M8 26h1M7 27h2M5 28h3M5 29h3" />
<path stroke="#f3e7c2" d="M3 24h1" />
<path stroke="#f2e7c3" d="M7 24h1" />
<path stroke="#e2d2b9" d="M8 24h1" />
<path stroke="#c4d88d" d="M5 25h1" />
<path stroke="#e2d3b9" d="M7 26h1" />
<path stroke="#e3d3b9" d="M8 28h1" />
<path stroke="rgba(254,255,255,0.43137254901960786)" d="M9 28h1M2 29h1" />
<path stroke="rgba(254,254,255,0.43137254901960786)" d="M5 34h1" />
<path stroke="rgba(255,254,255,0.43137254901960786)" d="M7 34h1" />
</svg>