<svg xmlns="http://www.w3.org/2000/svg" viewBox="0 -0.5 38 38" shape-rendering="crispEdges">
<metadata>Made with Pixels to Svg https://codepen.io/shshaw/pen/XbxvNj</metadata>
<path stroke="#000000" d="M28 24h2M27 25h1M30 25h1M30 26h1M30 27h1M30 28h1M30 29h1" />
<path stroke="#29d940" d="M29 29h1" />
<path stroke="#28d940" d="M31 29h1M28 30h3M32 30h1M30 31h2M30 32h3M30 33h3M30 34h3M30 35h3M31 36h1M31 37h1" />
<path stroke="#29d840" d="M31 30h1" />
<path stroke="#1eba65" d="M28 31h1" />
<path stroke="#1eba64" d="M29 31h1M28 32h2M28 33h2M28 34h2M28 35h2M29 36h2M29 37h2" />
<path stroke="#28d941" d="M32 31h1" />
</svg>