<svg xmlns="http://www.w3.org/2000/svg" viewBox="0 -0.5 38 38" shape-rendering="crispEdges">
<metadata>Made with Pixels to Svg https://codepen.io/shshaw/pen/XbxvNj</metadata>
<path stroke="#0783ff" d="M7 16h1M6 18h1M5 19h2M5 20h2M5 21h1M4 22h2M4 23h2M4 24h1M4 25h1M3 26h2M3 27h2M2 29h2M3 30h1M2 31h1M2 32h1M1 33h2M1 34h1M1 36h1" />
<path stroke="#0065fe" d="M8 16h2M7 17h1M9 17h1M8 18h1M7 19h1M7 20h1M6 21h1M6 22h1M5 24h1M5 25h1M4 28h1M3 31h1M3 32h1M2 36h1" />
<path stroke="#0782ff" d="M6 17h1M2 30h1M1 37h1" />
<path stroke="#072ec0" d="M8 17h1" />
<path stroke="#0065ff" d="M7 18h1M2 35h1M2 37h1" />
<path stroke="#0056e8" d="M9 18h1M8 19h1M8 20h1M7 22h1M6 24h1M6 25h1M5 26h1M5 27h1M5 28h1M4 29h1M4 30h1M4 31h1M4 32h1M3 33h1M3 35h1M3 37h1" />
<path stroke="#0056e9" d="M7 21h1M3 34h1" />
<path stroke="#0057e8" d="M6 23h1" />
<path stroke="#0783fe" d="M3 28h1M2 34h1M1 35h1" />
<path stroke="#0156e8" d="M3 36h1" />
</svg>