<svg xmlns="http://www.w3.org/2000/svg" viewBox="0 -0.5 38 38" shape-rendering="crispEdges">
<metadata>Made with Pixels to Svg https://codepen.io/shshaw/pen/XbxvNj</metadata>
<path stroke="#b3d9e9" d="M3 19h3M0 20h3M0 21h1M6 24h2M5 25h1" />
<path stroke="#707777" d="M6 19h1" />
<path stroke="#929b9c" d="M7 19h1M0 26h1M0 29h1M5 29h1M2 30h1M3 31h1M5 33h2" />
<path stroke="#939b9c" d="M8 19h1M4 29h1M4 30h1" />
<path stroke="#889ea8" d="M3 20h2M0 22h1M1 23h2M3 25h2M4 26h2" />
<path stroke="#707677" d="M5 20h1M6 21h1M0 23h1M1 26h3M0 27h5M0 28h4M6 29h1M5 30h1M6 32h1" />
<path stroke="#717677" d="M6 20h1" />
<path stroke="#707676" d="M7 20h1" />
<path stroke="#53565c" d="M8 20h2M7 21h2M7 22h1M0 24h2M0 25h3M4 28h2M1 29h3M6 30h1M4 31h3M6 34h1" />
<path stroke="#9cbed1" d="M1 21h1M4 22h1M6 25h2M6 26h1" />
<path stroke="#64747e" d="M2 21h2M2 22h2" />
<path stroke="#5d6569" d="M4 21h1" />
<path stroke="#899ea8" d="M5 21h1" />
<path stroke="#5c6569" d="M1 22h1" />
<path stroke="#7e9cb3" d="M5 22h1M3 23h4M5 24h1M8 25h1M7 26h2M7 27h1" />
<path stroke="#697586" d="M6 22h1" />
<path stroke="rgba(147,155,155,0.5725490196078431)" d="M10 22h1M10 28h1M7 33h2" />
<path stroke="rgba(155,190,210,0.5725490196078431)" d="M11 22h1M11 28h1M8 32h1" />
<path stroke="rgba(178,217,232,0.5725490196078431)" d="M12 23h1M12 26h1M12 27h1M9 31h1" />
<path stroke="#697487" d="M2 24h2M9 25h1M5 27h1M7 29h1" />
<path stroke="#7e9db3" d="M4 24h1" />
<path stroke="#a5bdc6" d="M8 24h1M7 28h1" />
<path stroke="#697486" d="M6 27h1" />
<path stroke="rgba(155,191,210,0.5725490196078431)" d="M11 27h1" />
<path stroke="#a5bcc6" d="M6 28h1" />
<path stroke="#929b9d" d="M1 30h1M3 30h1" />
<path stroke="rgba(84,86,93,0.5725490196078431)" d="M2 32h1" />
<path stroke="#929a9c" d="M5 32h1" />
<path stroke="rgba(155,190,211,0.5725490196078431)" d="M9 32h1" />
</svg>