<svg xmlns="http://www.w3.org/2000/svg" viewBox="0 -0.5 38 38" shape-rendering="crispEdges">
<metadata>Made with Pixels to Svg https://codepen.io/shshaw/pen/XbxvNj</metadata>
<path stroke="#7ed4ff" d="M0 0h11M7 1h3M11 1h1M10 2h2M27 5h1M26 8h1M21 9h1M26 9h1M11 10h1M21 10h1M27 10h2M30 10h3M34 10h1M20 11h2M31 11h2M34 11h1M36 11h2M1 12h3M25 12h1M34 12h4M5 13h2M19 13h2M24 13h1M28 13h2M35 13h1M37 13h1M24 14h1M30 14h3M34 14h4M6 15h1M18 15h2M23 15h1M6 16h1M17 16h1M22 16h1M16 17h2M5 18h1M15 18h2M18 18h3M8 19h8M17 19h3M34 19h3M3 20h1M6 20h7M14 20h4M28 20h3M1 21h2M5 21h2M10 21h2M25 21h1M36 21h1M0 22h2M11 22h4M24 22h1M35 22h1M11 23h1M13 23h2M22 23h1M27 23h1M29 23h2M11 24h1M13 24h1M15 24h10M26 24h1M31 24h1M11 25h1M14 25h2" />
<path stroke="#a2deff" d="M11 0h14M26 0h1M28 0h4M33 0h2M36 0h2M12 1h1M14 1h3M18 1h3M22 1h1M25 1h1M27 1h11M13 2h1M15 2h5M21 2h5M27 2h10M12 3h17M30 3h4M26 4h1M28 4h2M17 6h3M21 6h1M26 6h1M7 7h1M16 7h5M22 7h1M24 7h1M6 8h1M10 8h1M15 8h2M21 8h3M2 9h1M8 9h7M23 9h3M0 10h4M7 10h4M22 10h5M0 11h11M22 11h6M29 11h2M6 12h5M21 12h3M31 12h3M7 13h1M9 13h2M21 13h2M34 13h1M36 13h1M7 14h3M7 15h3M20 15h2M7 16h2M18 16h2M6 17h3M18 17h1M7 18h2M17 18h1M7 19h1M16 19h1M31 20h5M3 21h2M26 21h6M34 21h1M2 22h1M25 22h6M32 22h2M0 23h3M33 23h2M0 24h2M36 25h1" />
<path stroke="#a2dfff" d="M25 0h1M21 1h1M14 2h1M26 2h1M12 4h1M20 8h1M21 14h1M32 21h1M3 22h1" />
<path stroke="#a2defe" d="M27 0h1M35 0h1M13 1h1M23 1h2M29 3h1M27 4h1M20 6h1M21 7h1M28 11h1M8 13h1M33 13h1M20 14h1M31 22h1M34 22h1M35 24h1" />
<path stroke="#a3deff" d="M32 0h1M26 1h1M20 2h1M24 8h2M26 12h1M22 14h1M20 16h1M33 21h1" />
<path stroke="#63d2ff" d="M0 1h3M4 1h3M0 2h1M2 2h8M37 2h1M2 3h2M5 3h7M35 3h3M7 4h1M9 4h3M30 4h8M28 5h1M30 5h1M32 5h1M34 5h4M27 6h5M33 6h5M27 7h4M32 7h1M17 8h3M15 9h5M12 10h1M14 10h3M18 10h3M11 11h4M16 11h1M18 11h2M11 12h6M1 13h1M3 13h2M11 13h3M25 13h2M1 14h4M10 14h3M25 14h5M5 15h1M10 15h2M24 15h7M32 15h3M9 16h2M23 16h1M29 16h2M32 16h6M9 17h1M22 17h3M33 17h1M35 17h1M37 17h1M21 18h2M20 19h2M18 20h1M14 21h4" />
<path stroke="#63d3ff" d="M3 1h1M29 5h1M33 5h1M31 7h1M17 11h1M2 13h1M5 14h1M35 15h2M24 16h2M34 17h1M19 20h1" />
<path stroke="#7fd4ff" d="M10 1h1M12 2h1M29 10h1M33 10h1M27 13h1M19 14h1M26 20h1M21 23h1M23 23h1M25 24h1M16 25h1" />
<path stroke="#a2dffe" d="M17 1h1" />
<path stroke="#63d2fe" d="M1 2h1M4 3h1M31 5h1M32 6h1M20 9h1M13 10h1M15 11h1" />
<path stroke="#7cddff" d="M0 3h1M0 4h5M6 4h1M0 5h2M4 5h7M0 6h1M3 6h1M5 6h4M0 7h7M33 7h5M0 8h1M2 8h4M27 8h11M0 9h1M28 9h10M35 10h3M0 12h1M17 12h1M19 12h1M0 13h1M14 13h1M16 13h3M0 14h1M14 14h5M0 15h3M4 15h1M12 15h1M14 15h4M37 15h1M0 16h4M5 16h1M11 16h1M13 16h4M26 16h1M28 16h1M0 17h2M3 17h1M5 17h1M10 17h1M12 17h2M15 17h1M25 17h1M27 17h6M0 18h2M3 18h2M9 18h5M23 18h4M28 18h2M31 18h1M33 18h2M36 18h2M2 19h2M22 19h3M26 19h8M37 19h1M1 20h2M20 20h2M23 20h3M37 20h1M0 21h1M18 21h6M35 21h1M15 22h3M19 22h2M22 22h1M16 23h2M19 23h2" />
<path stroke="#62d2ff" d="M1 3h1M17 10h1M31 15h1M31 16h1M36 17h1" />
<path stroke="#62d3ff" d="M34 3h1" />
<path stroke="#7cddfe" d="M5 4h1M15 13h1M3 15h1M13 15h1M4 16h1M27 16h1M2 17h1M2 18h1M14 18h1M30 18h1M0 19h1M25 19h1M0 20h1M18 22h1" />
<path stroke="#63d3fe" d="M8 4h1" />
<path stroke="#b3e8ff" d="M13 4h1M12 6h1M9 7h1M5 9h1M5 10h1M21 16h1" />
<path stroke="#b3e9ff" d="M14 4h12M11 5h9M21 5h6M9 6h3M13 6h4M22 6h4M8 7h1M10 7h6M23 7h1M25 7h1M7 8h3M11 8h4M3 9h2M6 9h2M4 10h1M6 10h1M24 12h1M27 12h4M23 13h1M30 13h3M23 14h1M22 15h1M19 17h2M6 18h1M5 19h2M5 20h1" />
<path stroke="#7dddff" d="M2 5h1M1 6h2M18 12h1M13 14h1M12 16h1M26 17h1M32 18h1M35 18h1M22 20h1M37 21h1M23 22h1" />
<path stroke="#7cdcff" d="M3 5h1M4 6h1M1 8h1M1 9h1M4 17h1M11 17h1M14 17h1M1 19h1M21 22h1M18 23h1" />
<path stroke="#b2e8ff" d="M20 5h1" />
<path stroke="#7ed5ff" d="M26 7h1M35 11h1M13 20h1M12 21h1M12 23h1M28 23h1M14 24h1" />
<path stroke="#7ed4fe" d="M22 9h1M27 9h1M33 11h1M4 12h2M20 12h1M6 14h1M33 14h1M4 19h1M27 20h1M13 21h1M15 23h1" />
<path stroke="#b3e9fe" d="M21 17h1" />
<path stroke="#7ddcff" d="M27 18h1" />
<path stroke="#b2e9ff" d="M4 20h1" />
<path stroke="#7dddfe" d="M36 20h1" />
<path stroke="#b1c2d0" d="M7 21h3M5 22h1M7 22h4M36 22h2M3 23h3M9 23h2M36 23h2M2 24h2M10 24h1M27 24h4M0 25h2M18 25h2M21 25h5M31 25h1" />
<path stroke="#7cdcfe" d="M24 21h1" />
<path stroke="#a3c5e4" d="M4 22h1" />
<path stroke="#b0c2d0" d="M6 22h1M17 25h1" />
<path stroke="#bfccce" d="M6 23h3M4 24h4M9 24h1M37 24h1M5 25h6M27 25h4M37 25h1M0 26h3M4 26h8M17 26h3M22 26h8M31 26h1M37 26h1M0 27h2M3 27h3M8 27h2M11 27h1M18 27h5M24 27h7M2 28h2M20 28h4M25 28h2M28 28h3M20 29h1M23 29h1" />
<path stroke="#c3e8ec" d="M24 23h3M31 23h1M12 24h1M32 24h2M12 25h1M32 25h2M12 26h1M15 26h2M32 26h1M7 27h1M12 27h2M16 27h2M4 28h2M18 28h1M31 28h1M0 29h3M18 29h2M24 29h1M26 29h2M19 30h5" />
<path stroke="#c2e8ec" d="M32 23h1M14 26h1M6 27h1M25 29h1" />
<path stroke="#b1c2d1" d="M35 23h1M20 25h1" />
<path stroke="#bfcdce" d="M8 24h1M2 25h1M4 25h1M3 26h1M30 26h1M2 27h1M24 28h1M21 29h2" />
<path stroke="#c3e8ed" d="M34 24h1" />
<path stroke="#beccce" d="M36 24h1M3 25h1M21 26h1M10 27h1M0 28h2" />
<path stroke="#c3e9ec" d="M13 25h1" />
<path stroke="#b1c3d0" d="M26 25h1" />
<path stroke="#e5e7dc" d="M34 25h2M13 26h1M33 26h4M14 27h2M6 28h1M8 28h10M32 28h1M3 29h3M14 29h4M28 29h3M0 30h3M16 30h3M24 30h4M18 31h6" />
<path stroke="#bfcccf" d="M20 26h1M23 27h1M31 27h1M27 28h1" />
<path stroke="#e5e7dd" d="M32 27h1" />
<path stroke="#e5e6dc" d="M33 27h1" />
<path stroke="#f0bdb5" d="M34 27h3M33 28h5M7 29h4M12 29h2M31 29h4M36 29h2M3 30h4M8 30h7M28 30h2M31 30h4M1 31h6M8 31h10M24 31h5M1 32h2" />
<path stroke="#e4e7dc" d="M37 27h1M7 28h1M6 29h1" />
<path stroke="#becccf" d="M19 28h1" />
<path stroke="#f1bcb5" d="M11 29h1" />
<path stroke="#f0bdb4" d="M35 29h1M7 30h1M15 30h1" />
<path stroke="#f1bdb5" d="M30 30h1" />
<path stroke="#efc6b8" d="M35 30h3M31 31h7M5 32h3M9 32h1M11 32h4M16 32h2M19 32h1M22 32h2M28 32h1M33 32h3M37 32h1M12 33h1M15 33h1M17 33h2" />
<path stroke="#f3d2c2" d="M0 31h1M9 33h1M29 33h1M0 34h1M37 34h1M9 35h1M31 35h1M37 35h1M0 36h1M20 36h1M28 36h1M32 36h1M26 37h1M29 37h2" />
<path stroke="#f1bdb4" d="M7 31h1" />
<path stroke="#f2d2c2" d="M29 31h2M0 32h1M3 32h2M25 32h1M27 32h1M29 32h4M0 33h9M19 33h5M26 33h3M30 33h1M32 33h1M34 33h4M1 34h2M4 34h1M6 34h7M14 34h10M25 34h4M30 34h3M34 34h3M0 35h3M4 35h5M11 35h8M20 35h1M22 35h6M29 35h2M32 35h4M2 36h2M5 36h1M7 36h2M10 36h1M13 36h1M15 36h4M21 36h1M23 36h5M29 36h1M31 36h1M33 36h1M37 36h1M0 37h2M3 37h3M7 37h5M13 37h5M19 37h3M23 37h3M27 37h1M31 37h2M34 37h2M37 37h1" />
<path stroke="#efc7b8" d="M8 32h1M10 32h1M15 32h1M36 32h1M16 33h1" />
<path stroke="#eec6b8" d="M18 32h1M21 32h1M24 32h1M11 33h1M14 33h1" />
<path stroke="#efc6b9" d="M20 32h1M13 33h1" />
<path stroke="#f2d2c3" d="M26 32h1M33 33h1M3 34h1M24 34h1M36 36h1M18 37h1" />
<path stroke="#f3dac6" d="M10 33h1M24 33h1M31 33h1M5 34h1M13 34h1M28 35h1M36 35h1M1 36h1M6 36h1M11 36h1M19 36h1" />
<path stroke="#f3d3c2" d="M25 33h1" />
<path stroke="#f2cdc0" d="M29 34h1M33 34h1M35 36h1M2 37h1M12 37h1M28 37h1M36 37h1" />
<path stroke="#f2d3c2" d="M3 35h1M10 35h1M19 35h1M21 35h1M4 36h1M12 36h1M14 36h1M22 36h1" />
<path stroke="#f2cdc1" d="M9 36h1M30 36h1M6 37h1" />
<path stroke="#f2d3c3" d="M34 36h1" />
<path stroke="#f3dbc6" d="M22 37h1M33 37h1" />
</svg>