<svg xmlns="http://www.w3.org/2000/svg" viewBox="0 -0.5 38 38" shape-rendering="crispEdges">
<metadata>Made with Pixels to Svg https://codepen.io/shshaw/pen/XbxvNj</metadata>
<path stroke="#dccac3" d="M0 0h6M7 0h1M12 0h15M31 0h6" />
<path stroke="#ddcac3" d="M6 0h1" />
<path stroke="#e5dedd" d="M8 0h1M10 0h2M27 0h4M7 1h6M26 1h6M7 2h5M25 2h8M6 3h8M25 3h2M28 3h5M7 4h7M24 4h1M26 4h1M28 4h3M32 4h2M5 5h3M9 5h3M13 5h2M24 5h5M30 5h3M7 6h8M24 6h1M26 6h4M31 6h4M5 7h6M12 7h3M25 7h2M28 7h4M33 7h2M6 8h7M25 8h4M30 8h5M8 9h2M26 9h1M28 9h4M33 9h1M28 10h3" />
<path stroke="#e4dedd" d="M9 0h1M25 4h1M8 5h1M33 5h1M24 7h1M27 7h1M31 10h1" />
<path stroke="#dccac2" d="M37 0h1" />
<path stroke="#d3c4bb" d="M0 1h7M13 1h8M22 1h3M32 1h3M36 1h2M0 2h7M13 2h1M15 2h3M19 2h5M33 2h5M2 3h1M5 3h1M14 3h1M16 3h3M20 3h5M33 3h5M0 4h6M14 4h10M34 4h4M0 5h1M2 5h2M17 5h7M34 5h3M0 6h1M3 6h2M15 6h3M19 6h2M22 6h1M35 6h3M0 7h2M3 7h1M17 7h6M35 7h3M0 8h2M3 8h1M17 8h2M20 8h2M36 8h2M0 9h1M17 9h5M37 9h1M1 10h1M17 10h4M37 10h1M1 11h1M18 11h1M18 12h2M0 13h1M18 13h2M0 14h1" />
<path stroke="#d2c4bb" d="M21 1h1M25 1h1M35 1h1M24 2h1M3 3h2M16 5h1M2 6h1M18 6h1M21 6h1M2 7h1M16 7h1M2 8h1M19 11h1M37 11h1" />
<path stroke="#e5dfdd" d="M12 2h1M31 4h1M25 6h1M30 6h1M11 7h1M32 7h1M11 9h1M32 9h1" />
<path stroke="#d3c5bb" d="M14 2h1M18 2h1M15 3h1M15 5h1M0 10h1M2 10h1M0 11h1M20 11h1M0 12h1" />
<path stroke="#d3c4ba" d="M0 3h1M1 5h1M4 5h1M1 6h1M16 8h1M1 9h2M36 9h1" />
<path stroke="#d2c5bb" d="M1 3h1M1 12h1" />
<path stroke="#d2c4ba" d="M19 3h1" />
<path stroke="#e5dfdc" d="M27 3h1" />
<path stroke="#e5dedc" d="M6 4h1M27 4h1M12 5h1M29 5h1M5 6h2M13 8h1M29 8h1M10 9h1M27 9h1" />
<path stroke="#d3c5ba" d="M37 5h1M19 8h1" />
<path stroke="#e3ddd9" d="M23 6h1M4 7h1M15 7h1M23 7h1M4 8h1M14 8h2M22 8h2M35 8h1M3 9h5M12 9h1M14 9h3M22 9h2M25 9h1M34 9h2M3 10h5M9 10h4M14 10h1M21 10h7M33 10h2M36 10h1M2 11h3M6 11h7M14 11h4M21 11h2M24 11h5M30 11h1M32 11h2M35 11h2M3 12h7M11 12h7M22 12h15M5 13h2M8 13h5M14 13h1M16 13h1M23 13h9M33 13h2M5 14h10M26 14h5M32 14h3M7 15h7M26 15h7" />
<path stroke="#e2ddd9" d="M5 8h1M15 10h2M32 10h1M5 11h1M23 11h1M31 11h1M4 13h1M7 13h1M25 14h1" />
<path stroke="#e3ddd8" d="M24 8h1M13 9h1M24 9h1M13 10h1M35 10h1M34 11h1M32 13h1M35 13h1M15 14h1M31 14h1" />
<path stroke="#e3dcd9" d="M8 10h1M29 11h1M13 13h1M15 13h1M24 14h1" />
<path stroke="#e2dcd9" d="M13 11h1M10 12h1" />
<path stroke="#e3d9d5" d="M2 12h1M20 12h1M37 12h1M1 13h3M17 13h1M20 13h3M36 13h2M1 14h3M16 14h2M19 14h5M35 14h3M1 15h2M4 15h3M14 15h1M16 15h9M33 15h1M35 15h2M0 16h2M3 16h16M22 16h5M28 16h1M31 16h2M35 16h3M2 17h33M36 17h2M0 18h3M6 18h11M18 18h3M22 18h6M30 18h8M0 19h11M12 19h7M20 19h5M26 19h5M32 19h1M34 19h4M0 20h6M9 20h2M13 20h4M18 20h1M20 20h9M30 20h2M34 20h4M0 21h7M8 21h5M14 21h1M17 21h8M26 21h1M28 21h1M30 21h1M32 21h1M34 21h1M0 22h12M13 22h2M16 22h14M32 22h5M0 23h2M3 23h1M5 23h1M7 23h7M15 23h9M26 23h4M31 23h5M37 23h1M0 24h3M6 24h4M11 24h4M17 24h1M19 24h10M30 24h2M33 24h5M1 25h4M6 25h4M11 25h3M15 25h7M23 25h3M27 25h1M29 25h9M0 26h5M6 26h3M10 26h9M20 26h6M27 26h4M33 26h5M0 27h1M2 27h15M18 27h15M34 27h4M0 28h14M15 28h6M23 28h8M32 28h2M36 28h2M0 29h5M6 29h1M8 29h2M11 29h13M25 29h12M0 30h1M2 30h5M8 30h4M13 30h2M16 30h12M29 30h2M32 30h6M0 31h2M3 31h1M5 31h4M10 31h2M13 31h14M28 31h5M34 31h4" />
<path stroke="#e2d9d5" d="M21 12h1M4 14h1M18 14h1M37 15h1M19 16h1M28 18h1M11 19h1M33 19h1M8 20h1M12 20h1M17 20h1M15 21h1M37 21h1M30 22h2M3 24h1M32 24h1M0 25h1M5 25h1M26 26h1M21 28h1M5 29h1M24 29h1M1 30h1M28 30h1M31 30h1" />
<path stroke="#e3d8d5" d="M0 15h1M15 15h1M20 16h1M35 17h1M4 18h2M17 18h1M29 18h1M31 19h1M11 20h1M19 20h1M29 20h1M32 20h1M16 21h1M25 21h1M29 21h1M31 21h1M37 22h1M2 23h1M24 23h2M30 23h1M36 23h1M15 24h1M18 24h1M10 25h1M26 25h1M28 25h1M9 26h1M32 26h1M1 27h1M17 27h1M34 28h2M7 29h1M37 29h1M2 31h1M4 31h1M12 31h1M27 31h1" />
<path stroke="#e2d9d4" d="M3 15h1M33 27h1" />
<path stroke="#e3d9d4" d="M25 15h1M34 15h1M2 16h1M21 16h1M27 16h1M29 16h2M33 16h2M0 17h2M3 18h1M21 18h1M19 19h1M25 19h1M6 20h2M33 20h1M7 21h1M13 21h1M27 21h1M33 21h1M35 21h2M12 22h1M15 22h1M4 23h1M6 23h1M14 23h1M4 24h2M10 24h1M29 24h1M14 25h1M22 25h1M5 26h1M19 26h1M31 26h1M14 28h1M22 28h1M31 28h1M10 29h1M12 30h1M33 31h1" />
<path stroke="#e2d8d5" d="M16 24h1M15 30h1M9 31h1" />
<path stroke="#e3d8d4" d="M7 30h1" />
<path stroke="#583823" d="M0 32h4M6 32h6M13 32h2M17 32h2M20 32h5M26 32h12M0 33h1M2 33h1M4 33h4M9 33h2M12 33h1M14 33h3M18 33h13M32 33h5M5 36h1M13 36h1M29 36h1M37 36h1M5 37h1M13 37h1M21 37h1M29 37h1M37 37h1" />
<path stroke="#593823" d="M4 32h1M12 32h1M19 32h1M25 32h1M3 33h1M37 33h1M21 36h1" />
<path stroke="#583822" d="M5 32h1M15 32h2M11 33h1M17 33h1" />
<path stroke="#583923" d="M1 33h1M8 33h1M13 33h1M31 33h1" />
<path stroke="#4e311f" d="M0 34h1M2 34h4M7 34h23M31 34h7M5 35h2M13 35h2M21 35h2M29 35h2M37 35h1M0 36h1M2 36h3M8 36h5M16 36h2M19 36h2M22 36h1M24 36h5M30 36h1M32 36h5M0 37h5M6 37h1M8 37h4M14 37h1M16 37h1M19 37h2M22 37h1M24 37h3M28 37h1M30 37h1M32 37h5" />
<path stroke="#4e301f" d="M1 34h1M1 36h1M12 37h1" />
<path stroke="#4f311f" d="M6 34h1M30 34h1M6 36h1M18 37h1" />
<path stroke="#3f291b" d="M0 35h4M7 35h6M15 35h5M23 35h2M26 35h3M31 35h3M35 35h2M15 36h1M23 36h1M31 36h1M7 37h1M15 37h1M23 37h1M31 37h1" />
<path stroke="#3f281b" d="M4 35h1" />
<path stroke="#3f291a" d="M20 35h1" />
<path stroke="#3e291b" d="M25 35h1M34 35h1M7 36h1" />
<path stroke="#4e311e" d="M14 36h1M18 36h1M17 37h1M27 37h1" />
</svg>