<svg xmlns="http://www.w3.org/2000/svg" viewBox="0 -0.5 38 38" shape-rendering="crispEdges">
<metadata>Made with Pixels to Svg https://codepen.io/shshaw/pen/XbxvNj</metadata>
<path stroke="#02042b" d="M0 0h6M7 0h12M20 0h1M22 0h16M1 1h2M4 1h7M12 1h2M16 1h1M18 1h1M20 1h9M30 1h4M35 1h3M0 2h6M7 2h1M9 2h1M12 2h11M24 2h1M26 2h3M30 2h4M35 2h3M0 3h3M4 3h6M11 3h1M14 3h10M25 3h5M33 3h1M35 3h1M37 3h1M0 4h12M13 4h1M15 4h15M31 4h7M0 5h13M15 5h13M29 5h2M32 5h3M36 5h2M0 6h9M10 6h10M22 6h5M28 6h3M32 6h1M34 6h4M0 7h18M19 7h7M27 7h4M32 7h6M0 8h7M8 8h5M14 8h2M17 8h4M22 8h2M25 8h4M30 8h3M34 8h3M0 9h10M11 9h13M25 9h2M28 9h7M36 9h2M0 10h11M13 10h6M20 10h5M26 10h7M35 10h3M0 11h7M8 11h4M14 11h6M22 11h8M31 11h7M0 12h2M3 12h1M5 12h4M10 12h10M21 12h17M0 13h6M7 13h2M10 13h7M18 13h7M26 13h4M31 13h7M0 14h6M7 14h1M9 14h12M22 14h1M24 14h1M26 14h4M31 14h7M1 15h8M10 15h3M14 15h1M16 15h2M19 15h8M28 15h4M33 15h5M0 16h9M11 16h4M16 16h3M20 16h2M23 16h13M37 16h1M0 17h13M14 17h4M19 17h9M29 17h9M0 18h13M14 18h4M19 18h4M24 18h6M31 18h4M36 18h2M0 19h1M2 19h7M10 19h1M12 19h25M0 20h1M2 20h2M5 20h7M13 20h1M15 20h2M18 20h1M21 20h4M27 20h6M34 20h2M37 20h1M0 21h6M7 21h12M20 21h8M29 21h5M35 21h3M0 22h6M7 22h20M28 22h3M33 22h3M37 22h1M0 23h5M6 23h8M15 23h9M25 23h2M29 23h1M31 23h3M36 23h1M1 24h1M3 24h2M6 24h3M10 24h4M15 24h7M23 24h7M31 24h7M0 25h7M9 25h11M21 25h7M29 25h5M35 25h3M0 26h7M8 26h3M12 26h7M20 26h2M24 26h11M36 26h2M1 27h11M13 27h11M25 27h2M28 27h6M36 27h2M0 28h2M3 28h1M5 28h4M10 28h13M28 28h6M36 28h2M0 29h2M3 29h2M6 29h10M18 29h13M32 29h6M0 30h7M8 30h6M15 30h2M18 30h4M23 30h1M25 30h1M27 30h1M29 30h4M34 30h1M0 31h1M2 31h1M4 31h25M30 31h2M33 31h5M0 32h3M4 32h15M20 32h1M22 32h7M32 32h5M1 33h3M5 33h2M8 33h5M14 33h8M23 33h11M35 33h3M0 34h5M6 34h2M9 34h2M13 34h2M16 34h16M34 34h3M0 35h9M11 35h3M15 35h7M23 35h1M26 35h12M0 36h7M8 36h11M20 36h4M25 36h2M29 36h3M33 36h1M35 36h3M0 37h4M5 37h2M8 37h1M10 37h4M15 37h2M18 37h3M22 37h16" />
<path stroke="#03042b" d="M6 0h1M14 1h2M12 3h1M24 3h1M31 3h1M13 5h2M28 5h1M9 6h1M7 8h1M13 8h1M21 8h1M27 9h1M11 10h1M34 10h1M21 11h1M2 12h1M6 13h1M17 13h1M6 14h1M23 14h1M30 14h1M9 15h1M15 15h1M27 15h1M9 16h1M19 16h1M36 16h1M18 17h1M13 18h1M30 18h1M9 19h1M11 19h1M1 20h1M12 20h1M14 20h1M19 20h1M25 20h1M33 20h1M19 21h1M28 21h1M34 21h1M36 22h1M14 23h1M34 23h1M30 24h1M8 25h1M28 25h1M22 26h1M4 28h1M9 28h1M27 28h1M34 28h1M36 30h2M29 31h1M32 31h1M31 32h1M7 33h1M22 33h1M34 33h1M8 34h1M9 35h2M24 35h1M24 36h1M28 36h1M32 36h1M14 37h1" />
<path stroke="#02052b" d="M19 0h1M21 0h1M29 1h1M6 2h1M8 2h1M10 2h1M23 2h1M25 2h1M29 2h1M34 2h1M3 3h1M30 3h1M12 4h1M31 5h1M35 5h1M16 8h1M29 8h1M10 9h1M12 10h1M25 10h1M7 11h1M30 11h1M9 12h1M9 13h1M30 13h1M21 14h1M25 14h1M0 15h1M13 15h1M18 18h1M35 18h1M1 19h1M37 19h1M20 20h1M36 20h1M6 22h1M27 22h1M31 22h1M5 23h1M24 23h1M27 23h1M30 23h1M14 24h1M20 25h1M34 25h1M11 26h1M23 26h1M35 26h1M12 27h1M27 27h1M34 27h1M24 28h1M26 28h1M35 28h1M2 29h1M5 29h1M31 29h1M14 30h1M17 30h1M1 31h1M21 32h1M30 32h1M37 32h1M0 33h1M4 33h1M5 34h1M11 34h1M32 34h2M37 34h1M22 35h1M27 36h1M4 37h1M17 37h1" />
<path stroke="#02042a" d="M0 1h1M3 1h1M11 1h1M17 1h1M19 1h1M34 1h1M11 2h1M10 3h1M13 3h1M32 3h1M34 3h1M36 3h1M14 4h1M30 4h1M21 6h1M27 6h1M31 6h1M33 6h1M18 7h1M26 7h1M31 7h1M24 8h1M33 8h1M24 9h1M35 9h1M19 10h1M33 10h1M12 11h2M4 12h1M20 12h1M25 13h1M8 14h1M32 15h1M10 16h1M22 16h1M13 17h1M28 17h1M23 18h1M4 20h1M26 20h1M6 21h1M32 22h1M28 23h1M35 23h1M37 23h1M0 24h1M2 24h1M9 24h1M22 24h1M7 26h1M19 26h1M0 27h1M24 27h1M35 27h1M2 28h1M23 28h1M25 28h1M16 29h2M7 30h1M22 30h1M24 30h1M26 30h1M28 30h1M33 30h1M35 30h1M3 31h1M3 32h1M29 32h1M13 33h1M12 34h1M15 34h1M14 35h1M25 35h1M7 36h1M19 36h1M34 36h1M7 37h1M9 37h1M21 37h1" />
<path stroke="#02052a" d="M20 6h1M37 8h1M15 16h1" />
<path stroke="#03042a" d="M20 11h1" />
<path stroke="#03052b" d="M18 15h1M5 24h1M7 25h1M19 32h1" />
<path stroke="#03052a" d="M17 20h1" />
</svg>