<svg xmlns="http://www.w3.org/2000/svg" viewBox="0 -0.5 38 38" shape-rendering="crispEdges">
<metadata>Made with Pixels to Svg https://codepen.io/shshaw/pen/XbxvNj</metadata>
<path stroke="#e6c7bc" d="M0 0h3M5 0h3M9 0h2M12 0h5M19 0h4M24 0h4M30 0h1M32 0h4M37 0h1M0 1h1M2 1h7M10 1h1M12 1h1M14 1h1M16 1h1M18 1h2M22 1h1M24 1h4M29 1h5M35 1h2M0 2h5M6 2h3M10 2h8M19 2h3M23 2h3M27 2h2M30 2h1M32 2h2M35 2h3M0 3h5M6 3h11M18 3h1M20 3h1M23 3h1M25 3h1M27 3h3M33 3h3M37 3h1M0 4h4M5 4h5M11 4h6M18 4h13M32 4h2M35 4h1M37 4h1M0 5h3M4 5h1M6 5h5M12 5h1M14 5h5M20 5h9M30 5h4M35 5h3M0 6h3M4 6h1M6 6h5M12 6h3M16 6h3M20 6h2M23 6h9M33 6h4M0 7h4M5 7h5M11 7h1M13 7h22M36 7h2M0 8h3M4 8h2M7 8h1M9 8h3M13 8h3M17 8h5M23 8h3M27 8h9M37 8h1M1 9h10M12 9h4M17 9h7M25 9h2M28 9h9M0 10h11M12 10h12M25 10h2M28 10h4M33 10h5M0 11h8M10 11h3M14 11h6M21 11h5M27 11h4M32 11h4M37 11h1M0 12h5M6 12h1M8 12h7M16 12h1M19 12h1M22 12h9M33 12h2M36 12h2M2 13h1M4 13h1M6 13h2M10 13h3M14 13h1M16 13h11M28 13h10M1 14h1M4 14h5M10 14h3M14 14h14M29 14h9M0 15h1M2 15h18M21 15h6M28 15h1M30 15h4M35 15h2M0 16h1M3 16h1M5 16h2M8 16h2M11 16h4M18 16h9M28 16h4M33 16h5M1 17h22M24 17h14M1 18h3M7 18h2M10 18h7M18 18h4M23 18h2M26 18h2M30 18h8M1 19h3M6 19h1M8 19h6M15 19h10M26 19h2M29 19h3M34 19h3M0 20h6M7 20h1M9 20h1M11 20h2M14 20h1M16 20h3M20 20h3M24 20h4M29 20h1M32 20h5M0 21h16M18 21h3M22 21h1M24 21h9M34 21h4M1 22h2M4 22h5M10 22h3M14 22h1M16 22h3M21 22h5M27 22h11M0 23h28M29 23h9M2 24h2M5 24h9M15 24h11M27 24h3M31 24h5M37 24h1M0 25h2M4 25h5M10 25h2M13 25h4M18 25h3M22 25h3M26 25h6M33 25h5M0 26h8M11 26h6M19 26h7M27 26h9M0 27h9M10 27h3M14 27h3M19 27h1M21 27h7M29 27h3M33 27h3M37 27h1M0 28h2M3 28h1M5 28h1M7 28h6M14 28h5M20 28h2M23 28h10M34 28h4M0 29h3M4 29h11M16 29h3M20 29h1M22 29h2M25 29h2M28 29h3M32 29h5M0 30h3M4 30h3M8 30h21M30 30h1M33 30h3M0 31h3M4 31h2M9 31h6M16 31h15M32 31h3M37 31h1M1 32h4M6 32h2M10 32h8M19 32h2M22 32h1M24 32h2M28 32h2M31 32h3M35 32h2M0 33h15M16 33h1M18 33h4M23 33h3M27 33h5M33 33h1M35 33h1M0 34h4M5 34h1M7 34h9M17 34h3M21 34h1M23 34h10M34 34h4M0 35h13M14 35h14M29 35h2M33 35h5M0 36h8M9 36h2M12 36h5M18 36h4M25 36h4M30 36h3M34 36h4M0 37h1M2 37h2M6 37h1M8 37h6M16 37h3M20 37h1M22 37h3M26 37h6M34 37h3" />
<path stroke="#e6c6bc" d="M3 0h1M36 0h1M9 1h1M11 1h1M15 1h1M20 1h1M24 3h1M30 3h1M32 3h1M4 4h1M10 4h1M3 5h1M5 5h1M15 6h1M19 6h1M10 7h1M3 8h1M12 8h1M11 10h1M27 10h1M8 11h1M20 11h1M32 12h1M35 12h1M27 13h1M2 14h2M9 14h1M4 16h1M16 16h1M17 18h1M0 19h1M14 19h1M25 19h1M13 20h1M19 20h1M31 20h1M37 20h1M23 21h1M19 22h1M4 24h1M30 24h1M2 25h1M9 25h1M8 26h1M10 26h1M26 26h1M17 27h1M4 28h1M19 29h1M3 30h1M29 30h1M32 30h1M31 31h1M35 31h1M5 32h1M8 32h2M21 32h1M23 32h1M15 33h1M26 33h1M6 34h1M22 34h1M33 34h1M13 35h1M32 35h1M8 36h1M11 36h1M22 36h1M4 37h1M25 37h1" />
<path stroke="#e7d2c1" d="M4 0h1M31 0h1M13 1h1M9 2h1M5 3h1M26 3h1M36 3h1M17 4h1M31 4h1M11 5h1M19 5h1M3 6h1M22 8h1M16 9h1M37 9h1M9 11h1M26 11h1M17 12h1M21 12h1M1 13h1M29 15h1M15 16h1M25 18h1M4 19h1M33 19h1M6 20h1M0 22h1M9 22h1M15 22h1M20 22h1M28 23h1M1 24h1M26 24h1M21 25h1M28 27h1M36 27h1M13 28h1M3 29h1M31 30h1M8 31h1M34 32h1M4 34h1M31 35h1M17 36h1M1 37h1M7 37h1" />
<path stroke="#e6c7bd" d="M8 0h1M11 0h1M17 0h1M28 0h1M21 1h1M23 1h1M28 1h1M34 1h1M37 1h1M18 2h1M19 3h1M22 3h1M36 4h1M29 5h1M34 5h1M11 6h1M22 6h1M32 6h1M35 7h1M8 8h1M16 8h1M26 8h1M36 8h1M11 9h1M24 9h1M27 9h1M24 10h1M32 10h1M15 12h1M18 12h1M20 12h1M0 13h1M15 13h1M2 16h1M10 16h1M27 16h1M0 17h1M23 17h1M5 18h1M28 18h1M5 19h1M28 19h1M37 19h1M8 20h1M15 20h1M28 20h1M3 22h1M36 24h1M12 25h1M32 25h1M9 26h1M13 27h1M18 27h1M6 28h1M19 28h1M33 28h1M21 29h1M27 29h1M31 29h1M3 31h1M6 31h1M15 31h1M36 31h1M26 32h1M17 33h1M32 33h1M34 33h1M16 34h1M20 34h1M5 37h1M14 37h2M19 37h1M21 37h1M33 37h1M37 37h1" />
<path stroke="#e3c5ad" d="M18 0h1M1 1h1M17 3h1M4 7h1M0 9h1M0 18h1M0 32h1" />
<path stroke="#e7c7bd" d="M23 0h1M13 11h1M13 13h1M17 16h1M4 18h1M33 21h1M3 25h1" />
<path stroke="#e7c7bc" d="M29 0h1M17 1h1M5 2h1M26 2h1M29 2h1M31 2h1M34 2h1M21 3h1M31 3h1M34 4h1M13 5h1M5 6h1M37 6h1M36 11h1M5 12h1M7 12h1M31 12h1M3 13h1M8 13h2M0 14h1M28 14h1M1 15h1M27 15h1M34 15h1M1 16h1M7 16h1M6 18h1M22 18h1M29 18h1M7 19h1M32 19h1M10 20h1M23 20h1M30 20h1M16 21h1M21 21h1M13 22h1M26 22h1M0 24h1M14 24h1M17 25h1M17 26h2M36 26h2M9 27h1M32 27h1M2 28h1M22 28h1M15 29h1M24 29h1M37 29h1M7 30h1M36 30h2M7 31h1M27 32h1M37 32h1M22 33h1M36 33h1M28 35h1M24 36h1M33 36h1M32 37h1" />
<path stroke="#e7d2c0" d="M22 2h1M6 8h1M31 11h1M5 13h1" />
<path stroke="#e6d2c1" d="M12 7h1M13 14h1M20 15h1M37 15h1M9 18h1M18 32h1" />
<path stroke="#e6c6bd" d="M32 16h1M25 25h1M30 32h1M29 36h1" />
<path stroke="#e7c6bc" d="M17 21h1M20 27h1M37 33h1" />
<path stroke="#e7d3c1" d="M23 36h1" />
</svg>