<svg xmlns="http://www.w3.org/2000/svg" viewBox="0 -0.5 38 38" shape-rendering="crispEdges">
<metadata>Made with Pixels to Svg https://codepen.io/shshaw/pen/XbxvNj</metadata>
<path stroke="#02052b" d="M0 0h1M3 0h1M9 0h1M11 0h1M15 0h1M9 1h1M29 1h1M1 2h1M25 2h1M15 3h1M19 3h1M32 3h1M15 5h1M22 5h1M21 6h1M35 8h1M32 9h1M35 9h1M28 11h1M9 12h1M36 12h1M32 13h1M6 14h1M12 14h1M19 15h1M32 16h1M16 17h1M33 18h1M10 19h1M26 19h1M17 20h1M25 20h1M15 21h1M31 21h1M29 22h1M1 23h1M14 23h1M17 23h1M22 23h1M4 24h1M8 25h1M15 25h1M20 25h1M24 25h1M31 25h1M31 27h1M19 28h1M28 28h1M13 29h1M30 29h1M34 29h1M10 30h1M20 32h1M36 32h1M13 33h1M34 33h1M16 35h1M16 37h1M25 37h1" />
<path stroke="#03042b" d="M1 0h1M7 0h1M21 0h1M23 0h1M32 0h1M17 1h1M36 1h1M10 2h1M10 3h1M31 3h1M37 4h1M7 5h1M12 5h1M14 5h1M19 6h2M9 9h1M0 10h1M13 10h1M28 10h1M37 10h1M3 11h1M5 11h1M26 11h1M36 11h2M35 14h1M1 17h1M18 17h1M14 18h1M0 19h2M7 19h1M0 20h1M16 20h1M29 20h1M16 21h1M18 21h1M21 21h2M27 21h1M29 21h1M34 23h1M26 24h1M24 26h1M28 26h1M7 28h1M10 28h1M26 29h1M18 30h2M21 30h1M26 30h1M14 33h1M2 34h1M6 35h1M21 35h1M2 36h1M17 36h1M13 37h1M31 37h1M36 37h1" />
<path stroke="#02042b" d="M2 0h1M4 0h2M10 0h1M12 0h3M16 0h1M18 0h3M22 0h1M24 0h8M33 0h5M0 1h2M3 1h1M5 1h4M10 1h7M18 1h3M22 1h3M26 1h3M30 1h5M37 1h1M0 2h1M2 2h8M12 2h13M26 2h12M0 3h10M11 3h2M14 3h1M16 3h1M18 3h1M20 3h9M30 3h1M33 3h1M35 3h3M0 4h14M15 4h1M19 4h3M24 4h9M36 4h1M0 5h5M8 5h4M13 5h1M19 5h3M23 5h11M35 5h3M0 6h4M7 6h4M12 6h4M22 6h10M33 6h5M0 7h4M6 7h11M18 7h4M23 7h5M29 7h9M0 8h3M4 8h18M23 8h4M30 8h1M32 8h3M36 8h2M0 9h2M3 9h5M10 9h18M29 9h3M33 9h2M36 9h2M1 10h9M11 10h2M14 10h14M29 10h8M1 11h2M4 11h1M7 11h2M10 11h16M27 11h1M29 11h7M0 12h9M10 12h6M17 12h14M33 12h3M37 12h1M1 13h2M4 13h13M18 13h14M33 13h5M0 14h6M7 14h5M13 14h1M15 14h2M18 14h1M20 14h14M36 14h2M0 15h3M6 15h1M8 15h11M20 15h18M0 16h3M7 16h12M20 16h9M30 16h2M33 16h5M0 17h1M2 17h1M6 17h5M12 17h4M17 17h1M20 17h5M26 17h12M0 18h14M15 18h2M21 18h6M28 18h5M35 18h3M2 19h5M8 19h1M11 19h7M20 19h3M24 19h2M27 19h2M30 19h3M34 19h4M1 20h8M10 20h6M18 20h1M20 20h5M26 20h3M30 20h2M35 20h3M0 21h4M5 21h2M12 21h3M17 21h1M19 21h1M23 21h4M30 21h1M32 21h1M34 21h3M0 22h3M6 22h3M10 22h10M21 22h8M30 22h7M0 23h1M2 23h2M5 23h4M10 23h4M15 23h2M18 23h4M23 23h5M29 23h5M35 23h2M0 24h4M5 24h13M19 24h4M24 24h2M30 24h1M32 24h4M37 24h1M0 25h8M9 25h6M16 25h3M21 25h3M25 25h3M29 25h2M32 25h6M0 26h13M14 26h9M25 26h3M29 26h9M0 27h2M3 27h3M7 27h1M9 27h22M32 27h6M0 28h1M2 28h5M8 28h2M11 28h8M20 28h4M25 28h3M29 28h5M35 28h3M3 29h10M16 29h10M27 29h3M31 29h3M35 29h2M0 30h1M2 30h8M11 30h3M17 30h1M20 30h1M22 30h4M27 30h11M0 31h2M3 31h4M8 31h7M16 31h16M33 31h5M0 32h7M8 32h12M21 32h15M37 32h1M0 33h5M10 33h3M15 33h1M17 33h7M25 33h2M28 33h3M32 33h2M35 33h3M0 34h2M3 34h4M8 34h14M27 34h1M30 34h4M35 34h3M0 35h6M8 35h8M17 35h1M19 35h2M22 35h2M25 35h2M30 35h5M36 35h2M0 36h2M3 36h2M6 36h5M12 36h4M18 36h9M29 36h4M36 36h2M0 37h2M4 37h7M12 37h1M14 37h2M17 37h8M26 37h4M32 37h4M37 37h1" />
<path stroke="#062551" d="M6 0h1M34 3h1M16 4h1M18 4h1M23 4h1M33 4h1M35 4h1M16 6h1M18 6h1M0 13h1M19 14h1M3 15h1M5 15h1M19 16h1M3 17h1M11 17h1M20 18h1M9 19h1M19 19h1M19 20h1M4 21h1M3 22h1M5 22h1M4 23h1M19 25h1M23 26h1M1 28h1M0 29h1M2 29h1M15 29h1M1 30h1M14 30h1M16 30h1M15 31h1M5 33h1M9 33h1M24 33h1M22 34h2M25 34h2M28 34h2M34 34h1M24 35h1M27 35h1M29 35h1M27 36h2M33 36h3M3 37h1" />
<path stroke="#02042a" d="M8 0h1M17 0h1M2 1h1M21 1h1M25 1h1M13 3h1M29 3h1M11 6h1M32 6h1M22 7h1M31 8h1M2 9h1M8 9h1M10 10h1M0 11h1M6 11h1M9 11h1M31 12h1M3 13h1M17 13h1M17 14h1M34 14h1M7 15h1M6 16h1M25 17h1M17 18h1M27 18h1M34 18h1M18 19h1M29 19h1M20 21h1M28 21h1M20 22h1M37 22h1M37 23h1M18 24h1M23 24h1M31 24h1M36 24h1M13 26h1M2 27h1M6 27h1M24 28h1M14 29h1M2 31h1M32 31h1M16 33h1M31 33h1M18 35h1M5 36h1M16 36h1M2 37h1M11 37h1M30 37h1" />
<path stroke="#03042a" d="M4 1h1M22 4h1M23 19h1M27 33h1" />
<path stroke="#03052b" d="M35 1h1M37 21h1M8 27h1M37 29h1" />
<path stroke="#02052a" d="M11 2h1M22 8h1M16 12h1M14 14h1" />
<path stroke="#6fa48f" d="M17 3h1M34 4h1M5 5h1M16 5h1M18 5h1M6 6h1M5 7h1M17 7h1M28 7h1M29 8h1M28 9h1M3 16h1M29 16h1M9 20h1M7 21h1M11 21h1M33 21h1M4 22h1M9 22h1M28 23h1M27 24h1M29 24h1M28 25h1M1 29h1M15 30h1M6 33h1M8 33h1M11 36h1" />
<path stroke="#6ea48f" d="M14 4h1M4 6h1M27 8h1M19 18h1M33 19h1M7 31h1" />
<path stroke="#95a9a5" d="M17 4h1M17 5h1M5 6h1M17 6h1M4 16h1M33 20h1M8 21h3M28 24h1M7 32h1M7 33h1M7 34h1" />
<path stroke="#0a6a66" d="M6 5h1" />
<path stroke="#062550" d="M34 5h1M19 17h1M35 35h1" />
<path stroke="#0b6a66" d="M4 7h1M32 20h1M34 20h1" />
<path stroke="#03052a" d="M3 8h1" />
<path stroke="#95a8a5" d="M28 8h1" />
<path stroke="#40a189" d="M32 12h1M4 15h1M4 17h1" />
<path stroke="#6fa48e" d="M5 16h1" />
<path stroke="#062451" d="M5 17h1M18 18h1" />
<path stroke="#072551" d="M9 23h1" />
<path stroke="#409a84" d="M34 28h1M24 34h1M28 35h1" />
<path stroke="#6fa58f" d="M7 35h1" />
</svg>