<svg xmlns="http://www.w3.org/2000/svg" viewBox="0 -0.5 38 38" shape-rendering="crispEdges">
<metadata>Made with Pixels to Svg https://codepen.io/shshaw/pen/XbxvNj</metadata>
<path stroke="#84d1f8" d="M0 0h1M2 0h1M5 0h1M7 0h4M12 0h4M17 0h6M24 0h3M29 0h9M0 1h8M10 1h4M15 1h2M20 1h1M22 1h4M28 1h7M36 1h2M0 2h4M5 2h13M21 2h4M26 2h2M29 2h5M35 2h3M0 3h6M7 3h3M11 3h4M16 3h12M29 3h1M32 3h3M36 3h2M0 4h2M3 4h16M21 4h8M30 4h4M35 4h3M0 5h17M18 5h1M21 5h5M27 5h2M30 5h8M0 6h3M4 6h7M12 6h6M19 6h2M22 6h8M31 6h2M34 6h4M0 7h23M24 7h4M29 7h8M0 8h1M2 8h1M4 8h10M16 8h1M19 8h3M23 8h15M0 9h3M4 9h3M8 9h6M15 9h5M21 9h8M30 9h8M0 10h2M3 10h6M10 10h6M17 10h6M24 10h2M27 10h3M31 10h1M33 10h4M0 11h6M7 11h1M9 11h1M11 11h3M15 11h5M21 11h9M32 11h6M0 12h2M3 12h1M5 12h2M8 12h8M17 12h2M20 12h2M25 12h6M32 12h1M34 12h4M1 13h3M6 13h6M13 13h25M0 14h1M2 14h4M7 14h4M12 14h10M25 14h5M32 14h6M0 15h1M3 15h2M6 15h14M21 15h2M24 15h11M36 15h2M0 16h10M11 16h8M20 16h4M25 16h1M27 16h4M32 16h6M0 17h5M6 17h2M9 17h1M11 17h27M0 18h9M11 18h7M19 18h13M33 18h5M0 19h8M9 19h7M17 19h1M19 19h10M30 19h5M0 20h7M8 20h25M0 21h7M9 21h1M11 21h1M13 21h1M15 21h18M1 22h5M7 22h1M18 22h3M22 22h3M26 22h1M28 22h1M31 22h4M0 23h1M2 23h5M16 23h2M19 23h1M33 23h5M0 24h2M3 24h2M35 24h3M2 25h2M36 25h2M26 31h2M29 31h1M1 32h4M25 32h3M1 33h9M19 33h1M0 34h3M4 34h1M8 34h3M13 34h5M0 35h3M13 35h4M1 36h1M0 37h1" />
<path stroke="#84d1f9" d="M1 0h1M3 0h2M16 0h1M23 0h1M19 1h1M19 2h1M28 2h1M10 3h1M28 3h1M29 4h1M26 5h1M11 6h1M21 6h1M28 7h1M20 9h1M26 10h1M8 11h1M10 11h1M20 11h1M30 11h1M22 12h2M33 12h1M4 13h1M12 13h1M1 14h1M11 14h1M30 14h2M20 15h1M35 15h1M9 18h1M16 19h1M29 19h1M7 21h2M10 21h1M14 21h1M0 22h1M6 22h1M14 22h2M17 22h1M21 22h1M25 22h1M27 22h1M30 22h1M0 32h1M0 33h1M3 34h1M12 34h1" />
<path stroke="#84d0f8" d="M6 0h1M27 0h1M8 1h1M14 1h1M26 1h1M20 2h1M6 3h1M35 3h1M17 5h1M19 5h2M29 5h1M18 6h1M30 6h1M33 6h1M23 7h1M37 7h1M3 8h1M15 8h1M17 8h1M22 8h1M3 9h1M29 9h1M2 10h1M16 10h1M23 10h1M30 10h1M6 11h1M31 11h1M2 12h1M4 12h1M16 12h1M19 12h1M24 12h1M0 13h1M24 14h1M2 15h1M5 15h1M23 15h1M19 16h1M26 16h1M10 17h1M18 18h1M32 18h1M8 19h1M12 21h1M2 24h1M11 34h1M0 36h1" />
<path stroke="#85d1f8" d="M11 0h1M28 0h1M9 1h1M17 1h2M21 1h1M27 1h1M35 1h1M18 2h1M25 2h1M34 2h1M15 3h1M30 3h2M2 4h1M19 4h2M3 6h1M1 8h1M14 8h1M18 8h1M7 9h1M14 9h1M9 10h1M32 10h1M37 10h1M14 11h1M31 12h1M5 13h1M6 14h1M22 14h2M1 15h1M10 16h1M24 16h1M31 16h1M5 17h1M8 17h1M10 18h1M18 19h1M7 20h1M33 21h1M13 22h1M16 22h1M1 23h1M18 23h1M28 31h1M30 31h1" />
<path stroke="#85d0f8" d="M4 2h1M29 22h1" />
<path stroke="#85d1f9" d="M34 4h1" />
<path stroke="#84d0f9" d="M7 12h1" />
<path stroke="#9bd9f9" d="M35 19h3M34 20h4M34 21h4M8 22h5M7 23h2M10 23h6M20 23h2M23 23h10M5 24h1M7 24h1M9 24h15M25 24h1M27 24h6M0 25h2M4 25h4M9 25h2M12 25h3M16 25h5M22 25h3M26 25h3M30 25h4M0 26h11M12 26h2M17 26h3M23 26h7M31 26h3M36 26h2M0 27h3M4 27h5M11 27h2M28 27h3M35 27h3M0 28h1M3 28h7M11 28h8M22 28h1M24 28h2M34 28h4M0 29h1M2 29h1M5 29h1M10 29h1M12 29h3M16 29h9M27 29h11M0 30h3M9 30h1M11 30h13M34 30h4M9 31h5M15 31h4M20 31h3M33 31h5M9 32h1M11 32h6M20 32h3M24 32h1M32 32h4M37 32h1M20 33h2M25 33h13M5 34h1M7 34h1M18 34h2M21 34h8M30 34h5M36 34h2M3 35h6M10 35h3M17 35h2M20 35h3M26 35h2M32 35h2M2 36h5M8 36h15M24 36h1M2 37h3M17 37h6" />
<path stroke="#9ad9f9" d="M33 20h1M33 24h1M11 25h1M29 25h1M9 27h2M2 28h1M21 28h1M4 29h1M11 29h1M15 29h1M24 33h1M35 34h1M19 35h1M23 35h2M23 36h1M5 37h1" />
<path stroke="#7bcaf8" d="M35 22h3M34 24h1M15 25h1M34 25h2M14 26h3M20 26h3M34 26h2M13 27h14M31 27h4M10 28h1M19 28h2M27 28h1M29 28h5M7 29h1M9 29h1M26 29h1M5 30h2M8 30h1M24 30h10M0 31h1M2 31h4M7 31h2M19 31h1M23 31h3M31 31h2M6 32h1M8 32h1M17 32h3M28 32h2M31 32h1M11 33h1M13 33h1M15 33h4M28 35h4M34 35h4M25 36h4M30 36h3M34 36h4M1 37h1M6 37h11M23 37h6M30 37h1M32 37h1M34 37h4" />
<path stroke="#9bd9f8" d="M9 23h1M22 23h1M6 24h1M8 24h1M3 27h1M23 28h1M1 29h1M36 32h1M22 33h2M20 34h1M29 34h1M25 35h1" />
<path stroke="#9bd8f9" d="M24 24h1M26 24h1M8 25h1M21 25h1M25 25h1M27 27h1M1 28h1M3 29h1M6 29h1M14 31h1M10 32h1M23 32h1M6 34h1M9 35h1M7 36h1" />
<path stroke="#9ad8f9" d="M11 26h1" />
<path stroke="#9ad9f8" d="M30 26h1M10 30h1" />
<path stroke="#7bcbf8" d="M26 28h1M3 30h1M5 32h1M30 32h1M12 33h1M33 36h1M33 37h1" />
<path stroke="#7acaf8" d="M28 28h1M6 31h1M10 33h1M14 33h1M29 36h1M29 37h1" />
<path stroke="#7acaf9" d="M8 29h1" />
<path stroke="#7bcaf9" d="M25 29h1M4 30h1M7 30h1M1 31h1M7 32h1M31 37h1" />
</svg>