<svg xmlns="http://www.w3.org/2000/svg" viewBox="0 -0.5 38 38" shape-rendering="crispEdges">
<metadata>Made with Pixels to Svg https://codepen.io/shshaw/pen/XbxvNj</metadata>
<path stroke="#a2deff" d="M0 0h1M10 0h3M14 0h2M29 0h6M0 1h1M9 1h1M11 1h2M31 1h3M0 2h2M9 2h3M31 2h3M0 3h2M10 3h1M31 3h1M33 3h1M0 4h1M2 4h1M8 4h2M31 4h3M0 5h5M8 5h3M32 5h3M1 6h7M9 6h3M32 6h4M0 7h7M11 7h3M32 7h2M35 7h1M1 8h5M7 8h2M11 8h3M16 8h1M31 8h4M6 9h2M9 9h2M14 9h5M30 9h2M33 9h1M35 9h3M8 10h1M10 10h1M16 10h4M26 10h2M29 10h1M32 10h6M10 11h3M29 11h6M36 11h1M27 12h7M12 13h1M18 13h3M26 13h4M11 14h1M14 14h8M26 14h2M9 15h1M13 15h8M22 15h1M26 15h1M7 16h1M12 16h7M22 16h1M26 16h1M6 17h1M11 17h5M22 17h1M26 17h1M10 18h1M12 18h2M21 18h1M27 18h1M0 19h3M9 19h1M11 19h1M31 19h4M0 20h3M4 20h3M8 20h3M20 20h1M25 20h2M36 20h1M0 21h2M3 21h1M6 21h5M20 21h1M26 21h4M5 22h3M10 22h1M20 22h1M27 22h1M29 22h9M6 23h1M8 23h2M19 23h1M23 23h2M30 23h4M35 23h3M6 24h1M8 24h2M18 24h1M22 24h1M6 25h1M8 25h1M17 25h1M21 25h2M16 26h1M20 26h2M8 27h1M15 27h1M18 27h3M4 28h1M7 28h2M12 28h8M6 29h2M10 29h2M13 29h5M26 29h2M0 30h2M5 30h1M13 30h1M35 30h1M37 30h1M0 31h1M11 31h1M13 31h2M24 31h1M27 31h3M35 31h1M0 32h2M11 32h1M14 32h2M21 32h3M25 32h4M30 32h2M34 32h1M0 33h2M11 33h1M15 33h8M26 33h1M31 33h1M34 33h1M11 34h1M15 34h2M33 34h2M12 35h1M33 35h1M12 36h2M17 36h1M13 37h2M17 37h2M32 37h1" />
<path stroke="#b3e9ff" d="M1 0h3M5 0h3M1 1h2M5 1h2M8 1h1M2 2h1M4 2h2M7 2h1M2 3h2M5 3h3M3 4h2M6 4h1M5 5h3M8 6h1M10 8h1M11 9h2M32 9h1M11 10h5M21 10h2M24 10h2M30 10h2M13 11h1M15 11h8M24 11h5M14 12h7M22 12h5M13 13h5M21 13h4M12 14h2M22 14h4M11 15h2M24 15h2M8 16h4M23 16h3M7 17h1M9 17h2M23 17h3M2 18h8M23 18h3M3 19h1M5 19h4M23 19h2M28 19h2M7 20h1M22 20h3M27 20h2M30 20h5M21 21h4M30 21h5M36 21h2M21 22h2M7 23h1M20 23h3M7 24h1M19 24h3M7 25h1M18 25h3M6 26h2M18 26h2M6 27h1M16 27h1M5 28h1M33 28h3M37 28h1M3 29h3M28 29h10M2 30h2M12 30h1M26 30h2M31 30h4M1 31h3M12 31h1M25 31h2M30 31h4M13 32h1M24 32h1M32 32h2M12 33h1M14 33h1M13 34h2M32 34h1M13 35h3M32 35h1M14 36h3M32 36h1M15 37h2M31 37h1" />
<path stroke="#b2e9ff" d="M4 0h1M4 1h1M6 2h1M8 2h1M4 3h1M7 4h1M20 10h1M14 11h1M23 11h1M13 12h1M21 12h1M8 17h1M4 19h1M23 22h1M36 28h1M28 30h1M30 30h1" />
<path stroke="#a3deff" d="M8 0h2M13 0h1M9 3h1M1 4h1M10 7h1M9 8h1M14 8h1M35 8h2M4 9h2M8 9h1M34 9h1M28 10h1M35 11h1M16 17h1M22 18h1M21 19h2M25 19h1M30 19h1M3 20h1M21 20h1M2 21h1M4 21h1M25 21h1M9 22h1M24 22h1M28 22h1M34 23h1M17 27h1M9 28h1M11 28h1M6 30h1M36 30h1" />
<path stroke="#62d2ff" d="M16 0h1M15 1h1M21 1h1M14 2h1M18 2h1M16 3h1M36 4h1M2 9h1M9 11h1M30 14h1M16 20h1M25 22h1M4 23h1M10 24h1M26 26h1M21 29h1M3 32h1M8 32h1M10 32h1M6 33h2M4 35h1M25 35h1M19 36h1" />
<path stroke="#62d3ff" d="M17 0h1M22 35h1" />
<path stroke="#63d2ff" d="M18 0h2M21 0h6M28 0h1M35 0h2M14 1h1M17 1h4M22 1h5M28 1h2M34 1h4M12 2h2M15 2h3M19 2h1M21 2h1M23 2h8M34 2h4M11 3h5M17 3h14M35 3h2M11 4h8M20 4h2M24 4h5M30 4h1M34 4h2M37 4h1M11 5h2M15 5h2M1 9h1M3 9h1M2 10h6M0 11h9M37 11h1M4 12h8M34 12h4M8 13h4M30 13h8M28 14h2M31 14h2M34 14h4M21 15h1M27 15h3M32 15h1M37 15h1M19 16h3M27 16h4M37 16h1M17 17h5M37 17h1M15 18h6M37 18h1M14 19h1M16 19h3M20 19h1M37 19h1M12 20h4M17 20h3M11 21h6M0 22h1M2 22h3M11 22h3M26 22h1M1 23h2M5 23h1M10 23h2M25 23h5M1 24h2M24 24h14M23 25h5M29 25h1M31 25h7M22 26h1M25 26h1M27 26h4M37 26h1M21 27h1M23 27h3M20 28h4M8 29h2M18 29h3M22 29h1M7 30h4M14 30h6M5 31h6M15 31h2M36 31h2M5 32h2M9 32h1M29 32h1M35 32h2M3 33h3M8 33h3M27 33h4M35 33h1M0 34h11M17 34h11M29 34h3M0 35h1M2 35h2M17 35h4M23 35h2M26 35h1M18 36h1" />
<path stroke="#63d3ff" d="M20 0h1M13 1h1M16 1h1M20 2h1M34 3h1M19 4h1M22 4h1M13 5h1M0 10h1M30 15h1M12 19h2M15 19h1M11 20h1M1 22h1M30 25h1M23 26h1M4 32h1M1 35h1" />
<path stroke="#62d2fe" d="M27 0h1M37 0h1M14 5h1M2 33h1" />
<path stroke="#b3e8ff" d="M3 1h1M3 2h1M8 3h1M10 15h1M29 20h1M35 21h1M17 26h1M12 32h1M13 33h1M33 33h1M31 36h1" />
<path stroke="#b3e9fe" d="M7 1h1M23 10h1M25 13h1M23 15h1M27 19h1M35 20h1M6 28h1M4 30h1M29 30h1M32 33h1" />
<path stroke="#a2defe" d="M10 1h1M0 6h1M7 7h2M0 8h1M9 10h1M10 19h1M8 26h1M5 27h1M7 27h1M10 28h1M12 29h1M25 30h1M34 31h1M23 33h2M12 34h1M33 36h1" />
<path stroke="#63d3fe" d="M27 1h1M3 23h1" />
<path stroke="#a2dfff" d="M30 1h1M10 4h1M9 7h1M34 7h1M36 7h1M6 8h1M12 12h1M11 18h1M5 21h1M8 22h1M19 22h1M23 24h1M11 30h1M4 31h1M2 32h1M25 33h1M16 35h1" />
<path stroke="#63d2fe" d="M22 2h1M37 3h1M23 4h1M29 4h1M0 9h1M1 10h1M33 14h1M31 15h1M14 18h1M19 19h1M0 23h1M0 24h1M28 25h1M24 26h1M22 27h1M7 32h1M37 32h1M28 34h1M21 35h1" />
<path stroke="#a2dffe" d="M32 3h1" />
<path stroke="#b2e9fe" d="M5 4h1M26 18h1" />
<path stroke="#7cddff" d="M17 5h13M31 5h1M35 5h3M13 6h5M19 6h1M21 6h11M36 6h2M14 7h5M20 7h9M30 7h2M18 8h7M26 8h5M37 8h1M19 9h4M24 9h6M0 12h4M0 13h8M1 14h3M5 14h4M10 14h1M0 15h9M33 15h4M0 16h3M4 16h3M32 16h3M36 16h1M0 17h6M27 17h9M0 18h2M28 18h2M31 18h6M36 19h1M37 20h1M17 21h3M14 22h4M12 23h4M17 23h1M3 24h3M12 24h3M16 24h2M0 25h6M9 25h1M12 25h5M0 26h6M9 26h7M31 26h6M0 27h5M9 27h6M26 27h12M0 28h4M24 28h2M27 28h6M0 29h1M23 29h3M21 30h4M17 31h7M16 32h5M37 33h1M35 34h3M5 35h7M27 35h2M30 35h2M35 35h3M0 36h3M4 36h5M11 36h1M20 36h7M28 36h3M34 36h4M0 37h1M2 37h6M9 37h4M20 37h1M22 37h2M25 37h6M33 37h5" />
<path stroke="#7cddfe" d="M30 5h1M29 7h1M37 7h1M23 9h1M0 14h1M3 16h1M16 23h1M26 28h1M20 30h1M36 33h1M34 35h1M10 36h1M27 36h1M8 37h1" />
<path stroke="#7dddff" d="M12 6h1M18 6h1M25 8h1M9 14h1M18 22h1M18 23h1M11 24h1M2 29h1M29 35h1M3 36h1M21 37h1M24 37h1" />
<path stroke="#7cdcff" d="M20 6h1M19 7h1M17 8h1M4 14h1M36 17h1M30 18h1M35 19h1M10 25h2M1 29h1M9 36h1M1 37h1M19 37h1" />
<path stroke="#a3dfff" d="M15 8h1" />
<path stroke="#b2e8ff" d="M13 9h1M26 19h1" />
<path stroke="#7ddcff" d="M31 16h1M35 16h1M15 24h1" />
</svg>