<svg xmlns="http://www.w3.org/2000/svg" viewBox="0 -0.5 38 38" shape-rendering="crispEdges">
<metadata>Made with Pixels to Svg https://codepen.io/shshaw/pen/XbxvNj</metadata>
<path stroke="#fffc84" d="M9 24h1M11 24h1M26 24h3M8 25h2M27 25h2M29 26h1M7 27h2M7 28h1M7 29h2M7 30h2M7 31h2" />
<path stroke="#fffc85" d="M10 24h1" />
<path stroke="#d8b534" d="M12 24h1" />
<path stroke="#f1e24a" d="M10 25h1M26 25h1M9 26h1M27 26h2M9 27h1M28 27h2M9 28h1M28 28h2M9 29h1M28 29h2M9 30h1M28 30h1M9 31h1M8 32h2M9 33h1" />
<path stroke="#d8b535" d="M11 25h1M25 25h1M10 26h1M30 26h1M30 27h1M30 28h1M27 30h1M30 30h1M10 31h1M26 31h4M10 32h1M26 32h2M10 33h1" />
<path stroke="#fefc84" d="M29 25h1M8 26h1" />
<path stroke="#fefd84" d="M7 26h1" />
<path stroke="#fffd84" d="M8 28h1" />
<path stroke="#d9b535" d="M30 29h1" />
<path stroke="#f1e34a" d="M29 30h1" />
<path stroke="#d8b435" d="M28 32h1" />
</svg>