<svg xmlns="http://www.w3.org/2000/svg" viewBox="0 -0.5 38 38" shape-rendering="crispEdges">
<metadata>Made with Pixels to Svg https://codepen.io/shshaw/pen/XbxvNj</metadata>
<path stroke="#000f0b" d="M12 25h1M11 26h2M12 27h1M11 28h2M11 29h2M11 30h1M11 31h2M11 32h2M11 33h2M12 34h1M11 35h2M11 36h2" />
<path stroke="#0a1513" d="M13 25h2M25 36h1M23 37h1" />
<path stroke="#0b1512" d="M15 25h1M21 27h1M13 28h1M15 29h1M13 31h1M15 37h1" />
<path stroke="#0a1512" d="M16 25h8M14 26h4M22 26h3M13 27h4M22 27h4M14 28h2M25 28h1M13 29h2M25 29h1M13 30h1M15 30h1M15 31h1M20 31h1M13 32h1M19 32h2M13 33h1M24 33h1M24 34h2M24 35h2M13 36h6M23 36h2M13 37h2M16 37h2M22 37h1M24 37h2" />
<path stroke="#131c18" d="M24 25h1" />
<path stroke="#121c19" d="M25 25h1" />
<path stroke="#0a1412" d="M13 26h1M24 28h1" />
<path stroke="#1a3727" d="M18 26h1M21 26h1M20 27h1M14 30h1M19 30h2M25 30h1M18 31h1M21 31h1M18 32h1M21 32h1M14 33h1M20 33h1M25 33h1M19 36h1M18 37h1" />
<path stroke="#7cfeb0" d="M19 26h2M18 27h1M17 28h1M19 28h2M17 29h1M19 29h5M17 30h1M22 30h3M14 31h1M16 31h2M22 31h1M24 31h1M14 32h4M22 32h2M15 33h3M22 33h1M18 34h5M19 35h4M20 36h2M19 37h2" />
<path stroke="#0a1413" d="M25 26h1" />
<path stroke="#000e0b" d="M11 27h1M11 37h2" />
<path stroke="#5df8a3" d="M17 27h1M21 28h2M16 29h1M24 29h1M16 30h1M18 30h1M21 30h1M21 33h1M23 33h1M23 34h1M17 35h2M22 36h1" />
<path stroke="#7cfeb1" d="M19 27h1M23 31h1" />
<path stroke="#44e48c" d="M16 28h1M23 28h1M16 35h1M23 35h1" />
<path stroke="#7dfeb0" d="M18 28h1M17 34h1" />
<path stroke="#7cffb1" d="M18 29h1" />
<path stroke="#010f0b" d="M12 30h1M11 34h1" />
<path stroke="#0b1412" d="M19 31h1" />
<path stroke="#86ffb7" d="M25 31h1M25 32h1M16 34h1" />
<path stroke="#193a28" d="M24 32h1" />
<path stroke="#60ffa8" d="M18 33h1M15 34h1" />
<path stroke="#1a3627" d="M19 33h1M21 37h1" />
<path stroke="#0a1613" d="M13 34h2M13 35h3" />
</svg>