<svg xmlns="http://www.w3.org/2000/svg" viewBox="0 -0.5 38 38" shape-rendering="crispEdges">
<metadata>Made with Pixels to Svg https://codepen.io/shshaw/pen/XbxvNj</metadata>
<path stroke="#0076f5" d="M12 25h1M12 26h1M11 27h2M11 28h1M11 30h1M11 32h1M12 33h1M11 34h2M12 35h1M11 36h1M11 37h2" />
<path stroke="#008ff5" d="M13 25h2M16 25h5M22 25h2M13 26h13M13 27h9M23 27h1M25 27h1M13 28h1M15 28h1M19 28h1M22 28h2M25 28h1M15 29h1M17 29h1M19 29h1M21 29h1M23 29h1M15 30h1M17 30h1M19 30h1M21 30h1M23 30h1M25 30h1M13 31h1M15 31h1M17 31h1M19 31h1M25 31h1M19 32h1M22 32h2M14 33h12M14 34h1M16 34h2M19 34h2M23 34h2M13 35h2M16 35h1M18 35h5M24 35h1M13 36h3M17 36h4M22 36h4M13 37h6M22 37h2" />
<path stroke="#008ef4" d="M15 25h1" />
<path stroke="#008ff4" d="M21 25h1M24 27h1M13 33h1M21 34h1M25 34h1M23 35h1M25 35h1M16 36h1M19 37h1M21 37h1" />
<path stroke="#00aaff" d="M24 25h2" />
<path stroke="#0076f4" d="M11 26h1M11 31h1M12 36h1" />
<path stroke="#008ef5" d="M22 27h1M25 29h1M15 32h1M13 34h1M15 34h1M15 35h1M24 37h2" />
<path stroke="#001249" d="M12 28h1M14 28h1M16 28h3M20 28h1M24 28h1M14 29h1M16 29h1M18 29h1M20 29h1M12 30h1M14 30h1M16 30h1M18 30h1M20 30h1M22 30h1M24 30h1M12 31h1M16 31h1M18 31h1M20 31h1M22 31h1M24 31h1M12 32h1M14 32h1M17 32h2M20 32h2M24 32h2" />
<path stroke="#011249" d="M21 28h1M12 29h1M14 31h1" />
<path stroke="#0077f5" d="M11 29h1M11 33h1" />
<path stroke="#018ef5" d="M13 29h1" />
<path stroke="#001248" d="M22 29h1M16 32h1" />
<path stroke="#001349" d="M24 29h1M13 30h1" />
<path stroke="#018ff5" d="M21 31h1M23 31h1M18 34h1M22 34h1M17 35h1M21 36h1M20 37h1" />
<path stroke="#018ef4" d="M13 32h1" />
<path stroke="#0176f5" d="M11 35h1" />
</svg>