<svg xmlns="http://www.w3.org/2000/svg" viewBox="0 -0.5 38 38" shape-rendering="crispEdges">
<metadata>Made with Pixels to Svg https://codepen.io/shshaw/pen/XbxvNj</metadata>
<path stroke="#1eba64" d="M12 25h1M12 26h1M11 27h2M11 28h2M11 29h2M11 30h2M11 31h2M11 32h2M12 33h1M11 34h1M11 35h2M11 36h2M11 37h2" />
<path stroke="#6bf53d" d="M13 25h2M16 25h8M13 26h13M13 27h3M17 27h1M19 27h4M24 27h2M15 28h6M24 28h2M14 29h1M16 29h1M20 29h1M22 29h4M14 30h1M16 30h1M18 30h1M20 30h1M23 30h1M25 30h1M14 31h1M16 31h1M20 31h1M22 31h4M14 32h1M18 32h3M22 32h2M25 32h1M15 33h2M20 33h1M22 33h2M25 33h1M13 34h2M16 34h10M15 35h11M13 36h5M19 36h7M13 37h4M18 37h2M21 37h1M23 37h1M25 37h1" />
<path stroke="#6bf53c" d="M15 25h1M15 34h1M13 35h1" />
<path stroke="#83ff59" d="M24 25h2" />
<path stroke="#1eba65" d="M11 26h1" />
<path stroke="#6bf43d" d="M16 27h1M23 27h1M14 35h1M22 37h1M24 37h1" />
<path stroke="#6af53d" d="M18 27h1M16 32h1M20 37h1" />
<path stroke="#003f2e" d="M13 28h1M21 28h3M13 29h1M17 29h3M21 29h1M13 30h1M15 30h1M19 30h1M21 30h2M24 30h1M13 31h1M15 31h1M17 31h2M21 31h1M13 32h1M15 32h1M21 32h1M24 32h1M13 33h1M17 33h3M21 33h1M24 33h1" />
<path stroke="#003f2f" d="M14 28h1M17 30h1" />
<path stroke="#013f2e" d="M15 29h1" />
<path stroke="#003e2e" d="M19 31h1M17 32h1M14 33h1" />
<path stroke="#1fba64" d="M11 33h1" />
<path stroke="#1ebb64" d="M12 34h1" />
<path stroke="#6af43d" d="M18 36h1" />
<path stroke="#6af53c" d="M17 37h1" />
</svg>