<svg xmlns="http://www.w3.org/2000/svg" viewBox="0 -0.5 38 38" shape-rendering="crispEdges">
<metadata>Made with Pixels to Svg https://codepen.io/shshaw/pen/XbxvNj</metadata>
<path stroke="#1a1a23" d="M12 25h1M11 26h1M11 27h2M11 28h2M11 29h2M11 30h2M11 31h2M11 32h2M11 33h2M11 34h2M11 35h2M11 36h2M11 37h2" />
<path stroke="#252534" d="M13 25h2M13 26h1M15 26h1M25 26h1M13 27h3M24 27h2M13 28h4M24 28h1M13 29h5M24 29h2M13 30h1M15 30h4M23 30h1M25 30h1M13 31h7M24 31h2M13 32h6M20 32h1M22 32h1M24 32h2M13 33h1M15 33h11M13 34h2M16 34h10M13 35h7M22 35h4M13 36h3M17 36h3M22 36h1M25 36h1M13 37h1M15 37h2M18 37h5M24 37h2" />
<path stroke="#c52133" d="M19 25h4M22 26h1M21 27h1M21 28h2M21 29h2M21 30h2M21 31h2M21 32h1" />
<path stroke="#373642" d="M25 25h1" />
<path stroke="#1a1a22" d="M12 26h1" />
<path stroke="#242534" d="M14 26h1M17 28h1M14 30h1M15 34h1" />
<path stroke="#363643" d="M16 26h1M17 27h1M18 28h1M23 29h1" />
<path stroke="#fc4559" d="M19 26h1" />
<path stroke="#fb0621" d="M20 26h2M19 28h2M19 29h2M19 30h2M20 31h1" />
<path stroke="rgba(24,24,34,0.20784313725490197)" d="M24 26h1M18 27h2M22 27h1M23 28h1" />
<path stroke="#252535" d="M16 27h1M25 28h1M23 32h1M17 37h1" />
<path stroke="#fb0620" d="M20 27h1" />
<path stroke="rgba(25,24,34,0.20784313725490197)" d="M23 27h1" />
<path stroke="#252434" d="M18 29h1M24 30h1M23 31h1M19 32h1M14 33h1M23 36h2M14 37h1M23 37h1" />
<path stroke="#ffb83f" d="M20 35h2" />
<path stroke="#242434" d="M16 36h1" />
<path stroke="#d49730" d="M20 36h2" />
</svg>