<svg xmlns="http://www.w3.org/2000/svg" viewBox="0 -0.5 38 38" shape-rendering="crispEdges">
<metadata>Made with Pixels to Svg https://codepen.io/shshaw/pen/XbxvNj</metadata>
<path stroke="#e56482" d="M12 25h1M11 26h2M11 27h2M11 29h1M11 30h1M11 31h1M11 32h1M11 33h2M11 34h2M11 35h2M11 36h2M11 37h2" />
<path stroke="#e78290" d="M13 25h8M22 25h1M15 26h11M13 27h5M21 27h5M15 28h1M19 28h1M22 28h2M25 28h1M13 29h1M17 29h1M19 29h1M21 29h1M25 29h1M15 30h1M17 30h1M21 30h1M23 30h1M25 30h1M15 31h1M17 31h1M19 31h1M21 31h1M23 31h1M25 31h1M13 32h1M15 32h1M19 32h1M22 32h2M13 33h5M19 33h7M13 34h3M18 34h8M13 35h7M21 35h5M13 36h8M23 36h1M25 36h1M13 37h5M19 37h7" />
<path stroke="#e68290" d="M21 25h1M23 25h1M20 27h1M13 28h1M17 34h1M20 35h1" />
<path stroke="#ffb7be" d="M24 25h2" />
<path stroke="#e78390" d="M13 26h1M18 27h1M23 29h1M21 36h2M18 37h1" />
<path stroke="#e78391" d="M14 26h1" />
<path stroke="#e78291" d="M19 27h1M15 29h1M19 30h1M13 31h1M18 33h1M16 34h1M24 36h1" />
<path stroke="#e56483" d="M11 28h1" />
<path stroke="#2f0911" d="M12 28h1M14 28h1M16 28h3M20 28h2M24 28h1M12 29h1M14 29h1M16 29h1M18 29h1M20 29h1M24 29h1M13 30h2M16 30h1M20 30h1M22 30h1M24 30h1M12 31h1M14 31h1M16 31h1M18 31h1M24 31h1M12 32h1M14 32h1M16 32h3M20 32h2M24 32h2" />
<path stroke="#2f0811" d="M22 29h1M18 30h1M20 31h1M22 31h1" />
<path stroke="#2f0910" d="M12 30h1" />
</svg>