<svg xmlns="http://www.w3.org/2000/svg" viewBox="0 -0.5 38 38" shape-rendering="crispEdges">
<metadata>Made with Pixels to Svg https://codepen.io/shshaw/pen/XbxvNj</metadata>
<path stroke="#7124ee" d="M12 25h1M14 25h1M16 25h1M18 25h1M20 25h4M11 26h2M14 26h1M17 26h6M11 27h2M15 27h8M15 28h5M18 29h2M13 32h13M14 33h3M18 33h8M14 34h2M17 34h6M25 34h1" />
<path stroke="#af1a29" d="M13 25h1" />
<path stroke="#7124ef" d="M15 25h1M20 28h1M17 29h1M16 34h1M24 34h1" />
<path stroke="#7125ee" d="M17 25h1M25 26h1M14 27h1M11 28h1M17 33h1" />
<path stroke="#7024ef" d="M19 25h1M23 34h1" />
<path stroke="#ae1a29" d="M24 25h1M13 26h1M24 26h1M24 27h1M12 31h1M18 31h1M25 31h1M11 32h1M11 35h2M25 35h1" />
<path stroke="#7e3aeb" d="M15 26h2M12 28h1M12 29h1M12 30h1" />
<path stroke="#7024ee" d="M23 26h1M25 27h1" />
<path stroke="#ae1b29" d="M13 27h1" />
<path stroke="#6514dd" d="M23 27h1M22 28h1M25 28h1M11 29h1M20 29h1M25 29h1M11 30h1M19 30h1M25 30h1M11 31h1M12 32h1M12 33h2M11 34h3M13 36h2M24 36h1M15 37h1M22 37h3" />
<path stroke="#ff0c27" d="M13 28h2M23 28h2M13 29h4M21 29h3M13 30h5M20 30h1M22 30h3M13 35h7M21 35h4M16 36h3M20 36h4M18 37h1M20 37h1" />
<path stroke="#6414dd" d="M21 28h1M25 36h1" />
<path stroke="#fe0c27" d="M24 29h1M19 36h1" />
<path stroke="#6515dd" d="M18 30h1" />
<path stroke="#ff0d27" d="M21 30h1" />
<path stroke="#d10824" d="M13 31h2M16 31h1M20 31h5M15 36h1M17 37h1M21 37h1" />
<path stroke="#d00824" d="M15 31h1" />
<path stroke="#d10924" d="M17 31h1" />
<path stroke="#af1a28" d="M19 31h1" />
<path stroke="#6514dc" d="M11 33h1" />
<path stroke="#ff0d26" d="M20 35h1" />
<path stroke="#5519af" d="M11 36h1M12 37h1" />
<path stroke="#5519ae" d="M12 36h1M11 37h1M13 37h2M25 37h1" />
<path stroke="#d10825" d="M16 37h1" />
<path stroke="#ff0c26" d="M19 37h1" />
</svg>