<svg xmlns="http://www.w3.org/2000/svg" viewBox="0 -0.5 38 38" shape-rendering="crispEdges">
<metadata>Made with Pixels to Svg https://codepen.io/shshaw/pen/XbxvNj</metadata>
<path stroke="#dddddd" d="M12 25h1M12 26h1M11 27h2M11 28h2M11 29h1M11 30h2M11 31h2M12 32h1M11 33h2M12 34h1M11 35h2M11 36h2M11 37h2" />
<path stroke="#ffffff" d="M13 25h2M16 25h4M22 25h1M24 25h1M15 26h1M18 26h2M21 26h2M24 26h1" />
<path stroke="#fffefe" d="M15 25h1" />
<path stroke="#d3d3d3" d="M20 25h1M20 28h1M20 34h1" />
<path stroke="#feffff" d="M21 25h1M23 26h1" />
<path stroke="#fffffe" d="M23 25h1M25 25h1M17 26h1" />
<path stroke="#dcdddd" d="M11 26h1M11 34h1" />
<path stroke="#ebebeb" d="M13 26h2M25 26h1M15 27h5M22 27h2M25 27h1M13 28h7M22 28h1M24 28h2M13 29h1M15 29h5M22 29h4M13 30h4M18 30h1M23 30h3M13 31h7M22 31h4M13 32h7M22 32h4M13 33h4M18 33h2M22 33h4M14 34h6M22 34h4M13 35h3M17 35h3M22 35h4M14 36h6M22 36h3M13 37h7M22 37h4" />
<path stroke="#fffeff" d="M16 26h1" />
<path stroke="#eaebeb" d="M20 26h1M21 27h1M24 27h1M23 28h1M22 30h1" />
<path stroke="#ebebea" d="M13 27h2M17 30h1M13 34h1M13 36h1M25 36h1" />
<path stroke="#f5f5f5" d="M20 27h1M21 28h1M21 29h1M20 30h2M21 31h1M20 32h2M20 35h2M20 36h2M21 37h1" />
<path stroke="#dddddc" d="M12 29h1" />
<path stroke="#ebeaeb" d="M14 29h1" />
<path stroke="#f4f5f5" d="M20 29h1M21 34h1" />
<path stroke="#eaebea" d="M19 30h1" />
<path stroke="#d3d3d2" d="M20 31h1" />
<path stroke="#dddcdd" d="M11 32h1" />
<path stroke="#ebeaea" d="M17 33h1M16 35h1" />
<path stroke="#f5f5f4" d="M20 33h2" />
<path stroke="#d3d2d3" d="M20 37h1" />
</svg>