<svg xmlns="http://www.w3.org/2000/svg" viewBox="0 -0.5 38 38" shape-rendering="crispEdges">
<metadata>Made with Pixels to Svg https://codepen.io/shshaw/pen/XbxvNj</metadata>
<path stroke="#dbcdaf" d="M12 25h1M25 25h1M11 26h2M16 26h1M11 27h1M17 27h1M12 28h1M18 28h1M11 29h2M23 29h1M11 30h2M11 31h2M11 32h2M12 33h1M11 34h2M11 35h2M11 36h2M11 37h2" />
<path stroke="#f2e7ce" d="M13 25h2M13 26h2M25 26h1M13 27h4M24 27h2M13 28h5M25 28h1M13 29h1M15 29h2M18 29h1M24 29h1M13 30h6M24 30h2M13 31h7M23 31h3M13 32h8M22 32h4M13 33h1M15 33h5M21 33h5M13 34h2M16 34h4M21 34h3M25 34h1M13 35h2M16 35h1M19 35h1M22 35h4M13 36h1M15 36h5M22 36h1M24 36h2M13 37h2M16 37h1M19 37h7" />
<path stroke="#a5002f" d="M19 25h4" />
<path stroke="#f2e7cf" d="M15 26h1M24 28h1M17 29h1M25 29h1M23 30h1M24 34h1M17 35h1M15 37h1" />
<path stroke="#fa0099" d="M19 26h2M20 27h1M19 28h2M19 29h2M19 30h2M20 31h1" />
<path stroke="#d1005c" d="M21 26h1M21 27h1M21 28h1M22 29h1M21 30h2M21 31h2M21 32h1" />
<path stroke="#a5012f" d="M22 26h1" />
<path stroke="rgba(24,24,34,0.20784313725490197)" d="M24 26h1M19 27h1M22 27h2M23 28h1" />
<path stroke="#dbccaf" d="M12 27h1" />
<path stroke="rgba(24,25,34,0.20784313725490197)" d="M18 27h1" />
<path stroke="#dbcdae" d="M11 28h1" />
<path stroke="#d0005c" d="M22 28h1M21 29h1" />
<path stroke="#f2e6ce" d="M14 29h1M14 33h1M17 37h2" />
<path stroke="#dacdaf" d="M11 33h1" />
<path stroke="#f3e7ce" d="M20 33h1M15 34h1M20 34h1M15 35h1M18 35h1M14 36h1M23 36h1" />
<path stroke="#ae6667" d="M20 35h2" />
<path stroke="#8c5656" d="M20 36h2" />
</svg>