<svg xmlns="http://www.w3.org/2000/svg" viewBox="0 -0.5 38 38" shape-rendering="crispEdges">
<metadata>Made with Pixels to Svg https://codepen.io/shshaw/pen/XbxvNj</metadata>
<path stroke="#e56482" d="M12 25h1M11 26h2M11 27h2M11 28h1M11 30h1M11 31h1M11 32h1M12 33h1M11 34h2M11 35h1M11 36h2M11 37h2" />
<path stroke="#e78290" d="M13 25h11M13 26h2M18 26h1M21 26h5M13 27h12M15 28h1M23 28h1M25 28h1M13 29h1M15 29h1M17 29h1M19 29h1M21 29h1M23 29h1M25 29h1M15 30h1M17 30h1M19 30h1M21 30h1M23 30h1M25 30h1M13 31h3M21 31h1M23 31h1M25 31h1M13 32h2M19 32h1M23 32h1M15 33h4M21 33h5M13 34h1M16 34h2M19 34h2M23 34h3M13 35h5M19 35h6M13 36h10M24 36h2M13 37h7M21 37h5" />
<path stroke="#ffb7be" d="M24 25h1" />
<path stroke="#feb7be" d="M25 25h1" />
<path stroke="#e78390" d="M15 26h1M17 26h1M19 26h2M15 32h1M13 33h1M14 34h1M18 34h1" />
<path stroke="#e78291" d="M16 26h1M25 27h1M19 28h1M17 31h1M14 33h1M19 33h2M15 34h1M21 34h2" />
<path stroke="#2f0911" d="M12 28h1M14 28h1M16 28h3M20 28h2M24 28h1M12 29h1M14 29h1M16 29h1M18 29h1M20 29h1M12 30h3M18 30h1M20 30h1M22 30h1M24 30h1M16 31h1M18 31h1M20 31h1M22 31h1M24 31h1M12 32h1M16 32h3M20 32h3M24 32h2" />
<path stroke="#2e0911" d="M13 28h1M24 29h1" />
<path stroke="#2f0910" d="M22 28h1M22 29h1" />
<path stroke="#e46482" d="M11 29h1M12 35h1" />
<path stroke="#2f0811" d="M16 30h1M12 31h1" />
<path stroke="#e68290" d="M19 31h1M18 35h1M25 35h1M23 36h1M20 37h1" />
<path stroke="#e56483" d="M11 33h1" />
</svg>