<svg xmlns="http://www.w3.org/2000/svg" viewBox="0 -0.5 38 38" shape-rendering="crispEdges">
<metadata>Made with Pixels to Svg https://codepen.io/shshaw/pen/XbxvNj</metadata>
<path stroke="#abaaaa" d="M12 25h1M24 25h1M14 36h1M20 36h1" />
<path stroke="#aaaaaa" d="M13 25h2M25 25h1M14 27h1M17 27h1M20 27h1M23 27h1M25 27h1M25 28h1M25 29h1M14 30h1M25 30h1M25 31h1M25 32h1M23 33h1M25 33h1M25 34h1M25 35h1M17 36h1M23 36h1M25 36h1M25 37h1" />
<path stroke="#858585" d="M15 25h7M23 25h1M14 26h1M18 26h7M15 27h2M18 27h2M21 27h2M24 27h1M13 28h1M15 28h2M18 28h1M13 29h11M13 30h1M15 30h8M24 30h1M13 31h1M15 31h5M22 31h1M24 31h1M13 32h2M16 32h9M13 33h1M16 33h7M24 33h1M13 34h1M15 34h2M18 34h3M24 34h1M13 35h1M16 35h9M13 36h1M15 36h2M18 36h2M21 36h2M24 36h1M13 37h1M15 37h2M18 37h1M22 37h1M24 37h1" />
<path stroke="#858485" d="M22 25h1M13 26h1M19 28h1M22 28h1M24 28h1M15 33h1M22 34h1" />
<path stroke="#767676" d="M11 26h2M11 27h1M11 28h2M14 28h1M17 28h1M20 28h1M23 28h1M11 29h2M11 30h2M11 31h2M14 31h1M23 31h1M11 32h2M11 33h2M11 34h2M23 34h1M11 35h2M11 36h2M14 37h1M17 37h1M20 37h1M23 37h1" />
<path stroke="#848585" d="M15 26h1M13 27h1M15 32h1M21 37h1" />
<path stroke="#848485" d="M16 26h1" />
<path stroke="#858584" d="M17 26h1M21 28h1M24 29h1M20 31h2M17 34h1M21 34h1M14 35h2M19 37h1" />
<path stroke="#aaabaa" d="M25 26h1M23 30h1" />
<path stroke="#767776" d="M12 27h1" />
<path stroke="#aaaaab" d="M14 33h1" />
<path stroke="#767677" d="M14 34h1M12 37h1" />
<path stroke="#777676" d="M11 37h1" />
</svg>