<svg xmlns="http://www.w3.org/2000/svg" viewBox="0 -0.5 38 38" shape-rendering="crispEdges">
<metadata>Made with Pixels to Svg https://codepen.io/shshaw/pen/XbxvNj</metadata>
<path stroke="#8e7566" d="M12 25h1M11 26h2" />
<path stroke="#8e747c" d="M13 25h1M13 27h2M25 27h1M13 31h3M17 31h1M19 31h1M22 31h2M25 31h1M13 35h1M15 35h1M17 35h3M22 35h1M25 35h1M18 37h1M22 37h1" />
<path stroke="#866d7d" d="M14 25h1" />
<path stroke="#dfb594" d="M24 25h2" />
<path stroke="#b79076" d="M13 26h1M15 26h1" />
<path stroke="#937a83" d="M14 26h1" />
<path stroke="#aa8868" d="M16 26h1" />
<path stroke="rgba(24,24,34,0.20784313725490197)" d="M17 26h1M20 26h2" />
<path stroke="#01c383" d="M18 26h2" />
<path stroke="#00c383" d="M22 26h2M18 27h1M21 27h1" />
<path stroke="#aa8968" d="M24 26h1M16 28h1M24 28h1M16 30h1M24 30h1M16 32h1M20 32h1M24 32h1M16 34h1M24 34h1M16 36h1M20 36h1M24 36h1" />
<path stroke="#b58f70" d="M25 26h1M13 28h1M15 28h1M25 28h1M15 30h1M17 30h1M23 30h1M25 30h1M13 32h1M15 32h1M17 32h1M21 32h1M23 32h1M25 32h1M15 34h1M17 34h1M19 34h1M23 34h1M25 34h1M13 36h1M15 36h1M17 36h1M19 36h1M21 36h1M23 36h1M25 36h1" />
<path stroke="#8b7863" d="M11 27h2M11 31h1M11 35h1" />
<path stroke="#8e757c" d="M15 27h1M18 31h1" />
<path stroke="#8c7171" d="M16 27h1M24 27h1M14 29h1M16 31h1M14 33h1M18 33h1M22 33h1M16 35h1M24 35h1" />
<path stroke="#008181" d="M17 27h1M17 28h1M20 28h2M18 29h2M22 29h1" />
<path stroke="#00a389" d="M19 27h2M18 28h2M22 28h1" />
<path stroke="#00a388" d="M22 27h2" />
<path stroke="#947862" d="M11 28h2M11 30h1M11 32h2M12 34h1M11 36h2" />
<path stroke="#967d7a" d="M14 28h1M14 30h1M18 30h1M14 32h1M18 32h1M22 32h1M14 34h1M18 34h1M22 34h1M14 36h1M18 36h1" />
<path stroke="#008081" d="M23 28h1" />
<path stroke="#8b7662" d="M11 29h2M11 33h1M11 37h1" />
<path stroke="#a07e5c" d="M13 29h1M15 29h3M20 29h1M24 29h2M13 33h1M15 33h3M19 33h3M23 33h1M25 33h1M13 37h1M16 37h2M19 37h3M23 37h3" />
<path stroke="#a17e5c" d="M21 29h1" />
<path stroke="#018081" d="M23 29h1" />
<path stroke="#947962" d="M12 30h1" />
<path stroke="#b58e70" d="M13 30h1" />
<path stroke="#b58f71" d="M19 30h1" />
<path stroke="#bdc2c5" d="M20 30h2M20 34h2" />
<path stroke="#967c7a" d="M22 30h1" />
<path stroke="#8a7863" d="M12 31h1" />
<path stroke="#a3a8aa" d="M20 31h1" />
<path stroke="#a3a8ab" d="M21 31h1M20 35h2" />
<path stroke="#8c7071" d="M24 31h1" />
<path stroke="#b48f70" d="M19 32h1M13 34h1" />
<path stroke="#8a7662" d="M12 33h1" />
<path stroke="#a17f5c" d="M24 33h1" />
<path stroke="#947963" d="M11 34h1" />
<path stroke="#8b7862" d="M12 35h1" />
<path stroke="#8e757d" d="M14 35h1" />
<path stroke="#8e747d" d="M23 35h1" />
<path stroke="#967d7b" d="M22 36h1" />
<path stroke="#8b7663" d="M12 37h1" />
<path stroke="#8f747c" d="M14 37h1" />
<path stroke="#a07f5c" d="M15 37h1" />
</svg>