<svg xmlns="http://www.w3.org/2000/svg" viewBox="0 -0.5 38 38" shape-rendering="crispEdges">
<metadata>Made with Pixels to Svg https://codepen.io/shshaw/pen/XbxvNj</metadata>
<path stroke="#7024ee" d="M12 25h1M16 26h1M18 26h1M24 26h1M11 28h1M13 29h1M25 30h1M21 31h1" />
<path stroke="#7124ee" d="M13 25h11M13 26h2M17 26h1M19 26h2M22 26h2M11 27h3M15 27h5M21 27h1M23 27h1M25 27h1M12 28h6M19 28h3M24 28h1M14 29h7M22 29h4M13 30h12M13 31h3M17 31h2M20 31h1M23 31h3M14 32h11" />
<path stroke="#7e3aeb" d="M24 25h1" />
<path stroke="#7125ee" d="M11 26h1M25 26h1M14 27h1M20 27h1M22 27h1M24 27h1M18 28h1M22 28h1M21 29h1M22 31h1" />
<path stroke="#7124ef" d="M12 26h1M15 26h1M21 26h1M23 28h1M25 28h1M16 31h1M19 31h1M25 32h1" />
<path stroke="#6514dd" d="M11 29h2M11 30h2M12 31h1M11 32h1M13 32h1M11 33h5M19 33h1M23 33h2" />
<path stroke="#6514dc" d="M11 31h1" />
<path stroke="#6414dd" d="M12 32h1" />
<path stroke="#ffdce5" d="M16 33h2M21 33h2M17 34h2M20 34h2" />
<path stroke="#ffbcd5" d="M18 33h1M20 33h1M16 34h1M19 34h1M22 34h1" />
<path stroke="#6515dd" d="M25 33h1" />
<path stroke="#ca57a8" d="M11 34h1" />
<path stroke="#ff5ac2" d="M12 34h1" />
<path stroke="#ff5bc2" d="M13 34h3" />
<path stroke="#f56ac1" d="M23 34h1M25 34h1" />
<path stroke="#f56ac0" d="M24 34h1" />
<path stroke="#d27e58" d="M11 35h1" />
<path stroke="#d2695c" d="M12 35h1" />
<path stroke="#fe8163" d="M13 35h1" />
<path stroke="#ff8163" d="M14 35h3M18 35h2M21 35h5" />
<path stroke="#ff8162" d="M17 35h1M20 35h1" />
<path stroke="#d2b030" d="M11 36h1" />
<path stroke="#d28749" d="M12 36h1M19 36h1" />
<path stroke="#ffa64b" d="M13 36h1M15 36h1M17 36h1M20 36h4" />
<path stroke="#ffa74b" d="M14 36h1M25 36h1" />
<path stroke="#fea64b" d="M16 36h1" />
<path stroke="#fea64a" d="M18 36h1" />
<path stroke="#ffa64a" d="M24 36h1" />
<path stroke="#d2b130" d="M11 37h2M19 37h1" />
<path stroke="#ffda30" d="M13 37h5M20 37h1M22 37h4" />
<path stroke="#feda31" d="M18 37h1" />
<path stroke="#ffdb30" d="M21 37h1" />
</svg>