<svg xmlns="http://www.w3.org/2000/svg" viewBox="0 -0.5 38 38" shape-rendering="crispEdges">
<metadata>Made with Pixels to Svg https://codepen.io/shshaw/pen/XbxvNj</metadata>
<path stroke="#e56482" d="M12 25h1M11 26h1M11 27h1M11 28h1M11 29h1M11 30h1M11 31h2M11 32h2M11 33h2M11 34h1M11 35h2M11 36h2M11 37h2" />
<path stroke="#e78290" d="M13 25h3M17 25h1M19 25h2M23 25h1M14 26h1M16 26h3M21 26h5M13 27h13M15 28h3M20 28h1M25 28h1M14 29h1M20 29h1M22 29h3M14 30h1M16 30h1M20 30h1M23 30h1M25 30h1M14 31h1M16 31h1M20 31h1M22 31h2M25 31h1M14 32h1M16 32h1M18 32h3M22 32h1M25 32h1M15 33h2M20 33h1M23 33h1M25 33h1M13 34h6M20 34h1M22 34h4M13 35h2M16 35h10M13 36h10M24 36h2M13 37h1M15 37h9M25 37h1" />
<path stroke="#e78390" d="M16 25h1M20 26h1M18 28h2M16 29h1M24 31h1M19 34h1M14 37h1" />
<path stroke="#e68290" d="M18 25h1M22 25h1M24 28h1M18 30h1M15 35h1M23 36h1" />
<path stroke="#e78291" d="M21 25h1M13 26h1M15 26h1M19 26h1M25 29h1M23 32h1M21 34h1M24 37h1" />
<path stroke="#ffb7be" d="M24 25h2" />
<path stroke="#e56582" d="M12 26h1M12 27h1M12 28h1M12 29h1M12 34h1" />
<path stroke="#2f0911" d="M13 28h2M21 28h1M23 28h1M13 29h1M15 29h1M17 29h1M19 29h1M13 30h1M15 30h1M17 30h1M19 30h1M22 30h1M13 31h1M15 31h1M17 31h3M21 31h1M13 32h1M15 32h1M17 32h1M21 32h1M24 32h1M13 33h2M17 33h1M19 33h1M21 33h1M24 33h1" />
<path stroke="#2f0910" d="M22 28h1M18 29h1M18 33h1" />
<path stroke="#2e0911" d="M21 29h1" />
<path stroke="#e46482" d="M12 30h1" />
<path stroke="#2f0811" d="M21 30h1" />
<path stroke="#2e0910" d="M24 30h1" />
<path stroke="#e78391" d="M22 33h1" />
</svg>