<svg xmlns="http://www.w3.org/2000/svg" viewBox="0 -0.5 38 38" shape-rendering="crispEdges">
<metadata>Made with Pixels to Svg https://codepen.io/shshaw/pen/XbxvNj</metadata>
<path stroke="#6bf53d" d="M9 24h3M27 24h2M8 25h2M27 25h3M8 26h1M29 26h1M7 27h2M7 28h2M7 29h2M7 30h2M7 31h1" />
<path stroke="#28d940" d="M12 24h1M10 25h1M9 26h1M27 26h1M9 27h1M28 27h2M9 28h1M28 28h2M9 29h1M28 29h2M9 30h1M28 30h2M9 31h1M9 32h1M9 33h1" />
<path stroke="#6af43c" d="M26 24h1" />
<path stroke="#1eba64" d="M11 25h1M25 25h1M10 26h1M30 27h1M30 28h1M30 29h1M27 30h1M30 30h1M10 31h1M26 31h3M26 32h3" />
<path stroke="#28d841" d="M26 25h1" />
<path stroke="#6bf43d" d="M7 26h1" />
<path stroke="#28d840" d="M28 26h1" />
<path stroke="#1ebb64" d="M30 26h1M10 32h1" />
<path stroke="#6bf53c" d="M8 31h1" />
<path stroke="#1fba64" d="M29 31h1" />
<path stroke="#29d940" d="M8 32h1" />
<path stroke="#1eba65" d="M10 33h1" />
</svg>