<svg xmlns="http://www.w3.org/2000/svg" viewBox="0 -0.5 38 38" shape-rendering="crispEdges">
<metadata>Made with Pixels to Svg https://codepen.io/shshaw/pen/XbxvNj</metadata>
<path stroke="#042552" d="M12 25h4M17 25h2M20 25h1M22 25h2M11 26h15M11 27h1M13 27h4M18 27h4M23 27h3M11 28h1M13 28h1M15 28h1M19 28h1M22 28h2M25 28h1M11 29h1M13 29h1M15 29h1M17 29h1M19 29h1M21 29h1M23 29h1M25 29h1M11 30h1M15 30h1M17 30h1M21 30h1M23 30h1M11 31h1M13 31h1M15 31h1M17 31h1M21 31h1M23 31h1M25 31h1M11 32h1M13 32h1M15 32h1M19 32h1M22 32h2M11 33h6M18 33h8M11 34h1M14 34h1M16 34h7M24 34h2M11 35h1M14 35h12M11 36h15M11 37h1M13 37h10M24 37h2" />
<path stroke="#042453" d="M16 25h1" />
<path stroke="#052552" d="M19 25h1M17 27h1M19 30h1M25 30h1M23 34h1M12 35h1M12 37h1" />
<path stroke="#042553" d="M21 25h1M12 27h1M17 33h1M15 34h1M13 35h1" />
<path stroke="#093a7e" d="M24 25h2" />
<path stroke="#052452" d="M22 27h1" />
<path stroke="#e9f7ff" d="M12 28h1M14 28h1M16 28h1M18 28h1M20 28h2M24 28h1M12 29h1M16 29h1M18 29h1M20 29h1M22 29h1M24 29h1M12 30h1M14 30h1M18 30h1M20 30h1M22 30h1M24 30h1M12 31h1M14 31h1M16 31h1M18 31h1M20 31h1M22 31h1M24 31h1M12 32h1M14 32h1M16 32h1M18 32h1M20 32h1M24 32h2" />
<path stroke="#e8f6ff" d="M17 28h1M13 30h1" />
<path stroke="#e9f6ff" d="M14 29h1" />
<path stroke="#e9f7fe" d="M16 30h1M21 32h1" />
<path stroke="#042452" d="M19 31h1M12 34h2M23 37h1" />
<path stroke="#e9f6fe" d="M17 32h1" />
</svg>