<svg xmlns="http://www.w3.org/2000/svg" viewBox="0 -0.5 38 38" shape-rendering="crispEdges">
<metadata>Made with Pixels to Svg https://codepen.io/shshaw/pen/XbxvNj</metadata>
<path stroke="#dbcdaf" d="M12 25h1M25 25h1M16 26h1M12 27h1M17 27h1M12 28h1M12 29h1M23 29h1M11 30h2M11 31h2M11 32h2M11 33h2M11 35h2M11 36h2M11 37h2" />
<path stroke="#f2e7ce" d="M13 25h2M13 26h3M25 26h1M13 27h4M24 27h2M13 28h1M15 28h3M24 28h2M13 29h2M16 29h3M24 29h2M13 30h6M23 30h2M13 31h1M15 31h1M17 31h3M23 31h3M13 32h2M16 32h5M23 32h3M13 33h10M24 33h2M14 34h1M16 34h2M19 34h7M14 35h1M16 35h4M22 35h4M13 36h3M17 36h3M22 36h4M14 37h5M20 37h4M25 37h1" />
<path stroke="#22232c" d="M19 25h2M22 25h1M21 26h2M21 27h1M21 28h2M22 29h1M21 30h2M21 31h1M21 32h1" />
<path stroke="#22232d" d="M21 25h1M21 29h1M22 31h1" />
<path stroke="#dacdaf" d="M11 26h2M18 28h1M11 34h1" />
<path stroke="#2f2f3c" d="M19 26h2M20 27h1M19 28h2M19 29h2M20 30h1M20 31h1" />
<path stroke="rgba(24,24,34,0.20784313725490197)" d="M24 26h1M19 27h1M23 28h1" />
<path stroke="#dbcdae" d="M11 27h1M11 29h1M12 34h1" />
<path stroke="rgba(25,24,34,0.20784313725490197)" d="M18 27h1M22 27h2" />
<path stroke="#dbccaf" d="M11 28h1" />
<path stroke="#f3e7ce" d="M14 28h1M15 29h1M14 31h1M16 31h1M13 35h1M24 37h1" />
<path stroke="#2f2e3c" d="M19 30h1" />
<path stroke="#f2e7cf" d="M25 30h1M15 32h1M22 32h1M23 33h1M15 35h1M16 36h1M13 37h1M19 37h1" />
<path stroke="#f2e6ce" d="M13 34h1M15 34h1" />
<path stroke="#f3e7cf" d="M18 34h1" />
<path stroke="#ffb83f" d="M20 35h1" />
<path stroke="#feb83f" d="M21 35h1" />
<path stroke="#d49730" d="M20 36h2" />
</svg>