<svg xmlns="http://www.w3.org/2000/svg" viewBox="0 -0.5 38 38" shape-rendering="crispEdges">
<metadata>Made with Pixels to Svg https://codepen.io/shshaw/pen/XbxvNj</metadata>
<path stroke="#50353d" d="M12 25h1M11 26h2M11 27h2M11 28h2M11 29h2M12 30h1M12 31h1M11 32h2M11 33h1M11 34h2M12 35h1M12 36h1M11 37h2" />
<path stroke="#64403e" d="M13 25h2M13 26h3M24 26h2M14 27h3M24 27h1M13 28h4M24 28h2M14 29h4M20 29h2M24 29h1M13 30h3M17 30h1M19 30h1M22 30h4M13 31h4M18 31h2M22 31h4M13 32h1M15 32h1M17 32h1M20 32h4M25 32h1M13 33h1M15 33h1M17 33h6M24 33h2M14 34h6M22 34h1M24 34h2M13 35h7M22 35h2M13 36h4M18 36h6M25 36h1M13 37h6M21 37h2M24 37h2" />
<path stroke="#7e5f5e" d="M24 25h1" />
<path stroke="#7f5f5e" d="M25 25h1" />
<path stroke="#64413e" d="M16 26h1M18 32h2M16 33h1M23 33h1M24 35h1M17 36h1M24 36h1" />
<path stroke="rgba(24,24,34,0.20784313725490197)" d="M17 26h1M20 26h2" />
<path stroke="#12c446" d="M18 26h1M22 26h2M21 27h1" />
<path stroke="#12c447" d="M19 26h1" />
<path stroke="#64403f" d="M13 27h1M25 29h1M18 30h1M14 32h1M13 34h1M23 34h1M25 35h1M19 37h2" />
<path stroke="#019458" d="M17 27h1M21 28h1" />
<path stroke="#12c546" d="M18 27h1" />
<path stroke="#0ead54" d="M19 27h2M22 27h2M18 28h2M22 28h1" />
<path stroke="#65403e" d="M25 27h1M13 29h1M16 30h1M17 31h1M16 32h1M24 32h1M14 33h1M23 37h1" />
<path stroke="#009458" d="M17 28h1M20 28h1M23 28h1M18 29h1M22 29h2" />
<path stroke="#009558" d="M19 29h1" />
<path stroke="#50353c" d="M11 30h1M11 36h1" />
<path stroke="#9cb3b9" d="M20 30h1M20 34h2" />
<path stroke="#9cb2b9" d="M21 30h1" />
<path stroke="#51353d" d="M11 31h1" />
<path stroke="#7e9398" d="M20 31h2M20 35h2" />
<path stroke="#50343d" d="M12 33h1M11 35h1" />
</svg>