<svg xmlns="http://www.w3.org/2000/svg" viewBox="0 -0.5 38 38" shape-rendering="crispEdges">
<metadata>Made with Pixels to Svg https://codepen.io/shshaw/pen/XbxvNj</metadata>
<path stroke="#9facf6" d="M12 25h1M12 27h1M11 28h2M11 30h1M12 31h1M11 32h2M11 33h2M11 34h2M11 35h2M11 36h2M11 37h2" />
<path stroke="#d3d8ff" d="M13 25h7M21 25h5M15 26h5M21 26h4" />
<path stroke="#8d9af5" d="M20 25h1M20 28h1M20 31h1M20 34h1" />
<path stroke="#9fadf6" d="M11 26h1" />
<path stroke="#9eacf6" d="M12 26h1M11 29h1M11 31h1" />
<path stroke="#bac1f9" d="M13 26h1M20 26h1M25 26h1M13 27h4M18 27h2M21 27h4M14 28h2M18 28h1M23 28h1M25 28h1M13 29h2M16 29h2M19 29h1M22 29h4M13 30h4M18 30h2M22 30h4M13 31h5M19 31h1M22 31h4M13 32h7M22 32h2M25 32h1M13 33h2M16 33h4M22 33h3M13 34h7M22 34h4M14 35h4M19 35h1M22 35h4M13 36h1M18 36h2M22 36h2M25 36h1M14 37h6M22 37h4" />
<path stroke="#bbc1f9" d="M14 26h1M13 28h1M15 29h1M18 31h1M13 35h1M14 36h2M17 36h1M13 37h1" />
<path stroke="#9facf7" d="M11 27h1M12 29h1M12 30h1" />
<path stroke="#bac0f9" d="M17 27h1M17 28h1M19 28h1M18 29h1M15 33h1M25 33h1M18 35h1M16 36h1M24 36h1" />
<path stroke="#ccd2fb" d="M20 27h1M21 28h1M20 29h2M20 30h2M21 31h1M20 32h2M20 33h2M21 34h1M20 35h2M20 36h2M21 37h1" />
<path stroke="#bac1f8" d="M25 27h1M16 28h1M22 28h1M24 28h1M17 30h1M24 32h1" />
<path stroke="#8c9af5" d="M20 37h1" />
</svg>