<svg xmlns="http://www.w3.org/2000/svg" viewBox="0 -0.5 38 38" shape-rendering="crispEdges">
<metadata>Made with Pixels to Svg https://codepen.io/shshaw/pen/XbxvNj</metadata>
<path stroke="#b14560" d="M12 25h1M11 26h2M12 27h1M11 28h2M11 29h1M11 30h2M11 31h2M11 32h2M12 33h1M11 34h2M11 35h2M11 36h2M11 37h2" />
<path stroke="#dd6281" d="M13 25h2M13 26h3M25 26h1M14 27h2M24 27h2M15 28h3M24 28h2M14 29h5M24 29h2M13 30h2M16 30h3M23 30h3M13 31h7M23 31h3M14 32h7M23 32h1M13 33h1M15 33h1M17 33h2M20 33h6M15 34h3M19 34h7M14 35h2M17 35h3M22 35h2M25 35h1M13 36h7M22 36h1M24 36h2M13 37h13" />
<path stroke="#2d385e" d="M19 25h4M22 26h1M20 36h1" />
<path stroke="#bb4b67" d="M25 25h1M16 26h1M17 27h1M23 29h1" />
<path stroke="#4d5782" d="M19 26h1" />
<path stroke="#444f7a" d="M20 26h2M19 28h2M19 29h2M19 30h2M20 31h1" />
<path stroke="rgba(24,24,34,0.20784313725490197)" d="M24 26h1M22 27h1M23 28h1" />
<path stroke="#b04560" d="M11 27h1" />
<path stroke="#dd6280" d="M13 27h1M13 28h1M13 29h1M14 34h1M13 35h1M24 35h1" />
<path stroke="#dd6380" d="M16 27h1" />
<path stroke="rgba(24,24,35,0.20784313725490197)" d="M18 27h1M23 27h1" />
<path stroke="rgba(24,25,34,0.20784313725490197)" d="M19 27h1" />
<path stroke="#444f7b" d="M20 27h1" />
<path stroke="#3b456d" d="M21 27h1M21 28h2M22 29h1M21 30h2M21 31h2M21 32h1M20 35h2" />
<path stroke="#dd6381" d="M14 28h1M15 30h1M22 32h1M24 32h2M16 33h1M13 34h1M18 34h1" />
<path stroke="#ba4b67" d="M18 28h1" />
<path stroke="#b14561" d="M12 29h1" />
<path stroke="#3b456c" d="M21 29h1" />
<path stroke="#dc6281" d="M13 32h1M14 33h1M19 33h1M16 35h1M23 36h1" />
<path stroke="#b14460" d="M11 33h1" />
<path stroke="#2d385f" d="M21 36h1" />
</svg>