<svg xmlns="http://www.w3.org/2000/svg" viewBox="0 -0.5 38 38" shape-rendering="crispEdges">
<metadata>Made with Pixels to Svg https://codepen.io/shshaw/pen/XbxvNj</metadata>
<path stroke="#6bf53d" d="M12 25h1M12 26h1" />
<path stroke="#7124ee" d="M13 25h7M21 25h3M11 26h1M14 26h2M17 26h7M11 27h2M14 27h3M19 27h1M21 27h2M12 28h1M15 28h8M16 29h1M18 29h5M16 30h3M20 30h2M25 30h1M13 31h1M17 31h5M25 31h1M13 32h1M18 32h2M21 32h1M25 33h1M25 34h1M14 35h1M24 35h1" />
<path stroke="#7125ef" d="M20 25h1" />
<path stroke="#61ff86" d="M24 25h1M24 26h1M13 27h1M23 27h1M13 28h1M23 28h2M13 29h2M23 29h1M13 30h2M23 30h1M14 31h1M23 31h1M14 32h2M22 32h2M15 33h1M22 33h1M16 34h1M21 34h2M16 35h5M19 36h2" />
<path stroke="#6514dd" d="M13 26h1M25 26h1M25 27h1M25 28h1M11 29h2M15 29h1M24 29h1M11 30h1M15 30h1M24 30h1M11 31h2M15 31h2M24 31h1M11 32h2M16 32h2M24 32h1M11 33h3M17 33h4M11 34h3M24 34h1M13 35h1M23 35h1M25 35h1M13 36h2M23 36h1M25 36h1M22 37h2" />
<path stroke="#7024ee" d="M16 26h1M11 28h1M25 29h1M22 30h1M20 32h1" />
<path stroke="#7124ef" d="M17 27h2M17 29h1" />
<path stroke="#7125ee" d="M20 27h1M19 30h1M25 32h1" />
<path stroke="#61ff87" d="M24 27h1M18 36h1" />
<path stroke="#6515dd" d="M14 28h1M24 33h1M24 37h1" />
<path stroke="#6515dc" d="M12 30h1" />
<path stroke="#60ff86" d="M22 31h1M15 34h1M21 35h1" />
<path stroke="#1fba64" d="M14 33h1" />
<path stroke="#5519ae" d="M16 33h1M21 33h1M17 34h2M20 34h1M11 35h2M11 36h2M11 37h1M13 37h2M25 37h1" />
<path stroke="#1eba64" d="M23 33h1M23 34h1" />
<path stroke="#1ebb64" d="M14 34h1" />
<path stroke="#5519af" d="M19 34h1" />
<path stroke="#04d984" d="M15 35h1M15 36h3M21 36h2M16 37h3M20 37h2" />
<path stroke="#05d984" d="M22 35h1" />
<path stroke="#6414dd" d="M24 36h1" />
<path stroke="#5419ae" d="M12 37h1" />
<path stroke="#6514dc" d="M15 37h1" />
<path stroke="#04d884" d="M19 37h1" />
</svg>