<svg xmlns="http://www.w3.org/2000/svg" viewBox="0 -0.5 38 38" shape-rendering="crispEdges">
<metadata>Made with Pixels to Svg https://codepen.io/shshaw/pen/XbxvNj</metadata>
<path stroke="#c8c8c9" d="M12 25h1M11 29h1" />
<path stroke="#ebebeb" d="M13 25h11M13 26h4M18 26h1M21 26h5M14 27h1M16 27h2M23 27h3M13 28h4M23 28h1M25 28h1M13 29h1M15 29h2M23 29h3M13 30h3M25 30h1M14 31h2M25 31h1M14 32h3M23 32h1M25 32h1M13 33h2M16 33h2M22 33h2M25 33h1M13 34h3M18 34h1M21 34h1M24 34h2M13 35h3M19 35h2M24 35h2M13 36h4M23 36h3M13 37h3M17 37h1M22 37h4" />
<path stroke="#ffffff" d="M24 25h2" />
<path stroke="#c8c8c8" d="M11 26h1M11 27h2M11 28h2M12 29h1M11 30h2M12 31h1M11 32h2M11 33h2M11 34h2M11 35h2M11 36h2M11 37h2" />
<path stroke="#c8c9c8" d="M12 26h1" />
<path stroke="#ebeaeb" d="M17 26h1M13 27h1M24 28h1M13 31h1M24 31h1M13 32h1" />
<path stroke="#906ef9" d="M19 26h1M20 31h1M21 36h1" />
<path stroke="#37f6e7" d="M20 26h1M20 27h2M20 28h3M20 29h3M23 30h1" />
<path stroke="#eaeaeb" d="M15 27h1" />
<path stroke="#906ff9" d="M18 27h1M17 28h3M17 29h2M16 30h2M20 30h2M21 31h3M20 32h3M21 33h1M20 34h1M23 34h1M21 35h2M20 36h1M22 36h1M20 37h2" />
<path stroke="#906ff8" d="M19 27h1M19 29h1M22 34h1" />
<path stroke="#eaebeb" d="M22 27h1M14 29h1M24 30h1" />
<path stroke="#3965ee" d="M18 30h2M16 31h3M17 32h3M18 33h2M16 34h2M19 34h1M17 35h1M17 36h3M18 37h2" />
<path stroke="#36f6e7" d="M22 30h1" />
<path stroke="#c9c8c8" d="M11 31h1" />
<path stroke="#3965ef" d="M19 31h1M18 35h1" />
<path stroke="#ebebea" d="M24 32h1M16 37h1" />
<path stroke="#7995ed" d="M15 33h1" />
<path stroke="#906ef8" d="M20 33h1" />
<path stroke="#b19cf4" d="M24 33h1" />
<path stroke="#acbced" d="M16 35h1" />
<path stroke="#cbbff0" d="M23 35h1" />
</svg>