<svg xmlns="http://www.w3.org/2000/svg" viewBox="0 -0.5 38 38" shape-rendering="crispEdges">
<metadata>Made with Pixels to Svg https://codepen.io/shshaw/pen/XbxvNj</metadata>
<path stroke="#f69fe2" d="M12 25h1M11 26h2M11 27h2M11 28h1M11 29h2M11 31h2M11 32h2M11 33h2M11 34h2M11 35h2M11 36h2M12 37h1" />
<path stroke="#ffd3f3" d="M13 25h7M21 25h3M15 26h1M18 26h1M21 26h4" />
<path stroke="#db9ee5" d="M20 25h1" />
<path stroke="#ffd3f2" d="M24 25h1M16 26h1" />
<path stroke="#fed3f3" d="M25 25h1" />
<path stroke="#f9bae8" d="M13 26h2M25 26h1M13 27h1M15 27h1M17 27h3M21 27h5M13 28h4M18 28h2M22 28h4M14 29h6M23 29h1M25 29h1M13 30h7M22 30h3M13 31h7M22 31h4M13 32h4M18 32h2M23 32h3M13 33h7M22 33h2M25 33h1M13 34h7M22 34h1M24 34h2M13 35h7M22 35h4M13 36h1M15 36h1M17 36h3M22 36h4M14 37h4M22 37h2" />
<path stroke="#ffd2f3" d="M17 26h1M19 26h1" />
<path stroke="#f9bae9" d="M20 26h1M16 27h1M22 29h1M17 32h1M22 32h1M24 33h1M23 34h1M14 36h1M13 37h1M24 37h1" />
<path stroke="#f8bbe8" d="M14 27h1" />
<path stroke="#fbccef" d="M20 27h1M20 29h2M20 30h2M21 31h1M20 32h1M21 34h1M21 35h1M20 36h2M21 37h1" />
<path stroke="#f79fe2" d="M12 28h1M12 30h1M11 37h1" />
<path stroke="#f8bae8" d="M17 28h1M25 30h1M18 37h1M25 37h1" />
<path stroke="#db9ee4" d="M20 28h1M20 31h1M20 34h1M20 37h1" />
<path stroke="#fbcdef" d="M21 28h1M21 32h1" />
<path stroke="#f9bbe8" d="M13 29h1M24 29h1M19 37h1" />
<path stroke="#f69fe3" d="M11 30h1" />
<path stroke="#fbccee" d="M20 33h2M20 35h1" />
<path stroke="#f9bbe9" d="M16 36h1" />
</svg>