<svg xmlns="http://www.w3.org/2000/svg" viewBox="0 -0.5 38 38" shape-rendering="crispEdges">
<metadata>Made with Pixels to Svg https://codepen.io/shshaw/pen/XbxvNj</metadata>
<path stroke="#ffb7be" d="M9 24h3M26 24h3M8 25h2M27 25h2M7 26h1M29 26h1M8 27h1M7 28h2M7 29h1M7 30h2M7 31h2" />
<path stroke="#e78290" d="M12 24h1M10 25h1M26 25h1M9 26h1M27 26h2M9 27h1M28 27h2M9 28h1M28 28h2M28 29h2M9 30h1M28 30h2M9 31h1M9 32h1" />
<path stroke="#e56582" d="M11 25h1" />
<path stroke="#e56482" d="M25 25h1M10 26h1M30 28h1M30 29h1M10 31h1M26 31h4M10 32h1M26 32h3" />
<path stroke="#feb6be" d="M29 25h1" />
<path stroke="#ffb6be" d="M8 26h1M8 29h1" />
<path stroke="#e46482" d="M30 26h1M30 30h1M10 33h1" />
<path stroke="#ffb7bf" d="M7 27h1" />
<path stroke="#e56483" d="M30 27h1" />
<path stroke="#e68290" d="M9 29h1" />
<path stroke="#e46582" d="M27 30h1" />
<path stroke="#e78390" d="M8 32h1" />
<path stroke="#e78291" d="M9 33h1" />
</svg>