<svg xmlns="http://www.w3.org/2000/svg" viewBox="0 -0.5 38 38" shape-rendering="crispEdges">
<metadata>Made with Pixels to Svg https://codepen.io/shshaw/pen/XbxvNj</metadata>
<path stroke="#001b3f" d="M12 25h1M12 26h1M11 27h2M11 28h1M11 30h1M11 31h1M11 32h1M12 33h1M11 34h2M11 35h2M11 37h2" />
<path stroke="#042552" d="M13 25h3M17 25h3M14 26h12M13 27h1M15 27h3M19 27h7M19 28h1M23 28h1M25 28h1M13 29h1M15 29h1M19 29h1M23 29h1M25 29h1M15 30h1M17 30h1M19 30h1M21 30h1M23 30h1M25 30h1M13 31h3M17 31h1M19 31h1M21 31h1M25 31h1M13 32h1M19 32h1M23 32h1M13 33h3M18 33h1M20 33h2M23 33h3M13 34h1M15 34h4M20 34h1M22 34h1M24 34h1M13 35h5M19 35h7M13 36h1M15 36h3M19 36h7M14 37h3M18 37h8" />
<path stroke="#052552" d="M16 25h1M21 25h2M15 32h1M16 33h1M19 33h1M22 33h1M18 36h1M17 37h1" />
<path stroke="#042452" d="M20 25h1M23 25h1M13 26h1M18 27h1M15 28h1M17 29h1M14 32h1M17 33h1M14 34h1M19 34h1M23 34h1M25 34h1M14 36h1" />
<path stroke="#093a7e" d="M24 25h2" />
<path stroke="#011b3f" d="M11 26h1M11 29h1M11 36h2" />
<path stroke="#042553" d="M14 27h1M21 29h1M23 31h1M21 34h1M18 35h1M13 37h1" />
<path stroke="#e9f7ff" d="M12 28h3M16 28h3M21 28h2M24 28h1M12 29h1M14 29h1M16 29h1M18 29h1M20 29h1M22 29h1M24 29h1M12 30h3M16 30h1M18 30h1M20 30h1M22 30h1M24 30h1M12 31h1M16 31h1M18 31h1M20 31h1M22 31h1M12 32h1M16 32h1M18 32h1M20 32h1M22 32h1M24 32h2" />
<path stroke="#e9f6ff" d="M20 28h1" />
<path stroke="#e8f7ff" d="M24 31h1M17 32h1" />
<path stroke="#e9f7fe" d="M21 32h1" />
<path stroke="#001a3f" d="M11 33h1" />
</svg>