<svg xmlns="http://www.w3.org/2000/svg" viewBox="0 -0.5 38 38" shape-rendering="crispEdges">
<metadata>Made with Pixels to Svg https://codepen.io/shshaw/pen/XbxvNj</metadata>
<path stroke="#c8c8c8" d="M12 25h1M11 26h2M11 27h2M12 28h1M11 29h2M11 30h1M11 31h2M11 32h2M11 33h2M12 34h1M12 35h1M11 36h2M11 37h2" />
<path stroke="#ebebeb" d="M13 25h6M20 25h3M13 26h6M21 26h4M13 27h5M22 27h2M25 27h1M13 28h2M16 28h1M23 28h3M13 29h4M23 29h3M13 30h3M25 30h1M13 31h3M24 31h2M13 32h4M23 32h3M13 33h2M16 33h2M22 33h2M25 33h1M13 34h3M18 34h1M21 34h1M24 34h2M13 35h3M19 35h2M24 35h2M14 36h3M23 36h1M25 36h1M13 37h2M16 37h2M22 37h1M24 37h2" />
<path stroke="#ebebea" d="M19 25h1M24 30h1" />
<path stroke="#ebeaeb" d="M23 25h1M25 26h1M15 28h1M13 36h1M24 36h1M15 37h1" />
<path stroke="#ffffff" d="M24 25h2" />
<path stroke="#979797" d="M19 26h1M18 27h2M17 28h3M17 29h3M16 30h2" />
<path stroke="#888888" d="M20 26h1M20 27h2M20 28h3M20 29h2M22 30h1" />
<path stroke="#eaebeb" d="M24 27h1" />
<path stroke="#c9c8c8" d="M11 28h1M12 30h1M11 35h1" />
<path stroke="#888988" d="M22 29h1" />
<path stroke="#6a6a6a" d="M18 30h2M16 31h4M18 32h2M18 33h2M16 34h1M19 34h1M18 35h1M17 36h2M18 37h2" />
<path stroke="#575757" d="M20 30h2M20 31h1M22 31h1M20 32h3M21 33h1M20 34h1M22 34h2M21 35h2M21 36h2M20 37h1" />
<path stroke="#888989" d="M23 30h1" />
<path stroke="#575656" d="M21 31h1" />
<path stroke="#575657" d="M23 31h1M20 33h1" />
<path stroke="#6a6b6a" d="M17 32h1M17 34h1M19 36h1" />
<path stroke="#929292" d="M15 33h1" />
<path stroke="#858584" d="M24 33h1" />
<path stroke="#c8c8c9" d="M11 34h1" />
<path stroke="#bfbebf" d="M16 35h1" />
<path stroke="#6b6a6a" d="M17 35h1" />
<path stroke="#b8b8b8" d="M23 35h1" />
<path stroke="#575756" d="M20 36h1" />
<path stroke="#565757" d="M21 37h1" />
<path stroke="#eaebea" d="M23 37h1" />
</svg>