<svg xmlns="http://www.w3.org/2000/svg" viewBox="0 -0.5 38 38" shape-rendering="crispEdges">
<metadata>Made with Pixels to Svg https://codepen.io/shshaw/pen/XbxvNj</metadata>
<path stroke="#1eba64" d="M12 25h1M12 26h1M11 27h2M11 28h1M11 29h1M11 30h1M11 31h1M11 33h2M11 34h2M11 35h2M11 36h2M11 37h2" />
<path stroke="#6bf53d" d="M13 25h4M18 25h6M13 26h4M19 26h3M23 26h2M14 27h5M20 27h5M13 28h1M15 28h1M19 28h1M23 28h1M25 28h1M13 29h1M15 29h1M17 29h1M19 29h1M21 29h1M23 29h1M25 29h1M15 30h1M17 30h1M19 30h1M21 30h1M23 30h1M25 30h1M13 31h1M15 31h1M19 31h1M21 31h1M25 31h1M13 32h1M15 32h1M19 32h1M22 32h2M13 33h9M23 33h3M13 34h2M16 34h10M13 35h4M18 35h8M14 36h12M13 37h4M18 37h8" />
<path stroke="#6af53d" d="M17 25h1M17 26h1M22 26h1M13 27h1M17 35h1M13 36h1" />
<path stroke="#83ff59" d="M24 25h2" />
<path stroke="#1fba65" d="M11 26h1" />
<path stroke="#6bf43d" d="M18 26h1M25 26h1M19 27h1M22 28h1M17 31h1M23 31h1" />
<path stroke="#6bf53c" d="M25 27h1M22 33h1M15 34h1" />
<path stroke="#003f2e" d="M12 28h1M14 28h1M16 28h3M20 28h2M24 28h1M12 29h1M14 29h1M16 29h1M20 29h1M22 29h1M24 29h1M12 30h3M18 30h1M20 30h1M22 30h1M24 30h1M16 31h1M18 31h1M20 31h1M22 31h1M24 31h1M12 32h1M14 32h1M16 32h3M20 32h2M24 32h2" />
<path stroke="#003f2f" d="M18 29h1" />
<path stroke="#003e2e" d="M16 30h1M14 31h1" />
<path stroke="#013f2e" d="M12 31h1" />
<path stroke="#1fba64" d="M11 32h1" />
<path stroke="#6bf43c" d="M17 37h1" />
</svg>