<svg xmlns="http://www.w3.org/2000/svg" viewBox="0 -0.5 38 38" shape-rendering="crispEdges">
<metadata>Made with Pixels to Svg https://codepen.io/shshaw/pen/XbxvNj</metadata>
<path stroke="#7124ee" d="M12 25h3M18 25h6M11 26h11M23 26h2M11 27h3M15 27h8M24 27h2M11 28h9M23 28h3M14 29h2M17 29h5M23 29h1M25 29h1M13 30h6M20 30h2M23 30h3M13 31h1M15 31h2M18 31h7M14 32h3M18 32h8M14 33h1M16 33h5M22 33h3M14 34h6M21 34h2M24 34h1M14 35h4M19 35h6M17 36h5" />
<path stroke="#7125ee" d="M15 25h1M14 27h1M21 28h2M13 29h1M16 29h1M25 31h1M13 32h1M20 34h1" />
<path stroke="#7124ef" d="M16 25h1M23 27h1M20 28h1M17 32h1M25 34h1M22 36h1" />
<path stroke="#7024ee" d="M17 25h1M22 26h1M25 26h1M22 29h1M24 29h1M19 30h1M17 31h1M15 33h1M21 33h1M25 33h1M18 35h1" />
<path stroke="#7e3aeb" d="M24 25h1" />
<path stroke="#6514dd" d="M11 29h2M11 30h2M11 31h2M12 32h1M12 33h2M12 34h1M13 35h1M25 35h1M13 36h3M24 36h2M15 37h7M24 37h1" />
<path stroke="#7025ee" d="M22 30h1" />
<path stroke="#7024ef" d="M14 31h1M23 34h1" />
<path stroke="#6414dd" d="M11 32h1M13 34h1M16 36h1M23 36h1" />
<path stroke="#6514dc" d="M11 33h1M11 34h1M22 37h2" />
<path stroke="#5519ae" d="M11 35h2M11 37h4M25 37h1" />
<path stroke="#5519af" d="M11 36h2" />
</svg>