<svg xmlns="http://www.w3.org/2000/svg" viewBox="0 -0.5 38 38" shape-rendering="crispEdges">
<metadata>Made with Pixels to Svg https://codepen.io/shshaw/pen/XbxvNj</metadata>
<path stroke="#7124ee" d="M12 25h10M23 25h1M12 26h14M11 27h5M17 27h3M21 27h5M12 28h1M14 28h1M17 28h9M13 29h6M20 29h6M13 30h1M15 30h9M25 30h1M13 31h2M16 31h4M21 31h2M24 31h2M14 32h3M18 32h8" />
<path stroke="#7024ee" d="M22 25h1M24 30h1M15 31h1M23 31h1" />
<path stroke="#7e3aeb" d="M24 25h1" />
<path stroke="#7024ef" d="M11 26h1" />
<path stroke="#7124ef" d="M16 27h1M20 27h1M15 28h2M19 29h1M14 30h1M17 32h1" />
<path stroke="#7125ee" d="M11 28h1M20 31h1" />
<path stroke="#7025ee" d="M13 28h1" />
<path stroke="#6514dd" d="M11 29h2M11 30h2M11 31h1M11 32h3M11 33h3M19 33h1M23 33h3" />
<path stroke="#6414dd" d="M12 31h1" />
<path stroke="#6515dd" d="M14 33h1" />
<path stroke="#6514dc" d="M15 33h1" />
<path stroke="#3dcaf5" d="M16 33h2M20 33h3M16 34h7" />
<path stroke="#3dcbf5" d="M18 33h1" />
<path stroke="#1e89ba" d="M11 34h1" />
<path stroke="#289bd9" d="M12 34h4M23 34h3M13 35h5M19 35h3M23 35h3M13 36h1M15 36h2M18 36h1M20 36h6M14 37h4M20 37h3M24 37h2" />
<path stroke="#1e88ba" d="M11 35h2M11 36h2M19 36h1M11 37h2" />
<path stroke="#299bd9" d="M18 35h1M23 37h1" />
<path stroke="#289bd8" d="M22 35h1M17 36h1M13 37h1" />
<path stroke="#289ad9" d="M14 36h1M18 37h1" />
<path stroke="#1f88bb" d="M19 37h1" />
</svg>