<svg xmlns="http://www.w3.org/2000/svg" viewBox="0 -0.5 38 38" shape-rendering="crispEdges">
<metadata>Made with Pixels to Svg https://codepen.io/shshaw/pen/XbxvNj</metadata>
<path stroke="#0783ff" d="M9 24h3M26 24h2M8 25h2M27 25h1M7 26h2M29 26h1M7 27h1M7 29h2M7 30h1M7 31h2" />
<path stroke="#0065fe" d="M12 24h1M26 25h1M9 26h1M27 26h2M9 27h1M29 27h1M9 28h1M28 28h1M9 29h1M28 29h1M9 30h1M28 30h1M9 31h1M8 32h2M9 33h1" />
<path stroke="#0783fe" d="M28 24h1M29 25h1M8 30h1" />
<path stroke="#0165fe" d="M10 25h1M29 30h1" />
<path stroke="#0056e8" d="M11 25h1M25 25h1M10 26h1M30 26h1M30 27h1M30 28h1M30 29h1M27 30h1M30 30h1M10 31h1M26 31h4M26 32h3M10 33h1" />
<path stroke="#0683ff" d="M28 25h1M8 27h1" />
<path stroke="#0064fe" d="M28 27h1M29 28h1" />
<path stroke="#0782ff" d="M7 28h2" />
<path stroke="#0164fe" d="M29 29h1" />
<path stroke="#0156e8" d="M10 32h1" />
</svg>