<svg xmlns="http://www.w3.org/2000/svg" viewBox="0 -0.5 38 38" shape-rendering="crispEdges">
<metadata>Made with Pixels to Svg https://codepen.io/shshaw/pen/XbxvNj</metadata>
<path stroke="#ddb7a4" d="M12 25h1M11 26h2M11 27h2M11 28h2M11 29h2M11 30h2M11 31h2M11 32h2M11 33h1M12 34h1M11 35h2M12 36h1M11 37h2" />
<path stroke="#f0dfd7" d="M13 25h1M15 25h5M21 25h3M13 26h3M17 26h4M22 26h4M14 27h12M13 28h3M19 28h2M24 28h2M13 29h2M25 29h1M13 30h2M25 30h1M13 31h2M25 31h1M13 32h2M24 32h2M13 33h2M16 33h1M24 33h2M14 34h4M22 34h1M24 34h2M13 35h1M15 35h4M21 35h2M24 35h2M13 36h8M22 36h4M13 37h4M18 37h5M24 37h2" />
<path stroke="#f0dfd6" d="M14 25h1M21 26h1M13 27h1" />
<path stroke="#f1dfd7" d="M20 25h1M16 26h1M15 33h1M23 33h1M13 34h1M23 34h1M23 35h1" />
<path stroke="#faeae2" d="M24 25h2" />
<path stroke="#b94c4c" d="M16 28h3M21 28h3M17 29h2M21 29h3M15 30h4M20 30h2M23 30h1M15 31h7M16 32h6M17 33h4" />
<path stroke="#b94c4d" d="M15 29h2" />
<path stroke="#af4c4c" d="M19 29h1M24 29h1M19 30h1M24 30h1M23 31h2M22 32h2M21 33h2M18 34h4M19 35h2" />
<path stroke="#b84c4c" d="M20 29h1M22 31h1" />
<path stroke="#b84c4d" d="M22 30h1" />
<path stroke="#f0ded7" d="M15 32h1M14 35h1M21 36h1M17 37h1M23 37h1" />
<path stroke="#ddb6a5" d="M12 33h1" />
<path stroke="#dcb6a4" d="M11 34h1" />
<path stroke="#ddb6a4" d="M11 36h1" />
</svg>