<svg xmlns="http://www.w3.org/2000/svg" viewBox="0 -0.5 38 38" shape-rendering="crispEdges">
<metadata>Made with Pixels to Svg https://codepen.io/shshaw/pen/XbxvNj</metadata>
<path stroke="#0077f4" d="M12 25h1" />
<path stroke="#008ff5" d="M13 25h8M22 25h2M13 26h5M20 26h4M13 27h2M16 27h10M15 28h1M19 28h1M23 28h1M13 29h1M15 29h1M19 29h1M23 29h1M25 29h1M17 30h1M19 30h1M23 30h1M25 30h1M13 31h3M17 31h1M19 31h1M21 31h1M23 31h1M13 32h3M19 32h1M13 33h7M21 33h2M24 33h2M13 34h13M13 35h7M21 35h1M24 35h2M16 36h1M18 36h8M13 37h13" />
<path stroke="#018ff5" d="M21 25h1M19 26h1M24 26h1M15 27h1M15 30h1M21 30h1M20 35h1M23 35h1M13 36h1M17 36h1" />
<path stroke="#00aafe" d="M24 25h1" />
<path stroke="#00aaff" d="M25 25h1" />
<path stroke="#0076f5" d="M11 26h2M11 27h1M11 28h1M11 32h1M11 33h2M11 34h2M11 35h2M11 36h2M11 37h2" />
<path stroke="#008ef5" d="M18 26h1M17 29h1M23 33h1" />
<path stroke="#008ff4" d="M25 26h1M25 28h1M21 29h1M25 31h1M23 32h1M20 33h1M22 35h1M14 36h2" />
<path stroke="#0077f5" d="M12 27h1" />
<path stroke="#001249" d="M12 28h3M16 28h2M20 28h3M24 28h1M12 29h1M16 29h1M18 29h1M20 29h1M22 29h1M24 29h1M12 30h3M16 30h1M18 30h1M24 30h1M12 31h1M16 31h1M18 31h1M20 31h1M22 31h1M16 32h3M20 32h3M24 32h2" />
<path stroke="#001248" d="M18 28h1M22 30h1" />
<path stroke="#0176f5" d="M11 29h1M11 31h1" />
<path stroke="#001349" d="M14 29h1M24 31h1" />
<path stroke="#0076f4" d="M11 30h1" />
<path stroke="#011249" d="M20 30h1M12 32h1" />
</svg>