<svg xmlns="http://www.w3.org/2000/svg" viewBox="0 -0.5 38 38" shape-rendering="crispEdges">
<metadata>Made with Pixels to Svg https://codepen.io/shshaw/pen/XbxvNj</metadata>
<path stroke="#7124ee" d="M12 25h1M14 25h5M20 25h4M11 26h2M14 26h1M17 26h7M25 26h1M11 27h2M14 27h5M20 27h3M11 28h1M16 28h5M17 29h3M13 32h1M15 32h6M22 32h4M15 33h3M19 33h7M14 34h3M18 34h2M21 34h2M24 34h2" />
<path stroke="#2b2b2b" d="M13 25h1M24 25h1M24 26h1M13 27h1M12 31h1M18 31h2M25 31h1M11 35h2" />
<path stroke="#7124ef" d="M19 25h1M19 27h1M15 28h1M14 32h1M17 34h1M20 34h1M23 34h1" />
<path stroke="#2b2b2a" d="M13 26h1M24 27h1M11 32h1" />
<path stroke="#7e3aeb" d="M15 26h2M12 28h1M12 30h1" />
<path stroke="#6514dd" d="M23 27h1M21 28h2M25 28h1M11 29h1M20 29h1M25 29h1M18 30h2M25 30h1M11 31h1M12 32h1M11 33h3M11 34h3M14 36h1M24 36h2M15 37h1M23 37h2" />
<path stroke="#7125ee" d="M25 27h1" />
<path stroke="#3b3b3b" d="M13 28h2M23 28h2M13 29h4M21 29h4M13 30h3M17 30h1M20 30h5M13 35h12M17 36h7M18 37h3" />
<path stroke="#7f3aeb" d="M12 29h1" />
<path stroke="#6514dc" d="M11 30h1M13 36h1" />
<path stroke="#3b3b3a" d="M16 30h1M16 36h1" />
<path stroke="#343434" d="M13 31h5M20 31h1M22 31h2M15 36h1M16 37h2M21 37h1" />
<path stroke="#353434" d="M21 31h1" />
<path stroke="#343534" d="M24 31h1" />
<path stroke="#7025ee" d="M21 32h1" />
<path stroke="#7024ee" d="M14 33h1" />
<path stroke="#7125ef" d="M18 33h1" />
<path stroke="#2a2b2b" d="M25 35h1" />
<path stroke="#5519af" d="M11 36h1" />
<path stroke="#5519ae" d="M12 36h1M11 37h2M14 37h1" />
<path stroke="#5419ae" d="M13 37h1" />
<path stroke="#6515dd" d="M22 37h1" />
<path stroke="#5518ae" d="M25 37h1" />
</svg>