<svg xmlns="http://www.w3.org/2000/svg" viewBox="0 -0.5 38 38" shape-rendering="crispEdges">
<metadata>Made with Pixels to Svg https://codepen.io/shshaw/pen/XbxvNj</metadata>
<path stroke="#1a1b23" d="M12 25h1M11 37h1" />
<path stroke="#252534" d="M13 25h2M13 26h3M24 26h2M15 27h2M24 27h2M13 28h4M24 28h1M13 29h1M15 29h1M17 29h1M20 29h2M24 29h1M13 30h7M22 30h4M13 31h2M16 31h4M23 31h3M15 32h5M21 32h5M14 33h3M18 33h2M21 33h5M15 34h2M18 34h2M23 34h2M14 35h6M22 35h2M25 35h1M13 36h1M15 36h6M23 36h3M13 37h11M25 37h1" />
<path stroke="#363643" d="M24 25h2" />
<path stroke="#1a1a23" d="M11 26h2M11 27h2M11 28h2M11 29h1M11 30h2M12 31h1M11 32h2M12 33h1M11 34h2M11 35h1M11 36h2M12 37h1" />
<path stroke="#252535" d="M16 26h1M14 27h1M13 32h1M13 33h1M17 33h1M20 33h1M25 34h1M24 35h1" />
<path stroke="rgba(24,24,34,0.20784313725490197)" d="M17 26h1M20 26h1" />
<path stroke="#fc4559" d="M18 26h1M22 26h2M18 27h1" />
<path stroke="#fc4459" d="M19 26h1" />
<path stroke="rgba(24,24,35,0.20784313725490197)" d="M21 26h1" />
<path stroke="#252434" d="M13 27h1M25 28h1M16 29h1M25 29h1M13 34h2M14 36h1M21 36h2M24 37h1" />
<path stroke="#c52133" d="M17 27h1M17 28h1M20 28h2M18 29h2M22 29h2" />
<path stroke="#fb0621" d="M19 27h1M22 27h1M18 28h2M22 28h1" />
<path stroke="#fb0620" d="M20 27h1" />
<path stroke="#fd4559" d="M21 27h1" />
<path stroke="#fb0721" d="M23 27h1" />
<path stroke="#c52132" d="M23 28h1" />
<path stroke="#1b1a23" d="M12 29h1M11 31h1" />
<path stroke="#242534" d="M14 29h1M15 31h1M22 31h1M14 32h1M20 32h1M13 35h1" />
<path stroke="#ffb83f" d="M20 30h2M20 34h2" />
<path stroke="#d49730" d="M20 31h2M20 35h1" />
<path stroke="#1a1a22" d="M11 33h1M12 35h1" />
<path stroke="#242434" d="M17 34h1" />
<path stroke="#242535" d="M22 34h1" />
<path stroke="#d59730" d="M21 35h1" />
</svg>