<svg xmlns="http://www.w3.org/2000/svg" viewBox="0 -0.5 38 38" shape-rendering="crispEdges">
<metadata>Made with Pixels to Svg https://codepen.io/shshaw/pen/XbxvNj</metadata>
<path stroke="#db9f22" d="M13 23h1M24 23h1M13 24h1M24 24h1M19 29h1M22 31h1M22 32h1M21 33h2M18 34h1M21 34h1" />
<path stroke="#fddc24" d="M13 25h2M15 26h2M22 26h1M17 27h2M20 27h3M18 30h2M21 30h1M17 31h2M17 32h2M17 33h2" />
<path stroke="#f0bf0e" d="M23 25h1" />
<path stroke="#f0bf0f" d="M24 25h1M14 26h1M23 26h1M16 27h1M19 28h2M21 31h1M21 32h1M20 33h1" />
<path stroke="#fddc25" d="M19 27h1" />
<path stroke="#f0be0f" d="M18 28h1" />
<path stroke="#fcdc24" d="M20 30h1" />
<path stroke="#fef5d7" d="M19 31h1" />
<path stroke="#fff5d6" d="M20 31h1" />
<path stroke="#fff4d7" d="M19 32h1" />
<path stroke="#fff5d7" d="M20 32h1M19 33h1" />
<path stroke="#db9e22" d="M19 34h1" />
<path stroke="#da9f22" d="M20 34h1" />
</svg>