<svg xmlns="http://www.w3.org/2000/svg" viewBox="0 -0.5 38 38" shape-rendering="crispEdges">
<metadata>Made with Pixels to Svg https://codepen.io/shshaw/pen/XbxvNj</metadata>
<path stroke="#04286d" d="M12 25h1M12 26h1M11 27h2M11 28h2M11 29h2M11 30h2M11 31h2M11 32h2M11 33h2M11 34h2M11 35h2M11 36h2M11 37h2" />
<path stroke="#043b72" d="M13 25h8M23 25h1M13 26h11M25 26h1M14 27h3M18 27h7M13 28h1M16 28h2M25 28h1M13 29h1M15 29h1M17 29h1M19 29h1M21 29h1M23 29h1M25 29h1M13 30h1M15 30h1M17 30h1M21 30h1M25 30h1M13 31h1M15 31h1M17 31h1M19 31h1M21 31h1M23 31h1M25 31h1M13 32h1M16 32h1M19 32h1M21 32h1M25 32h1M13 33h3M17 33h9M13 34h1M25 34h1M13 35h6M20 35h3M24 35h2M14 36h3M19 36h7M13 37h11M25 37h1" />
<path stroke="#043b73" d="M21 25h2M13 27h1M18 36h1M24 37h1" />
<path stroke="#056380" d="M24 25h2" />
<path stroke="#04286c" d="M11 26h1" />
<path stroke="#043a72" d="M24 26h1M17 27h1M17 32h1M16 33h1M19 35h1M13 36h1M17 36h1" />
<path stroke="#053b72" d="M25 27h1M23 30h1M23 35h1" />
<path stroke="#e9f7ff" d="M14 28h1M18 28h3M22 28h2M14 29h1M16 29h1M18 29h1M20 29h1M22 29h1M24 29h1M14 30h1M16 30h1M18 30h3M22 30h1M24 30h1M14 31h1M16 31h1M18 31h1M20 31h1M22 31h1M24 31h1M14 32h2M18 32h1M20 32h1M23 32h1" />
<path stroke="#e8f7ff" d="M15 28h1" />
<path stroke="#053a72" d="M21 28h1" />
<path stroke="#e9f6ff" d="M24 28h1M24 32h1" />
<path stroke="#e9f7fe" d="M22 32h1" />
<path stroke="#c40404" d="M14 34h5M21 34h2M24 34h1" />
<path stroke="#c40504" d="M19 34h2M23 34h1" />
</svg>