<svg xmlns="http://www.w3.org/2000/svg" viewBox="0 -0.5 38 38" shape-rendering="crispEdges">
<metadata>Made with Pixels to Svg https://codepen.io/shshaw/pen/XbxvNj</metadata>
<path stroke="#0f0f0f" d="M12 25h1M11 26h2M11 27h2M11 28h2M12 29h1M11 30h2M12 31h1M11 32h2M11 33h2M11 34h2M11 35h1M11 36h2M11 37h2" />
<path stroke="#161616" d="M13 25h1M15 25h6M22 25h2M14 26h3M18 26h1M21 26h1M23 26h3M13 27h5M23 27h1M13 28h4M23 28h3M13 29h2M16 29h1M23 29h2M13 30h3M24 30h2M13 31h3M24 31h2M13 32h1M15 32h1M23 32h3M13 33h2M16 33h2M22 33h2M25 33h1M14 34h2M24 34h2M13 35h3M24 35h2M14 36h3M23 36h1M13 37h4M23 37h3" />
<path stroke="#161716" d="M14 25h1M21 25h1M17 26h1M24 27h1" />
<path stroke="#2b2a2b" d="M24 25h1" />
<path stroke="#2a2a2a" d="M25 25h1" />
<path stroke="#161617" d="M13 26h1M22 26h1M22 27h1M25 29h1M14 32h1M13 36h1M24 36h2M17 37h1" />
<path stroke="#d0d0d0" d="M19 26h1M18 27h1M17 28h3M17 29h3M16 30h2" />
<path stroke="#c8c9c9" d="M20 26h1M22 28h1M22 30h1" />
<path stroke="#d1d0d0" d="M19 27h1" />
<path stroke="#c9c9c8" d="M20 27h1" />
<path stroke="#c9c9c9" d="M21 27h1M20 28h2M20 29h2M23 30h1" />
<path stroke="#171616" d="M25 27h1M15 29h1M16 32h1M13 34h1M22 37h1" />
<path stroke="#0f0e0f" d="M11 29h1M12 35h1" />
<path stroke="#c9c8c9" d="M22 29h1" />
<path stroke="#b2b2b2" d="M18 30h2M17 31h3M17 32h3M18 33h2M16 34h2M19 34h1M17 35h2M17 36h3M18 37h2" />
<path stroke="#939393" d="M20 30h2M20 31h4M21 32h2M20 33h2M20 34h1M22 34h2M21 35h2M20 36h3M20 37h2" />
<path stroke="#0f0f0e" d="M11 31h1" />
<path stroke="#b3b2b2" d="M16 31h1" />
<path stroke="#929392" d="M20 32h1" />
<path stroke="#909090" d="M15 33h1" />
<path stroke="#777677" d="M24 33h1" />
<path stroke="#0d0d0d" d="M18 34h1M21 34h1M19 35h2" />
<path stroke="#656565" d="M16 35h1" />
<path stroke="#515151" d="M23 35h1" />
</svg>