<svg xmlns="http://www.w3.org/2000/svg" viewBox="0 -0.5 38 38" shape-rendering="crispEdges">
<metadata>Made with Pixels to Svg https://codepen.io/shshaw/pen/XbxvNj</metadata>
<path stroke="#1b1b1b" d="M12 25h1M12 26h1M11 28h1M11 29h1M11 30h1M12 32h1M11 33h2M11 34h1M12 35h1M11 36h1M11 37h1" />
<path stroke="#262626" d="M13 25h6M20 25h4M13 26h1M25 26h1M25 32h1M24 33h1M14 34h1M13 35h3M22 35h4M13 36h5M21 36h5M13 37h2M16 37h7M24 37h1" />
<path stroke="#262627" d="M19 25h1M13 33h1M13 34h1M23 34h1M23 37h1" />
<path stroke="#3d3d3c" d="M24 25h1" />
<path stroke="#3c3c3c" d="M25 25h1" />
<path stroke="#1b1a1b" d="M11 26h1M11 31h1M11 32h1M11 35h1M12 37h1" />
<path stroke="#808080" d="M14 26h1M17 26h1M20 26h1M23 26h1M12 27h1M25 27h1M23 33h1M16 35h1M21 35h1M18 36h2" />
<path stroke="#a8a8a9" d="M15 26h1" />
<path stroke="#a9a8a8" d="M16 26h1" />
<path stroke="#bfbfbf" d="M18 26h1M17 28h1M15 29h2M23 29h1M25 29h1M13 30h1M21 30h1M13 31h1M21 31h1" />
<path stroke="#d1d1d1" d="M19 26h1M21 26h2M17 27h2M16 32h1M18 32h2M17 33h1M15 34h1" />
<path stroke="#272626" d="M24 26h1M25 33h1M20 36h1" />
<path stroke="#1a1b1b" d="M11 27h1M12 34h1" />
<path stroke="#a8a8a8" d="M13 27h2M12 28h2M13 29h1M25 30h1M23 32h2M21 33h2M18 34h5M17 35h4" />
<path stroke="#c0c0c0" d="M15 27h2M12 29h1M12 30h1M23 31h2M20 32h1M22 32h1M18 33h3M17 34h1" />
<path stroke="#d0d1d1" d="M19 27h1M17 32h1M16 33h1" />
<path stroke="#dddddd" d="M20 27h5M16 30h1M15 31h2M13 32h3" />
<path stroke="#0c3356" d="M14 28h2M18 28h3M22 28h2M14 29h1M22 29h1M14 30h1M18 30h1M22 30h1M14 31h1M18 31h1M22 31h1" />
<path stroke="#012547" d="M16 28h1" />
<path stroke="#d0d0d0" d="M21 28h1M25 28h1M17 29h1M19 29h1M21 29h1M17 30h1M14 33h1" />
<path stroke="#002447" d="M24 28h1M24 29h1" />
<path stroke="#0c3256" d="M18 29h1" />
<path stroke="#002547" d="M20 29h1M15 30h1M20 30h1M23 30h2M19 31h2" />
<path stroke="#d0d0d1" d="M19 30h1" />
<path stroke="#808180" d="M12 31h1" />
<path stroke="#d0d1d0" d="M17 31h1" />
<path stroke="#767676" d="M25 31h1" />
<path stroke="#c1c0c0" d="M21 32h1" />
<path stroke="#d1d1d0" d="M15 33h1" />
<path stroke="#d1d0d1" d="M16 34h1" />
<path stroke="#272627" d="M24 34h1M25 37h1" />
<path stroke="#262726" d="M25 34h1M15 37h1" />
<path stroke="#1a1a1b" d="M12 36h1" />
</svg>