<svg xmlns="http://www.w3.org/2000/svg" viewBox="0 -0.5 38 38" shape-rendering="crispEdges">
<metadata>Made with Pixels to Svg https://codepen.io/shshaw/pen/XbxvNj</metadata>
<path stroke="#e00018" d="M12 25h1M11 26h2M12 27h1M11 28h3M19 28h1M11 29h3M19 29h1M11 30h4M19 30h1M25 30h1M11 31h4M19 31h1M21 31h1M23 31h2M11 32h5M19 32h1M23 32h1M11 33h2M14 33h3M18 33h2M12 34h5M19 34h1M11 35h7M19 35h1M21 35h1M11 36h5M19 36h1M22 36h1M11 37h1M13 37h10" />
<path stroke="#ff364c" d="M13 25h2M24 25h2M16 27h1M21 27h2M24 27h2M16 28h2M25 28h1M18 32h1M21 32h2M18 34h1M21 34h1" />
<path stroke="#ff0420" d="M15 25h1M17 25h7M13 26h2M19 26h1M25 26h1M13 27h1M19 27h1M14 28h1M21 28h2M24 28h1M14 29h1M17 29h1M25 29h1M16 30h2M21 30h2M24 30h1M25 31h1M16 32h1M20 32h1M25 32h1M21 33h3M25 33h1M17 34h1M20 34h1M22 34h2M25 34h1M22 35h4M17 36h2M20 36h1M23 36h3M23 37h3" />
<path stroke="#ff0520" d="M16 25h1M24 29h1M24 32h1M21 36h1" />
<path stroke="#ffffff" d="M15 26h3M21 26h1M23 26h1M18 27h1M23 27h1M18 28h1M23 28h1" />
<path stroke="#fffeff" d="M18 26h1M20 27h1" />
<path stroke="#fffffe" d="M20 26h1M15 27h1" />
<path stroke="#feffff" d="M22 26h1" />
<path stroke="#fe0420" d="M24 26h1M16 29h1" />
<path stroke="#e10018" d="M11 27h1M13 33h1M16 36h1M12 37h1" />
<path stroke="#ff364d" d="M14 27h1M17 32h1" />
<path stroke="#fe364c" d="M17 27h1" />
<path stroke="#efefef" d="M15 28h1M20 28h1M15 29h1M21 29h3M18 30h1" />
<path stroke="#eeefef" d="M18 29h1M20 29h1M20 30h1" />
<path stroke="#d0d5e0" d="M15 30h1M15 31h4" />
<path stroke="#ff0421" d="M23 30h1M24 33h1M24 34h1" />
<path stroke="#d0d5e1" d="M20 31h1" />
<path stroke="#e00019" d="M22 31h1M11 34h1M20 35h1" />
<path stroke="#e00118" d="M17 33h1M18 35h1" />
<path stroke="#e10118" d="M20 33h1" />
</svg>