<svg xmlns="http://www.w3.org/2000/svg" viewBox="0 -0.5 38 38" shape-rendering="crispEdges">
<metadata>Made with Pixels to Svg https://codepen.io/shshaw/pen/XbxvNj</metadata>
<path stroke="#1eba64" d="M12 25h1M11 26h1M11 27h2M11 29h1M11 30h1M11 31h1M11 32h1M11 33h2M12 34h1M11 35h2M11 36h2M11 37h2" />
<path stroke="#6bf53d" d="M13 25h5M19 25h3M23 25h1M13 26h13M13 27h2M18 27h8M15 28h1M19 28h1M23 28h1M25 28h1M13 29h1M15 29h1M19 29h1M21 29h1M23 29h1M25 29h1M15 30h1M17 30h1M19 30h1M21 30h1M23 30h1M25 30h1M13 31h3M17 31h1M19 31h1M21 31h1M23 31h1M25 31h1M13 32h3M19 32h1M23 32h1M13 33h3M17 33h3M21 33h1M24 33h2M13 34h13M13 35h8M22 35h1M24 35h2M13 36h13M13 37h13" />
<path stroke="#6bf53c" d="M18 25h1M22 25h1M17 29h1M23 35h1" />
<path stroke="#83ff59" d="M24 25h2" />
<path stroke="#1eba65" d="M12 26h1" />
<path stroke="#6bf43d" d="M15 27h2M16 33h1M22 33h2" />
<path stroke="#6af53d" d="M17 27h1M21 35h1" />
<path stroke="#1fbb64" d="M11 28h1" />
<path stroke="#003f2e" d="M12 28h3M16 28h3M20 28h3M24 28h1M12 29h1M14 29h1M16 29h1M18 29h1M20 29h1M22 29h1M24 29h1M12 30h3M20 30h1M22 30h1M24 30h1M12 31h1M16 31h1M18 31h1M20 31h1M22 31h1M24 31h1M12 32h1M16 32h3M20 32h3M24 32h2" />
<path stroke="#013f2e" d="M16 30h1M18 30h1" />
<path stroke="#6bf43c" d="M20 33h1" />
<path stroke="#1ebb64" d="M11 34h1" />
</svg>