<svg xmlns="http://www.w3.org/2000/svg" viewBox="0 -0.5 38 38" shape-rendering="crispEdges">
<metadata>Made with Pixels to Svg https://codepen.io/shshaw/pen/XbxvNj</metadata>
<path stroke="#b8b3a7" d="M12 25h1M11 26h1M11 33h1" />
<path stroke="#ddd3bd" d="M13 25h2M13 26h3M14 27h3M24 27h2M13 28h3M17 28h1M24 28h2M13 29h6M24 29h1M13 30h4M18 30h1M23 30h1M25 30h1M13 31h7M23 31h3M13 32h3M17 32h3M22 32h4M14 33h3M18 33h5M24 33h2M13 34h4M18 34h8M14 35h1M16 35h1M18 35h2M22 35h4M13 36h5M23 36h1M25 36h1M13 37h13" />
<path stroke="#c18a2d" d="M19 25h1M21 25h2M22 26h1" />
<path stroke="#c18b2d" d="M20 25h1" />
<path stroke="#b9b3a7" d="M25 25h1M12 26h1M16 26h1M11 27h2M17 27h1M11 28h2M18 28h1M11 29h2M23 29h1M11 30h2M11 31h2M11 32h2M12 33h1M11 34h2M11 35h2M11 36h2M11 37h2" />
<path stroke="#fec84b" d="M19 26h1" />
<path stroke="#ffb83f" d="M20 26h2M20 27h1M20 28h1M19 29h2M20 30h1M20 31h1M20 35h1" />
<path stroke="rgba(24,24,34,0.20784313725490197)" d="M24 26h1M18 27h2M22 27h2M23 28h1" />
<path stroke="#ddd3bc" d="M25 26h1M13 27h1M25 29h1" />
<path stroke="#d49730" d="M21 27h1M21 28h2M22 29h1M21 30h2M21 31h2M21 32h1M20 36h1" />
<path stroke="#ddd2bd" d="M16 28h1M20 32h1M13 33h1M23 33h1M13 35h1M15 35h1M17 35h1M22 36h1M24 36h1" />
<path stroke="#feb83e" d="M19 28h1" />
<path stroke="#d59730" d="M21 29h1M21 36h1" />
<path stroke="#dcd3bd" d="M17 30h1M24 30h1M16 32h1M17 34h1M18 36h2" />
<path stroke="#ffb83e" d="M19 30h1M21 35h1" />
<path stroke="#dcd3bc" d="M17 33h1" />
</svg>