<svg xmlns="http://www.w3.org/2000/svg" viewBox="0 -0.5 38 38" shape-rendering="crispEdges">
<metadata>Made with Pixels to Svg https://codepen.io/shshaw/pen/XbxvNj</metadata>
<path stroke="#006aff" d="M12 25h1M11 26h2M12 27h1M11 28h2M11 29h2M11 30h2M11 31h2M11 32h1M11 33h2M11 34h2M11 35h1M11 36h2M11 37h2" />
<path stroke="#0184ff" d="M13 25h1M21 25h1M20 26h1M25 26h1M19 27h2M18 28h1M14 32h1M16 34h4" />
<path stroke="#0085ff" d="M14 25h1M14 26h1M19 26h1M20 28h1M14 29h1M15 34h1" />
<path stroke="#0084ff" d="M15 25h6M22 25h2M13 26h1M15 26h4M21 26h2M24 26h1M13 27h6M21 27h5M16 28h2M19 28h1M24 28h2M16 29h1M22 29h4M14 30h1M16 30h1M18 30h1M20 30h1M23 30h1M25 30h1M16 31h1M20 31h1M22 31h4M16 32h1M19 32h2M22 32h2M25 32h1M15 33h2M20 33h1M22 33h2M25 33h1M13 34h2M20 34h6M13 35h13M13 36h1M15 36h3M19 36h5M25 36h1M13 37h4M18 37h2M21 37h5" />
<path stroke="#2093ff" d="M24 25h2" />
<path stroke="#0084fe" d="M23 26h1M15 28h1M20 29h1M14 31h1M18 32h1M14 36h1M18 36h1M24 36h1M17 37h1M20 37h1" />
<path stroke="#006bff" d="M11 27h1M12 32h1M12 35h1" />
<path stroke="#000f53" d="M13 28h2M21 28h3M13 29h1M15 29h1M17 29h2M21 29h1M13 30h1M15 30h1M17 30h1M22 30h1M15 31h1M17 31h3M13 32h1M15 32h1M17 32h1M21 32h1M24 32h1M13 33h2M17 33h3M21 33h1M24 33h1" />
<path stroke="#010f53" d="M19 29h1M24 30h1" />
<path stroke="#000e53" d="M19 30h1M21 31h1" />
<path stroke="#000f52" d="M21 30h1M13 31h1" />
</svg>