<svg xmlns="http://www.w3.org/2000/svg" viewBox="0 -0.5 38 38" shape-rendering="crispEdges">
<metadata>Made with Pixels to Svg https://codepen.io/shshaw/pen/XbxvNj</metadata>
<path stroke="#ffb7be" d="M27 23h2M26 24h1M32 24h1M25 25h1M31 25h1M6 32h2M7 33h2M10 33h3" />
<path stroke="#f685a0" d="M29 23h2M28 24h1M30 24h1M26 25h5M25 26h1M27 26h1M26 27h1M26 28h2M27 29h1M28 30h1M27 31h1M25 32h2M28 32h1M5 33h2M13 33h1M20 33h2M23 33h1M27 33h1M7 34h6M14 34h1M16 34h7M24 34h2M8 35h1M10 35h1M12 35h8M21 35h1" />
<path stroke="#f785a0" d="M27 24h1M26 26h1M28 29h1M28 31h1M22 33h1M24 33h1M26 33h1M5 34h2M15 34h1M20 35h1" />
<path stroke="#08061c" d="M29 24h1" />
<path stroke="#feb7be" d="M31 24h1" />
<path stroke="#9e505f" d="M32 25h2M31 26h1M33 26h2M32 27h3M33 28h2" />
<path stroke="#eb5e86" d="M28 26h1M30 26h1M27 27h1M29 29h1M29 30h1M7 31h1M29 31h2M8 32h2M29 32h2M28 33h3M26 34h4M6 35h2M22 35h4M27 35h2M8 36h1M10 36h5M16 36h5M22 36h5M10 37h14" />
<path stroke="#eb5f86" d="M29 26h1" />
<path stroke="#9e515f" d="M32 26h1" />
<path stroke="#f684a0" d="M28 28h1M27 32h1M25 33h1M23 34h1" />
<path stroke="#f685a1" d="M27 30h1M13 34h1M9 35h1M11 35h1" />
<path stroke="#eb5e87" d="M30 30h1M8 31h1M9 36h1M15 36h1" />
<path stroke="#ffb7bf" d="M9 33h1" />
<path stroke="#ea5e86" d="M26 35h1M21 36h1" />
</svg>