<svg xmlns="http://www.w3.org/2000/svg" viewBox="0 -0.5 38 38" shape-rendering="crispEdges">
<metadata>Made with Pixels to Svg https://codepen.io/shshaw/pen/XbxvNj</metadata>
<path stroke="#7124ee" d="M12 25h4M17 25h2M20 25h4M11 26h3M15 26h11M11 27h6M18 27h8M12 28h2M16 28h10M13 29h8M22 29h4M13 30h5M20 30h3M24 30h2M13 31h1M15 31h6M23 31h3M14 32h1M16 32h7M25 32h1" />
<path stroke="#7024ee" d="M16 25h1M14 28h2M23 30h1M22 31h1" />
<path stroke="#7125ee" d="M19 25h1M21 29h1M18 30h2M14 31h1M21 31h1M24 32h1" />
<path stroke="#7e3aeb" d="M24 25h1" />
<path stroke="#7124ef" d="M14 26h1M11 28h1M15 32h1M23 32h1" />
<path stroke="#7025ee" d="M17 27h1" />
<path stroke="#6514dd" d="M11 29h2M12 30h1M11 31h2M11 32h3M11 33h4M19 33h1M23 33h3" />
<path stroke="#6514dc" d="M11 30h1" />
<path stroke="#6414dd" d="M15 33h1" />
<path stroke="#6bf53d" d="M16 33h3M20 33h3M16 34h7" />
<path stroke="#1eba64" d="M11 34h1M11 35h2M11 36h2M19 36h1M11 37h1M19 37h1" />
<path stroke="#28d941" d="M12 34h1M20 37h2" />
<path stroke="#28d940" d="M13 34h1M15 34h1M24 34h2M13 35h6M20 35h4M25 35h1M13 36h6M20 36h5M13 37h6M22 37h3" />
<path stroke="#29d940" d="M14 34h1M24 35h1M25 37h1" />
<path stroke="#28d840" d="M23 34h1M19 35h1M25 36h1" />
<path stroke="#1fba64" d="M12 37h1" />
</svg>