<svg xmlns="http://www.w3.org/2000/svg" viewBox="0 -0.5 38 38" shape-rendering="crispEdges">
<metadata>Made with Pixels to Svg https://codepen.io/shshaw/pen/XbxvNj</metadata>
<path stroke="#042552" d="M12 25h1M14 25h1M16 25h8M11 26h1M13 26h3M17 26h7M25 26h1M11 27h1M14 27h12M11 28h1M16 28h5M24 28h2M11 29h1M16 29h1M20 29h1M22 29h2M25 29h1M12 30h1M14 30h1M16 30h1M18 30h1M20 30h1M23 30h1M25 30h1M11 31h2M16 31h1M20 31h1M22 31h2M11 32h2M14 32h1M18 32h2M22 32h2M12 33h1M15 33h1M20 33h1M22 33h1M25 33h1M12 34h1M17 34h9M11 35h2M16 35h7M24 35h2M11 36h7M19 36h2M22 36h4M14 37h5M21 37h5" />
<path stroke="#052552" d="M13 25h1M14 29h1M11 30h1M20 32h1M23 33h1M18 36h1M11 37h1M19 37h2" />
<path stroke="#042553" d="M15 25h1M16 26h1M13 27h1M24 29h1M24 31h1M16 32h1M11 34h1" />
<path stroke="#093a7e" d="M24 25h2" />
<path stroke="#001a50" d="M12 26h1" />
<path stroke="#042452" d="M24 26h1M15 28h1M14 31h1M11 33h1M16 33h1M23 35h1M21 36h1M13 37h1" />
<path stroke="#011a50" d="M12 27h1M12 28h1M12 29h1M12 37h1" />
<path stroke="#e9f7ff" d="M13 28h2M21 28h3M13 29h1M15 29h1M17 29h3M21 29h1M13 30h1M15 30h1M17 30h1M19 30h1M22 30h1M24 30h1M13 31h1M15 31h1M17 31h3M21 31h1M13 32h1M15 32h1M17 32h1M21 32h1M14 33h1M17 33h1M19 33h1M21 33h1M24 33h1" />
<path stroke="#e9f6ff" d="M21 30h1" />
<path stroke="#002559" d="M25 31h1M25 32h1M13 34h1M15 34h2M13 35h3" />
<path stroke="#f8fcff" d="M24 32h1" />
<path stroke="#e8f7fe" d="M13 33h1" />
<path stroke="#f9fcff" d="M18 33h1" />
<path stroke="#012459" d="M14 34h1" />
</svg>