<svg xmlns="http://www.w3.org/2000/svg" viewBox="0 -0.5 38 38" shape-rendering="crispEdges">
<metadata>Made with Pixels to Svg https://codepen.io/shshaw/pen/XbxvNj</metadata>
<path stroke="#1a1a23" d="M12 25h1M11 26h2M11 27h2M11 28h1M11 29h2M11 30h1M12 31h1M11 32h2M11 33h2M12 34h1M11 35h2M11 36h2M11 37h2" />
<path stroke="#252534" d="M13 25h2M13 26h2M25 26h1M14 27h1M24 27h2M13 28h5M24 28h2M13 29h6M25 29h1M13 30h4M23 30h3M13 31h3M17 31h1M24 31h1M15 32h6M22 32h4M14 33h12M13 34h3M17 34h4M22 34h2M25 34h1M13 35h7M22 35h3M13 36h2M17 36h1M19 36h1M23 36h3M13 37h1M15 37h6M22 37h1M24 37h2" />
<path stroke="#202ca9" d="M19 25h3M22 26h1" />
<path stroke="#202ca8" d="M22 25h1" />
<path stroke="#373643" d="M25 25h1" />
<path stroke="#252435" d="M15 26h1" />
<path stroke="#363643" d="M16 26h1M17 27h1M18 28h1M23 29h1" />
<path stroke="#4f5dfa" d="M19 26h1" />
<path stroke="#3745d3" d="M20 26h2M20 27h1M19 28h2M19 29h2M19 30h2M20 31h1" />
<path stroke="rgba(24,24,34,0.20784313725490197)" d="M24 26h1M19 27h1M22 27h1M23 28h1" />
<path stroke="#252434" d="M13 27h1M17 30h1M23 31h1M21 34h1M21 37h1" />
<path stroke="#252535" d="M15 27h1M18 30h1M16 31h1M18 31h2M14 32h1M13 33h1M24 34h1M25 35h1M22 36h1M14 37h1M23 37h1" />
<path stroke="#242534" d="M16 27h1M25 31h1M13 32h1M16 34h1M15 36h2M18 36h1" />
<path stroke="rgba(24,24,35,0.20784313725490197)" d="M18 27h1" />
<path stroke="#212fc5" d="M21 27h1M21 28h2M21 29h2M21 30h2M21 31h2M21 32h1" />
<path stroke="rgba(24,25,34,0.20784313725490197)" d="M23 27h1" />
<path stroke="#1a1a22" d="M12 28h1" />
<path stroke="#242434" d="M24 29h1" />
<path stroke="#1a1b23" d="M12 30h1M11 34h1" />
<path stroke="#1b1a22" d="M11 31h1" />
<path stroke="#ffb83f" d="M20 35h2" />
<path stroke="#d49730" d="M20 36h1" />
<path stroke="#d49630" d="M21 36h1" />
</svg>