<svg xmlns="http://www.w3.org/2000/svg" viewBox="0 -0.5 38 38" shape-rendering="crispEdges">
<metadata>Made with Pixels to Svg https://codepen.io/shshaw/pen/XbxvNj</metadata>
<path stroke="#7124ee" d="M12 25h1M15 25h1M17 25h2M20 25h4M12 26h1M14 26h1M17 26h3M21 26h3M25 26h1M11 27h1M14 27h1M16 27h4M21 27h2M25 27h1M11 28h1M17 28h4M17 29h3M13 32h5M19 32h1M21 32h2M24 32h1M14 33h12M14 34h3M18 34h8" />
<path stroke="#ffffff" d="M13 25h1M24 26h1M13 27h1M12 31h1M18 31h2M25 31h1M11 32h1M12 35h1M25 35h1" />
<path stroke="#7124ef" d="M14 25h1M15 27h1M16 28h1M18 32h1" />
<path stroke="#7024ee" d="M16 25h1M19 25h1M20 27h1M15 28h1M25 32h1" />
<path stroke="#feffff" d="M24 25h1M13 26h1M11 35h1" />
<path stroke="#7125ee" d="M11 26h1M20 26h1M12 27h1M17 34h1" />
<path stroke="#7e3aeb" d="M15 26h2M12 28h1M12 29h1M12 30h1" />
<path stroke="#6514dd" d="M23 27h1M21 28h2M11 29h1M20 29h1M25 29h1M11 30h1M18 30h2M25 30h1M11 31h1M12 32h1M12 33h2M11 34h3M13 36h2M24 36h1M15 37h1M22 37h3" />
<path stroke="#fffeff" d="M24 27h1" />
<path stroke="#eaeaea" d="M13 28h2M23 28h2M13 29h2M16 29h1M21 29h4M13 30h3M17 30h1M20 30h5M13 35h3M17 35h4M22 35h3M16 36h1M19 36h4M18 37h3" />
<path stroke="#6414dd" d="M25 28h1M25 36h1" />
<path stroke="#eaeaeb" d="M15 29h1M16 30h1M17 36h1" />
<path stroke="#d5d5d5" d="M13 31h5M20 31h1M23 31h1M16 37h2M21 37h1" />
<path stroke="#d5d5d4" d="M21 31h2" />
<path stroke="#d4d5d5" d="M24 31h1" />
<path stroke="#7024ef" d="M20 32h1" />
<path stroke="#7025ee" d="M23 32h1" />
<path stroke="#6514dc" d="M11 33h1" />
<path stroke="#eaebea" d="M16 35h1M21 35h1" />
<path stroke="#5519ae" d="M11 36h2M11 37h1M14 37h1M25 37h1" />
<path stroke="#d5d4d5" d="M15 36h1" />
<path stroke="#ebeaea" d="M18 36h1M23 36h1" />
<path stroke="#5419ae" d="M12 37h1" />
<path stroke="#5519af" d="M13 37h1" />
</svg>