<svg xmlns="http://www.w3.org/2000/svg" viewBox="0 -0.5 38 38" shape-rendering="crispEdges">
<metadata>Made with Pixels to Svg https://codepen.io/shshaw/pen/XbxvNj</metadata>
<path stroke="#f08800" d="M12 25h1M11 26h2M11 27h1M11 28h1M11 29h1M11 31h1M11 32h1M11 33h2M11 34h1M11 35h2M11 36h2M12 37h1" />
<path stroke="#ff9b34" d="M13 25h6M20 25h1M22 25h2M13 26h1M24 26h2M25 31h1M25 32h1M13 33h1M13 34h2M23 34h3M13 35h3M24 35h2M13 36h5M20 36h1M22 36h1M25 36h1M13 37h2M17 37h2M20 37h1M23 37h3" />
<path stroke="#fe9b34" d="M19 25h1M21 25h1M25 33h1M23 35h1M23 36h2M15 37h1M21 37h1" />
<path stroke="#ffb83f" d="M24 25h2" />
<path stroke="#808080" d="M14 26h1M17 26h1M20 26h1M25 27h1M16 35h1M21 35h1M18 36h1" />
<path stroke="#a8a9a8" d="M15 26h1M13 28h1M25 30h1" />
<path stroke="#a8a8a8" d="M16 26h1M13 27h2M12 28h1M13 29h1M23 32h2M21 33h2M18 34h3M22 34h1M17 35h2M20 35h1" />
<path stroke="#bfbfbf" d="M18 26h1M17 28h1M15 29h2M23 29h1M13 30h1M13 31h1M21 31h1" />
<path stroke="#d1d1d1" d="M19 26h1M21 26h2M18 27h2M16 32h3M15 33h3M15 34h1" />
<path stroke="#808081" d="M23 26h1" />
<path stroke="#808180" d="M12 27h1M12 31h1M23 33h1M19 36h1" />
<path stroke="#c0c0c0" d="M15 27h2M12 30h1M23 31h2M21 32h1M19 33h1M17 34h1" />
<path stroke="#d0d1d1" d="M17 27h1" />
<path stroke="#dddddd" d="M20 27h5M16 30h1M15 31h2M13 32h2" />
<path stroke="#0c3356" d="M14 28h2M18 28h3M22 28h1M14 29h1M18 29h1M22 29h1M14 30h1M18 30h1M22 30h1M14 31h1M18 31h1" />
<path stroke="#002547" d="M16 28h1M24 28h1M20 29h1M24 29h1M15 30h1M20 30h1M23 30h1M19 31h1" />
<path stroke="#d0d0d0" d="M21 28h1M25 28h1M19 29h1M21 29h1M17 30h1M19 30h1M17 31h1M14 33h1" />
<path stroke="#0c3357" d="M23 28h1" />
<path stroke="#c1c0c0" d="M12 29h1M20 32h1M20 33h1" />
<path stroke="#d0d1d0" d="M17 29h1" />
<path stroke="#bfbebf" d="M25 29h1" />
<path stroke="#f08801" d="M11 30h1M12 32h1M12 34h1" />
<path stroke="#bfbfbe" d="M21 30h1" />
<path stroke="#002447" d="M24 30h1" />
<path stroke="#002546" d="M20 31h1" />
<path stroke="#0d3356" d="M22 31h1" />
<path stroke="#dddcdd" d="M15 32h1" />
<path stroke="#d1d0d1" d="M19 32h1" />
<path stroke="#c0c0c1" d="M22 32h1M18 33h1" />
<path stroke="#ff9b35" d="M24 33h1M22 35h1M21 36h1M22 37h1" />
<path stroke="#d1d1d0" d="M16 34h1" />
<path stroke="#a9a8a8" d="M21 34h1" />
<path stroke="#a9a8a9" d="M19 35h1" />
<path stroke="#f18800" d="M11 37h1" />
<path stroke="#ff9a34" d="M16 37h1" />
<path stroke="#fe9a34" d="M19 37h1" />
</svg>