<svg xmlns="http://www.w3.org/2000/svg" viewBox="0 -0.5 38 38" shape-rendering="crispEdges">
<metadata>Made with Pixels to Svg https://codepen.io/shshaw/pen/XbxvNj</metadata>
<path stroke="#7124ee" d="M12 25h1M14 25h1M16 25h2M19 25h5M11 26h2M14 26h1M17 26h5M23 26h1M25 26h1M11 27h2M15 27h1M17 27h3M21 27h2M25 27h1M11 28h1M16 28h3M20 28h1M18 29h2M13 32h5M19 32h3M23 32h3M14 33h4M20 33h1M22 33h1M24 33h2M14 34h3M19 34h7" />
<path stroke="#e06a34" d="M13 25h1M24 25h1M13 26h1M24 26h1M24 27h1M12 31h1M18 31h1M25 31h1M11 32h1M11 35h2M25 35h1" />
<path stroke="#7125ee" d="M15 25h1M14 27h1M16 27h1M20 27h1M19 28h1M17 29h1M18 32h1M17 34h1" />
<path stroke="#7124ef" d="M18 25h1M22 26h1M15 28h1M22 32h1M19 33h1M21 33h1M23 33h1" />
<path stroke="#7e3aeb" d="M15 26h2M12 28h1M12 29h1M12 30h1" />
<path stroke="#e06b34" d="M13 27h1M19 31h1" />
<path stroke="#6514dd" d="M23 27h1M22 28h1M25 28h1M11 29h1M20 29h1M11 30h1M18 30h2M11 31h1M12 32h1M12 33h1M11 34h3M13 36h2M24 36h2M15 37h1M22 37h3" />
<path stroke="#ffa100" d="M13 28h2M23 28h2M13 29h1M15 29h2M21 29h4M13 30h4M21 30h4M13 35h7M21 35h4M16 36h2M19 36h1M21 36h3M18 37h3" />
<path stroke="#6414dd" d="M21 28h1M25 30h1M13 33h1" />
<path stroke="#ffa000" d="M14 29h1M20 30h1M18 36h1M20 36h1" />
<path stroke="#6515dd" d="M25 29h1" />
<path stroke="#fea100" d="M17 30h1" />
<path stroke="#e09109" d="M13 31h5M21 31h4M15 36h1M16 37h2M21 37h1" />
<path stroke="#e19009" d="M20 31h1" />
<path stroke="#6514dc" d="M11 33h1" />
<path stroke="#7024ee" d="M18 33h1M18 34h1" />
<path stroke="#ffa101" d="M20 35h1" />
<path stroke="#5519ae" d="M11 36h2M11 37h4M25 37h1" />
</svg>