<svg xmlns="http://www.w3.org/2000/svg" viewBox="0 -0.5 38 38" shape-rendering="crispEdges">
<metadata>Made with Pixels to Svg https://codepen.io/shshaw/pen/XbxvNj</metadata>
<path stroke="#7124ee" d="M7 6h1M8 7h1M9 8h3M13 8h1M16 8h2M19 8h3M6 9h1M11 9h15M7 10h4M12 10h4M18 10h5M25 10h1M5 11h1M10 11h1M12 11h5M18 11h2M21 11h3M25 11h1M6 12h8M18 12h1M20 12h1M8 13h6M19 13h2M25 13h1M12 14h2M18 14h3M25 14h1M12 15h2M18 15h3M25 15h1M12 16h1M18 16h3M12 17h1M18 17h1M20 17h1M25 17h1M12 18h2M15 18h1M17 18h5M23 18h3M12 19h1M14 19h1M24 19h2M12 20h5M25 20h1M14 21h1M16 21h1M25 21h1M13 22h1M15 22h2M18 22h2M25 22h1" />
<path stroke="#641ecc" d="M8 8h1M10 9h1M9 11h1M7 13h1M11 14h1M12 21h1M17 21h1M12 23h11M24 23h1" />
<path stroke="#7024ef" d="M12 8h1M16 10h1" />
<path stroke="#7125ee" d="M14 8h1M24 11h1M18 13h1M13 16h1M25 16h1M13 17h1M15 19h1M13 21h1M15 21h1" />
<path stroke="#7124ef" d="M15 8h1M11 10h1M17 10h1M24 10h1M17 11h1M20 11h1M25 12h1M14 18h1M22 18h1M13 19h1M17 22h1" />
<path stroke="#7024ee" d="M18 8h1M22 8h1M11 11h1M19 12h1M19 17h1M16 18h1M16 19h1M24 20h1M14 22h1" />
<path stroke="#5519ae" d="M9 9h1M8 11h1M26 12h1M26 13h1M9 14h2M26 14h1M11 15h1M11 16h1M11 17h1M26 17h1M11 19h1M26 19h1M11 20h1M26 20h1M15 24h2M18 24h1M21 24h3" />
<path stroke="#7125ef" d="M23 10h1" />
<path stroke="#effff6" d="M14 12h2M21 12h2" />
<path stroke="#c9ffe2" d="M16 12h2M23 12h2M17 13h1M24 13h1" />
<path stroke="#51fa92" d="M14 13h2M21 13h1" />
<path stroke="#0bf168" d="M16 13h1M23 13h1M16 14h1M23 14h1M16 15h1M23 15h1" />
<path stroke="#50fa92" d="M22 13h1" />
<path stroke="#5519af" d="M8 14h1M26 16h1M26 18h1M14 24h1M17 24h1" />
<path stroke="#7afac7" d="M14 14h1" />
<path stroke="#0a5a27" d="M15 14h1M22 14h1" />
<path stroke="#aaffd1" d="M17 14h1M24 14h1M24 15h1" />
<path stroke="#7afbc7" d="M21 14h1M14 15h1M21 15h1M14 16h2M17 16h1M21 16h1M23 16h2" />
<path stroke="#0e9445" d="M15 15h1M22 15h1" />
<path stroke="#aaffd0" d="M17 15h1" />
<path stroke="#5419ae" d="M26 15h1M19 24h1" />
<path stroke="#7afbc6" d="M16 16h1M22 16h1" />
<path stroke="#315074" d="M14 17h2M17 17h1M21 17h2M24 17h1" />
<path stroke="#315075" d="M16 17h1M23 17h1" />
<path stroke="#5518ae" d="M11 18h1M20 24h1" />
<path stroke="#ff7f08" d="M17 19h5M18 20h2M23 20h1M20 21h2M23 21h2M22 22h3" />
<path stroke="#ff9112" d="M22 19h2" />
<path stroke="#f26d00" d="M17 20h1M18 21h2M20 22h2" />
<path stroke="#a7431c" d="M20 20h1" />
<path stroke="#ff7e08" d="M21 20h1" />
<path stroke="#a7421c" d="M22 20h1" />
<path stroke="#fe7f08" d="M22 21h1" />
<path stroke="#651ecc" d="M12 22h1M25 23h1" />
<path stroke="#641fcc" d="M23 23h1" />
</svg>