<svg xmlns="http://www.w3.org/2000/svg" viewBox="0 -0.5 38 38" shape-rendering="crispEdges">
<metadata>Made with Pixels to Svg https://codepen.io/shshaw/pen/XbxvNj</metadata>
<path stroke="#7124ee" d="M7 6h1M8 7h1M9 8h8M20 8h3M6 9h1M11 9h5M17 9h7M25 9h1M7 10h5M13 10h3M17 10h3M21 10h1M23 10h3M5 11h1M10 11h1M12 11h1M14 11h8M23 11h3M6 12h4M11 12h9M21 12h2M24 12h2M8 13h3M12 13h1M18 13h3M25 13h1M12 14h2M18 14h3M12 15h2M18 15h3M25 15h1M12 16h3M17 16h4M24 16h2M12 17h9M23 17h3M12 18h5M18 18h5M24 18h1M12 19h5M24 19h2M12 20h3M16 20h1M14 21h1M25 21h1M14 22h5M25 22h1" />
<path stroke="#6514dd" d="M8 8h1M10 9h1M9 11h1M7 13h1M14 13h4M21 13h4M11 14h1M16 14h1M22 14h1M14 15h1M24 15h1M15 16h2M22 16h2M12 21h1M17 21h1M12 22h1M12 23h2M16 23h10" />
<path stroke="#7124ef" d="M17 8h1M12 10h1M16 10h1M13 11h1M22 11h1M25 20h1M13 22h1M19 22h1" />
<path stroke="#7024ee" d="M18 8h2M16 9h1M22 10h1M10 12h1M20 12h1M23 12h1M11 13h1M25 14h1M21 16h1M21 17h1M17 18h1M25 18h1M13 21h1" />
<path stroke="#5519ae" d="M9 9h1M8 11h1M26 12h1M26 13h1M8 14h3M26 14h1M11 15h1M26 15h1M11 16h1M26 16h1M11 17h1M26 17h1M26 18h1M11 19h1M11 20h1M26 20h1M14 24h10" />
<path stroke="#7125ee" d="M24 9h1M20 10h1M11 11h1M13 13h1M15 20h1M24 20h1M15 21h2" />
<path stroke="#010049" d="M14 14h1" />
<path stroke="#6514dc" d="M15 14h1M14 23h1" />
<path stroke="#000049" d="M17 14h1M21 14h1M24 14h1M15 15h2M22 15h2" />
<path stroke="#6414dd" d="M23 14h1M21 15h1M15 23h1" />
<path stroke="#6515dd" d="M17 15h1" />
<path stroke="#7025ee" d="M22 17h1" />
<path stroke="#5519af" d="M11 18h1" />
<path stroke="#7125ef" d="M23 18h1" />
<path stroke="#ff7f08" d="M17 19h5M18 20h2M21 20h1M23 20h1M20 21h5M24 22h1" />
<path stroke="#ff9112" d="M22 19h1" />
<path stroke="#ff9012" d="M23 19h1" />
<path stroke="#5518ae" d="M26 19h1" />
<path stroke="#f26d00" d="M17 20h1M19 21h1M20 22h2" />
<path stroke="#a7431c" d="M20 20h1" />
<path stroke="#a7421c" d="M22 20h1" />
<path stroke="#f26c00" d="M18 21h1" />
<path stroke="#ff7e08" d="M22 22h1" />
<path stroke="#fe7f08" d="M23 22h1" />
</svg>