<svg xmlns="http://www.w3.org/2000/svg" viewBox="0 -0.5 38 38" shape-rendering="crispEdges">
<metadata>Made with Pixels to Svg https://codepen.io/shshaw/pen/XbxvNj</metadata>
<path stroke="#ffffff" d="M14 3h1M16 3h9M13 4h12M26 4h1M11 5h12M24 5h4M10 6h2M15 6h3M19 6h1M21 6h2M24 6h5M10 7h2M13 7h3M17 7h3M21 7h1M23 7h5M11 8h3M17 8h2M22 8h3M26 8h2M25 9h2M26 10h1" />
<path stroke="#fffffe" d="M15 3h1M25 4h1M12 6h2" />
<path stroke="#feffff" d="M12 4h1M23 5h1M14 6h1M20 6h1M20 7h1" />
<path stroke="#fffeff" d="M18 6h1M12 7h1M25 8h1" />
<path stroke="#e1d6ba" d="M23 6h1M22 7h1M23 9h1M9 11h1M26 11h1" />
<path stroke="#f5f0d3" d="M9 7h1M28 7h1M10 8h1M28 8h1M9 9h3M27 9h2M9 10h1M27 10h2" />
<path stroke="#e1d7ba" d="M16 7h1M14 8h3M19 8h3M12 9h2M16 9h3M22 9h1M24 9h1M10 10h2M25 10h1M10 11h1M9 12h1M27 12h1" />
<path stroke="#f5f1d3" d="M9 8h1" />
<path stroke="#c1ae9a" d="M19 9h1M12 10h1M17 10h1" />
<path stroke="#f4f0d3" d="M27 11h1" />
</svg>