<svg xmlns="http://www.w3.org/2000/svg" viewBox="0 -0.5 38 38" shape-rendering="crispEdges">
<metadata>Made with Pixels to Svg https://codepen.io/shshaw/pen/XbxvNj</metadata>
<path stroke="#7124ee" d="M7 6h1M8 7h1M9 8h7M17 8h6M6 9h1M11 9h15M7 10h4M12 10h11M24 10h1M5 11h1M10 11h8M19 11h1M21 11h2M25 11h1M6 12h1M8 12h2M13 12h1M18 12h4M25 12h1M8 13h6M18 13h3M25 13h1M12 14h2M18 14h3M13 15h1M18 15h3M25 15h1M12 16h1M18 16h3M25 16h1M12 17h2M18 17h3M25 17h1M12 18h3M17 18h3M21 18h5M16 19h1M24 19h1M12 20h3M16 20h1M24 20h2M13 21h2M16 21h1M25 21h1M13 22h2M16 22h4M25 22h1" />
<path stroke="#6514dd" d="M8 8h1M9 11h1M7 13h1M11 14h1M14 17h4M21 17h4M12 21h1M17 21h1M12 22h1M12 23h10M23 23h3" />
<path stroke="#7125ee" d="M16 8h1M25 10h1M25 14h1M15 18h1M20 18h1M12 19h1M14 19h1" />
<path stroke="#5519ae" d="M9 9h1M8 11h1M16 12h1M22 12h1M26 12h1M17 13h1M26 13h1M8 14h1M10 14h1M26 14h1M11 15h1M26 15h1M11 16h1M26 16h1M11 17h1M26 17h1M11 18h1M26 18h1M11 19h1M26 19h1M11 20h1M26 20h1M15 24h2M18 24h4M23 24h1" />
<path stroke="#6414dd" d="M10 9h1" />
<path stroke="#7024ee" d="M11 10h1M24 11h1M12 12h1M17 12h1M13 16h1M13 19h1" />
<path stroke="#7024ef" d="M23 10h1M23 11h1" />
<path stroke="#7124ef" d="M18 11h1M20 11h1M7 12h1M10 12h2M12 15h1M16 18h1M15 19h1M25 19h1M15 20h1M15 21h1M15 22h1" />
<path stroke="#cedef6" d="M14 12h1M14 15h1M21 15h1M14 16h1M21 16h1" />
<path stroke="#000049" d="M15 12h1M23 12h2M15 13h2M22 13h2M15 14h1M22 14h1M15 15h3M24 15h1M15 16h3M22 16h3" />
<path stroke="#cedef7" d="M14 13h1" />
<path stroke="#5418ae" d="M21 13h1M14 24h1" />
<path stroke="#000048" d="M24 13h1M23 15h1" />
<path stroke="#5518ae" d="M9 14h1M22 24h1" />
<path stroke="#dff0fb" d="M14 14h1" />
<path stroke="#626a9c" d="M16 14h2M23 14h1" />
<path stroke="#def0fb" d="M21 14h1" />
<path stroke="#636a9c" d="M24 14h1" />
<path stroke="#010049" d="M22 15h1" />
<path stroke="#ff7f08" d="M17 19h1M19 19h2M18 20h2M21 20h1M23 20h1M20 21h5M22 22h3" />
<path stroke="#ff7e08" d="M18 19h1M21 19h1" />
<path stroke="#ff9013" d="M22 19h1" />
<path stroke="#ff9112" d="M23 19h1" />
<path stroke="#f26d00" d="M17 20h1M18 21h1M20 22h2" />
<path stroke="#a7431c" d="M20 20h1" />
<path stroke="#a6431c" d="M22 20h1" />
<path stroke="#f26c00" d="M19 21h1" />
<path stroke="#6515dd" d="M22 23h1" />
<path stroke="#5519af" d="M17 24h1" />
</svg>