<svg xmlns="http://www.w3.org/2000/svg" viewBox="0 -0.5 38 38" shape-rendering="crispEdges">
<metadata>Made with Pixels to Svg https://codepen.io/shshaw/pen/XbxvNj</metadata>
<path stroke="#7124ee" d="M7 6h1M8 7h1M9 8h7M17 8h6M6 9h1M11 9h2M14 9h4M19 9h3M23 9h3M7 10h19M5 11h1M12 11h7M20 11h3M24 11h2M6 12h2M12 15h1M19 15h1M26 15h1M19 16h2M26 16h1M12 17h2M19 17h2M25 17h1M12 18h14M12 19h5M24 19h2M12 20h5M24 20h2M14 21h3M25 21h1M13 22h7M25 22h1" />
<path stroke="#6514dd" d="M8 8h1M10 9h1M8 13h3M11 14h2M19 14h1M26 14h1M13 16h1M18 16h1M25 16h1M14 17h3M21 17h4M12 21h1M17 21h1M12 22h1M15 23h4" />
<path stroke="#7125ee" d="M16 8h1M13 9h1M22 9h1" />
<path stroke="#5518ae" d="M9 9h1" />
<path stroke="#7024ee" d="M18 9h1M12 16h1M13 21h1" />
<path stroke="#03102a" d="M8 11h3M8 12h1M11 12h5M19 12h4M25 12h1M11 13h4M17 13h5M24 13h2M13 14h1M16 14h3M20 14h1M23 14h2M14 15h3M22 15h2M14 16h2M21 16h2" />
<path stroke="#7124ef" d="M11 11h1M19 11h1M23 11h1M18 17h1" />
<path stroke="#00102f" d="M9 12h2" />
<path stroke="#29447a" d="M16 12h2M23 12h2M15 13h2M22 13h2M14 14h2M21 14h2M20 15h1" />
<path stroke="#03102b" d="M18 12h1" />
<path stroke="#02102a" d="M26 12h1M25 14h1M21 15h1" />
<path stroke="#6515dd" d="M7 13h1" />
<path stroke="#03112a" d="M26 13h1" />
<path stroke="#5519ae" d="M8 14h3M11 16h1M11 17h1M26 17h1M11 18h1M26 18h1M11 19h1M26 20h1M14 24h6M21 24h3" />
<path stroke="#5518af" d="M11 15h1" />
<path stroke="#29457a" d="M13 15h1" />
<path stroke="#081630" d="M17 15h1" />
<path stroke="#091630" d="M18 15h1M25 15h1M16 16h2M23 16h2" />
<path stroke="#091730" d="M24 15h1" />
<path stroke="#6415dc" d="M17 17h1" />
<path stroke="#ff7f08" d="M17 19h1M19 19h3M18 20h1M21 20h1M23 20h1M20 21h5M22 22h3" />
<path stroke="#fe7f08" d="M18 19h1" />
<path stroke="#ff9112" d="M22 19h2" />
<path stroke="#5419ae" d="M26 19h1M11 20h1M20 24h1" />
<path stroke="#f26d00" d="M17 20h1M18 21h2M20 22h2" />
<path stroke="#ff7f09" d="M19 20h1" />
<path stroke="#a7431d" d="M20 20h1" />
<path stroke="#a7431c" d="M22 20h1" />
<path stroke="#641ecc" d="M12 23h3M19 23h7" />
</svg>