<svg xmlns="http://www.w3.org/2000/svg" viewBox="0 -0.5 38 38" shape-rendering="crispEdges">
<metadata>Made with Pixels to Svg https://codepen.io/shshaw/pen/XbxvNj</metadata>
<path stroke="#7124ee" d="M7 6h1M8 7h1M9 8h2M14 8h6M21 8h2M6 9h1M12 9h8M22 9h1M25 9h1M7 10h3M12 10h4M17 10h9M5 11h1M10 11h1M12 11h14M6 12h7M18 12h2M25 12h1M8 13h3M12 13h1M12 15h1M18 15h2M12 16h1M18 16h2M12 17h1M18 17h2M12 18h12M12 19h5M24 19h1M12 20h5M24 20h2M14 21h3M25 21h1M13 22h2M16 22h4M25 22h1" />
<path stroke="#641ecc" d="M8 8h1M10 9h1M9 11h1M7 13h1M12 21h1M17 21h1M12 22h1M12 23h2M15 23h10" />
<path stroke="#7125ee" d="M11 8h1M21 9h1M10 10h1M11 13h1M24 18h1M13 21h1" />
<path stroke="#7024ee" d="M12 8h1M20 8h1M11 9h1M23 9h2M11 10h1M11 11h1M25 18h1M25 19h1" />
<path stroke="#7124ef" d="M13 8h1M20 9h1M16 10h1M15 22h1" />
<path stroke="#5519ae" d="M9 9h1M8 11h1M26 12h1M26 13h1M8 14h3M26 14h1M26 15h1M11 18h1M11 19h1M26 19h1M14 24h10" />
<path stroke="#feffff" d="M13 12h1M13 16h1M14 17h1" />
<path stroke="#ffffff" d="M14 12h4M20 12h5M17 13h1M20 13h1M13 14h1M17 14h1M24 14h1M13 15h1M17 15h1M20 15h5M20 16h1M13 17h1M15 17h3M20 17h1" />
<path stroke="#fffeff" d="M13 13h1M24 13h1M20 14h1" />
<path stroke="#f6001b" d="M14 13h2M21 13h2M12 14h1M14 14h1M18 14h2M21 14h1M11 15h1M16 15h1M11 16h1M14 16h2M22 16h1M24 16h1M22 17h3" />
<path stroke="#ff0c27" d="M16 13h1M19 13h1M23 13h1M15 14h2M22 14h2M14 15h2M21 16h1M21 17h1" />
<path stroke="#fe0c27" d="M18 13h1" />
<path stroke="#622adf" d="M25 13h1M25 14h1M25 15h1M25 16h1M25 17h1" />
<path stroke="#f6001a" d="M11 14h1" />
<path stroke="#f7011b" d="M16 16h1" />
<path stroke="#fffffe" d="M17 16h1" />
<path stroke="#f7001b" d="M23 16h1" />
<path stroke="#5419ae" d="M26 16h1M11 17h1M26 17h1M11 20h1" />
<path stroke="#5418ae" d="M26 18h1" />
<path stroke="#ff7f08" d="M17 19h5M18 20h2M21 20h1M23 21h2M22 22h3" />
<path stroke="#ff9112" d="M22 19h2" />
<path stroke="#f26d00" d="M17 20h1M18 21h2M20 22h2" />
<path stroke="#a7431d" d="M20 20h1" />
<path stroke="#a7431c" d="M22 20h1" />
<path stroke="#ff7e08" d="M23 20h1M20 21h1M22 21h1" />
<path stroke="#5519af" d="M26 20h1" />
<path stroke="#fe7f08" d="M21 21h1" />
<path stroke="#641fcc" d="M14 23h1" />
<path stroke="#651ecc" d="M25 23h1" />
</svg>