<svg xmlns="http://www.w3.org/2000/svg" viewBox="0 -0.5 38 38" shape-rendering="crispEdges">
<metadata>Made with Pixels to Svg https://codepen.io/shshaw/pen/XbxvNj</metadata>
<path stroke="#a9693b" d="M13 2h4M12 3h1M17 3h3M13 4h1M12 5h4M23 5h2M28 5h1M7 6h1M12 6h7M22 6h3M27 6h3M6 7h4M12 7h6M20 7h4M26 7h2M8 8h3M14 8h10" />
<path stroke="#955d34" d="M17 2h4M20 3h2M21 4h2M27 5h1M8 6h1M11 7h1M25 7h1M28 7h2M11 8h3M24 8h2M27 8h2M8 9h2M11 9h7M19 9h7M13 10h12" />
<path stroke="#c48456" d="M21 2h2M13 3h4M22 3h2M14 4h1M16 4h3M23 4h1M29 4h1M6 5h1M16 5h6M29 5h1M20 6h2" />
<path stroke="#a9683b" d="M12 4h1" />
<path stroke="#c48556" d="M15 4h1" />
<path stroke="#c48457" d="M19 4h1M6 6h1" />
<path stroke="#a8693b" d="M20 4h1M18 7h2" />
<path stroke="#664832" d="M24 4h1M11 5h1M25 5h1M11 6h1M25 6h1" />
<path stroke="#a9693a" d="M28 4h1M7 5h1M24 7h1M7 8h1" />
<path stroke="#7e5537" d="M10 5h1M26 5h1M9 6h2M26 6h1M10 7h1" />
<path stroke="#c58456" d="M22 5h1M19 6h1" />
<path stroke="#945d34" d="M26 8h1M26 9h1" />
<path stroke="#955c34" d="M10 9h1M18 9h1" />
</svg>