<svg xmlns="http://www.w3.org/2000/svg" viewBox="0 -0.5 38 38" shape-rendering="crispEdges">
<metadata>Made with Pixels to Svg https://codepen.io/shshaw/pen/XbxvNj</metadata>
<path stroke="#f2ea61" d="M14 2h3M12 3h3M11 4h3M11 5h1" />
<path stroke="#2b92d1" d="M17 2h2M17 3h4M15 4h1M17 4h2M20 4h2M13 5h3M17 5h5M13 6h7M21 6h2M13 7h1M15 7h5" />
<path stroke="#da9aa3" d="M19 2h5M21 3h3M23 4h3M22 5h4M23 6h1M25 6h2M23 7h4" />
<path stroke="#2b93d1" d="M15 3h1M14 7h1M22 7h1" />
<path stroke="#2a93d1" d="M16 3h1" />
<path stroke="#db9aa2" d="M24 3h1" />
<path stroke="#2b92d0" d="M14 4h1M16 5h1" />
<path stroke="#2a92d1" d="M16 4h1M19 4h1M20 6h1M20 7h2" />
<path stroke="#da9ba3" d="M22 4h1M24 6h1" />
<path stroke="#f3eb61" d="M10 5h1" />
<path stroke="#e1d949" d="M12 5h1M11 6h2M10 7h3" />
<path stroke="#f2ea60" d="M10 6h1" />
<path stroke="#008574" d="M10 8h8M19 8h8M28 8h1M12 9h1M14 9h7M22 9h3M26 9h5" />
<path stroke="#008575" d="M18 8h1M27 8h1M11 9h1M21 9h1" />
<path stroke="#018574" d="M13 9h1M25 9h1" />
<path stroke="#00b982" d="M12 10h6M19 10h2M23 10h2M26 10h5" />
<path stroke="#00b983" d="M18 10h1" />
<path stroke="#00b882" d="M21 10h1M25 10h1" />
<path stroke="#01b982" d="M22 10h1" />
</svg>