<svg xmlns="http://www.w3.org/2000/svg" viewBox="0 -0.5 38 38" shape-rendering="crispEdges">
<metadata>Made with Pixels to Svg https://codepen.io/shshaw/pen/XbxvNj</metadata>
<path stroke="#7125ee" d="M7 6h1M16 9h1M24 9h1M25 10h1M11 11h2M10 12h1M12 12h1M18 16h1" />
<path stroke="#7124ee" d="M8 7h1M9 8h2M12 8h2M15 8h8M6 9h1M11 9h3M15 9h1M17 9h7M25 9h1M7 10h7M15 10h4M20 10h5M10 11h1M13 11h4M18 11h4M23 11h3M6 12h1M8 12h1M11 12h1M13 12h1M18 12h5M24 12h2M8 13h6M19 13h4M25 13h1M12 14h2M18 14h4M12 15h2M18 15h3M12 16h2M17 16h1M19 16h7M12 17h3M16 17h2M19 17h7M12 18h10M23 18h3M12 19h1M14 19h2M24 19h2M12 20h5M24 20h1M13 21h2M16 21h1M25 21h1M13 22h1M16 22h4M25 22h1" />
<path stroke="#6514dd" d="M8 8h1M9 11h1M24 13h1M11 14h1M24 15h1M14 16h3M12 21h1M17 21h1M12 22h1M12 23h2M15 23h4M20 23h6" />
<path stroke="#7024ee" d="M11 8h1M5 11h1M17 11h1M22 11h1M9 12h1M23 12h1M15 17h1M18 17h1M22 18h1M16 19h1M25 20h1" />
<path stroke="#7124ef" d="M14 8h1M14 9h1M14 10h1M19 10h1M7 12h1M18 13h1M25 14h1M13 19h1M15 21h1M14 22h2" />
<path stroke="#5519ae" d="M9 9h1M8 11h1M26 12h1M26 13h1M8 14h3M26 14h1M11 15h1M11 16h1M26 16h1M11 17h1M26 17h1M11 18h1M26 18h1M11 19h1M26 19h1M11 20h1M26 20h1M14 24h7M23 24h1" />
<path stroke="#6514dc" d="M10 9h1M7 13h1M19 23h1" />
<path stroke="#c4e5f9" d="M14 12h1" />
<path stroke="#c4e5f8" d="M15 12h1" />
<path stroke="#010049" d="M16 12h1M15 15h1" />
<path stroke="#000049" d="M17 12h1M16 13h2M15 14h2M16 15h2M21 15h1" />
<path stroke="#def0fb" d="M14 13h2M14 14h1M14 15h1" />
<path stroke="#6515dd" d="M23 13h1M23 15h1" />
<path stroke="#010048" d="M17 14h1" />
<path stroke="#000048" d="M22 14h1" />
<path stroke="#000149" d="M23 14h2" />
<path stroke="#6414dc" d="M22 15h1" />
<path stroke="#5419ae" d="M25 15h1M22 24h1" />
<path stroke="#5518ae" d="M26 15h1M21 24h1" />
<path stroke="#ff7f08" d="M17 19h5M18 20h2M23 20h1M20 21h1M22 21h3M22 22h2" />
<path stroke="#ff9112" d="M22 19h1" />
<path stroke="#ff9013" d="M23 19h1" />
<path stroke="#f26d00" d="M17 20h1M18 21h2M21 22h1" />
<path stroke="#a7431c" d="M20 20h1M22 20h1" />
<path stroke="#fe7f08" d="M21 20h1" />
<path stroke="#ff7e08" d="M21 21h1M24 22h1" />
<path stroke="#f26d01" d="M20 22h1" />
<path stroke="#6414dd" d="M14 23h1" />
</svg>