<svg xmlns="http://www.w3.org/2000/svg" viewBox="0 -0.5 38 38" shape-rendering="crispEdges">
<metadata>Made with Pixels to Svg https://codepen.io/shshaw/pen/XbxvNj</metadata>
<path stroke="#7124ee" d="M7 6h1M8 7h1M9 8h1M13 8h2M16 8h7M11 9h7M20 9h6M7 10h8M17 10h9M5 11h1M10 11h13M24 11h2M6 12h20M10 13h1M12 13h14M12 14h3M17 14h2M24 14h2M12 15h1M18 15h3M12 16h11M24 16h1M12 17h4M17 17h6M24 17h2M12 18h1M14 18h6M22 18h1M24 18h2M13 19h4M24 19h2M12 20h5M24 20h2M13 21h4M25 21h1M13 22h2M16 22h1M18 22h2M25 22h1" />
<path stroke="#6514dd" d="M8 8h1M7 13h1M11 14h1M13 15h1M15 15h2M22 15h2M25 15h1M12 21h1M17 21h1M12 22h1M12 23h7M20 23h2M23 23h2" />
<path stroke="#7125ee" d="M10 8h1M15 8h1M16 10h1M25 16h1M13 18h1M20 18h1M12 19h1M15 22h1" />
<path stroke="#7124ef" d="M11 8h1M18 9h2M23 11h1M9 13h1M19 14h1M23 16h1M16 17h1M23 18h1M17 22h1" />
<path stroke="#7024ee" d="M12 8h1M6 9h1M15 10h1M8 13h1M20 14h2M23 17h1" />
<path stroke="#5519ae" d="M9 9h1M26 12h1M26 13h1M8 14h3M26 15h1M11 16h1M26 16h1M11 17h1M26 17h1M11 18h1M26 18h1M11 19h1M26 19h1M11 20h1M26 20h1M14 24h1M16 24h5M22 24h1" />
<path stroke="#6515dd" d="M10 9h1M9 11h1" />
<path stroke="#5419ae" d="M8 11h1M26 14h1M23 24h1" />
<path stroke="#7125ef" d="M11 13h1" />
<path stroke="#000049" d="M15 14h1M22 14h2M14 15h1M17 15h1M21 15h1" />
<path stroke="#010049" d="M16 14h1" />
<path stroke="#5518ae" d="M11 15h1M21 24h1" />
<path stroke="#000048" d="M24 15h1" />
<path stroke="#7024ef" d="M21 18h1" />
<path stroke="#ff7f08" d="M17 19h5M18 20h1M23 20h1M20 21h5M22 22h2" />
<path stroke="#ff9112" d="M22 19h2" />
<path stroke="#f26d00" d="M17 20h1M18 21h2M20 22h2" />
<path stroke="#ff7e08" d="M19 20h1M21 20h1M24 22h1" />
<path stroke="#a7431c" d="M20 20h1M22 20h1" />
<path stroke="#6414dd" d="M19 23h1M22 23h1" />
<path stroke="#6514dc" d="M25 23h1" />
<path stroke="#5519af" d="M15 24h1" />
</svg>