<svg xmlns="http://www.w3.org/2000/svg" viewBox="0 -0.5 38 38" shape-rendering="crispEdges">
<metadata>Made with Pixels to Svg https://codepen.io/shshaw/pen/XbxvNj</metadata>
<path stroke="#6bf53d" d="M14 2h2M18 2h6M11 3h2M14 3h2M11 4h3M10 5h2M10 6h1" />
<path stroke="#6af53d" d="M16 2h1M16 3h1" />
<path stroke="#6bf43d" d="M17 2h1" />
<path stroke="#6bf53c" d="M13 3h1" />
<path stroke="#29d940" d="M17 3h1M23 3h2M11 7h1M22 10h1M29 10h1" />
<path stroke="#28d940" d="M18 3h5M25 3h1M14 4h9M24 4h2M12 5h3M16 5h2M19 5h8M11 6h7M19 6h8M12 7h7M20 7h7M13 10h9M23 10h3M27 10h2" />
<path stroke="#28d840" d="M23 4h1M15 5h1M10 7h1M19 7h1M30 10h1" />
<path stroke="#28d941" d="M18 5h1M18 6h1M26 10h1" />
<path stroke="#1eba65" d="M10 8h1M13 8h1" />
<path stroke="#1eba64" d="M11 8h2M14 8h12M27 8h2M11 9h16M28 9h2" />
<path stroke="#1fba64" d="M26 8h1" />
<path stroke="#1ebb64" d="M27 9h1M30 9h1" />
</svg>