<svg xmlns="http://www.w3.org/2000/svg" viewBox="0 -0.5 38 38" shape-rendering="crispEdges">
<metadata>Made with Pixels to Svg https://codepen.io/shshaw/pen/XbxvNj</metadata>
<path stroke="#ffd767" d="M21 3h1M10 4h1M14 4h1M10 5h1M13 5h1M19 5h2M12 6h1M19 6h1" />
<path stroke="#fed767" d="M20 4h1" />
<path stroke="#ffd766" d="M21 4h1" />
<path stroke="#fbca42" d="M22 4h1M14 5h1M23 5h1M26 5h1M15 6h2M23 6h1M12 7h1M15 7h3M19 7h2M23 7h1M25 7h1M11 8h13M25 8h2M10 9h1" />
<path stroke="#b1891c" d="M25 4h1M11 5h1M17 5h1M25 5h1M11 6h1M25 6h1" />
<path stroke="#fbcb42" d="M15 5h1M24 7h1M10 8h1" />
<path stroke="#ff0748" d="M21 5h1M22 6h1" />
<path stroke="#ff7484" d="M22 5h1" />
<path stroke="#00ef31" d="M10 6h1" />
<path stroke="#fbca43" d="M13 6h1M20 6h1M11 7h1M18 7h1M24 8h1" />
<path stroke="#2860ff" d="M14 6h1" />
<path stroke="#b1881c" d="M17 6h1" />
<path stroke="#ffd667" d="M18 6h1" />
<path stroke="#d80037" d="M21 6h1M21 7h2" />
<path stroke="#faca42" d="M24 6h1M13 7h1" />
<path stroke="#ef26e6" d="M26 6h1" />
<path stroke="#00d257" d="M10 7h1" />
<path stroke="#1348e4" d="M14 7h1" />
<path stroke="#bc1de6" d="M26 7h1" />
<path stroke="#e7b018" d="M11 9h4M16 9h2M20 9h1M22 9h5" />
<path stroke="#e7b118" d="M15 9h1M18 9h1" />
<path stroke="#e7b019" d="M19 9h1M21 9h1" />
</svg>