<svg xmlns="http://www.w3.org/2000/svg" viewBox="0 -0.5 38 38" shape-rendering="crispEdges">
<metadata>Made with Pixels to Svg https://codepen.io/shshaw/pen/XbxvNj</metadata>
<path stroke="#7124ee" d="M7 6h1M8 7h1M9 8h6M16 8h6M6 9h1M12 9h1M14 9h5M21 9h1M24 9h2M7 10h8M16 10h9M5 11h1M10 11h4M15 11h5M21 11h2M24 11h1M7 12h2M10 12h4M18 12h1M20 12h1M25 12h1M8 13h6M18 13h1M20 13h1M25 13h1M12 14h2M18 14h3M25 14h1M12 15h2M18 15h3M25 15h1M12 16h2M18 16h3M25 16h1M13 17h1M19 17h2M25 17h1M12 18h6M19 18h2M22 18h4M12 19h3M16 19h1M24 19h2M12 20h2M16 20h1M24 20h2M13 21h4M25 21h1M13 22h7M25 22h1" />
<path stroke="#6514dd" d="M8 8h1M10 9h1M9 11h1M7 13h1M11 14h1M14 17h4M22 17h3M17 21h1M12 23h1M14 23h1M16 23h7M24 23h2" />
<path stroke="#7125ee" d="M15 8h1M20 9h1M23 9h1M25 10h1M18 17h1M15 19h1" />
<path stroke="#7024ee" d="M22 8h1M13 9h1M19 9h1M15 10h1M20 11h1M23 11h1M19 13h1M12 17h1M18 18h1M15 20h1" />
<path stroke="#5519ae" d="M9 9h1M8 11h1M26 12h1M26 13h1M10 14h1M11 15h1M26 15h1M26 16h1M11 17h1M11 18h1M11 19h1M26 20h1M14 24h10" />
<path stroke="#7124ef" d="M11 9h1M14 11h1M25 11h1M6 12h1M9 12h1M19 12h1M21 18h1" />
<path stroke="#7024ef" d="M22 9h1M14 20h1" />
<path stroke="#c4e5f8" d="M14 12h2M21 12h2" />
<path stroke="#000049" d="M16 12h1M24 12h1M16 13h2M23 13h2M14 14h1M16 14h2M22 14h3M14 15h2M21 15h2" />
<path stroke="#000149" d="M17 12h1" />
<path stroke="#000048" d="M23 12h1M15 14h1M21 14h1M15 16h1M22 16h1" />
<path stroke="#def0fb" d="M14 13h2M21 13h2" />
<path stroke="#5519af" d="M8 14h1M26 14h1M11 16h1M11 20h1" />
<path stroke="#5419ae" d="M9 14h1M26 18h1" />
<path stroke="#becee2" d="M16 15h2" />
<path stroke="#becfe2" d="M23 15h1" />
<path stroke="#becee3" d="M24 15h1" />
<path stroke="#a8c4df" d="M14 16h1M16 16h2M21 16h1M23 16h2" />
<path stroke="#6514dc" d="M21 17h1M13 23h1M23 23h1" />
<path stroke="#5518ae" d="M26 17h1M26 19h1" />
<path stroke="#ff7f08" d="M17 19h5M18 20h2M21 20h1M23 20h1M20 21h5M22 22h2" />
<path stroke="#ff9112" d="M22 19h2" />
<path stroke="#f26c00" d="M17 20h1" />
<path stroke="#a7431c" d="M20 20h1" />
<path stroke="#a7431d" d="M22 20h1" />
<path stroke="#6414dd" d="M12 21h1M12 22h1M15 23h1" />
<path stroke="#f26d00" d="M18 21h2M20 22h2" />
<path stroke="#ff7e08" d="M24 22h1" />
</svg>