<svg xmlns="http://www.w3.org/2000/svg" viewBox="0 -0.5 38 38" shape-rendering="crispEdges">
<metadata>Made with Pixels to Svg https://codepen.io/shshaw/pen/XbxvNj</metadata>
<path stroke="#7124ee" d="M7 6h1M9 8h4M14 8h1M16 8h7M6 9h1M11 9h3M15 9h6M22 9h3M7 10h4M12 10h10M23 10h3M11 11h10M22 11h1M24 11h2M6 12h2M12 15h1M12 16h1M19 16h1M26 16h1M12 17h2M18 17h3M25 17h1M13 18h6M20 18h4M25 18h1M12 19h5M24 19h2M12 20h5M24 20h2M13 21h2M16 21h1M25 21h1M13 22h3M17 22h1M19 22h1M25 22h1" />
<path stroke="#7024ee" d="M8 7h1M21 9h1M22 10h1M5 11h1" />
<path stroke="#641ecc" d="M8 8h1M10 9h1M7 13h4M17 21h1M12 22h1M12 23h11M24 23h2" />
<path stroke="#7125ee" d="M13 8h1M25 9h1M24 18h1M16 22h1" />
<path stroke="#7124ef" d="M15 8h1M14 9h1M11 10h1M21 11h1M23 11h1M12 18h1M19 18h1M15 21h1M18 22h1" />
<path stroke="#5519ae" d="M9 9h1M8 14h3M11 15h1M11 16h1M11 17h1M26 17h1M11 18h1M26 18h1M11 19h1M26 19h1M11 20h1M26 20h1M15 24h7M23 24h1" />
<path stroke="#95ffc0" d="M8 11h1M8 12h8M19 12h3M25 12h2M11 13h1M13 13h2M17 13h5M24 13h3M16 14h3M20 14h1M23 14h3M14 15h3M18 15h1M22 15h1M25 15h1M14 16h2M17 16h1M21 16h4" />
<path stroke="#95fec0" d="M9 11h2M17 15h1M21 15h1M24 15h1" />
<path stroke="#aaffd1" d="M16 12h2M23 12h2M15 13h2M22 13h2M14 14h2M21 14h2M13 15h1" />
<path stroke="#95ffc1" d="M18 12h1M12 13h1M13 14h1M16 16h1" />
<path stroke="#94fec0" d="M22 12h1" />
<path stroke="#315074" d="M11 14h2M19 14h1M26 14h1M19 15h1M26 15h1M13 16h1M18 16h1M20 16h1M25 16h1M14 17h4M21 17h4" />
<path stroke="#aaffd0" d="M20 15h1" />
<path stroke="#94ffc0" d="M23 15h1" />
<path stroke="#ff7f08" d="M17 19h5M18 20h1M21 20h1M23 20h1M20 21h5M22 22h3" />
<path stroke="#ff9113" d="M22 19h1" />
<path stroke="#ff9112" d="M23 19h1" />
<path stroke="#f26d00" d="M17 20h1M18 21h2" />
<path stroke="#ff7f09" d="M19 20h1" />
<path stroke="#a7431c" d="M20 20h1M22 20h1" />
<path stroke="#651ecc" d="M12 21h1" />
<path stroke="#f26d01" d="M20 22h1" />
<path stroke="#f36d00" d="M21 22h1" />
<path stroke="#641fcc" d="M23 23h1" />
<path stroke="#5519af" d="M14 24h1M22 24h1" />
</svg>