<svg xmlns="http://www.w3.org/2000/svg" viewBox="0 -0.5 38 38" shape-rendering="crispEdges">
<metadata>Made with Pixels to Svg https://codepen.io/shshaw/pen/XbxvNj</metadata>
<path stroke="#fffc84" d="M9 3h2M9 4h2M13 18h1" />
<path stroke="#f1e24a" d="M12 4h2M15 4h4M20 4h3M24 4h1M26 4h1M9 5h1M12 5h1M9 6h1M12 6h1M9 7h1M12 7h1M9 8h1M12 8h1M19 8h1M18 9h1M9 10h1M9 11h1M9 12h1M9 13h1M9 14h1M9 16h1M9 17h1M11 19h2" />
<path stroke="#f1e24b" d="M14 4h1M25 4h1M9 15h1" />
<path stroke="#f1e34a" d="M19 4h1M9 9h1M9 18h1" />
<path stroke="#f0e24a" d="M23 4h1" />
<path stroke="#d8b535" d="M10 5h1M14 5h5M20 5h1M22 5h2M25 5h2M10 6h2M26 6h1M10 7h2M26 7h1M10 8h1M26 8h1M13 9h1M19 9h2M25 9h1M14 10h1M16 10h3M20 10h5M10 11h1M10 12h1M10 13h1M10 14h1M10 15h1M10 16h1M10 17h1M10 18h1M10 19h1M13 19h2M11 20h3" />
<path stroke="#d8b534" d="M13 5h1M19 5h1" />
<path stroke="#d8b435" d="M21 5h1M24 5h1M15 10h1" />
<path stroke="#c0ebfe" d="M13 6h1M25 8h1" />
<path stroke="#c0ebff" d="M14 6h1M19 6h1M21 6h1M13 7h1M18 7h3M25 7h1M16 8h3M23 8h2M15 9h3M22 9h3" />
<path stroke="#c1ebff" d="M15 6h1" />
<path stroke="#e0faff" d="M16 6h3M22 6h4M14 7h4M21 7h1M23 7h1M14 8h2M20 8h2M14 9h1M21 9h1" />
<path stroke="#c0eaff" d="M20 6h1" />
<path stroke="#e0fafe" d="M22 7h1M22 8h1" />
<path stroke="#e1faff" d="M24 7h1M13 8h1" />
<path stroke="#d9b535" d="M10 9h1M10 10h1" />
<path stroke="#fffd84" d="M14 18h1" />
</svg>