<svg xmlns="http://www.w3.org/2000/svg" viewBox="0 -0.5 38 38" shape-rendering="crispEdges">
<metadata>Made with Pixels to Svg https://codepen.io/shshaw/pen/XbxvNj</metadata>
<path stroke="#fcfcfc" d="M14 2h3M9 3h2M12 3h1M19 3h4M6 4h2M24 4h3M6 6h1M6 7h1M6 8h1M5 10h1M5 11h1M5 12h1M5 13h1M5 14h1M4 16h1M4 17h1" />
<path stroke="#ebd7c4" d="M17 2h1M13 3h1M15 3h3M9 4h1M12 4h3M16 4h3M20 4h1M22 4h1M6 5h5M12 5h1M14 5h2M17 5h3M21 5h3M25 5h2M8 6h4M13 6h1M26 6h2M9 7h2M27 7h1M7 8h2M10 8h1M27 8h1M6 9h4M8 10h1M8 11h1M6 12h2M6 13h4M6 14h1M5 15h3M5 17h2M5 18h1M7 18h2M5 19h1M7 19h1M6 20h1" />
<path stroke="#fcfcfd" d="M11 3h1" />
<path stroke="#dbbfa8" d="M14 3h1M18 3h1M10 4h1M15 4h1M7 6h1M14 6h3M18 6h3M22 6h1M11 7h2M14 7h1M11 8h1M9 10h2M9 11h1M8 14h3M5 16h2M4 19h1M8 19h1M5 20h1" />
<path stroke="#fcfdfc" d="M8 4h1" />
<path stroke="#ebd6c4" d="M11 4h1M13 5h1M7 10h1M6 11h1M6 19h1M7 20h1" />
<path stroke="#baa192" d="M19 4h1M22 7h1M26 7h1M27 9h1M12 12h1M27 20h1" />
<path stroke="#ebd7c5" d="M21 4h1M7 7h1M6 18h1M9 18h1" />
<path stroke="#dabfa8" d="M23 4h1M6 10h1M8 15h1" />
<path stroke="#baa093" d="M11 5h1M18 9h1M13 10h1M11 13h1M8 17h1" />
<path stroke="#baa092" d="M16 5h1M20 5h1M12 6h1M17 6h1M25 6h1M8 7h1M13 7h1M17 7h2M21 7h1M25 7h1M9 8h1M14 8h1M17 8h2M21 8h1M25 8h2M10 9h2M14 9h3M19 9h3M23 9h2M11 10h2M27 10h2M7 11h1M12 11h1M28 11h1M8 12h1M28 12h1M10 13h1M27 13h3M11 14h1M29 14h1M11 15h1M29 15h1M11 16h1M27 16h1M29 16h2M7 17h1M9 17h1M27 17h1M30 17h1M10 18h1M27 18h1M30 18h1M9 19h2M27 19h1M30 19h1M8 20h1M28 20h1M30 20h1M6 21h3" />
<path stroke="#dbbea8" d="M24 5h1" />
<path stroke="#bba092" d="M21 6h1M22 8h1M9 12h1M28 16h1M29 20h1" />
<path stroke="#dbbfa9" d="M23 6h1M8 16h1" />
<path stroke="#dbbea9" d="M24 6h1" />
<path stroke="#897276" d="M15 7h1" />
<path stroke="#897277" d="M16 7h1M19 7h2M23 7h2M12 8h2M15 8h1M19 8h2M24 8h1M12 9h2M25 9h1M26 10h1M10 11h2M26 11h2M10 12h2M27 14h2M9 15h2M27 15h2M9 16h2M28 17h2M28 18h2M28 19h2M9 20h2M9 21h2" />
<path stroke="#897377" d="M16 8h1M26 9h1M27 12h1" />
<path stroke="#887277" d="M23 8h1" />
<path stroke="#ead7c4" d="M7 14h1" />
<path stroke="#ebd6c5" d="M7 16h1" />
<path stroke="#baa193" d="M10 17h1" />
<path stroke="#fdfcfd" d="M4 18h1" />
</svg>