<svg xmlns="http://www.w3.org/2000/svg" viewBox="0 -0.5 38 38" shape-rendering="crispEdges">
<metadata>Made with Pixels to Svg https://codepen.io/shshaw/pen/XbxvNj</metadata>
<path stroke="#41a6ff" d="M17 3h1M19 4h1M13 5h5M19 5h2M12 6h13M12 7h4M17 7h5M23 7h2M26 7h1M14 8h10M26 8h1M16 9h1M22 9h1M24 9h1M26 9h1" />
<path stroke="#43ccfe" d="M18 3h1M20 4h3M22 5h3M25 6h1" />
<path stroke="#41a6fe" d="M14 4h1M18 5h1M16 7h1M24 8h2M18 9h1" />
<path stroke="#40a6fe" d="M15 4h1" />
<path stroke="#41a7ff" d="M16 4h1M25 7h1M14 9h1M20 9h1" />
<path stroke="#3291ff" d="M17 4h2M11 7h1M10 8h3M10 9h4M15 9h1M17 9h1M19 9h1M23 9h1M25 9h1M27 9h1M10 10h13M24 10h4" />
<path stroke="#40a6ff" d="M21 5h1M22 7h1" />
<path stroke="#40a7ff" d="M13 8h1" />
<path stroke="#3291fe" d="M21 9h1" />
<path stroke="#3391ff" d="M23 10h1" />
</svg>