<svg xmlns="http://www.w3.org/2000/svg" viewBox="0 -0.5 38 38" shape-rendering="crispEdges">
<metadata>Made with Pixels to Svg https://codepen.io/shshaw/pen/XbxvNj</metadata>
<path stroke="#7124ee" d="M7 6h1M8 7h1M9 8h5M15 8h6M6 9h1M12 9h14M7 10h6M14 10h1M16 10h10M11 11h2M14 11h6M21 11h2M24 11h2M6 12h2M9 12h1M11 12h3M19 12h2M25 12h1M8 13h2M11 13h1M13 13h1M18 13h3M25 13h1M12 14h2M18 14h3M12 15h1M19 15h2M25 15h1M19 16h2M25 16h1M12 17h2M18 17h3M25 17h1M12 18h4M17 18h5M23 18h3M12 19h5M12 20h5M24 20h2M13 21h4M25 21h1M13 22h7M25 22h1" />
<path stroke="#641ecc" d="M8 8h1M10 9h1M9 11h1M7 13h1M11 14h1M14 17h4M21 17h4M12 21h1M17 21h1M12 22h1M12 23h8M21 23h3M25 23h1" />
<path stroke="#7125ee" d="M14 8h1M21 8h1M11 9h1M13 10h1M13 11h1M20 11h1M23 11h1M18 12h1M12 13h1M13 15h1" />
<path stroke="#7124ef" d="M22 8h1M15 10h1M8 12h1M18 15h1M24 19h1" />
<path stroke="#5519ae" d="M9 9h1M8 11h1M26 13h1M8 14h1M10 14h1M26 14h1M11 15h1M26 15h1M11 16h1M26 16h1M11 17h1M26 17h1M26 18h1M11 19h1M26 19h1M11 20h1M26 20h1M14 24h6M21 24h3" />
<path stroke="#7024ee" d="M5 11h1M10 11h1M10 12h1M10 13h1M25 14h1M13 16h1M18 16h1M16 18h1M22 18h1M25 19h1" />
<path stroke="#def0fb" d="M14 12h2M22 12h1M14 13h1" />
<path stroke="#c4e5f8" d="M16 12h1M23 12h1M14 14h1M21 14h1" />
<path stroke="#cedef6" d="M17 12h1M24 12h1M17 13h1M24 13h1M17 14h1M24 14h1M14 15h1M17 15h1M21 15h1M24 15h1M14 16h4M22 16h1M24 16h1" />
<path stroke="#dff1fb" d="M21 12h1" />
<path stroke="#5419ae" d="M26 12h1" />
<path stroke="#000049" d="M15 13h2M15 14h2M23 14h1M16 15h1M22 15h2" />
<path stroke="#dff0fb" d="M21 13h1" />
<path stroke="#000048" d="M22 13h1" />
<path stroke="#000149" d="M23 13h1M22 14h1M15 15h1" />
<path stroke="#5518ae" d="M9 14h1M20 24h1" />
<path stroke="#7025ee" d="M12 16h1" />
<path stroke="#cedff6" d="M21 16h1" />
<path stroke="#cfdef6" d="M23 16h1" />
<path stroke="#5519af" d="M11 18h1" />
<path stroke="#ff7f08" d="M17 19h4M18 20h1M21 20h1M23 20h1M20 21h5M22 22h3" />
<path stroke="#fe7f08" d="M21 19h1" />
<path stroke="#ff9112" d="M22 19h2" />
<path stroke="#f26d00" d="M17 20h1M19 21h1M21 22h1" />
<path stroke="#ff7e08" d="M19 20h1" />
<path stroke="#a6431c" d="M20 20h1" />
<path stroke="#a7431c" d="M22 20h1" />
<path stroke="#f36d00" d="M18 21h1M20 22h1" />
<path stroke="#651ecc" d="M20 23h1" />
<path stroke="#641ecd" d="M24 23h1" />
</svg>