<svg xmlns="http://www.w3.org/2000/svg" viewBox="0 -0.5 38 38" shape-rendering="crispEdges">
<metadata>Made with Pixels to Svg https://codepen.io/shshaw/pen/XbxvNj</metadata>
<path stroke="#7124ee" d="M7 6h1M8 7h1M9 8h2M12 8h11M6 9h1M11 9h13M25 9h1M7 10h7M15 10h3M19 10h5M25 10h1M10 11h1M12 11h14M6 12h6M13 12h1M18 12h3M8 13h4M19 13h2M25 13h1M12 14h1M20 14h1M25 14h1M18 15h3M25 15h1M12 16h2M18 16h3M25 16h1M12 17h2M18 17h3M25 17h1M12 18h7M21 18h5M13 19h4M24 19h2M12 20h1M14 20h1M16 20h1M24 20h2M13 21h1M15 21h2M25 21h1M13 22h7M25 22h1" />
<path stroke="#6514dd" d="M8 8h1M9 11h1M7 13h1M11 14h1M14 17h4M21 17h3M12 21h1M17 21h1M12 22h1M15 23h1M17 23h2" />
<path stroke="#7024ee" d="M11 8h1M12 13h1" />
<path stroke="#5519ae" d="M9 9h1M8 11h1M26 12h1M26 13h1M8 14h1M10 14h1M26 14h1M11 15h1M26 15h1M11 16h1M26 16h1M11 17h1M26 18h1M11 19h1M26 19h1M11 20h1M26 20h1M14 24h9" />
<path stroke="#6414dc" d="M10 9h1" />
<path stroke="#7025ef" d="M24 9h1" />
<path stroke="#7125ee" d="M14 10h1M24 10h1M11 11h1M25 12h1M18 14h1M20 18h1M15 20h1" />
<path stroke="#7124ef" d="M18 10h1M5 11h1M12 12h1M13 13h1M18 13h1M13 14h1M19 14h1M12 15h2M12 19h1" />
<path stroke="#ffffff" d="M14 12h2M21 12h2M14 13h1M21 13h2M14 14h2M21 14h1" />
<path stroke="#ff0c27" d="M16 12h1M23 12h1M16 13h1M23 13h1M16 14h1M22 14h2M14 15h1M16 15h1M21 15h3" />
<path stroke="#f6001b" d="M17 12h1M24 12h1M17 14h1M24 14h1M17 15h1M24 15h1M14 16h4M21 16h1M23 16h2" />
<path stroke="#fffeff" d="M15 13h1" />
<path stroke="#f7001b" d="M17 13h1M22 16h1" />
<path stroke="#f6001a" d="M24 13h1" />
<path stroke="#5519af" d="M9 14h1M26 17h1" />
<path stroke="#ff0c26" d="M15 15h1" />
<path stroke="#6414dd" d="M24 17h1" />
<path stroke="#5419ae" d="M11 18h1" />
<path stroke="#7024ef" d="M19 18h1M14 21h1" />
<path stroke="#ff7f08" d="M17 19h1M19 19h2M18 20h2M22 21h3M22 22h3" />
<path stroke="#fe7f08" d="M18 19h1M23 20h1" />
<path stroke="#ff7e08" d="M21 19h1M21 21h1" />
<path stroke="#ff9112" d="M22 19h2" />
<path stroke="#7025ee" d="M13 20h1" />
<path stroke="#f26d00" d="M17 20h1M18 21h2M20 22h2" />
<path stroke="#a7431c" d="M20 20h1M22 20h1" />
<path stroke="#ff7e09" d="M21 20h1" />
<path stroke="#ff7f09" d="M20 21h1" />
<path stroke="#641ecc" d="M12 23h3M19 23h7" />
<path stroke="#6515dd" d="M16 23h1" />
<path stroke="#5518ae" d="M23 24h1" />
</svg>