<svg xmlns="http://www.w3.org/2000/svg" viewBox="0 -0.5 38 38" shape-rendering="crispEdges">
<metadata>Made with Pixels to Svg https://codepen.io/shshaw/pen/XbxvNj</metadata>
<path stroke="#ffb7be" d="M9 3h2M9 4h1M13 18h2" />
<path stroke="#feb7be" d="M10 4h1" />
<path stroke="#e78290" d="M12 4h13M9 5h1M12 5h1M9 6h1M12 6h1M9 7h1M12 7h1M9 8h1M12 8h1M9 9h1M18 9h1M9 10h1M9 11h1M9 12h1M9 13h1M9 14h1M9 15h1M9 17h1M9 18h1M11 19h2" />
<path stroke="#e68391" d="M25 4h1" />
<path stroke="#e78291" d="M26 4h1M19 8h1" />
<path stroke="#e56482" d="M10 5h1M13 5h5M20 5h2M23 5h1M25 5h2M10 6h1M10 7h2M26 7h1M10 8h1M26 8h1M10 9h1M19 9h2M25 9h1M10 10h1M16 10h1M18 10h1M20 10h5M10 11h1M10 13h1M10 14h1M10 15h1M10 16h1M10 17h1M10 18h1M10 19h1M13 19h2M11 20h1M13 20h1" />
<path stroke="#e46482" d="M18 5h1M24 5h1M11 6h1M13 9h1M14 10h1M12 20h1" />
<path stroke="#e56483" d="M19 5h1M26 6h1M10 12h1" />
<path stroke="#e56582" d="M22 5h1M17 10h1" />
<path stroke="#c0ebff" d="M13 6h3M19 6h3M18 7h3M25 7h1M16 8h1M18 8h1M23 8h3M16 9h2M23 9h2" />
<path stroke="#e0faff" d="M16 6h2M23 6h3M14 7h4M21 7h4M13 8h3M20 8h3M21 9h1" />
<path stroke="#e0fafe" d="M18 6h1" />
<path stroke="#e0fbff" d="M22 6h1" />
<path stroke="#c1ebff" d="M13 7h1M15 9h1" />
<path stroke="#c0eaff" d="M17 8h1" />
<path stroke="#e1faff" d="M14 9h1" />
<path stroke="#c0eafe" d="M22 9h1" />
<path stroke="#e46483" d="M15 10h1" />
<path stroke="#e68290" d="M9 16h1" />
</svg>