<svg xmlns="http://www.w3.org/2000/svg" viewBox="0 -0.5 38 38" shape-rendering="crispEdges">
<metadata>Made with Pixels to Svg https://codepen.io/shshaw/pen/XbxvNj</metadata>
<path stroke="#dfab88" d="M13 2h1M15 2h2M12 3h1M17 3h3M13 4h1M20 4h1M28 4h1M7 5h1M12 5h4M23 5h2M28 5h1M7 6h1M12 6h7M22 6h3M27 6h3M6 7h4M12 7h11M24 7h1M26 7h2M7 8h4M14 8h4M19 8h5" />
<path stroke="#dfaa88" d="M14 2h1M18 8h1" />
<path stroke="#cc9d76" d="M17 2h2M20 2h1M20 3h2M21 4h2M8 6h1M11 7h1M25 7h1M28 7h2M11 8h3M24 8h1M26 8h3M8 9h5M14 9h9M24 9h3M13 10h11" />
<path stroke="#cc9c76" d="M19 2h1M25 8h1" />
<path stroke="#efc1a1" d="M21 2h2M14 3h3M22 3h2M14 4h6M23 4h1M29 4h1M6 5h1M16 5h1M18 5h5M19 6h2" />
<path stroke="#eec1a1" d="M13 3h1M17 5h1" />
<path stroke="#deab88" d="M12 4h1" />
<path stroke="#ab8570" d="M24 4h1M25 5h1M11 6h1M25 6h1" />
<path stroke="#c4876c" d="M10 5h1M26 5h1M10 6h1M26 6h1M10 7h1" />
<path stroke="#ab8571" d="M11 5h1" />
<path stroke="#cd9d76" d="M27 5h1M13 9h1M23 9h1" />
<path stroke="#efc0a1" d="M29 5h1" />
<path stroke="#efc0a0" d="M6 6h1" />
<path stroke="#c4866c" d="M9 6h1" />
<path stroke="#efc1a0" d="M21 6h1" />
<path stroke="#dfab89" d="M23 7h1" />
</svg>