<svg xmlns="http://www.w3.org/2000/svg" viewBox="0 -0.5 38 38" shape-rendering="crispEdges">
<metadata>Made with Pixels to Svg https://codepen.io/shshaw/pen/XbxvNj</metadata>
<path stroke="#7124ee" d="M7 6h1M8 7h1M9 8h10M20 8h3M6 9h1M11 9h1M13 9h13M7 10h3M11 10h3M15 10h4M20 10h1M22 10h2M25 10h1M5 11h1M10 11h12M23 11h3M6 12h2M9 12h1M11 12h2M18 12h2M25 12h1M8 13h1M10 13h4M18 13h3M25 13h1M13 14h1M18 14h3M25 14h1M12 15h2M18 15h3M13 16h1M19 16h2M25 16h1M12 17h2M18 17h1M20 17h1M25 17h1M12 18h1M15 18h10M13 19h4M24 19h2M12 20h5M24 20h2M13 21h4M25 21h1M13 22h3M17 22h3M25 22h1" />
<path stroke="#6514dd" d="M8 8h1M10 9h1M9 11h1M7 13h1M14 17h1M16 17h2M21 17h1M23 17h2M12 21h1M17 21h1M12 23h5M18 23h7" />
<path stroke="#7124ef" d="M19 8h1M19 10h1M21 10h1M8 12h1M9 13h1M19 17h1M13 18h1" />
<path stroke="#5519ae" d="M9 9h1M8 11h1M26 12h1M26 13h1M9 14h2M11 15h1M26 15h1M11 16h1M26 16h1M11 17h1M26 17h1M26 18h1M11 19h1M26 19h1M11 20h1M26 20h1M14 24h2M17 24h1M19 24h3M23 24h1" />
<path stroke="#7125ee" d="M12 9h1M13 12h1M12 14h1M12 16h1M18 16h1M14 18h1" />
<path stroke="#7125ef" d="M10 10h1M10 12h1" />
<path stroke="#7024ef" d="M14 10h1" />
<path stroke="#7024ee" d="M24 10h1M22 11h1M20 12h1M25 15h1M25 18h1M12 19h1M16 22h1" />
<path stroke="#441b82" d="M14 12h1M24 12h1M21 16h1" />
<path stroke="#451a82" d="M15 12h1M22 12h1" />
<path stroke="#451b82" d="M16 12h2M21 12h1M23 12h1M14 16h4M22 16h3" />
<path stroke="#f4defb" d="M14 13h1M21 13h1M14 14h1M14 15h1M21 15h1" />
<path stroke="#16167a" d="M15 13h2M22 13h1" />
<path stroke="#000049" d="M17 13h1M16 14h1M22 14h3M15 15h3M22 15h1M24 15h1" />
<path stroke="#16167b" d="M23 13h1" />
<path stroke="#000149" d="M24 13h1M17 14h1M23 15h1" />
<path stroke="#5518ae" d="M8 14h1M16 24h1" />
<path stroke="#6515dd" d="M11 14h1M15 17h1" />
<path stroke="#000048" d="M15 14h1" />
<path stroke="#f5defb" d="M21 14h1" />
<path stroke="#5519af" d="M26 14h1M11 18h1M18 24h1" />
<path stroke="#6514dc" d="M22 17h1M25 23h1" />
<path stroke="#ff7f08" d="M17 19h4M18 20h2M21 20h1M23 20h1M20 21h1M24 21h1M22 22h2" />
<path stroke="#fe7f08" d="M21 19h1M21 21h1" />
<path stroke="#ff9112" d="M22 19h1" />
<path stroke="#fe9012" d="M23 19h1" />
<path stroke="#f26d00" d="M17 20h1M18 21h2M20 22h2" />
<path stroke="#a7431c" d="M20 20h1M22 20h1" />
<path stroke="#ff7e08" d="M22 21h2" />
<path stroke="#6414dd" d="M12 22h1M17 23h1" />
<path stroke="#ff7f09" d="M24 22h1" />
<path stroke="#5419ae" d="M22 24h1" />
</svg>