<svg xmlns="http://www.w3.org/2000/svg" viewBox="0 -0.5 38 38" shape-rendering="crispEdges">
<metadata>Made with Pixels to Svg https://codepen.io/shshaw/pen/XbxvNj</metadata>
<path stroke="#7124ee" d="M10 3h3M16 3h1M9 4h3M17 4h1M19 4h1M10 5h2M13 5h3M20 5h2M7 6h3M12 6h2M16 6h1M19 6h2M14 7h4M22 7h2M6 8h1M10 8h4M15 8h2M21 8h3M5 9h1M7 9h3M7 10h2" />
<path stroke="#6514dd" d="M13 3h1M15 3h1M19 3h1M12 4h1M14 4h1M20 4h2M9 5h1M6 6h1M17 6h1M6 7h5M7 8h3M6 10h1M5 11h4M6 12h2" />
<path stroke="#5611bc" d="M14 3h1M15 4h1M16 5h1M5 12h1M6 13h2" />
<path stroke="#7024ee" d="M17 3h1M8 4h1M12 5h1M18 5h1M24 8h1M6 9h1" />
<path stroke="#7124ef" d="M18 3h1" />
<path stroke="#6314d9" d="M13 4h1M16 4h1M17 5h1M22 5h1M14 6h1M18 6h1M21 6h1M23 6h2M11 7h3M18 7h3M24 7h1M14 8h1M17 8h4" />
<path stroke="#7125ee" d="M18 4h1M7 5h2M19 5h1" />
<path stroke="#6315d9" d="M23 5h1M22 6h1M21 7h1" />
<path stroke="#6515dd" d="M10 6h1" />
<path stroke="#7025ee" d="M11 6h1" />
<path stroke="#6214d9" d="M15 6h1" />
<path stroke="#6514dc" d="M5 10h1" />
</svg>