<svg xmlns="http://www.w3.org/2000/svg" viewBox="0 -0.5 38 38" shape-rendering="crispEdges">
<metadata>Made with Pixels to Svg https://codepen.io/shshaw/pen/XbxvNj</metadata>
<path stroke="#7124ee" d="M13 3h1M10 4h1M12 4h2M23 4h1M9 5h1M12 5h2M18 5h2M9 6h2M12 6h3M22 6h1M10 7h1M14 7h3M22 7h1M6 8h1M10 8h4M16 8h5M24 8h1M27 8h1M6 9h3M11 9h12M7 10h4M13 10h6M20 10h2M23 10h2M10 11h6M17 11h1M19 11h7M30 11h1M6 12h2M12 12h2M18 12h3M25 12h1M29 12h1M8 13h1M12 13h2M18 13h1M20 13h1M25 13h1M27 13h2M11 14h3M18 14h2M25 14h1M6 15h4M12 15h2M18 15h3M25 15h1M4 16h1M9 16h2M12 16h2M18 16h3M25 16h1M12 17h2M18 17h3M25 17h1M12 18h2M15 18h2M18 18h7M12 19h4M24 19h2M12 20h1M14 20h3M24 20h2M13 21h3M25 21h1M13 22h6M25 22h1" />
<path stroke="#7125ee" d="M18 4h1M27 7h1M11 12h1M9 13h1M19 13h1M8 14h1M5 15h1M17 18h1M16 19h1M19 22h1" />
<path stroke="#7124ef" d="M23 5h1M25 8h2M7 13h1M10 13h1M25 18h1M13 20h1M16 21h1" />
<path stroke="#641ecc" d="M19 6h1M13 7h1M18 7h2M21 7h1M14 8h2M21 8h2M10 9h1M23 9h4M11 10h2M25 10h1M9 11h1M29 13h1M9 14h2M11 15h1M7 16h2M14 17h1M21 17h4M12 21h1M17 21h1M12 22h1M12 23h14" />
<path stroke="#7024ef" d="M23 6h1M16 11h1" />
<path stroke="#7024ee" d="M9 7h1M19 10h1M22 10h1M18 11h1M11 13h1M20 14h1M10 15h1M14 18h1" />
<path stroke="#5519ae" d="M8 11h1M10 12h1M26 12h1M26 13h1M26 14h2M11 16h1M9 17h3M26 17h1M11 18h1M26 18h1M11 19h1M26 19h1M11 20h1M26 20h1M14 24h4M19 24h5" />
<path stroke="#651ecc" d="M8 12h1M15 17h3" />
<path stroke="#5419ae" d="M9 12h1M28 14h1M26 16h1M18 24h1" />
<path stroke="#c4e5f8" d="M14 12h2M21 12h1" />
<path stroke="#010149" d="M16 12h1" />
<path stroke="#000049" d="M17 12h1M23 12h2M17 13h1M23 13h1M14 14h3M21 14h4M14 15h4M21 15h4M14 16h4M21 16h4" />
<path stroke="#c5e5f9" d="M22 12h1" />
<path stroke="#def0fb" d="M14 13h2M21 13h2" />
<path stroke="#000048" d="M16 13h1M17 14h1" />
<path stroke="#010049" d="M24 13h1" />
<path stroke="#5518ae" d="M26 15h1" />
<path stroke="#7125ef" d="M5 16h1" />
<path stroke="#ff7f08" d="M17 19h5M18 20h2M21 20h1M23 20h1M20 21h2M23 21h2M22 22h1M24 22h1" />
<path stroke="#ff9112" d="M22 19h1" />
<path stroke="#ff9012" d="M23 19h1" />
<path stroke="#f26d00" d="M17 20h1M18 21h2M20 22h2" />
<path stroke="#a7431c" d="M20 20h1M22 20h1" />
<path stroke="#ff7f09" d="M22 21h1" />
<path stroke="#ff7e08" d="M23 22h1" />
</svg>