<svg xmlns="http://www.w3.org/2000/svg" viewBox="0 -0.5 38 38" shape-rendering="crispEdges">
<metadata>Made with Pixels to Svg https://codepen.io/shshaw/pen/XbxvNj</metadata>
<path stroke="#858585" d="M7 8h1M9 8h5M13 9h5M19 9h7M6 10h3M10 10h1M12 10h1M14 10h12M13 11h1M15 11h3M19 11h7M5 12h1M7 12h5M13 12h1M20 12h1M25 12h1M8 13h3M13 13h1M19 13h2M12 14h2M19 14h2M25 14h1M13 15h1M20 15h1M25 15h1M12 16h2M19 16h2M25 16h1M13 17h2M20 17h1M25 17h1M12 18h1M15 18h2M18 18h3M22 18h4M13 19h2M16 19h1M24 19h2M12 20h4M24 20h1M13 21h4M25 21h1M13 22h7M25 22h1" />
<path stroke="#848585" d="M8 8h1M18 9h1M11 10h1M13 10h1M6 12h1M12 12h1M18 12h2M15 19h1M12 22h1" />
<path stroke="#aaaaaa" d="M14 8h3M18 8h3M22 8h1M14 12h1" />
<path stroke="#aaaaab" d="M17 8h1" />
<path stroke="#abaaaa" d="M21 8h1" />
<path stroke="#636363" d="M9 9h1M8 11h1M26 12h1M26 13h1M8 14h1M10 14h1M26 14h1M26 15h1M11 16h1M26 16h1M11 17h1M18 17h1M26 17h1M11 19h1M26 19h1M26 20h1M14 24h10" />
<path stroke="#777676" d="M10 9h1M12 17h1M24 17h1M23 23h1" />
<path stroke="#454545" d="M11 9h1M22 19h2" />
<path stroke="#767676" d="M12 9h1M9 11h2M12 11h1M6 13h2M11 14h1M12 15h1M21 17h3M12 19h1M17 21h1M12 23h8M21 23h2M24 23h2" />
<path stroke="#858485" d="M9 10h1M19 15h1M19 17h1M17 18h1M21 18h1M16 20h1" />
<path stroke="#454544" d="M11 11h1" />
<path stroke="#858584" d="M14 11h1M18 11h1M25 13h1M13 18h2M25 20h1" />
<path stroke="#ae9393" d="M15 12h1M17 12h1M14 13h1M14 16h1" />
<path stroke="#bc8484" d="M16 12h1M14 14h1M14 15h1" />
<path stroke="#000100" d="M21 12h1" />
<path stroke="#000000" d="M22 12h3M21 13h3M21 14h1M21 15h2M21 16h1M20 20h1" />
<path stroke="#454445" d="M11 13h1" />
<path stroke="#767677" d="M12 13h1" />
<path stroke="#e70019" d="M15 13h1M17 13h1M15 16h1" />
<path stroke="#ff0c27" d="M16 13h1M15 14h1M17 14h1M15 15h1M16 16h1" />
<path stroke="#745353" d="M18 13h1M18 16h1M17 17h1" />
<path stroke="#191919" d="M24 13h1M24 15h1M22 16h3" />
<path stroke="#636263" d="M9 14h1M26 18h1M11 20h1" />
<path stroke="#ffffff" d="M16 14h1M16 15h1" />
<path stroke="#814747" d="M18 14h1M18 15h1M16 17h1" />
<path stroke="#010000" d="M22 14h1M22 20h1" />
<path stroke="#bebebe" d="M23 14h1M23 15h1" />
<path stroke="#191819" d="M24 14h1" />
<path stroke="#626363" d="M11 15h1M11 18h1" />
<path stroke="#ff0d27" d="M17 15h1" />
<path stroke="#e70119" d="M17 16h1" />
<path stroke="#745253" d="M15 17h1" />
<path stroke="#353535" d="M17 19h5M17 20h3M23 20h1M18 21h3M22 21h2M20 22h2M23 22h2" />
<path stroke="#353435" d="M21 20h1M24 21h1" />
<path stroke="#767776" d="M12 21h1" />
<path stroke="#353534" d="M21 21h1M22 22h1" />
<path stroke="#767777" d="M20 23h1" />
</svg>