<svg xmlns="http://www.w3.org/2000/svg" viewBox="0 -0.5 38 38" shape-rendering="crispEdges">
<metadata>Made with Pixels to Svg https://codepen.io/shshaw/pen/XbxvNj</metadata>
<path stroke="#7124ef" d="M7 6h1M16 8h1M14 9h1M9 10h1M11 10h1M23 10h1M10 11h1M15 11h1M15 12h1M10 13h1M13 16h1" />
<path stroke="#7124ee" d="M8 7h1M9 8h6M18 8h5M6 9h1M11 9h2M15 9h1M17 9h3M21 9h1M23 9h3M7 10h2M10 10h1M12 10h11M24 10h2M5 11h1M11 11h2M14 11h1M16 11h10M6 12h4M12 12h2M16 12h2M19 12h2M23 12h2M8 13h2M12 13h2M16 13h1M19 13h2M23 13h1M13 14h2M18 14h3M25 14h1M12 15h3M18 15h4M25 15h1M12 16h1M16 16h1M19 16h2M23 16h1M12 17h2M15 17h11M12 18h14M12 19h4M24 19h2M12 20h1M14 20h3M24 20h2M14 21h2M25 21h1M13 22h7" />
<path stroke="#641ecc" d="M8 8h1M10 9h1M9 11h1M14 13h1M18 13h1M21 13h1M25 13h1M11 14h1M17 14h1M17 16h1M24 16h1M17 21h1M12 23h2M15 23h4M21 23h1M23 23h3" />
<path stroke="#7025ee" d="M15 8h1" />
<path stroke="#7125ee" d="M17 8h1M10 12h1M12 14h1M16 19h1M13 20h1M13 21h1" />
<path stroke="#5519ae" d="M9 9h1M8 11h1M26 12h1M26 13h1M8 14h3M15 14h1M22 14h1M26 14h1M16 15h1M23 15h1M26 15h1M11 16h1M15 16h1M22 16h1M11 17h1M26 17h1M11 18h1M26 18h1M11 19h1M26 19h1M11 20h1M14 24h9" />
<path stroke="#7125ef" d="M13 9h1" />
<path stroke="#7024ee" d="M16 9h1M20 9h1M22 9h1M13 11h1M11 12h1M22 12h1M11 13h1M21 14h1M14 17h1M16 21h1M25 22h1" />
<path stroke="#000049" d="M14 12h1M25 12h1M15 13h1M17 13h1M22 13h1M24 13h1M16 14h1M23 14h1M15 15h1M17 15h1M22 15h1M24 15h1M14 16h1M18 16h1M21 16h1" />
<path stroke="#000148" d="M18 12h1" />
<path stroke="#000048" d="M21 12h1M25 16h1" />
<path stroke="#651ecc" d="M7 13h1M12 21h1M14 23h1M19 23h1" />
<path stroke="#641ecd" d="M24 14h1M12 22h1M20 23h1M22 23h1" />
<path stroke="#5518ae" d="M11 15h1M26 16h1M23 24h1" />
<path stroke="#ff7f08" d="M17 19h2M20 19h2M18 20h2M21 20h1M23 20h1M20 21h5M23 22h2" />
<path stroke="#ff7f09" d="M19 19h1" />
<path stroke="#ff9112" d="M22 19h2" />
<path stroke="#f26d00" d="M17 20h1M19 21h1M20 22h1" />
<path stroke="#a7431c" d="M20 20h1" />
<path stroke="#a7421c" d="M22 20h1" />
<path stroke="#5519af" d="M26 20h1" />
<path stroke="#f26c00" d="M18 21h1" />
<path stroke="#f26d01" d="M21 22h1" />
<path stroke="#ff7e08" d="M22 22h1" />
</svg>