<svg xmlns="http://www.w3.org/2000/svg" viewBox="0 -0.5 38 38" shape-rendering="crispEdges">
<metadata>Made with Pixels to Svg https://codepen.io/shshaw/pen/XbxvNj</metadata>
<path stroke="#6bf53d" d="M9 3h2M9 4h2" />
<path stroke="#28d940" d="M12 4h2M15 4h3M19 4h1M21 4h6M9 5h1M12 5h1M9 6h1M12 6h1M12 7h1M9 8h1M12 8h1M19 8h1M9 9h1M18 9h1M9 10h1M9 11h1M9 14h1M9 15h1M9 16h1M9 17h1M9 18h1M11 19h2" />
<path stroke="#28d941" d="M14 4h1M18 4h1M9 12h1" />
<path stroke="#29d940" d="M20 4h1M9 13h1" />
<path stroke="#1eba64" d="M10 5h1M13 5h1M16 5h7M24 5h2M10 6h2M10 7h2M26 7h1M10 8h1M26 8h1M10 9h1M13 9h1M19 9h2M25 9h1M10 10h1M15 10h4M20 10h5M10 11h1M10 12h1M10 13h1M10 14h1M10 15h1M10 16h1M10 18h1M10 19h1M13 19h1M11 20h2" />
<path stroke="#1ebb64" d="M14 5h2M23 5h1M26 6h1" />
<path stroke="#1fba64" d="M26 5h1M14 19h1" />
<path stroke="#c0ebff" d="M13 6h3M19 6h3M13 7h1M18 7h3M25 7h1M16 8h2M24 8h1M16 9h1M22 9h3" />
<path stroke="#e0fafe" d="M16 6h1" />
<path stroke="#e0faff" d="M17 6h2M23 6h3M14 7h4M22 7h3M13 8h3M20 8h1M22 8h1M14 9h1M21 9h1" />
<path stroke="#e1faff" d="M22 6h1M21 7h1" />
<path stroke="#28d840" d="M9 7h1" />
<path stroke="#c0eaff" d="M18 8h1" />
<path stroke="#e0fbff" d="M21 8h1" />
<path stroke="#c0ebfe" d="M23 8h1M15 9h1" />
<path stroke="#c1ebff" d="M25 8h1M17 9h1" />
<path stroke="#1eba65" d="M14 10h1M10 17h1M13 20h1" />
<path stroke="#6af53d" d="M13 18h1" />
<path stroke="#6bf53c" d="M14 18h1" />
</svg>