<svg xmlns="http://www.w3.org/2000/svg" viewBox="0 -0.5 38 38" shape-rendering="crispEdges">
<metadata>Made with Pixels to Svg https://codepen.io/shshaw/pen/XbxvNj</metadata>
<path stroke="#7124ee" d="M7 6h1M8 7h1M9 8h8M18 8h1M21 8h2M6 9h1M11 9h1M13 9h2M16 9h9M7 10h3M11 10h4M16 10h4M21 10h4M5 11h1M10 11h4M15 11h2M18 11h6M25 11h1M6 12h7M19 12h1M10 13h3M19 13h1M19 15h1M12 16h1M19 16h1M12 17h1M19 17h1M12 18h8M21 18h3M25 18h1M12 19h4M24 19h1M12 20h5M24 20h2M13 21h4M25 21h1M13 22h2M16 22h4M25 22h1" />
<path stroke="#651ecc" d="M8 8h1M22 23h1" />
<path stroke="#7024ee" d="M17 8h1M15 10h1M20 10h1M14 11h1M24 11h1M8 13h2" />
<path stroke="#7124ef" d="M19 8h1M12 9h1M25 9h1M10 10h1M25 10h1M17 11h1" />
<path stroke="#7125ee" d="M20 8h1M15 9h1M12 15h1M20 18h1M24 18h1M16 19h1M25 19h1M15 22h1" />
<path stroke="#5519ae" d="M9 9h1M8 11h1M26 12h1M26 13h1M8 14h3M26 14h1M26 15h1M11 17h1M26 17h1M11 18h1M26 18h1M11 19h1M26 19h1M11 20h1M26 20h1M14 24h7M22 24h2" />
<path stroke="#641ecc" d="M10 9h1M9 11h1M7 13h1M12 21h1M12 22h1M12 23h10M23 23h3" />
<path stroke="#ff0c27" d="M13 12h4M21 12h5M13 13h1M18 13h1M20 13h1M25 13h1M11 14h3M18 14h3M25 14h1M13 15h1M18 15h1M20 15h1M11 16h1M13 16h1M18 16h1M25 16h1M13 17h3M17 17h2M20 17h1M22 17h1M24 17h2" />
<path stroke="#ff0c26" d="M17 12h1M25 15h1M21 17h1" />
<path stroke="#ff0d27" d="M18 12h1M20 16h1" />
<path stroke="#ff0d26" d="M20 12h1" />
<path stroke="#def0fb" d="M14 13h2M21 13h2M14 14h1M21 14h1M14 15h1" />
<path stroke="#000049" d="M16 13h2M23 13h1M16 14h1M23 14h2M17 15h1M22 15h3M14 16h4M21 16h4" />
<path stroke="#010049" d="M24 13h1" />
<path stroke="#def1fb" d="M15 14h1" />
<path stroke="#000149" d="M17 14h1" />
<path stroke="#c4e5f8" d="M22 14h1M15 15h1" />
<path stroke="#fe0c27" d="M11 15h1M23 17h1" />
<path stroke="#000048" d="M16 15h1" />
<path stroke="#dff0fb" d="M21 15h1" />
<path stroke="#5419ae" d="M26 16h1" />
<path stroke="#fe0c26" d="M16 17h1" />
<path stroke="#ff7f08" d="M17 19h1M19 19h2M18 20h2M21 20h1M23 20h1M20 21h1M22 21h3M22 22h2" />
<path stroke="#ff7e08" d="M18 19h1" />
<path stroke="#ff7f09" d="M21 19h1" />
<path stroke="#ff9012" d="M22 19h1" />
<path stroke="#ff9112" d="M23 19h1" />
<path stroke="#f26d00" d="M17 20h1M18 21h2M20 22h2" />
<path stroke="#a7431c" d="M20 20h1" />
<path stroke="#a7421c" d="M22 20h1" />
<path stroke="#641fcc" d="M17 21h1" />
<path stroke="#fe7f08" d="M21 21h1M24 22h1" />
<path stroke="#5519af" d="M21 24h1" />
</svg>