<svg xmlns="http://www.w3.org/2000/svg" viewBox="0 -0.5 38 38" shape-rendering="crispEdges">
<metadata>Made with Pixels to Svg https://codepen.io/shshaw/pen/XbxvNj</metadata>
<path stroke="#7124ee" d="M15 8h6M22 8h1M13 9h6M20 9h5M7 10h4M12 10h2M16 10h7M24 10h2M9 11h1M11 11h1M13 11h4M18 11h7M9 12h2M12 12h2M18 12h1M20 12h1M25 12h1M12 13h2M18 13h3M25 13h1M13 14h1M18 14h3M12 15h2M18 15h3M25 15h1M12 16h2M19 16h2M12 17h2M18 17h3M25 17h1M13 18h1M15 18h9M25 18h1M12 19h1M14 19h3M24 19h2M13 20h4M25 20h1M13 21h1M16 21h1M16 22h2" />
<path stroke="#7024ee" d="M21 8h1M19 9h1M15 10h1M23 10h1M19 12h1M18 16h1M24 18h1" />
<path stroke="#6514dd" d="M10 9h1M25 9h1M11 10h1M8 11h1M25 11h1M7 12h1M11 12h1M6 13h1M14 17h2M17 17h1M21 17h4M17 21h1M25 21h1M18 22h2M25 22h1" />
<path stroke="#7124ef" d="M11 9h2M14 10h1M12 11h1M17 11h1M12 14h1M12 18h1M14 18h1M13 19h1M12 20h1M14 21h1" />
<path stroke="#7125ee" d="M10 11h1M25 14h1M25 16h1M24 20h1M15 21h1" />
<path stroke="#5519ae" d="M8 12h1M26 12h1M7 13h5M26 13h1M10 14h2M26 14h1M11 15h1M26 15h1M11 16h1M26 16h1M11 17h1M26 17h1M11 18h1M11 19h1M26 19h1M11 20h1" />
<path stroke="#522401" d="M14 12h1" />
<path stroke="#522400" d="M15 12h3M21 12h2M14 13h1M17 13h1M21 13h1M24 13h1M14 14h1M17 14h1M21 14h1M24 14h1M14 15h1M17 15h1M21 15h1M24 15h1M14 16h2M17 16h1M21 16h4" />
<path stroke="#532500" d="M23 12h1" />
<path stroke="#532400" d="M24 12h1M16 16h1" />
<path stroke="#1f1106" d="M15 13h2M22 13h2M15 14h2M22 14h2M16 15h1M22 15h2" />
<path stroke="#1f1107" d="M15 15h1" />
<path stroke="#6514dc" d="M16 17h1" />
<path stroke="#5518ae" d="M26 18h1" />
<path stroke="#ff7f08" d="M17 19h5M18 20h2M21 20h1M23 20h1M20 21h3M22 22h3" />
<path stroke="#ff9112" d="M22 19h2" />
<path stroke="#f26d00" d="M17 20h1M18 21h2M21 22h1" />
<path stroke="#a6431c" d="M20 20h1" />
<path stroke="#a7431c" d="M22 20h1" />
<path stroke="#5519af" d="M26 20h1" />
<path stroke="#5d24ee" d="M12 21h1M12 22h4M16 23h4M21 23h5" />
<path stroke="#ff7f09" d="M23 21h2" />
<path stroke="#f26d01" d="M20 22h1" />
<path stroke="#4521ba" d="M12 23h3M16 24h9" />
<path stroke="#4521bb" d="M15 23h1" />
<path stroke="#5d25ee" d="M20 23h1" />
<path stroke="#1d37aa" d="M14 24h2M15 25h1M18 25h7M19 26h4" />
<path stroke="#1c37aa" d="M16 25h1" />
<path stroke="#1d37ab" d="M17 25h1" />
<path stroke="#1663b1" d="M16 26h1M18 27h2" />
<path stroke="#1662b1" d="M17 26h1" />
<path stroke="#1d36ab" d="M18 26h1" />
<path stroke="#4b9dcc" d="M23 26h1M20 27h2" />
<path stroke="#4b9dcd" d="M22 27h1" />
</svg>