<svg xmlns="http://www.w3.org/2000/svg" viewBox="0 -0.5 38 38" shape-rendering="crispEdges">
<metadata>Made with Pixels to Svg https://codepen.io/shshaw/pen/XbxvNj</metadata>
<path stroke="#efaf37" d="M13 0h2M12 1h2M15 1h1M25 1h2M12 2h1M15 2h1M24 2h3M11 3h1M16 3h1M22 3h4M11 4h1M24 4h1M11 5h1M10 6h1M8 22h1M12 22h1M27 22h1M8 23h6M15 23h1M25 23h2M28 23h1M10 24h9M20 24h1M22 24h6M14 25h5M20 25h1M22 25h2M25 25h1" />
<path stroke="#bf810b" d="M14 1h1M13 2h2M14 3h2M26 3h1M26 4h1M17 5h1M20 5h1M25 5h2M13 6h1M17 6h1M20 6h1M24 6h1M13 7h1M24 7h1M16 9h1M17 10h3M9 24h1M28 24h2M11 25h2M27 25h1M14 26h3M18 26h6" />
<path stroke="#efaf36" d="M16 2h1M12 3h1M27 23h1M24 25h1" />
<path stroke="#bf810a" d="M13 3h1M26 25h1M25 26h1" />
<path stroke="#efae37" d="M12 4h1M28 22h1M21 24h1M19 25h1" />
<path stroke="#efc45b" d="M13 4h1M13 5h1M8 18h1M7 19h1" />
<path stroke="#efc45a" d="M14 4h10M12 5h1M18 5h2M18 6h2M9 7h1M17 7h2M20 7h1M9 8h1M9 9h1M8 10h2M8 11h2M8 12h2M8 13h2M7 14h2M7 15h1M7 16h2M7 17h2M7 18h1M9 18h1M29 18h1M8 19h2M30 19h1M7 20h4M28 20h2M7 21h1M9 21h3M28 21h3M9 22h3M29 22h2" />
<path stroke="#be810b" d="M25 4h1" />
<path stroke="#ffffff" d="M14 5h1M21 5h1M14 6h1M21 6h1M14 7h1M21 7h1" />
<path stroke="#606060" d="M15 5h1M22 5h2" />
<path stroke="#606061" d="M16 5h1" />
<path stroke="#eec45a" d="M24 5h1M19 7h1M30 20h1M8 21h1" />
<path stroke="#fcfcc4" d="M11 6h2M25 6h1M10 7h1M12 7h1M25 7h3M10 8h5M16 8h2M21 8h4M26 8h2M10 9h6M17 9h2M20 9h7M10 10h3M25 10h4M10 11h2M26 11h3M10 12h1M28 12h1M10 13h1M27 13h3M9 14h1M27 14h3M9 15h2M27 15h3M9 16h2M27 16h2M9 17h2M27 17h3M10 18h1M28 18h1M10 19h2M27 19h2M11 20h1" />
<path stroke="#22100f" d="M15 6h2M22 6h2M15 7h2M22 7h2M18 8h3M19 9h1" />
<path stroke="#fcfdc5" d="M26 6h1M15 8h1" />
<path stroke="#fdfcc4" d="M11 7h1M25 8h1M27 9h1M10 14h1M27 18h1" />
<path stroke="#e1dcb4" d="M13 10h1M15 10h2M20 10h1M22 10h2M12 11h1M11 12h1M26 13h1M12 20h1M27 20h1M12 21h1M26 21h2M13 22h1M26 22h1" />
<path stroke="#e0dcb4" d="M14 10h1" />
<path stroke="#e1dcb5" d="M21 10h1M24 10h1M26 12h1" />
<path stroke="#fcfdc4" d="M27 12h1" />
<path stroke="#efc55a" d="M8 15h1M29 19h1" />
<path stroke="#fcfcc5" d="M29 16h1" />
<path stroke="#eeaf37" d="M14 23h1M29 23h1M19 24h1M21 25h1" />
<path stroke="#bf800b" d="M10 25h1M13 25h1M24 26h1" />
<path stroke="#bf800a" d="M17 26h1" />
</svg>