<svg xmlns="http://www.w3.org/2000/svg" viewBox="0 -0.5 38 38" shape-rendering="crispEdges">
<metadata>Made with Pixels to Svg https://codepen.io/shshaw/pen/XbxvNj</metadata>
<path stroke="#7124ee" d="M7 6h1M8 7h1M10 8h1M12 8h2M15 8h6M22 8h1M6 9h1M13 9h9M23 9h2M7 10h13M21 10h5M5 11h1M11 11h1M13 11h8M22 11h4M6 12h8M18 12h2M25 12h1M8 13h5M18 13h3M25 13h1M12 14h2M18 14h3M25 14h1M12 15h2M18 15h3M25 15h1M12 16h2M18 16h3M25 16h1M12 17h2M19 17h2M12 18h4M17 18h9M12 19h2M15 19h2M25 19h1M12 20h5M24 20h2M13 21h4M25 21h1M13 22h2M16 22h4M25 22h1" />
<path stroke="#6514dd" d="M8 8h1M10 9h1M9 11h1M7 13h1M11 14h1M14 17h1M16 17h2M22 17h3M12 21h1M12 22h1M12 23h5M19 23h4M24 23h1" />
<path stroke="#7125ee" d="M9 8h1M12 9h1M10 11h1M13 13h1M16 18h1M14 19h1" />
<path stroke="#7024ef" d="M11 8h1" />
<path stroke="#7124ef" d="M14 8h1M22 9h1M12 11h1M25 17h1M15 22h1" />
<path stroke="#7024ee" d="M21 8h1M11 9h1M25 9h1M20 10h1M20 12h1M18 17h1M24 19h1" />
<path stroke="#5519ae" d="M9 9h1M8 11h1M26 12h1M26 13h1M8 14h3M26 14h1M26 15h1M11 16h1M26 16h1M11 17h1M26 17h1M11 18h1M26 18h1M26 19h1M11 20h1M26 20h1M14 24h10" />
<path stroke="#7025ee" d="M21 11h1" />
<path stroke="#cedef6" d="M14 12h1M21 12h1M14 13h1M21 13h1M14 14h2M21 14h2M15 15h1M21 15h2M15 16h1M21 16h2" />
<path stroke="#c4e5f8" d="M15 12h1M22 12h1" />
<path stroke="#000049" d="M16 12h2M23 12h2M17 13h1M23 13h2M17 14h1M23 14h2M16 15h2M23 15h2M16 16h1M24 16h1" />
<path stroke="#def0fb" d="M15 13h1M22 13h1" />
<path stroke="#000149" d="M16 13h1M17 16h1M23 16h1" />
<path stroke="#010049" d="M16 14h1" />
<path stroke="#5518ae" d="M11 15h1M11 19h1" />
<path stroke="#cedef7" d="M14 15h1M14 16h1" />
<path stroke="#6515dc" d="M15 17h1" />
<path stroke="#6514dc" d="M21 17h1M17 23h1M23 23h1M25 23h1" />
<path stroke="#ff7f08" d="M17 19h1M19 19h3M18 20h2M21 20h1M20 21h5M22 22h3" />
<path stroke="#ff7e08" d="M18 19h1" />
<path stroke="#ff9112" d="M22 19h2" />
<path stroke="#f26c00" d="M17 20h1" />
<path stroke="#a7421c" d="M20 20h1" />
<path stroke="#a7431c" d="M22 20h1" />
<path stroke="#fe7f09" d="M23 20h1" />
<path stroke="#6515dd" d="M17 21h1" />
<path stroke="#f26d00" d="M18 21h2M21 22h1" />
<path stroke="#f26d01" d="M20 22h1" />
<path stroke="#6414dc" d="M18 23h1" />
</svg>