<svg xmlns="http://www.w3.org/2000/svg" viewBox="0 -0.5 38 38" shape-rendering="crispEdges">
<metadata>Made with Pixels to Svg https://codepen.io/shshaw/pen/XbxvNj</metadata>
<path stroke="#7124ee" d="M7 6h1M8 7h1M9 8h1M12 8h9M22 8h1M6 9h1M13 9h8M22 9h4M7 10h3M17 10h1M20 10h3M24 10h2M5 11h1M10 11h3M21 11h4M6 12h7M8 13h3M12 13h2M18 13h1M13 14h1M18 14h2M12 15h2M18 15h2M13 16h1M18 16h3M12 17h1M18 17h1M20 17h1M25 17h1M12 18h12M25 18h1M12 19h5M24 19h2M12 20h5M24 20h2M13 21h3M25 21h1M13 22h5M25 22h1" />
<path stroke="#6514dd" d="M8 8h1M10 10h3M13 11h4M7 13h1M11 14h1M14 17h3M22 17h2M12 21h1M12 22h1M13 23h7M21 23h2M24 23h2" />
<path stroke="#7024ee" d="M10 8h1M21 8h1M12 16h1M24 18h1" />
<path stroke="#7124ef" d="M11 8h1M21 9h1M18 10h2M23 10h1M11 13h1M12 14h1M13 17h1M18 22h1" />
<path stroke="#f6001b" d="M10 9h1M26 10h1M18 12h1M26 12h1M19 13h1M25 13h2M24 14h2M20 15h3M24 15h2M23 16h1" />
<path stroke="#ff0c27" d="M11 9h1M13 10h4M17 11h3M20 12h6M21 13h1M23 13h2M20 14h4" />
<path stroke="#ff0c26" d="M12 9h1M25 11h1" />
<path stroke="#5519ae" d="M8 11h1M8 14h3M26 14h1M11 15h1M26 15h1M11 16h1M26 16h1M11 17h1M26 17h1M11 18h1M26 18h1M11 19h1M26 19h1M11 20h1M26 20h1M14 24h10" />
<path stroke="#6515dd" d="M9 11h1M21 17h1M12 23h1M20 23h1" />
<path stroke="#ff0d27" d="M20 11h1" />
<path stroke="#f6001a" d="M26 11h1M23 15h1" />
<path stroke="#7025ee" d="M13 12h1M19 22h1" />
<path stroke="#c4e5f8" d="M14 12h1" />
<path stroke="#c4e5f9" d="M15 12h1" />
<path stroke="#000049" d="M16 12h2M17 13h1M14 14h1M16 14h1M14 15h4M14 16h4" />
<path stroke="#f7001b" d="M19 12h1" />
<path stroke="#def0fb" d="M14 13h2" />
<path stroke="#000149" d="M16 13h1M17 14h1" />
<path stroke="#fe0c27" d="M20 13h1M22 13h1" />
<path stroke="#000048" d="M15 14h1" />
<path stroke="#f6011b" d="M21 16h2M24 16h1" />
<path stroke="#6414dd" d="M25 16h1M17 21h1" />
<path stroke="#6515dc" d="M17 17h1" />
<path stroke="#7125ee" d="M19 17h1" />
<path stroke="#6514dc" d="M24 17h1M23 23h1" />
<path stroke="#ff7f08" d="M17 19h5M18 20h2M21 20h1M23 20h1M20 21h5M22 22h3" />
<path stroke="#ff9112" d="M22 19h2" />
<path stroke="#f36d00" d="M17 20h1" />
<path stroke="#a7431c" d="M20 20h1M22 20h1" />
<path stroke="#7125ef" d="M16 21h1" />
<path stroke="#f26d00" d="M18 21h2M20 22h2" />
</svg>