<svg xmlns="http://www.w3.org/2000/svg" viewBox="0 -0.5 38 38" shape-rendering="crispEdges">
<metadata>Made with Pixels to Svg https://codepen.io/shshaw/pen/XbxvNj</metadata>
<path stroke="#7124ee" d="M7 6h1M8 7h1M9 8h2M13 8h10M6 9h1M13 9h2M16 9h2M19 9h2M22 9h4M7 10h3M12 10h1M17 10h2M20 10h2M23 10h3M5 11h1M10 11h3M21 11h4M7 12h2M10 12h4M9 13h2M12 13h2M18 13h1M12 14h2M12 15h1M18 15h2M12 16h2M18 16h3M12 17h2M18 17h1M20 17h1M25 17h1M12 18h1M15 18h1M17 18h1M19 18h2M22 18h4M12 19h5M24 19h2M12 20h5M24 20h1M13 21h4M25 21h1M13 22h5M19 22h1M25 22h1" />
<path stroke="#6414dd" d="M8 8h1M7 13h1M25 16h1M12 22h1" />
<path stroke="#7024ef" d="M11 8h1" />
<path stroke="#7125ee" d="M12 8h1M22 10h1M8 13h1M11 13h1M18 14h2M13 15h1M21 18h1" />
<path stroke="#171332" d="M10 9h1M19 13h1M25 13h2M24 14h2M20 15h1M22 15h2M25 15h1M21 16h1M23 16h2" />
<path stroke="#1b192f" d="M11 9h2M13 10h4M17 11h2M20 11h1M25 11h1M21 12h2M24 12h2M20 13h5M20 14h4" />
<path stroke="#7024ee" d="M15 9h1M19 17h1M14 18h1M16 18h1M18 18h1" />
<path stroke="#7124ef" d="M18 9h1M21 9h1M19 10h1M6 12h1M9 12h1M13 18h1M25 20h1M18 22h1" />
<path stroke="#6514dd" d="M10 10h2M9 11h1M13 11h4M11 14h1M16 17h2M21 17h3M12 21h1M17 21h1M15 23h4" />
<path stroke="#19133a" d="M26 10h1" />
<path stroke="#5519ae" d="M8 11h1M8 14h3M26 14h1M11 15h1M26 15h1M11 16h1M26 16h1M11 17h1M26 17h1M11 18h1M26 18h1M11 19h1M26 19h1M11 20h1M26 20h1M14 24h10" />
<path stroke="#1a192f" d="M19 11h1M20 12h1" />
<path stroke="#232134" d="M26 11h1" />
<path stroke="#c4e5f8" d="M14 12h2" />
<path stroke="#000049" d="M16 12h2M16 13h2M14 14h4M14 15h3M14 16h2M17 16h1" />
<path stroke="#171333" d="M18 12h2M26 12h1M21 15h1M24 15h1" />
<path stroke="#1b192e" d="M23 12h1" />
<path stroke="#def0fb" d="M14 13h2" />
<path stroke="#010049" d="M17 15h1M16 16h1" />
<path stroke="#161332" d="M22 16h1" />
<path stroke="#6515dd" d="M14 17h1" />
<path stroke="#6514dc" d="M15 17h1M24 17h1" />
<path stroke="#fe7e08" d="M17 19h1" />
<path stroke="#ff7f08" d="M18 19h2M18 20h1M21 20h1M20 21h5M22 22h3" />
<path stroke="#ff7e08" d="M20 19h1M23 20h1" />
<path stroke="#fe7f08" d="M21 19h1M19 20h1" />
<path stroke="#ff9112" d="M22 19h2" />
<path stroke="#f26d00" d="M17 20h1M20 22h2" />
<path stroke="#a7431c" d="M20 20h1M22 20h1" />
<path stroke="#f26d01" d="M18 21h2" />
<path stroke="#641ecc" d="M12 23h3M19 23h3M23 23h3" />
<path stroke="#641ecd" d="M22 23h1" />
</svg>