<svg xmlns="http://www.w3.org/2000/svg" viewBox="0 -0.5 38 38" shape-rendering="crispEdges">
<metadata>Made with Pixels to Svg https://codepen.io/shshaw/pen/XbxvNj</metadata>
<path stroke="#28d941" d="M17 3h1" />
<path stroke="#6bf53d" d="M18 3h1M20 4h2M23 5h2M25 6h1" />
<path stroke="#28d940" d="M14 4h3M19 4h1M13 5h5M19 5h3M13 6h3M17 6h7M12 7h9M22 7h5M13 8h10M24 8h3M14 9h1M16 9h1M18 9h1M20 9h1M22 9h1M24 9h1M26 9h1" />
<path stroke="#1eba64" d="M17 4h2M11 7h1M10 8h3M10 9h2M13 9h1M17 9h1M19 9h1M21 9h1M23 9h1M25 9h1M27 9h1M12 10h10M23 10h5" />
<path stroke="#6bf53c" d="M22 4h1M22 5h1" />
<path stroke="#28d840" d="M18 5h1M16 6h1M24 6h1M23 8h1" />
<path stroke="#29d840" d="M12 6h1" />
<path stroke="#29d940" d="M21 7h1" />
<path stroke="#1fba64" d="M12 9h1M10 10h1M22 10h1" />
<path stroke="#1eba65" d="M15 9h1M11 10h1" />
</svg>