<svg xmlns="http://www.w3.org/2000/svg" viewBox="0 -0.5 38 38" shape-rendering="crispEdges">
<metadata>Made with Pixels to Svg https://codepen.io/shshaw/pen/XbxvNj</metadata>
<path stroke="#009d00" d="M11 2h1M15 2h3M19 2h7M10 3h14M25 3h1M10 4h9M21 4h1M23 4h1M10 5h1M12 5h1M16 5h1M22 5h2M11 6h7M7 8h1M28 8h2M7 9h3M26 9h4" />
<path stroke="#019d00" d="M12 2h1M18 2h1M15 5h1" />
<path stroke="#009d01" d="M13 2h2M13 5h2M8 8h1" />
<path stroke="#009c00" d="M24 3h1M22 4h1M11 5h1M17 5h1M10 9h2" />
<path stroke="#078507" d="M26 3h1M25 4h2M24 5h3M22 6h1M25 6h1M12 9h14M10 10h3M14 10h5M20 10h1M22 10h4M27 10h1" />
<path stroke="#fff431" d="M19 4h1M18 5h2" />
<path stroke="#fff430" d="M20 4h1" />
<path stroke="#068507" d="M24 4h1M21 10h1" />
<path stroke="#ffd700" d="M20 5h2M18 6h2M19 7h2" />
<path stroke="#fed700" d="M20 6h2" />
<path stroke="#078407" d="M23 6h1M9 10h1M13 10h1M19 10h1" />
<path stroke="#078506" d="M24 6h1" />
<path stroke="#86470f" d="M11 7h5M11 8h1M13 8h3" />
<path stroke="#86470e" d="M16 7h1" />
<path stroke="#87460f" d="M17 7h1" />
<path stroke="#86460f" d="M18 7h1" />
<path stroke="#6e350c" d="M21 7h5M16 8h2M19 8h3M23 8h3" />
<path stroke="#125e12" d="M9 8h2M27 8h1" />
<path stroke="#87470f" d="M12 8h1" />
<path stroke="#6f340c" d="M18 8h1" />
<path stroke="#6e340c" d="M22 8h1" />
<path stroke="#125f12" d="M26 8h1" />
<path stroke="#078406" d="M26 10h1" />
</svg>