<svg xmlns="http://www.w3.org/2000/svg" viewBox="0 -0.5 38 38" shape-rendering="crispEdges">
<metadata>Made with Pixels to Svg https://codepen.io/shshaw/pen/XbxvNj</metadata>
<path stroke="#7124ee" d="M7 6h1M8 7h1M9 8h1M11 8h5M18 8h1M20 8h3M6 9h1M11 9h2M14 9h1M16 9h10M7 10h10M18 10h2M21 10h3M25 10h1M5 11h1M10 11h3M15 11h2M18 11h3M22 11h4M6 12h1M8 12h4M19 12h1M8 13h5M19 13h1M12 15h1M19 15h1M12 16h1M19 16h1M12 17h1M19 17h1M12 18h14M12 19h5M24 19h2M13 20h2M16 20h1M24 20h1M13 21h4M25 21h1M14 22h6M25 22h1" />
<path stroke="#6514dd" d="M8 8h1M10 9h1M9 11h1M7 13h1M12 21h1M17 21h1M12 22h1M15 23h1M17 23h2" />
<path stroke="#7024ee" d="M10 8h1M17 8h1M19 8h1M17 10h1M20 10h1M13 11h1M21 11h1M12 12h1M15 20h1M13 22h1" />
<path stroke="#7124ef" d="M16 8h1M13 9h1M14 11h1M25 20h1" />
<path stroke="#5519ae" d="M9 9h1M8 11h1M26 12h1M26 13h1M8 14h3M26 14h1M26 15h1M11 17h1M26 17h1M11 18h1M11 19h1M26 19h1M11 20h1M26 20h1M15 24h5M22 24h2" />
<path stroke="#7125ee" d="M15 9h1M24 10h1M17 11h1M12 20h1" />
<path stroke="#7024ef" d="M7 12h1" />
<path stroke="#ffa408" d="M13 12h3M17 12h2M21 12h5M13 13h1M18 13h1M20 13h1M25 13h1M11 14h3M18 14h3M25 14h1M11 15h1M13 15h1M18 15h1M20 15h1M11 16h1M18 16h1M20 16h1M25 16h1M14 17h5M20 17h4M25 17h1" />
<path stroke="#ffa409" d="M16 12h1M13 16h1M24 17h1" />
<path stroke="#ffa508" d="M20 12h1" />
<path stroke="#def0fb" d="M14 13h2M21 13h1M14 14h2M22 14h1M14 15h1M21 15h1" />
<path stroke="#000049" d="M16 13h1M23 13h2M16 14h2M23 14h2M17 15h1M22 15h2M15 16h3M24 16h1" />
<path stroke="#000048" d="M17 13h1" />
<path stroke="#000148" d="M22 13h1" />
<path stroke="#def0fa" d="M21 14h1M14 16h1" />
<path stroke="#c4e5f8" d="M15 15h1M21 16h1" />
<path stroke="#010049" d="M16 15h1M23 16h1" />
<path stroke="#000149" d="M24 15h1" />
<path stroke="#fea408" d="M25 15h1M13 17h1" />
<path stroke="#c5e5f8" d="M22 16h1" />
<path stroke="#5419ae" d="M26 16h1M14 24h1" />
<path stroke="#5518ae" d="M26 18h1M21 24h1" />
<path stroke="#ff7f08" d="M17 19h3M18 20h2M21 20h1M23 20h1M20 21h2M23 21h1M22 22h2" />
<path stroke="#fe7f08" d="M20 19h1M24 21h1" />
<path stroke="#ff7e08" d="M21 19h1M24 22h1" />
<path stroke="#ff9112" d="M22 19h2" />
<path stroke="#f26d00" d="M17 20h1M18 21h2M20 22h2" />
<path stroke="#a7431c" d="M20 20h1M22 20h1" />
<path stroke="#ff7f09" d="M22 21h1" />
<path stroke="#641ecc" d="M12 23h3M19 23h5M25 23h1" />
<path stroke="#6515dd" d="M16 23h1" />
<path stroke="#641fcc" d="M24 23h1" />
<path stroke="#5519af" d="M20 24h1" />
</svg>