<svg xmlns="http://www.w3.org/2000/svg" viewBox="0 -0.5 38 38" shape-rendering="crispEdges">
<metadata>Made with Pixels to Svg https://codepen.io/shshaw/pen/XbxvNj</metadata>
<path stroke="#44424c" d="M14 2h3M18 2h3M22 2h2M11 3h6M11 4h1M13 4h1M10 5h2M10 6h1" />
<path stroke="#44434c" d="M17 2h1M21 2h1M12 4h1" />
<path stroke="#212121" d="M17 3h2M20 3h3M24 3h2M14 4h2M18 4h1M25 4h1M12 5h3M18 5h1M21 5h1M24 5h3M11 6h5M18 6h1M21 6h1M24 6h3M10 7h2M13 7h1M15 7h2M18 7h6M25 7h1M12 10h12M25 10h6" />
<path stroke="#212021" d="M19 3h1M21 4h1M15 5h1M12 7h1M17 7h1" />
<path stroke="#212120" d="M23 3h1M14 7h1M24 7h1M26 7h1" />
<path stroke="#fa4fdb" d="M16 4h1M19 4h1M22 4h1M16 5h2M19 5h1M22 5h2M16 6h1M19 6h1M22 6h2" />
<path stroke="#fb4fdb" d="M17 4h1M20 5h1" />
<path stroke="#480f3e" d="M20 4h1" />
<path stroke="#ac2493" d="M23 4h1M20 6h1" />
<path stroke="#202121" d="M24 4h1M24 10h1" />
<path stroke="#490f3e" d="M17 6h1" />
<path stroke="#111111" d="M10 8h1M12 8h6M19 8h5M25 8h4M11 9h1M13 9h1M17 9h4M23 9h4M28 9h3" />
<path stroke="#111011" d="M11 8h1M27 9h1" />
<path stroke="#101111" d="M18 8h1M12 9h1M14 9h1M16 9h1M22 9h1" />
<path stroke="#101110" d="M24 8h1" />
<path stroke="#111110" d="M15 9h1M21 9h1" />
</svg>