<svg xmlns="http://www.w3.org/2000/svg" viewBox="0 -0.5 38 38" shape-rendering="crispEdges">
<metadata>Made with Pixels to Svg https://codepen.io/shshaw/pen/XbxvNj</metadata>
<path stroke="#41d6ff" d="M9 3h2M9 4h2" />
<path stroke="#003ef2" d="M12 4h4M17 4h5M23 4h2M26 4h1M9 5h1M12 5h1M9 6h1M12 6h1M12 7h1M9 8h1M12 8h1M19 8h1M9 9h1M18 9h1M9 10h1M9 11h1M9 13h1M9 14h1M9 15h1M9 16h1M9 17h1M9 18h1M11 19h2" />
<path stroke="#013ef2" d="M16 4h1M25 4h1" />
<path stroke="#003ff2" d="M22 4h1M9 12h1" />
<path stroke="#1823e1" d="M10 5h1M13 5h3M17 5h9M10 6h2M26 6h1M10 7h2M10 8h1M26 8h1M10 9h1M19 9h2M25 9h1M15 10h4M20 10h5M10 12h1M10 13h1M10 14h1M10 15h1M10 16h1M10 17h1M10 18h1M13 19h1M11 20h3" />
<path stroke="#1923e1" d="M16 5h1M26 5h1M13 9h1M10 19h1" />
<path stroke="#c0ebff" d="M13 6h3M19 6h1M21 6h1M13 7h1M18 7h3M25 7h1M16 8h3M24 8h2M15 9h3M23 9h1" />
<path stroke="#e0faff" d="M16 6h3M22 6h4M14 7h4M21 7h2M24 7h1M13 8h3M20 8h3M14 9h1" />
<path stroke="#c1ebff" d="M20 6h1" />
<path stroke="#003ef3" d="M9 7h1" />
<path stroke="#e1faff" d="M23 7h1" />
<path stroke="#1923e0" d="M26 7h1" />
<path stroke="#c0eaff" d="M23 8h1M24 9h1" />
<path stroke="#e0fbff" d="M21 9h1" />
<path stroke="#c0eafe" d="M22 9h1" />
<path stroke="#1823e0" d="M10 10h1M14 10h1M10 11h1" />
<path stroke="#32c4ff" d="M13 18h2" />
<path stroke="#1822e1" d="M14 19h1" />
</svg>