<svg xmlns="http://www.w3.org/2000/svg" viewBox="0 -0.5 38 38" shape-rendering="crispEdges">
<metadata>Made with Pixels to Svg https://codepen.io/shshaw/pen/XbxvNj</metadata>
<path stroke="#003ef2" d="M14 2h2M17 2h1M19 2h3M23 2h1M12 3h5M11 4h3M10 5h2M10 6h1" />
<path stroke="#003ef3" d="M16 2h1M11 3h1" />
<path stroke="#003ff2" d="M18 2h1" />
<path stroke="#013ef2" d="M22 2h1" />
<path stroke="#1823e1" d="M17 3h1M20 3h6M14 4h2M17 4h9M12 5h2M17 5h10M11 6h10M22 6h5M10 7h4M16 7h9M26 7h1M14 10h15M30 10h1" />
<path stroke="#1823e0" d="M18 3h1M15 5h2M21 6h1M14 7h1" />
<path stroke="#1923e1" d="M19 3h1M16 4h1M15 7h1M29 10h1" />
<path stroke="#1822e1" d="M14 5h1M25 7h1M13 10h1" />
<path stroke="#0b15c9" d="M10 8h11M22 8h7M12 9h2M15 9h1M17 9h6M24 9h7" />
<path stroke="#0b15c8" d="M21 8h1" />
<path stroke="#0b14c9" d="M11 9h1M16 9h1" />
<path stroke="#0a15c9" d="M14 9h1M23 9h1" />
</svg>