<svg xmlns="http://www.w3.org/2000/svg" viewBox="0 -0.5 38 38" shape-rendering="crispEdges">
<metadata>Made with Pixels to Svg https://codepen.io/shshaw/pen/XbxvNj</metadata>
<path stroke="#7124ee" d="M7 6h1M8 7h1M9 8h5M15 8h8M6 9h1M12 9h3M16 9h10M7 10h19M10 11h1M12 11h12M6 12h8M19 12h2M25 12h1M8 13h6M19 13h2M25 13h1M12 14h2M18 14h2M25 14h1M13 15h1M18 15h3M12 16h1M19 16h2M25 16h1M12 17h2M18 17h3M25 17h1M12 18h5M18 18h2M21 18h3M25 18h1M12 19h5M24 19h1M13 20h1M15 20h2M24 20h2M13 21h3M25 21h1M13 22h7M25 22h1" />
<path stroke="#6514dd" d="M8 8h1M10 9h1M7 13h1M11 14h1M14 17h3M21 17h4M12 21h1M17 21h1M12 22h1M13 23h2M16 23h5M22 23h4" />
<path stroke="#7024ee" d="M14 8h1M15 9h1M24 11h1M18 13h1M20 14h1M17 18h1M14 20h1" />
<path stroke="#5519ae" d="M9 9h1M8 11h1M26 12h1M26 13h1M8 14h1M10 14h1M26 14h1M11 15h1M26 15h1M11 16h1M26 16h1M26 17h1M11 18h1M26 18h1M11 19h1M26 19h1M11 20h1M26 20h1M14 24h8M23 24h1" />
<path stroke="#7124ef" d="M11 9h1M11 11h1M18 16h1M24 18h1M25 19h1" />
<path stroke="#7125ee" d="M5 11h1M18 12h1M12 15h1M25 15h1M13 16h1M20 18h1M12 20h1M16 21h1" />
<path stroke="#6514dc" d="M9 11h1M15 23h1" />
<path stroke="#7125ef" d="M25 11h1" />
<path stroke="#c4e5f8" d="M14 12h2M21 12h2" />
<path stroke="#000048" d="M16 12h1" />
<path stroke="#000049" d="M17 12h1M23 12h2M16 13h2M23 13h2M14 14h4M21 14h4M14 15h4M21 15h4M14 16h4M21 16h3" />
<path stroke="#def0fb" d="M14 13h2M22 13h1" />
<path stroke="#dff1fb" d="M21 13h1" />
<path stroke="#5519af" d="M9 14h1M22 24h1" />
<path stroke="#010049" d="M24 16h1" />
<path stroke="#5418ae" d="M11 17h1" />
<path stroke="#6515dd" d="M17 17h1M21 23h1" />
<path stroke="#ff7f08" d="M17 19h2M20 19h2M19 20h1M23 20h1M20 21h5M23 22h2" />
<path stroke="#ff7f09" d="M19 19h1" />
<path stroke="#ff9112" d="M22 19h2" />
<path stroke="#f26d00" d="M17 20h1M18 21h2M21 22h1" />
<path stroke="#fe7f08" d="M18 20h1M21 20h1" />
<path stroke="#a7431c" d="M20 20h1M22 20h1" />
<path stroke="#f26c00" d="M20 22h1" />
<path stroke="#ff7e08" d="M22 22h1" />
<path stroke="#6414dd" d="M12 23h1" />
</svg>