<svg xmlns="http://www.w3.org/2000/svg" viewBox="0 -0.5 38 38" shape-rendering="crispEdges">
<metadata>Made with Pixels to Svg https://codepen.io/shshaw/pen/XbxvNj</metadata>
<path stroke="#ebebeb" d="M17 1h2M16 2h2" />
<path stroke="#dcdcdc" d="M18 2h1M16 3h1" />
<path stroke="#dddddc" d="M19 2h1" />
<path stroke="#003eff" d="M17 3h1M17 4h2M18 5h1M16 6h4M15 7h1M18 7h2M16 8h1" />
<path stroke="#5982ff" d="M18 3h1M17 7h1M15 8h1" />
<path stroke="#cccccc" d="M19 3h1M15 9h5" />
<path stroke="#5882ff" d="M16 5h1" />
<path stroke="#013eff" d="M17 5h1" />
<path stroke="#003efe" d="M19 5h1M16 7h1" />
<path stroke="#002bde" d="M20 7h1M18 8h3" />
<path stroke="#003fff" d="M17 8h1" />
<path stroke="#cdcccc" d="M20 9h1" />
</svg>