<svg xmlns="http://www.w3.org/2000/svg" viewBox="0 -0.5 38 38" shape-rendering="crispEdges">
<metadata>Made with Pixels to Svg https://codepen.io/shshaw/pen/XbxvNj</metadata>
<path stroke="#27272b" d="M11 3h1M13 3h1M15 3h8M14 4h6M22 4h3M14 5h7M22 5h3M14 6h5M21 6h3M14 7h11M15 9h4M20 9h2M23 9h6" />
<path stroke="#26272b" d="M12 3h1M14 3h1M21 5h1M20 6h1M22 9h1" />
<path stroke="#323237" d="M23 3h3M25 4h1M25 6h1M25 7h1" />
<path stroke="#212127" d="M11 4h3M11 5h2M11 6h1M13 6h1M11 7h3M8 9h7M8 10h9M18 10h6M25 10h2M28 10h1" />
<path stroke="#27262b" d="M20 4h2M19 6h1M19 9h1" />
<path stroke="#202126" d="M13 5h1" />
<path stroke="#323236" d="M25 5h1" />
<path stroke="#212126" d="M12 6h1" />
<path stroke="#27272a" d="M24 6h1" />
<path stroke="#c8002b" d="M11 8h1M17 8h1" />
<path stroke="#c8002a" d="M12 8h3M18 8h5M24 8h1" />
<path stroke="#c8012a" d="M15 8h1" />
<path stroke="#c9002a" d="M16 8h1M23 8h1" />
<path stroke="#dc1740" d="M25 8h1" />
<path stroke="#212027" d="M17 10h1M27 10h1" />
<path stroke="#202127" d="M24 10h1" />
</svg>