<svg xmlns="http://www.w3.org/2000/svg" viewBox="0 -0.5 38 38" shape-rendering="crispEdges">
<metadata>Made with Pixels to Svg https://codepen.io/shshaw/pen/XbxvNj</metadata>
<path stroke="#e8939b" d="M17 3h1M14 4h3M19 4h1M13 5h3M17 5h5M12 6h3M16 6h9M12 7h2M15 7h5M21 7h6M13 8h2M16 8h11M14 9h1M16 9h1M20 9h1M22 9h1M24 9h1M26 9h1" />
<path stroke="#f4aeb5" d="M18 3h1M20 4h3M22 5h3M25 6h1" />
<path stroke="#e45c69" d="M17 4h2M11 7h1M10 8h3M12 9h2M15 9h1M17 9h1M19 9h1M23 9h1M25 9h1M27 9h1M10 10h4M15 10h5M21 10h7" />
<path stroke="#e8929b" d="M16 5h1" />
<path stroke="#e9939b" d="M15 6h1M20 7h1" />
<path stroke="#e8939a" d="M14 7h1M18 9h1" />
<path stroke="#e9929b" d="M15 8h1" />
<path stroke="#e45d69" d="M10 9h1M14 10h1M20 10h1" />
<path stroke="#e45c68" d="M11 9h1" />
<path stroke="#e55c68" d="M21 9h1" />
</svg>