<svg xmlns="http://www.w3.org/2000/svg" viewBox="0 -0.5 38 38" shape-rendering="crispEdges">
<metadata>Made with Pixels to Svg https://codepen.io/shshaw/pen/XbxvNj</metadata>
<path stroke="#ffb6be" d="M14 2h1M20 2h1" />
<path stroke="#ffb7be" d="M15 2h3M19 2h1M21 2h3M11 3h6M11 4h3M10 5h2M10 6h1" />
<path stroke="#ffb7bf" d="M18 2h1" />
<path stroke="#e78290" d="M17 3h1M19 3h7M14 4h11M13 5h14M11 6h11M23 6h1M26 6h1M10 7h7M19 7h3M23 7h4M12 10h8M21 10h4M26 10h5" />
<path stroke="#e78390" d="M18 3h1M12 5h1M24 6h1" />
<path stroke="#e68290" d="M25 4h1M22 6h1M17 7h1M22 7h1M20 10h1" />
<path stroke="#e78291" d="M25 6h1M18 7h1" />
<path stroke="#e56482" d="M10 8h3M14 8h1M16 8h1M18 8h9M28 8h1M11 9h8M20 9h3M24 9h4M29 9h2" />
<path stroke="#e46482" d="M13 8h1M23 9h1M28 9h1" />
<path stroke="#e56483" d="M15 8h1M19 9h1" />
<path stroke="#e56582" d="M17 8h1M27 8h1" />
<path stroke="#e78391" d="M25 10h1" />
</svg>