<svg xmlns="http://www.w3.org/2000/svg" viewBox="0 -0.5 38 38" shape-rendering="crispEdges">
<metadata>Made with Pixels to Svg https://codepen.io/shshaw/pen/XbxvNj</metadata>
<path stroke="#7124ee" d="M30 24h3M27 25h6M27 26h3M31 26h1M28 27h1M27 28h2" />
<path stroke="#6514dd" d="M26 26h1M26 27h1M30 27h1M26 28h1M29 28h1M26 29h1M28 29h1M27 30h1" />
<path stroke="#7024ee" d="M30 26h1" />
<path stroke="#7124ef" d="M27 27h1" />
<path stroke="#7125ee" d="M29 27h1M27 29h1" />
<path stroke="#5518ae" d="M29 29h1" />
<path stroke="#6515dd" d="M26 30h1" />
<path stroke="#5519ae" d="M28 30h1M26 31h2M26 32h1" />
</svg>