<svg xmlns="http://www.w3.org/2000/svg" viewBox="0 -0.5 38 38" shape-rendering="crispEdges">
<metadata>Made with Pixels to Svg https://codepen.io/shshaw/pen/XbxvNj</metadata>
<path stroke="#858585" d="M3 24h2M3 25h3M4 26h3M7 27h1M9 27h2M8 28h2M9 29h2" />
<path stroke="#a8a8a8" d="M5 24h2M6 25h4M8 26h2" />
<path stroke="#848585" d="M7 26h1M8 27h1" />
<path stroke="#636363" d="M10 26h1M10 28h1M7 29h1M10 30h1M10 32h1" />
<path stroke="#767676" d="M6 27h1M7 28h1M8 30h2M10 31h1" />
<path stroke="#777676" d="M8 29h1" />
<path stroke="#626363" d="M9 31h1" />
</svg>