<svg xmlns="http://www.w3.org/2000/svg" viewBox="0 -0.5 38 38" shape-rendering="crispEdges">
<metadata>Made with Pixels to Svg https://codepen.io/shshaw/pen/XbxvNj</metadata>
<path stroke="#7124ef" d="M3 24h1M5 25h1M9 27h2" />
<path stroke="#7124ee" d="M4 24h3M3 25h2M6 25h1M9 25h1M4 26h7M7 27h1M8 28h1M10 28h1M9 29h2M10 30h1" />
<path stroke="#7125ee" d="M7 25h2M8 27h1M9 28h1" />
<path stroke="#6514dd" d="M6 27h1M7 28h1M8 29h1M9 30h1M10 31h1" />
<path stroke="#5519ae" d="M7 29h1M8 30h1M9 31h1M10 32h1" />
</svg>