<svg xmlns="http://www.w3.org/2000/svg" viewBox="0 -0.5 38 38" shape-rendering="crispEdges">
<metadata>Made with Pixels to Svg https://codepen.io/shshaw/pen/XbxvNj</metadata>
<path stroke="#a8a8a8" d="M31 24h1M28 25h2M27 26h1" />
<path stroke="#858585" d="M32 24h1M32 25h1M28 26h3M26 27h4M27 28h2M27 29h1" />
<path stroke="#848585" d="M30 25h1" />
<path stroke="#858584" d="M31 25h1" />
<path stroke="#a8a9a8" d="M26 26h1" />
<path stroke="#858485" d="M31 26h1" />
<path stroke="#767776" d="M30 27h1" />
<path stroke="#636363" d="M26 28h1M29 29h1M26 30h1M28 30h1M27 31h1M26 32h1" />
<path stroke="#767676" d="M29 28h1M26 29h1M28 29h1M27 30h1M26 31h1" />
</svg>