<svg xmlns="http://www.w3.org/2000/svg" shape-rendering="crispEdges" viewBox="0 -0.5 38 38"><path stroke="#fcfaf6" d="M24 20h4m1 0h1m1 0h4m-6 1h1m2 0h2m-1 1h2m-10 1h1m7 0h2m-11 1h1m1 0h1m5 0h2m-9 1h3m3 0h4m-9 1h3m1 0h5m-11 1h3m1 0h4m1 0h1"/><path stroke="#fcfaf7" d="M28 20h1m-3 1h1m7 3h1m-11 1h1"/><path stroke="#fcfbf6" d="M30 20h1m-6 4h1m6 3h1"/><path stroke="#f3e9e1" d="M25 21h1m-1 1h1m-2 1h1"/><path stroke="#e6001a" d="M27 21h2m2 0h1m-6 1h1m1 0h4m-5 1h2m-2 1h1m1 2h1"/><path stroke="#e6001b" d="M30 21h1m-5 2h1"/><path stroke="#fdfaf6" d="M34 21h1m-11 5h2m1 1h1m6 0h1"/><path stroke="#ff3d3d" d="M27 22h1"/><path stroke="#d40017" d="M32 22h1m-5 2h4m-4 1h3"/><path stroke="#e6011a" d="M29 23h1"/><path stroke="#d40116" d="M30 23h1"/><path stroke="#d50017" d="M31 23h2"/></svg>