<svg xmlns="http://www.w3.org/2000/svg" shape-rendering="crispEdges" viewBox="0 -0.5 38 38"><path stroke="rgba(188,172,158,0.13333333333333333)" d="M31 0h2m1 0h3m-7 1h7m-7 1h1m1 0h3m-4 1h2m1 0h1m-7 1h1m2 0h4m-4 1h2m2 0h2"/><path stroke="rgba(188,173,158,0.13333333333333333)" d="M33 0h1m-6 5h1"/><path stroke="rgba(188,172,159,0.13333333333333333)" d="M31 2h1m3 0h1m-3 1h1m-1 2h1"/><path stroke="rgba(189,172,158,0.13333333333333333)" d="M36 4h1"/><path stroke="rgba(191,175,154,0.18823529411764706)" d="M28 6h1m2 0h3m-3 1h1m1 0h1m-2 1h2m1 0h1m-2 1h1m0 1h1m-3 1h2"/><path stroke="rgba(191,175,155,0.18823529411764706)" d="M29 7h1m2 0h1m1 3h1"/><path stroke="rgba(191,174,155,0.18823529411764706)" d="M34 7h1"/><path stroke="rgba(190,175,154,0.18823529411764706)" d="M34 8h1m-5 1h1"/><path stroke="rgba(191,174,154,0.18823529411764706)" d="M35 9h1m-1 2h1"/><path stroke="rgba(189,174,155,0.25882352941176473)" d="M32 12h3m-3 1h1m-1 1h2"/><path stroke="rgba(188,174,155,0.25882352941176473)" d="M33 13h1"/><path stroke="rgba(189,175,154,0.25882352941176473)" d="M36 14h1"/><path stroke="rgba(188,175,154,0.3568627450980392)" d="M32 15h1m0 1h1"/><path stroke="rgba(189,174,154,0.3568627450980392)" d="M33 15h1m-1 3h1"/><path stroke="rgba(188,174,154,0.3568627450980392)" d="M34 15h1m-1 1h1m-2 1h1"/><path stroke="#596a59" d="M31 18h1m-3 1h2m-3 1h3m-6 1h4"/><path stroke="#ffc82d" d="M32 18h1"/><path stroke="#8c4734" d="M31 19h1"/><path stroke="#ff8600" d="M32 19h1"/><path stroke="#8d4734" d="M33 19h1m-3 1h1m0 1h1"/><path stroke="#596a58" d="M27 20h1"/><path stroke="#c42f07" d="M32 20h1"/><path stroke="#8d4634" d="M33 20h1"/><path stroke="#4f564f" d="M29 21h2m-6 1h5"/><path stroke="#4f564e" d="M31 21h1"/></svg>