<svg xmlns="http://www.w3.org/2000/svg" shape-rendering="crispEdges" viewBox="0 -0.5 38 38"><path stroke="#eff2f4" d="M4 18h2"/><path stroke="rgba(210,227,244,0.6392156862745098)" d="M4 19h1m-1 1h1m0 1h1m-1 1h1"/><path stroke="rgba(132,135,135,0.40784313725490196)" d="M5 19h1m-1 1h1"/><path stroke="rgba(255,255,255,0.6392156862745098)" d="M3 21h1"/><path stroke="rgba(226,238,243,0.8823529411764706)" d="M4 21h1"/><path stroke="rgba(125,128,130,0.40784313725490196)" d="M6 21h1m-1 1h1"/><path stroke="rgba(197,219,241,0.6392156862745098)" d="M3 22h1"/><path stroke="rgba(226,239,243,0.8823529411764706)" d="M4 22h1m-1 1h1"/><path stroke="rgba(79,114,189,0.8784313725490196)" d="M3 23h1m2 0h1m-4 1h1m2 0h1m-4 1h1m2 0h1m-4 1h1m2 0h1m-4 1h1m2 0h1m-4 1h3"/><path stroke="rgba(108,147,205,0.9019607843137255)" d="M5 23h1"/><path stroke="rgba(227,239,243,0.8823529411764706)" d="M4 24h1"/><path stroke="rgba(108,147,204,0.9019607843137255)" d="M5 24h1m-2 1h2m-2 1h1m-1 1h2"/><path stroke="rgba(109,147,204,0.9019607843137255)" d="M5 26h1"/><path stroke="rgba(79,114,188,0.8784313725490196)" d="M6 28h1"/></svg>