<svg xmlns="http://www.w3.org/2000/svg" shape-rendering="crispEdges" viewBox="0 -0.5 38 38"><path stroke="#959595" d="M4 20h1m-4 2h1m1 10h1m0 1h1m1 0h1m1 0h1m-2 1h1"/><path stroke="#a2a2a2" d="M5 20h1m-4 2h1"/><path stroke="#d0d0d0" d="M6 20h1m-2 1h1m1 0h1m-4 1h1m1 0h1m-5 2h1m-1 1h1"/><path stroke="#cacaca" d="M7 20h1m-5 3h1"/><path stroke="#959495" d="M3 21h1"/><path stroke="#bdbdbd" d="M4 21h1m-3 2h1"/><path stroke="#cfcfcf" d="M6 21h1"/><path stroke="#b4b4b4" d="M8 21h1"/><path stroke="#bbb" d="M3 22h1"/><path stroke="#d0d0d1" d="M5 22h1"/><path stroke="#cdcccd" d="M7 22h1"/><path stroke="#b9b9b9" d="M8 22h2m-1 1h1m-2 1h2m-5 1h1m2 0h1m-4 1h1m-1 1h1m-4 1h1"/><path stroke="#b1b1b1" d="M10 22h1m-5 2h1m-1 1h1m-1 1h1m-1 1h1m-2 1h1m-4 2h1m-1 1h1"/><path stroke="#a2a2a3" d="M1 23h1"/><path stroke="#839aad" d="M4 23h2"/><path stroke="#8599aa" d="M6 23h1m-3 2h1"/><path stroke="#b9b9b8" d="M7 23h1"/><path stroke="#b8b9b9" d="M8 23h1m1 0h1m-8 7h1"/><path stroke="#a3a2a2" d="M1 24h1"/><path stroke="#bcbcbd" d="M3 24h1"/><path stroke="#8499aa" d="M4 24h1"/><path stroke="#cdcdcd" d="M5 24h1m-5 2h2m-1 1h1"/><path stroke="#536f86" d="M7 24h1"/><path stroke="#9d9d9d" d="M10 24h1m-2 1h2m-3 1h3m-3 1h3m-3 1h2m-3 1h3m-6 1h3m-4 1h5m-4 1h1m1 0h1m0 3h1"/><path stroke="#d1d1d1" d="M1 25h1"/><path stroke="#bbbaba" d="M3 25h1"/><path stroke="#536f87" d="M7 25h1m-1 1h1"/><path stroke="#bababa" d="M3 26h1"/><path stroke="#4b657d" d="M4 26h1m-1 1h1m-1 1h1m-1 1h1"/><path stroke="#c7c7c7" d="M1 27h1m-1 1h1"/><path stroke="#9e9e9e" d="M3 27h1m-3 2h1m1 0h1"/><path stroke="#0c3256" d="M7 27h1"/><path stroke="#9e9e9f" d="M3 28h1"/><path stroke="#919191" d="M6 28h1m3 0h1m-2 2h1m-2 1h2m-3 1h1m-4 2h1m1 0h1m-3 1h3"/><path stroke="#0c3356" d="M7 28h1"/><path stroke="#b9b8b9" d="M2 29h1"/><path stroke="#002547" d="M5 29h2"/><path stroke="#767676" d="M10 29h1m-2 3h1m-5 4h2"/><path stroke="#9d9c9d" d="M7 30h1"/><path stroke="#9c9d9d" d="M8 30h1m-4 2h1"/><path stroke="#a1a1a1" d="M2 32h1"/><path stroke="#919190" d="M8 32h1"/><path stroke="#949595" d="M3 33h1"/><path stroke="#929292" d="M5 33h1m1 0h1"/><path stroke="#7b7a7a" d="M3 34h1"/><path stroke="#919091" d="M5 34h1"/><path stroke="#7a7a7a" d="M8 34h1"/></svg>