<svg xmlns="http://www.w3.org/2000/svg" shape-rendering="crispEdges" viewBox="0 -0.5 38 38"><path stroke="#4c5076" d="M31 20h1"/><path stroke="#4d5076" d="M32 20h3m0 1h1m-7 1h1m2 0h2m2 0h1m-8 1h1m2 0h1m-4 1h1m2 0h2m-5 1h1m2 0h1m3 0h1m-7 1h1m4 0h1m-5 1h4"/><path stroke="#4d5176" d="M30 21h1m3 2h1"/><path stroke="#fff" d="M31 21h2m-3 1h1"/><path stroke="#fafafa" d="M33 21h2m-1 1h1m-5 1h2m1 0h1m-4 1h2m2 0h1m-5 1h1m2 0h1"/><path stroke="#fbfafb" d="M31 22h1"/><path stroke="#f6f7f7" d="M35 22h1"/><path stroke="#f7f7f7" d="M35 23h1m-1 1h1m-2 1h1m-4 1h4"/><path stroke="#4d5077" d="M36 23h1m-1 1h1"/><path stroke="#fafafb" d="M31 25h1"/><path stroke="#f7f6f7" d="M35 25h1"/><path stroke="#64366a" d="M30 28h1m4 0h1m-7 1h1m6 0h1m-5 1h2m2 0h1m-8 1h3m2 0h2"/><path stroke="#eabee2" d="M31 28h4m-5 1h2m2 0h2m-6 1h1"/><path stroke="#c894bf" d="M32 29h1m-2 1h1m3 0h1"/><path stroke="#c994bf" d="M33 29h1m0 1h1"/><path stroke="#64376a" d="M29 30h1m6 1h1"/></svg>