<svg xmlns="http://www.w3.org/2000/svg" shape-rendering="crispEdges" viewBox="0 -0.5 38 38"><path stroke="#959595" d="M30 20h1m-2 1h1m-3 1h1m1 10h1m-1 1h2m2 1h1"/><path stroke="#a2a2a2" d="M31 20h1m-4 2h1m-2 1h1m-1 1h1"/><path stroke="#d0d0d0" d="M32 20h1m-2 1h1m0 1h1m-5 2h1m-2 1h2"/><path stroke="#cacaca" d="M33 20h1m-5 3h1"/><path stroke="#bdbdbd" d="M30 21h1"/><path stroke="#cfcecf" d="M32 21h1"/><path stroke="#d1d0d0" d="M33 21h1"/><path stroke="#b4b4b4" d="M34 21h1"/><path stroke="#bbb" d="M29 22h1"/><path stroke="#d0d0d1" d="M30 22h1"/><path stroke="#d0d1d0" d="M31 22h1"/><path stroke="#cdcdcd" d="M33 22h1m-3 2h1m-5 2h2m-1 1h1"/><path stroke="#b9b9b9" d="M34 22h2m-3 1h2m1 0h1m-3 1h1m-4 1h1m2 0h1m-4 1h1m-1 1h1m-4 1h1m-1 1h1m0 1h1"/><path stroke="#b1b1b1" d="M36 22h1m-5 2h1m-1 1h1m-1 1h1m-1 1h1m-2 1h1m-4 3h1"/><path stroke="#bcbdbd" d="M28 23h1"/><path stroke="#829aad" d="M30 23h1"/><path stroke="#839aac" d="M31 23h1"/><path stroke="#8599aa" d="M32 23h1m-3 2h1"/><path stroke="#b9b9b8" d="M35 23h1m-1 1h1"/><path stroke="#bcbcbc" d="M29 24h1"/><path stroke="#8598aa" d="M30 24h1"/><path stroke="#536f87" d="M33 24h1m-1 1h1m-1 1h1"/><path stroke="#9d9d9d" d="M36 24h1m-2 1h2m-2 1h2m-3 1h1m1 0h1m-3 1h1m-1 1h2m-6 1h5m-6 1h3m-2 1h3m0 3h1"/><path stroke="#bbbaba" d="M29 25h1"/><path stroke="#bababa" d="M29 26h1"/><path stroke="#4b657d" d="M30 26h1m-1 1h1m-1 1h1"/><path stroke="#9c9d9d" d="M34 26h1m0 2h1"/><path stroke="#c7c7c7" d="M27 27h1"/><path stroke="#9e9e9e" d="M29 27h1m-3 2h1m1 0h1"/><path stroke="#0c3356" d="M33 27h1m-1 1h1"/><path stroke="#9d9c9c" d="M35 27h1"/><path stroke="#c7c6c7" d="M27 28h1"/><path stroke="#9e9f9e" d="M29 28h1"/><path stroke="#919191" d="M32 28h1m3 0h1m-2 2h1m-2 1h2m-3 1h2m-5 2h3m-3 1h1"/><path stroke="#4a647d" d="M30 29h1"/><path stroke="#002547" d="M31 29h2"/><path stroke="#9d9c9d" d="M33 29h1m-2 2h2"/><path stroke="#767676" d="M36 29h1m-2 3h1m-5 4h1"/><path stroke="#b0b1b1" d="M28 30h1"/><path stroke="#a1a1a1" d="M28 32h1"/><path stroke="#929292" d="M31 33h1"/><path stroke="#949595" d="M32 33h1m1 0h1"/><path stroke="#929392" d="M33 33h1"/><path stroke="#7b7a7a" d="M29 34h1"/><path stroke="#7a7a7a" d="M34 34h1"/><path stroke="#919091" d="M31 35h1"/><path stroke="#909191" d="M32 35h1"/><path stroke="#767776" d="M32 36h1"/></svg>