<svg xmlns="http://www.w3.org/2000/svg" shape-rendering="crispEdges" viewBox="0 -0.5 38 38"><path stroke="#bd5a02" d="M29 18h1"/><path stroke="#b04b00" d="M30 18h1"/><path stroke="#ffc96d" d="M31 18h4"/><path stroke="#b04a00" d="M35 18h1"/><path stroke="#bd5b02" d="M36 18h1"/><path stroke="#a24501" d="M28 19h1"/><path stroke="#a24500" d="M29 19h1"/><path stroke="#873900" d="M30 19h1m-1 1h1m4 0h2m-5 3h2"/><path stroke="#ffb83f" d="M31 19h4m-4 1h3"/><path stroke="#843800" d="M35 19h2m-9 1h2"/><path stroke="#feb83f" d="M34 20h1"/><path stroke="#6d2200" d="M29 21h2m5 0h1m-5 1h1"/><path stroke="#f0a424" d="M31 21h2"/><path stroke="#f0a629" d="M33 21h2"/><path stroke="#6d2300" d="M35 21h1"/><path stroke="#6d2201" d="M33 22h1"/><path stroke="#964507" d="M32 24h2"/><path stroke="#6a2100" d="M32 25h2m-2 3h2m-2 1h2"/><path stroke="#813802" d="M32 26h2m-2 1h2"/></svg>