<svg xmlns="http://www.w3.org/2000/svg" shape-rendering="crispEdges" viewBox="0 -0.5 38 38"><path stroke="#929b9d" d="M29 19h1m3 10h1m1 1h1"/><path stroke="#929b9c" d="M30 19h1m6 7h1m-6 3h1m4 0h1m-5 1h2m1 0h1m-3 1h1m-3 1h1m-2 1h2"/><path stroke="#707677" d="M31 19h1m-2 1h1m1 0h1m-2 1h1m2 5h2m-3 1h4m-3 1h1m1 0h1m-6 1h1m0 1h1m-2 2h1"/><path stroke="#b3d9e9" d="M32 19h1m1 0h1m0 1h2m-7 4h1m1 1h1"/><path stroke="#b3d9e8" d="M33 19h1"/><path stroke="#53565c" d="M28 20h2m0 1h1m-1 1h1m5 2h2m-3 1h3m-6 3h1m1 1h3m-6 1h1m-1 1h3"/><path stroke="#717777" d="M31 20h1"/><path stroke="#889ea8" d="M33 20h1m3 2h1m-3 1h2m-3 2h1m-3 1h2"/><path stroke="#899ea9" d="M34 20h1"/><path stroke="#b2d9e9" d="M37 20h1"/><path stroke="#53565d" d="M29 21h1m3 7h1"/><path stroke="#889ea9" d="M32 21h1m0 4h1"/><path stroke="#5c6569" d="M33 21h1m2 1h1"/><path stroke="#64747e" d="M34 21h2m-2 1h2"/><path stroke="#9cbed1" d="M36 21h1m-4 1h1m-4 3h2m-1 1h1"/><path stroke="#b3d8e9" d="M37 21h1m-7 3h1"/><path stroke="rgba(155,190,210,0.5725490196078431)" d="M26 22h1m-1 5h1m-1 1h1m1 4h1"/><path stroke="rgba(147,155,155,0.5725490196078431)" d="M27 22h1m-1 6h1m1 5h2"/><path stroke="#697487" d="M31 22h1m2 2h2m-8 1h1m2 2h1m-2 2h1"/><path stroke="#7e9cb3" d="M32 22h1m-2 1h1m1 0h2m-3 1h2m-5 1h1m-1 1h2m-1 1h1"/><path stroke="rgba(178,217,233,0.5725490196078431)" d="M25 23h1"/><path stroke="#7e9db3" d="M32 23h1"/><path stroke="#707676" d="M37 23h1m-2 3h1m-2 2h1m1 0h1"/><path stroke="#a5bdc6" d="M29 24h1m0 4h2"/><path stroke="rgba(178,217,232,0.5725490196078431)" d="M25 26h1m-1 1h1m2 4h1"/><path stroke="#697586" d="M32 27h1"/><path stroke="#717677" d="M37 27h1"/><path stroke="rgba(154,190,210,0.5725490196078431)" d="M29 32h1"/><path stroke="rgba(84,87,93,0.5725490196078431)" d="M35 32h1"/><path stroke="#52565c" d="M31 34h1"/></svg>