<svg xmlns="http://www.w3.org/2000/svg" shape-rendering="crispEdges" viewBox="0 -0.5 38 38"><path stroke="#000" d="M6 23h2m-3 1h1m-1 1h1m-1 2h1m-1 1h1"/><path stroke="#000001" d="M8 24h1"/><path stroke="#000100" d="M5 26h1"/><path stroke="#29d940" d="M4 28h1m-1 5h2"/><path stroke="#28d940" d="M6 28h1m-3 1h2m1 0h1m-5 1h3m-3 1h3m-3 1h3m-3 1h1m-1 1h1m1 0h1m-2 1h1m-1 1h1"/><path stroke="#28d941" d="M3 29h1m2 0h1"/><path stroke="#1eba64" d="M6 30h2m-2 1h2m-2 1h2m-2 1h1m-1 1h2m-3 1h2m-2 1h2m-2 1h2"/><path stroke="#1ebb64" d="M7 33h1"/><path stroke="#28d840" d="M4 34h1m-1 3h1"/></svg>