<svg xmlns="http://www.w3.org/2000/svg" shape-rendering="crispEdges" viewBox="0 -0.5 38 38"><path stroke="#000" d="M28 24h2m-3 1h1m2 0h1m-1 2h1m-1 1h1m-1 1h1"/><path stroke="#000100" d="M30 26h1"/><path stroke="#e78290" d="M29 29h1m1 0h1m-4 1h5m-3 1h3m-2 1h2m-3 1h3m-3 1h1m1 0h1m-3 1h3m-2 1h1"/><path stroke="#e56483" d="M28 31h1m0 4h1"/><path stroke="#e56482" d="M29 31h1m-2 1h2m-2 1h2m-2 1h1m-1 1h1m0 1h2m-2 1h1"/><path stroke="#e78390" d="M30 32h1m0 2h1"/><path stroke="#e56582" d="M29 34h1"/><path stroke="#e46482" d="M30 37h1"/><path stroke="#e78291" d="M31 37h1"/></svg>