<svg xmlns="http://www.w3.org/2000/svg" shape-rendering="crispEdges" viewBox="0 -0.5 38 38"><path stroke="#000" d="M6 23h1m-2 1h1m2 0h1m-4 1h1m-1 1h1m-1 1h1m-1 1h1"/><path stroke="#010000" d="M7 23h1"/><path stroke="#1823e1" d="M4 28h1m1 0h1m-4 1h3m1 0h1m-5 1h2m-2 1h3m-3 1h3m-3 1h3m-3 1h2m-1 1h1m-1 1h1m-1 1h1"/><path stroke="#1923e1" d="M6 29h1"/><path stroke="#1923e0" d="M5 30h1"/><path stroke="#0b15c9" d="M6 30h2m-2 1h2m-2 1h2m-2 1h1m-1 1h2m-3 1h2m-2 1h2m-2 1h2"/><path stroke="#0b14c9" d="M7 33h1"/><path stroke="#1823e0" d="M5 34h1"/></svg>