<svg xmlns="http://www.w3.org/2000/svg" shape-rendering="crispEdges" viewBox="0 -0.5 38 38"><path stroke="#fbf236" d="M5 14h1m-2 1h2m-1 1h1m-4 1h2m1 0h1m1 0h2m-8 1h1m1 0h1m2 0h3m-4 1h1m-3 1h2m1 0h1m-4 1h1m2 0h1"/><path stroke="#fbf237" d="M6 15h1"/><path stroke="#fbf336" d="M4 16h1m-3 2h1"/><path stroke="#ffd85e" d="M6 16h1m-3 1h1m1 0h1m-2 1h1m3 0h1m-8 1h3m1 0h3m-4 1h1m1 0h1m-4 1h1m2 0h1m-5 1h1m3 0h1"/><path stroke="#faf236" d="M4 18h1"/><path stroke="#c856ac" d="M5 21h1"/><path stroke="#ff79df" d="M5 22h1m-1 1h1m-1 1h1m-1 1h1m-1 1h1"/><path stroke="#c856ad" d="M5 27h1"/></svg>