<svg xmlns="http://www.w3.org/2000/svg" shape-rendering="crispEdges" viewBox="0 -0.5 38 38"><path stroke="#fbf336" d="M32 14h1m-2 4h1"/><path stroke="#fbf236" d="M31 15h2m-2 1h2m-4 1h2m1 0h1m1 0h1m-7 1h2m3 0h3m-4 1h1m-3 1h2m1 0h1m-4 1h1m2 0h1"/><path stroke="#faf236" d="M33 15h1m1 2h1m-6 1h1"/><path stroke="#ffd85e" d="M33 16h1m-3 1h1m1 0h1m-2 1h1m3 0h1m-8 1h3m1 0h3m-4 1h1m1 0h1m-4 1h1m2 0h1m-5 1h1m3 0h1"/><path stroke="#c856ad" d="M32 21h1m-1 6h1"/><path stroke="#ff79df" d="M32 22h1m-1 1h1m-1 2h1m-1 1h1"/><path stroke="#fe78df" d="M32 24h1"/></svg>