<svg xmlns="http://www.w3.org/2000/svg" shape-rendering="crispEdges" viewBox="0 -0.5 38 38"><path stroke="#ffb7be" d="M7 16h1m-2 1h1m-1 1h1m-2 1h2m-2 1h1m-1 1h1m-2 1h2m-2 1h2m-2 2h1m-2 1h2m-2 1h2m-3 2h2m-2 1h2m-2 1h1m-2 2h1m-1 1h2m-2 2h1m-1 1h1"/><path stroke="#e78290" d="M8 16h2m-3 1h1m1 0h1m-3 1h1m-1 1h1m-1 1h1m-2 1h1m-1 1h1m-2 2h1m-1 1h1m-2 3h1m-2 4h1m-2 3h1m-1 1h1m-1 1h1"/><path stroke="#b4465f" d="M8 17h1"/><path stroke="#e78390" d="M8 18h1"/><path stroke="#e56482" d="M9 18h1m-2 1h1m-1 1h1m-2 1h1m-1 1h1m-2 1h1m-1 1h1m-1 1h1m-2 1h1m-1 1h1m-1 1h1m-2 1h1m-1 1h1m-1 1h1m-1 1h1m-2 1h1m-1 1h1m-1 2h1m-1 1h1"/><path stroke="#feb7be" d="M6 20h1"/><path stroke="#ffb6be" d="M4 24h1m-3 8h1m-1 1h1"/><path stroke="#ffb7bf" d="M3 28h1m-3 7h1"/><path stroke="#e68290" d="M3 31h1"/><path stroke="#e46582" d="M3 35h1"/></svg>