<svg xmlns="http://www.w3.org/2000/svg" shape-rendering="crispEdges" viewBox="0 -0.5 38 38"><path stroke="#000" d="M6 23h2m-3 1h1m2 0h1m-4 1h1m-1 2h1m-1 1h1"/><path stroke="#000001" d="M5 26h1"/><path stroke="#e78290" d="M4 28h1m1 0h1m-4 1h5m-5 1h3m-3 1h3m-3 1h2m-2 1h3m-3 1h1m1 0h1m-2 1h1m-1 1h1m-1 1h1"/><path stroke="#e56482" d="M6 30h2m-2 1h2m-2 1h2m-2 1h2m-2 1h1m-2 1h2m-2 1h2m-2 1h1"/><path stroke="#e78291" d="M5 32h1"/><path stroke="#e78390" d="M4 34h1"/><path stroke="#e56583" d="M7 34h1"/><path stroke="#e56582" d="M6 37h1"/></svg>