<svg xmlns="http://www.w3.org/2000/svg" shape-rendering="crispEdges" viewBox="0 -0.5 38 38"><path stroke="#dccac3" d="M0 0h6m1 0h1m4 0h15m4 0h6"/><path stroke="#ddcac3" d="M6 0h1"/><path stroke="#e5dedd" d="M8 0h1m1 0h2m15 0h4M7 1h6m13 0h6M7 2h5m13 0h8M6 3h8m11 0h2m1 0h5M7 4h7m10 0h1m1 0h1m1 0h3m1 0h2M5 5h3m1 0h3m1 0h2m9 0h5m1 0h3M7 6h8m9 0h1m1 0h4m1 0h4M5 7h6m1 0h3m10 0h2m1 0h4m1 0h2M6 8h7m12 0h4m1 0h5M8 9h2m16 0h1m1 0h4m1 0h1m-6 1h3"/><path stroke="#e4dedd" d="M9 0h1m15 4h1M8 5h1m24 0h1M24 7h1m2 0h1m3 3h1"/><path stroke="#dccac2" d="M37 0h1"/><path stroke="#d3c4bb" d="M0 1h7m6 0h8m1 0h3m7 0h3m1 0h2M0 2h7m6 0h1m1 0h3m1 0h5m9 0h5M2 3h1m2 0h1m8 0h1m1 0h3m1 0h5m8 0h5M0 4h6m8 0h10m10 0h4M0 5h1m1 0h2m13 0h7m10 0h3M0 6h1m2 0h2m10 0h3m1 0h2m1 0h1m12 0h3M0 7h2m1 0h1m13 0h6m12 0h3M0 8h2m1 0h1m13 0h2m1 0h2m14 0h2M0 9h1m16 0h5m15 0h1M1 10h1m15 0h4m16 0h1M1 11h1m16 0h1m-1 1h2M0 13h1m17 0h2M0 14h1"/><path stroke="#d2c4bb" d="M21 1h1m3 0h1m9 0h1M24 2h1M3 3h2m11 2h1M2 6h1m15 0h1m2 0h1M2 7h1m13 0h1M2 8h1m16 3h1m17 0h1"/><path stroke="#e5dfdd" d="M12 2h1m18 2h1m-7 2h1m4 0h1M11 7h1m20 0h1M11 9h1m20 0h1"/><path stroke="#d3c5bb" d="M14 2h1m3 0h1m-4 1h1m-1 2h1M0 10h1m1 0h1m-3 1h1m19 0h1M0 12h1"/><path stroke="#d3c4ba" d="M0 3h1m0 2h1m2 0h1M1 6h1m14 2h1M1 9h2m33 0h1"/><path stroke="#d2c5bb" d="M1 3h1m-1 9h1"/><path stroke="#d2c4ba" d="M19 3h1"/><path stroke="#e5dfdc" d="M27 3h1"/><path stroke="#e5dedc" d="M6 4h1m20 0h1M12 5h1m16 0h1M5 6h2m6 2h1m15 0h1M10 9h1m16 0h1"/><path stroke="#d3c5ba" d="M37 5h1M19 8h1"/><path stroke="#e3ddd9" d="M23 6h1M4 7h1m10 0h1m7 0h1M4 8h1m9 0h2m6 0h2m11 0h1M3 9h5m4 0h1m1 0h3m5 0h2m1 0h1m8 0h2M3 10h5m1 0h4m1 0h1m6 0h7m5 0h2m1 0h1M2 11h3m1 0h7m1 0h4m3 0h2m1 0h5m1 0h1m1 0h2m1 0h2M3 12h7m1 0h7m4 0h15M5 13h2m1 0h5m1 0h1m1 0h1m6 0h9m1 0h2M5 14h10m11 0h5m1 0h3M7 15h7m12 0h7"/><path stroke="#e2ddd9" d="M5 8h1m9 2h2m15 0h1M5 11h1m17 0h1m7 0h1M4 13h1m2 0h1m17 1h1"/><path stroke="#e3ddd8" d="M24 8h1M13 9h1m10 0h1m-12 1h1m21 0h1m-2 1h1m-3 2h1m2 0h1m-21 1h1m15 0h1"/><path stroke="#e3dcd9" d="M8 10h1m20 1h1m-17 2h1m1 0h1m8 1h1"/><path stroke="#e2dcd9" d="M13 11h1m-4 1h1"/><path stroke="#e3d9d5" d="M2 12h1m17 0h1m16 0h1M1 13h3m13 0h1m2 0h3m13 0h2M1 14h3m12 0h2m1 0h5m11 0h3M1 15h2m1 0h3m7 0h1m1 0h9m8 0h1m1 0h2M0 16h2m1 0h16m3 0h5m1 0h1m2 0h2m2 0h3M2 17h33m1 0h2M0 18h3m3 0h11m1 0h3m1 0h6m2 0h8M0 19h11m1 0h7m1 0h5m1 0h5m1 0h1m1 0h4M0 20h6m3 0h2m2 0h4m1 0h1m1 0h9m1 0h2m2 0h4M0 21h7m1 0h5m1 0h1m2 0h8m1 0h1m1 0h1m1 0h1m1 0h1m1 0h1M0 22h12m1 0h2m1 0h14m2 0h5M0 23h2m1 0h1m1 0h1m1 0h7m1 0h9m2 0h4m1 0h5m1 0h1M0 24h3m3 0h4m1 0h4m2 0h1m1 0h10m1 0h2m1 0h5M1 25h4m1 0h4m1 0h3m1 0h7m1 0h3m1 0h1m1 0h9M0 26h5m1 0h3m1 0h9m1 0h6m1 0h4m2 0h5M0 27h1m1 0h15m1 0h15m1 0h4M0 28h14m1 0h6m2 0h8m1 0h2m2 0h2M0 29h5m1 0h1m1 0h2m1 0h13m1 0h12M0 30h1m1 0h5m1 0h4m1 0h2m1 0h12m1 0h2m1 0h6M0 31h2m1 0h1m1 0h4m1 0h2m1 0h14m1 0h5m1 0h4"/><path stroke="#e2d9d5" d="M21 12h1M4 14h1m13 0h1m18 1h1m-19 1h1m8 2h1m-18 1h1m21 0h1M8 20h1m3 0h1m4 0h1m-3 1h1m21 0h1m-8 1h2M3 24h1m28 0h1M0 25h1m4 0h1m20 1h1m-6 2h1M5 29h1m18 0h1M1 30h1m26 0h1m2 0h1"/><path stroke="#e3d8d5" d="M0 15h1m14 0h1m4 1h1m14 1h1M4 18h2m11 0h1m11 0h1m1 1h1m-21 1h1m7 0h1m9 0h1m2 0h1m-17 1h1m8 0h1m3 0h1m1 0h1m5 1h1M2 23h1m21 0h2m4 0h1m5 0h1m-22 1h1m2 0h1m-9 1h1m15 0h1m1 0h1M9 26h1m22 0h1M1 27h1m15 0h1m16 1h2M7 29h1m29 0h1M2 31h1m1 0h1m7 0h1m14 0h1"/><path stroke="#e2d9d4" d="M3 15h1m29 12h1"/><path stroke="#e3d9d4" d="M25 15h1m8 0h1M2 16h1m18 0h1m5 0h1m1 0h2m2 0h2M0 17h2m1 1h1m17 0h1m-3 1h1m5 0h1M6 20h2m25 0h1M7 21h1m5 0h1m13 0h1m5 0h1m1 0h2m-25 1h1m2 0h1M4 23h1m1 0h1m7 0h1M4 24h2m4 0h1m18 0h1m-16 1h1m7 0h1M5 26h1m13 0h1m11 0h1m-18 2h1m7 0h1m8 0h1m-22 1h1m1 1h1m20 1h1"/><path stroke="#e2d8d5" d="M16 24h1m-2 6h1m-7 1h1"/><path stroke="#e3d8d4" d="M7 30h1"/><path stroke="#583823" d="M0 32h4m2 0h6m1 0h2m2 0h2m1 0h5m1 0h12M0 33h1m1 0h1m1 0h4m1 0h2m1 0h1m1 0h3m1 0h13m1 0h5M5 36h1m7 0h1m15 0h1m7 0h1M5 37h1m7 0h1m7 0h1m7 0h1m7 0h1"/><path stroke="#593823" d="M4 32h1m7 0h1m6 0h1m5 0h1M3 33h1m33 0h1m-17 3h1"/><path stroke="#583822" d="M5 32h1m9 0h2m-6 1h1m5 0h1"/><path stroke="#583923" d="M1 33h1m6 0h1m4 0h1m17 0h1"/><path stroke="#4e311f" d="M0 34h1m1 0h4m1 0h23m1 0h7M5 35h2m6 0h2m6 0h2m6 0h2m6 0h1M0 36h1m1 0h3m3 0h5m3 0h2m1 0h2m1 0h1m1 0h5m1 0h1m1 0h5M0 37h5m1 0h1m1 0h4m2 0h1m1 0h1m2 0h2m1 0h1m1 0h3m1 0h1m1 0h1m1 0h5"/><path stroke="#4e301f" d="M1 34h1m-1 2h1m10 1h1"/><path stroke="#4f311f" d="M6 34h1m23 0h1M6 36h1m11 1h1"/><path stroke="#3f291b" d="M0 35h4m3 0h6m2 0h5m3 0h2m1 0h3m2 0h3m1 0h2m-22 1h1m7 0h1m7 0h1M7 37h1m7 0h1m7 0h1m7 0h1"/><path stroke="#3f281b" d="M4 35h1"/><path stroke="#3f291a" d="M20 35h1"/><path stroke="#3e291b" d="M25 35h1m8 0h1M7 36h1"/><path stroke="#4e311e" d="M14 36h1m3 0h1m-2 1h1m9 0h1"/></svg>