<svg xmlns="http://www.w3.org/2000/svg" shape-rendering="crispEdges" viewBox="0 -0.5 38 38"><path stroke="#02042b" d="M0 0h6m1 0h12m1 0h1m1 0h16M1 1h2m1 0h7m1 0h2m2 0h1m1 0h1m1 0h9m1 0h4m1 0h3M0 2h6m1 0h1m1 0h1m2 0h11m1 0h1m1 0h3m1 0h4m1 0h3M0 3h3m1 0h6m1 0h1m2 0h10m1 0h5m3 0h1m1 0h1m1 0h1M0 4h12m1 0h1m1 0h15m1 0h7M0 5h13m2 0h13m1 0h2m1 0h3m1 0h2M0 6h9m1 0h10m2 0h5m1 0h3m1 0h1m1 0h4M0 7h18m1 0h7m1 0h4m1 0h6M0 8h7m1 0h5m1 0h2m1 0h4m1 0h2m1 0h4m1 0h3m1 0h3M0 9h10m1 0h13m1 0h2m1 0h7m1 0h2M0 10h11m2 0h6m1 0h5m1 0h7m2 0h3M0 11h7m1 0h4m2 0h6m2 0h8m1 0h7M0 12h2m1 0h1m1 0h4m1 0h10m1 0h17M0 13h6m1 0h2m1 0h7m1 0h7m1 0h4m1 0h7M0 14h6m1 0h1m1 0h12m1 0h1m1 0h1m1 0h4m1 0h7M1 15h8m1 0h3m1 0h1m1 0h2m1 0h8m1 0h4m1 0h5M0 16h9m2 0h4m1 0h3m1 0h2m1 0h13m1 0h1M0 17h13m1 0h4m1 0h9m1 0h9M0 18h13m1 0h4m1 0h4m1 0h6m1 0h4m1 0h2M0 19h1m1 0h7m1 0h1m1 0h25M0 20h1m1 0h2m1 0h7m1 0h1m1 0h2m1 0h1m2 0h4m2 0h6m1 0h2m1 0h1M0 21h6m1 0h12m1 0h8m1 0h5m1 0h3M0 22h6m1 0h20m1 0h3m2 0h3m1 0h1M0 23h5m1 0h8m1 0h9m1 0h2m2 0h1m1 0h3m2 0h1M1 24h1m1 0h2m1 0h3m1 0h4m1 0h7m1 0h7m1 0h7M0 25h7m2 0h11m1 0h7m1 0h5m1 0h3M0 26h7m1 0h3m1 0h7m1 0h2m2 0h11m1 0h2M1 27h11m1 0h11m1 0h2m1 0h6m2 0h2M0 28h2m1 0h1m1 0h4m1 0h13m5 0h6m2 0h2M0 29h2m1 0h2m1 0h10m2 0h13m1 0h6M0 30h7m1 0h6m1 0h2m1 0h4m1 0h1m1 0h1m1 0h1m1 0h4m1 0h1M0 31h1m1 0h1m1 0h25m1 0h2m1 0h5M0 32h3m1 0h15m1 0h1m1 0h7m3 0h5M1 33h3m1 0h2m1 0h5m1 0h8m1 0h11m1 0h3M0 34h5m1 0h2m1 0h2m2 0h2m1 0h16m2 0h3M0 35h9m2 0h3m1 0h7m1 0h1m2 0h12M0 36h7m1 0h11m1 0h4m1 0h2m2 0h3m1 0h1m1 0h3M0 37h4m1 0h2m1 0h1m1 0h4m1 0h2m1 0h3m1 0h16"/><path stroke="#03042b" d="M6 0h1m7 1h2m-4 2h1m11 0h1m6 0h1M13 5h2m13 0h1M9 6h1M7 8h1m5 0h1m7 0h1m5 1h1m-17 1h1m22 0h1m-14 1h1M2 12h1m3 1h1m10 0h1M6 14h1m16 0h1m6 0h1M9 15h1m5 0h1m11 0h1M9 16h1m9 0h1m16 0h1m-19 1h1m-6 1h1m16 0h1M9 19h1m1 0h1M1 20h1m10 0h1m1 0h1m4 0h1m5 0h1m7 0h1m-15 1h1m8 0h1m5 0h1m1 1h1m-23 1h1m19 0h1m-5 1h1M8 25h1m19 0h1m-7 1h1M4 28h1m4 0h1m17 0h1m6 0h1m1 2h2m-9 1h1m2 0h1m-2 1h1M7 33h1m14 0h1m11 0h1M8 34h1m0 1h2m13 0h1m-1 1h1m3 0h1m3 0h1m-19 1h1"/><path stroke="#02052b" d="M19 0h1m1 0h1m7 1h1M6 2h1m1 0h1m1 0h1m12 0h1m1 0h1m3 0h1m4 0h1M3 3h1m26 0h1M12 4h1m18 1h1m3 0h1M16 8h1m12 0h1M10 9h1m1 1h1m12 0h1M7 11h1m22 0h1M9 12h1m-1 1h1m20 0h1m-10 1h1m3 0h1M0 15h1m12 0h1m4 3h1m16 0h1M1 19h1m35 0h1m-18 1h1m15 0h1M6 22h1m20 0h1m3 0h1M5 23h1m18 0h1m2 0h1m2 0h1m-17 1h1m5 1h1m13 0h1m-24 1h1m11 0h1m11 0h1m-24 1h1m14 0h1m6 0h1m-11 1h1m1 0h1m8 0h1M2 29h1m2 0h1m25 0h1m-18 1h1m2 0h1M1 31h1m19 1h1m8 0h1m6 0h1M0 33h1m3 0h1m0 1h1m5 0h1m20 0h2m3 0h1m-16 1h1m4 1h1M4 37h1m12 0h1"/><path stroke="#02042a" d="M0 1h1m2 0h1m7 0h1m5 0h1m1 0h1m14 0h1M11 2h1m-2 1h1m2 0h1m18 0h1m1 0h1m1 0h1M14 4h1m15 0h1M21 6h1m5 0h1m3 0h1m1 0h1M18 7h1m7 0h1m4 0h1m-8 1h1m8 0h1M24 9h1m10 0h1m-17 1h1m13 0h1m-22 1h2M4 12h1m15 0h1m4 1h1M8 14h1m23 1h1m-23 1h1m11 0h1m-10 1h1m14 0h1m-6 1h1M4 20h1m21 0h1M6 21h1m25 1h1m-5 1h1m6 0h1m1 0h1M0 24h1m1 0h1m6 0h1m12 0h1M7 26h1m11 0h1M0 27h1m23 0h1m10 0h1M2 28h1m20 0h1m1 0h1m-10 1h2M7 30h1m14 0h1m1 0h1m1 0h1m1 0h1m4 0h1m1 0h1M3 31h1m-1 1h1m25 0h1m-17 1h1m-2 1h1m2 0h1m-2 1h1m10 0h1M7 36h1m11 0h1m14 0h1M7 37h1m1 0h1m11 0h1"/><path stroke="#02052a" d="M20 6h1m16 2h1m-23 8h1"/><path stroke="#03042a" d="M20 11h1"/><path stroke="#03052b" d="M18 15h1M5 24h1m1 1h1m11 7h1"/><path stroke="#03052a" d="M17 20h1"/></svg>