<svg xmlns="http://www.w3.org/2000/svg" shape-rendering="crispEdges" viewBox="0 -0.5 38 38"><path stroke="#02052b" d="M0 0h1m2 0h1m5 0h1m1 0h1m3 0h1M9 1h1m19 0h1M1 2h1m23 0h1M15 3h1m3 0h1m12 0h1M15 5h1m6 0h1m-2 1h1m13 2h1m-4 1h1m2 0h1m-8 2h1M9 12h1m26 0h1m-5 1h1M6 14h1m5 0h1m6 1h1m12 1h1m-17 1h1m16 1h1m-24 1h1m15 0h1m-10 1h1m7 0h1m-11 1h1m15 0h1m-3 1h1M1 23h1m12 0h1m2 0h1m4 0h1M4 24h1m3 1h1m6 0h1m4 0h1m3 0h1m6 0h1m-1 2h1m-13 1h1m8 0h1m-16 1h1m16 0h1m3 0h1m-25 1h1m9 2h1m15 0h1m-24 1h1m20 0h1m-19 2h1m-1 2h1m8 0h1"/><path stroke="#03042b" d="M1 0h1m5 0h1m13 0h1m1 0h1m8 0h1M17 1h1m18 0h1M10 2h1m-1 1h1m20 0h1m5 1h1M7 5h1m4 0h1m1 0h1m4 1h2M9 9h1M0 10h1m12 0h1m14 0h1m8 0h1M3 11h1m1 0h1m20 0h1m9 0h2m-3 3h1M1 17h1m16 0h1m-5 1h1M0 19h2m5 0h1m-8 1h1m15 0h1m12 0h1m-14 1h1m1 0h1m2 0h2m4 0h1m1 0h1m4 2h1m-9 1h1m-3 2h1m3 0h1M7 28h1m2 0h1m15 1h1m-9 1h2m1 0h1m4 0h1m-13 3h1M2 34h1m3 1h1m14 0h1M2 36h1m14 0h1m-5 1h1m17 0h1m4 0h1"/><path stroke="#02042b" d="M2 0h1m1 0h2m4 0h1m1 0h3m1 0h1m1 0h3m1 0h1m1 0h8m1 0h5M0 1h2m1 0h1m1 0h4m1 0h7m1 0h3m1 0h3m1 0h3m1 0h5m2 0h1M0 2h1m1 0h8m2 0h13m1 0h12M0 3h10m1 0h2m1 0h1m1 0h1m1 0h1m1 0h9m1 0h1m2 0h1m1 0h3M0 4h14m1 0h1m3 0h3m2 0h9m3 0h1M0 5h5m3 0h4m1 0h1m5 0h3m1 0h11m1 0h3M0 6h4m3 0h4m1 0h4m6 0h10m1 0h5M0 7h4m2 0h11m1 0h4m1 0h5m1 0h9M0 8h3m1 0h18m1 0h4m3 0h1m1 0h3m1 0h2M0 9h2m1 0h5m2 0h18m1 0h3m1 0h2m1 0h2M1 10h9m1 0h2m1 0h14m1 0h8M1 11h2m1 0h1m2 0h2m1 0h16m1 0h1m1 0h7M0 12h9m1 0h6m1 0h14m2 0h3m1 0h1M1 13h2m1 0h13m1 0h14m1 0h5M0 14h6m1 0h5m1 0h1m1 0h2m1 0h1m1 0h14m2 0h2M0 15h3m3 0h1m1 0h11m1 0h18M0 16h3m4 0h12m1 0h9m1 0h2m1 0h5M0 17h1m1 0h1m3 0h5m1 0h4m1 0h1m2 0h5m1 0h12M0 18h14m1 0h2m4 0h6m1 0h5m2 0h3M2 19h5m1 0h1m2 0h7m2 0h3m1 0h2m1 0h2m1 0h3m1 0h4M1 20h8m1 0h6m2 0h1m1 0h5m1 0h3m1 0h2m3 0h3M0 21h4m1 0h2m5 0h3m2 0h1m1 0h1m3 0h4m3 0h1m1 0h1m1 0h3M0 22h3m3 0h3m1 0h10m1 0h8m1 0h7M0 23h1m1 0h2m1 0h4m1 0h4m1 0h2m1 0h4m1 0h5m1 0h5m1 0h2M0 24h4m1 0h13m1 0h4m1 0h2m4 0h1m1 0h4m1 0h1M0 25h8m1 0h6m1 0h3m2 0h3m1 0h3m1 0h2m1 0h6M0 26h13m1 0h9m2 0h3m1 0h9M0 27h2m1 0h3m1 0h1m1 0h22m1 0h6M0 28h1m1 0h5m1 0h2m1 0h8m1 0h4m1 0h3m1 0h5m1 0h3M3 29h10m3 0h10m1 0h3m1 0h3m1 0h2M0 30h1m1 0h8m1 0h3m3 0h1m2 0h1m1 0h4m1 0h11M0 31h2m1 0h4m1 0h7m1 0h16m1 0h5M0 32h7m1 0h12m1 0h15m1 0h1M0 33h5m5 0h3m2 0h1m1 0h7m1 0h2m1 0h3m1 0h2m1 0h3M0 34h2m1 0h4m1 0h14m5 0h1m2 0h4m1 0h3M0 35h6m2 0h8m1 0h1m1 0h2m1 0h2m1 0h2m3 0h5m1 0h2M0 36h2m1 0h2m1 0h5m1 0h4m2 0h9m2 0h4m3 0h2M0 37h2m2 0h7m1 0h1m1 0h2m1 0h8m1 0h4m2 0h4m1 0h1"/><path stroke="#062551" d="M6 0h1m27 3h1M16 4h1m1 0h1m4 0h1m9 0h1m1 0h1M16 6h1m1 0h1M0 13h1m18 1h1M3 15h1m1 0h1m13 1h1M3 17h1m7 0h1m8 1h1M9 19h1m9 0h1m-1 1h1M4 21h1m-2 1h1m1 0h1m-2 1h1m14 2h1m3 1h1M1 28h1m-2 1h1m1 0h1m12 0h1M1 30h1m12 0h1m1 0h1m-2 1h1M5 33h1m3 0h1m14 0h1m-3 1h2m1 0h2m1 0h2m4 0h1m-11 1h1m2 0h1m1 0h1m-3 1h2m4 0h3M3 37h1"/><path stroke="#02042a" d="M8 0h1m8 0h1M2 1h1m18 0h1m3 0h1M13 3h1m15 0h1M11 6h1m20 0h1M22 7h1m8 1h1M2 9h1m5 0h1m1 1h1M0 11h1m5 0h1m2 0h1m21 1h1M3 13h1m13 0h1m-1 1h1m16 0h1M7 15h1m-2 1h1m18 1h1m-9 1h1m9 0h1m6 0h1m-17 1h1m10 0h1m-10 2h1m7 0h1m-9 1h1m16 0h1m-1 1h1m-20 1h1m4 0h1m7 0h1m4 0h1m-24 2h1M2 27h1m3 0h1m17 1h1m-11 1h1M2 31h1m29 0h1m-17 2h1m14 0h1m-14 2h1M5 36h1m10 0h1M2 37h1m8 0h1m18 0h1"/><path stroke="#03042a" d="M4 1h1m17 3h1m0 15h1m3 14h1"/><path stroke="#03052b" d="M35 1h1m1 20h1M8 27h1m28 2h1"/><path stroke="#02052a" d="M11 2h1m10 6h1m-7 4h1m-3 2h1"/><path stroke="#6fa48f" d="M17 3h1m16 1h1M5 5h1m10 0h1m1 0h1M6 6h1M5 7h1m11 0h1m10 0h1m0 1h1m-2 1h1M3 16h1m25 0h1M9 20h1m-3 1h1m3 0h1m21 0h1M4 22h1m4 0h1m18 1h1m-2 1h1m1 0h1m-2 1h1M1 29h1m13 1h1M6 33h1m1 0h1m2 3h1"/><path stroke="#6ea48f" d="M14 4h1M4 6h1m22 2h1m-9 10h1m13 1h1M7 31h1"/><path stroke="#95a9a5" d="M17 4h1m-1 1h1M5 6h1m11 0h1M4 16h1m28 4h1M8 21h3m17 3h1M7 32h1m-1 1h1m-1 1h1"/><path stroke="#0a6a66" d="M6 5h1"/><path stroke="#062550" d="M34 5h1M19 17h1m15 18h1"/><path stroke="#0b6a66" d="M4 7h1m27 13h1m1 0h1"/><path stroke="#03052a" d="M3 8h1"/><path stroke="#95a8a5" d="M28 8h1"/><path stroke="#40a189" d="M32 12h1M4 15h1m-1 2h1"/><path stroke="#6fa48e" d="M5 16h1"/><path stroke="#062451" d="M5 17h1m12 1h1"/><path stroke="#072551" d="M9 23h1"/><path stroke="#409a84" d="M34 28h1m-11 6h1m3 1h1"/><path stroke="#6fa58f" d="M7 35h1"/></svg>