<svg xmlns="http://www.w3.org/2000/svg" shape-rendering="crispEdges" viewBox="0 -0.5 38 38"><path stroke="#84d1f8" d="M0 0h1m1 0h1m2 0h1m1 0h4m1 0h4m1 0h6m1 0h3m2 0h9M0 1h8m2 0h4m1 0h2m3 0h1m1 0h4m2 0h7m1 0h2M0 2h4m1 0h13m3 0h4m1 0h2m1 0h5m1 0h3M0 3h6m1 0h3m1 0h4m1 0h12m1 0h1m2 0h3m1 0h2M0 4h2m1 0h16m2 0h8m1 0h4m1 0h3M0 5h17m1 0h1m2 0h5m1 0h2m1 0h8M0 6h3m1 0h7m1 0h6m1 0h2m1 0h8m1 0h2m1 0h4M0 7h23m1 0h4m1 0h8M0 8h1m1 0h1m1 0h10m2 0h1m2 0h3m1 0h15M0 9h3m1 0h3m1 0h6m1 0h5m1 0h8m1 0h8M0 10h2m1 0h6m1 0h6m1 0h6m1 0h2m1 0h3m1 0h1m1 0h4M0 11h6m1 0h1m1 0h1m1 0h3m1 0h5m1 0h9m2 0h6M0 12h2m1 0h1m1 0h2m1 0h8m1 0h2m1 0h2m3 0h6m1 0h1m1 0h4M1 13h3m2 0h6m1 0h25M0 14h1m1 0h4m1 0h4m1 0h10m3 0h5m2 0h6M0 15h1m2 0h2m1 0h14m1 0h2m1 0h11m1 0h2M0 16h10m1 0h8m1 0h4m1 0h1m1 0h4m1 0h6M0 17h5m1 0h2m1 0h1m1 0h27M0 18h9m2 0h7m1 0h13m1 0h5M0 19h8m1 0h7m1 0h1m1 0h10m1 0h5M0 20h7m1 0h25M0 21h7m2 0h1m1 0h1m1 0h1m1 0h18M1 22h5m1 0h1m10 0h3m1 0h3m1 0h1m1 0h1m2 0h4M0 23h1m1 0h5m9 0h2m1 0h1m13 0h5M0 24h2m1 0h2m30 0h3M2 25h2m32 0h2m-12 6h2m1 0h1M1 32h4m20 0h3M1 33h9m9 0h1M0 34h3m1 0h1m3 0h3m2 0h5M0 35h3m10 0h4M1 36h1m-2 1h1"/><path stroke="#84d1f9" d="M1 0h1m1 0h2m11 0h1m6 0h1m-5 1h1m-1 1h1m8 0h1M10 3h1m17 0h1m0 1h1m-4 1h1M11 6h1m9 0h1m6 1h1m-9 2h1m5 1h1M8 11h1m1 0h1m9 0h1m9 0h1m-9 1h2m9 0h1M4 13h1m7 0h1M1 14h1m9 0h1m18 0h2m-12 1h1m14 0h1M9 18h1m6 1h1m12 0h1M7 21h2m1 0h1m3 0h1M0 22h1m5 0h1m7 0h2m1 0h1m3 0h1m3 0h1m1 0h1m2 0h1M0 32h1m-1 1h1m2 1h1m8 0h1"/><path stroke="#84d0f8" d="M6 0h1m20 0h1M8 1h1m5 0h1m11 0h1m-7 1h1M6 3h1m28 0h1M17 5h1m1 0h2m8 0h1M18 6h1m11 0h1m2 0h1M23 7h1m13 0h1M3 8h1m11 0h1m1 0h1m4 0h1M3 9h1m25 0h1M2 10h1m13 0h1m6 0h1m6 0h1M6 11h1m24 0h1M2 12h1m1 0h1m11 0h1m2 0h1m4 0h1M0 13h1m23 1h1M2 15h1m2 0h1m17 0h1m-5 1h1m6 0h1m-17 1h1m7 1h1m13 0h1M8 19h1m3 2h1M2 24h1m8 10h1M0 36h1"/><path stroke="#85d1f8" d="M11 0h1m16 0h1M9 1h1m7 0h2m2 0h1m5 0h1m7 0h1M18 2h1m6 0h1m8 0h1M15 3h1m14 0h2M2 4h1m16 0h2M3 6h1M1 8h1m12 0h1m3 0h1M7 9h1m6 0h1m-6 1h1m22 0h1m4 0h1m-24 1h1m16 1h1M5 13h1m0 1h1m15 0h2M1 15h1m8 1h1m13 0h1m6 0h1M5 17h1m2 0h1m1 1h1m7 1h1M7 20h1m25 1h1m-21 1h1m2 0h1M1 23h1m16 0h1m9 8h1m1 0h1"/><path stroke="#85d0f8" d="M4 2h1m24 20h1"/><path stroke="#85d1f9" d="M34 4h1"/><path stroke="#84d0f9" d="M7 12h1"/><path stroke="#9bd9f9" d="M35 19h3m-4 1h4m-4 1h4M8 22h5m-6 1h2m1 0h6m4 0h2m1 0h10M5 24h1m1 0h1m1 0h15m1 0h1m1 0h6M0 25h2m2 0h4m1 0h2m1 0h3m1 0h5m1 0h3m1 0h3m1 0h4M0 26h11m1 0h2m3 0h3m3 0h7m1 0h3m2 0h2M0 27h3m1 0h5m2 0h2m15 0h3m4 0h3M0 28h1m2 0h7m1 0h8m3 0h1m1 0h2m8 0h4M0 29h1m1 0h1m2 0h1m4 0h1m1 0h3m1 0h9m2 0h11M0 30h3m6 0h1m1 0h13m10 0h4M9 31h5m1 0h4m1 0h3m10 0h5M9 32h1m1 0h6m3 0h3m1 0h1m7 0h4m1 0h1m-18 1h2m3 0h13M5 34h1m1 0h1m10 0h2m1 0h8m1 0h5m1 0h2M3 35h6m1 0h3m4 0h2m1 0h3m3 0h2m4 0h2M2 36h5m1 0h15m1 0h1M2 37h3m12 0h6"/><path stroke="#9ad9f9" d="M33 20h1m-1 4h1m-23 1h1m17 0h1M9 27h2m-9 1h1m18 0h1M4 29h1m6 0h1m3 0h1m8 4h1m10 1h1m-17 1h1m3 0h2m-2 1h1M5 37h1"/><path stroke="#7bcaf8" d="M35 22h3m-4 2h1m-20 1h1m18 0h2m-22 1h3m3 0h3m11 0h2m-23 1h14m4 0h4m-25 1h1m8 0h2m6 0h1m1 0h5M7 29h1m1 0h1m16 0h1M5 30h2m1 0h1m15 0h10M0 31h1m1 0h4m1 0h2m10 0h1m3 0h3m5 0h2M6 32h1m1 0h1m8 0h3m8 0h2m1 0h1m-21 1h1m1 0h1m1 0h4m9 2h4m2 0h4m-13 1h4m1 0h3m1 0h4M1 37h1m4 0h11m6 0h6m1 0h1m1 0h1m1 0h4"/><path stroke="#9bd9f8" d="M9 23h1m12 0h1M6 24h1m1 0h1m-6 3h1m19 1h1M1 29h1m34 3h1m-15 1h2m-4 1h1m8 0h1m-5 1h1"/><path stroke="#9bd8f9" d="M24 24h1m1 0h1M8 25h1m12 0h1m3 0h1m1 2h1M1 28h1m1 1h1m2 0h1m7 2h1m-5 1h1m12 0h1M6 34h1m2 1h1m-3 1h1"/><path stroke="#9ad8f9" d="M11 26h1"/><path stroke="#9ad9f8" d="M30 26h1m-21 4h1"/><path stroke="#7bcbf8" d="M26 28h1M3 30h1m1 2h1m24 0h1m-19 1h1m20 3h1m-1 1h1"/><path stroke="#7acaf8" d="M28 28h1M6 31h1m3 2h1m3 0h1m14 3h1m-1 1h1"/><path stroke="#7acaf9" d="M8 29h1"/><path stroke="#7bcaf9" d="M25 29h1M4 30h1m2 0h1m-7 1h1m5 1h1m23 5h1"/></svg>