<svg xmlns="http://www.w3.org/2000/svg" shape-rendering="crispEdges" viewBox="0 -0.5 38 38"><path stroke="#a2deff" d="M0 0h1m9 0h3m1 0h2m13 0h6M0 1h1m8 0h1m1 0h2m18 0h3M0 2h2m7 0h3m19 0h3M0 3h2m8 0h1m20 0h1m1 0h1M0 4h1m1 0h1m5 0h2m21 0h3M0 5h5m3 0h3m21 0h3M1 6h7m1 0h3m20 0h4M0 7h7m4 0h3m18 0h2m1 0h1M1 8h5m1 0h2m2 0h3m2 0h1m14 0h4M6 9h2m1 0h2m3 0h5m11 0h2m1 0h1m1 0h3M8 10h1m1 0h1m5 0h4m6 0h2m1 0h1m2 0h6m-28 1h3m16 0h6m1 0h1m-10 1h7m-22 1h1m5 0h3m5 0h4m-19 1h1m2 0h8m4 0h2M9 15h1m3 0h8m1 0h1m3 0h1M7 16h1m4 0h7m3 0h1m3 0h1M6 17h1m4 0h5m6 0h1m3 0h1m-17 1h1m1 0h2m7 0h1m5 0h1M0 19h3m6 0h1m1 0h1m19 0h4M0 20h3m1 0h3m1 0h3m9 0h1m4 0h2m9 0h1M0 21h2m1 0h1m2 0h5m9 0h1m5 0h4M5 22h3m2 0h1m9 0h1m6 0h1m1 0h9M6 23h1m1 0h2m9 0h1m3 0h2m5 0h4m1 0h3M6 24h1m1 0h2m8 0h1m3 0h1M6 25h1m1 0h1m8 0h1m3 0h2m-7 1h1m3 0h2M8 27h1m6 0h1m2 0h3M4 28h1m2 0h2m3 0h8M6 29h2m2 0h2m1 0h5m8 0h2M0 30h2m3 0h1m7 0h1m21 0h1m1 0h1M0 31h1m10 0h1m1 0h2m9 0h1m2 0h3m5 0h1M0 32h2m9 0h1m2 0h2m5 0h3m1 0h4m1 0h2m2 0h1M0 33h2m9 0h1m3 0h8m3 0h1m4 0h1m2 0h1m-24 1h1m3 0h2m16 0h2m-23 1h1m20 0h1m-22 1h2m3 0h1m-5 1h2m2 0h2m13 0h1"/><path stroke="#b3e9ff" d="M1 0h3m1 0h3M1 1h2m2 0h2m1 0h1M2 2h1m1 0h2m1 0h1M2 3h2m1 0h3M3 4h2m1 0h1M5 5h3m0 1h1m1 2h1m0 1h2m19 0h1m-22 1h5m5 0h2m1 0h2m4 0h2m-19 1h1m1 0h8m1 0h5m-15 1h7m1 0h5m-14 1h5m3 0h4m-13 1h2m8 0h4m-15 1h2m11 0h2M8 16h4m11 0h3M7 17h1m1 0h2m12 0h3M2 18h8m13 0h3M3 19h1m1 0h4m14 0h2m3 0h2M7 20h1m14 0h3m2 0h2m1 0h5m-14 1h4m5 0h5m1 0h2m-17 1h2M7 23h1m12 0h3M7 24h1m11 0h3M7 25h1m10 0h3M6 26h2m10 0h2M6 27h1m9 0h1M5 28h1m27 0h3m1 0h1M3 29h3m22 0h10M2 30h2m8 0h1m13 0h2m3 0h4M1 31h3m8 0h1m12 0h2m3 0h4m-21 1h1m10 0h1m7 0h2m-22 1h1m1 0h1m-2 1h2m17 0h1m-20 1h3m16 0h1m-19 1h3m15 0h1m-18 1h2m14 0h1"/><path stroke="#b2e9ff" d="M4 0h1M4 1h1m1 1h1m1 0h1M4 3h1m2 1h1m12 6h1m-7 1h1m8 0h1m-11 1h1m7 0h1M8 17h1m-5 2h1m18 3h1m12 6h1m-9 2h1m1 0h1"/><path stroke="#a3deff" d="M8 0h2m3 0h1M9 3h1M1 4h1m8 3h1M9 8h1m4 0h1m20 0h2M4 9h2m2 0h1m25 0h1m-7 1h1m6 1h1m-20 6h1m5 1h1m-2 1h2m2 0h1m4 0h1M3 20h1m17 0h1M2 21h1m1 0h1m20 0h1M9 22h1m14 0h1m3 0h1m5 1h1m-18 4h1m-9 1h1m1 0h1m-6 2h1m29 0h1"/><path stroke="#62d2ff" d="M16 0h1m-2 1h1m5 0h1m-8 1h1m3 0h1m-3 1h1m19 1h1M2 9h1m6 2h1m20 3h1m-15 6h1m8 2h1M4 23h1m5 1h1m15 2h1m-6 3h1M3 32h1m4 0h1m1 0h1m-5 1h2m-4 2h1m20 0h1m-7 1h1"/><path stroke="#62d3ff" d="M17 0h1m4 35h1"/><path stroke="#63d2ff" d="M18 0h2m1 0h6m1 0h1m6 0h2M14 1h1m2 0h4m1 0h5m1 0h2m4 0h4M12 2h2m1 0h3m1 0h1m1 0h1m1 0h8m3 0h4M11 3h5m1 0h14m4 0h2M11 4h8m1 0h2m2 0h5m1 0h1m3 0h2m1 0h1M11 5h2m2 0h2M1 9h1m1 0h1m-2 1h6m-8 1h9m28 0h1M4 12h8m22 0h4M8 13h4m18 0h8m-10 1h2m1 0h2m1 0h4m-17 1h1m5 0h3m2 0h1m4 0h1m-19 1h3m5 0h4m6 0h1m-21 1h5m15 0h1m-23 1h6m16 0h1m-24 1h1m1 0h3m1 0h1m16 0h1m-26 1h4m1 0h3m-9 1h6M0 22h1m1 0h3m6 0h3m12 0h1M1 23h2m2 0h1m4 0h2m13 0h5M1 24h2m21 0h14m-15 1h5m1 0h1m1 0h7m-16 1h1m2 0h1m1 0h4m6 0h1m-17 1h1m1 0h3m-6 1h4M8 29h2m8 0h3m1 0h1M7 30h4m3 0h6M5 31h6m4 0h2m19 0h2M5 32h2m2 0h1m19 0h1m5 0h2M3 33h3m2 0h3m16 0h4m4 0h1M0 34h11m6 0h11m1 0h3M0 35h1m1 0h2m13 0h4m2 0h2m1 0h1m-9 1h1"/><path stroke="#63d3ff" d="M20 0h1m-8 1h1m2 0h1m3 1h1m13 1h1M19 4h1m2 0h1M13 5h1M0 10h1m29 5h1m-19 4h2m1 0h1m-5 1h1M1 22h1m28 3h1m-8 1h1M4 32h1m-4 3h1"/><path stroke="#62d2fe" d="M27 0h1m9 0h1M14 5h1M2 33h1"/><path stroke="#b3e8ff" d="M3 1h1M3 2h1m4 1h1m1 12h1m18 5h1m5 1h1m-19 5h1m-6 6h1m0 1h1m19 0h1m-3 3h1"/><path stroke="#b3e9fe" d="M7 1h1m15 9h1m1 3h1m-3 2h1m3 4h1m7 1h1M6 28h1m-3 2h1m24 0h1m2 3h1"/><path stroke="#a2defe" d="M10 1h1M0 6h1m6 1h2M0 8h1m8 2h1m0 9h1m-3 7h1m-4 1h1m1 0h1m2 1h1m1 1h1m12 1h1m8 1h1m-12 2h2m-13 1h1m20 2h1"/><path stroke="#63d3fe" d="M27 1h1M3 23h1"/><path stroke="#a2dfff" d="M30 1h1M10 4h1M9 7h1m24 0h1m1 0h1M6 8h1m5 4h1m-2 6h1m-7 3h1m2 1h1m10 0h1m3 2h1m-13 6h1m-8 1h1m-3 1h1m22 1h1m-10 2h1"/><path stroke="#63d2fe" d="M22 2h1m14 1h1M23 4h1m5 0h1M0 9h1m0 1h1m31 4h1m-3 1h1m-18 3h1m4 1h1M0 23h1m-1 1h1m27 1h1m-5 1h1m-3 1h1M7 32h1m29 0h1m-10 2h1m-8 1h1"/><path stroke="#a2dffe" d="M32 3h1"/><path stroke="#b2e9fe" d="M5 4h1m20 14h1"/><path stroke="#7cddff" d="M17 5h13m1 0h1m3 0h3M13 6h5m1 0h1m1 0h11m4 0h2M14 7h5m1 0h9m1 0h2M18 8h7m1 0h5m6 0h1M19 9h4m1 0h6M0 12h4m-4 1h8m-7 1h3m1 0h4m1 0h1M0 15h9m24 0h4M0 16h3m1 0h3m25 0h3m1 0h1M0 17h6m21 0h9M0 18h2m26 0h2m1 0h6m-1 1h1m0 1h1m-21 1h3m-6 1h4m-6 1h4m1 0h1M3 24h3m6 0h3m1 0h2M0 25h6m3 0h1m2 0h5M0 26h6m3 0h7m15 0h6M0 27h5m4 0h6m11 0h12M0 28h4m20 0h2m1 0h6M0 29h1m22 0h3m-5 1h4m-8 1h7m-8 1h5m16 1h1m-3 1h3M5 35h7m15 0h2m1 0h2m3 0h3M0 36h3m1 0h5m2 0h1m8 0h7m1 0h3m3 0h4M0 37h1m1 0h6m1 0h4m7 0h1m1 0h2m1 0h6m2 0h5"/><path stroke="#7cddfe" d="M30 5h1m-2 2h1m7 0h1M23 9h1M0 14h1m2 2h1m12 7h1m9 5h1m-7 2h1m15 3h1m-3 2h1m-25 1h1m16 0h1M8 37h1"/><path stroke="#7dddff" d="M12 6h1m5 0h1m6 2h1M9 14h1m8 8h1m-1 1h1m-8 1h1M2 29h1m26 6h1M3 36h1m17 1h1m2 0h1"/><path stroke="#7cdcff" d="M20 6h1m-2 1h1m-3 1h1M4 14h1m31 3h1m-7 1h1m4 1h1m-26 6h2M1 29h1m7 7h1m-9 1h1m17 0h1"/><path stroke="#a3dfff" d="M15 8h1"/><path stroke="#b2e8ff" d="M13 9h1m12 10h1"/><path stroke="#7ddcff" d="M31 16h1m3 0h1m-21 8h1"/></svg>