<svg xmlns="http://www.w3.org/2000/svg" shape-rendering="crispEdges" viewBox="0 -0.5 38 38"><path stroke="#1b1b1b" d="M12 25h1m-1 1h1m-2 2h1m-1 1h1m-1 1h1m0 2h1m-2 1h2m-2 1h1m0 1h1m-2 1h1m-1 1h1"/><path stroke="#262626" d="M13 25h6m1 0h4m-11 1h1m11 0h1m-1 6h1m-2 1h1m-11 1h1m-2 1h3m6 0h4m-13 1h5m3 0h5m-13 1h2m1 0h7m1 0h1"/><path stroke="#262627" d="M19 25h1m-7 8h1m-1 1h1m9 0h1m-1 3h1"/><path stroke="#3d3d3c" d="M24 25h1"/><path stroke="#3c3c3c" d="M25 25h1"/><path stroke="#1b1a1b" d="M11 26h1m-1 5h1m-1 1h1m-1 3h1m0 2h1"/><path stroke="gray" d="M14 26h1m2 0h1m2 0h1m2 0h1m-12 1h1m12 0h1m-3 6h1m-8 2h1m4 0h1m-4 1h2"/><path stroke="#a8a8a9" d="M15 26h1"/><path stroke="#a9a8a8" d="M16 26h1"/><path stroke="#bfbfbf" d="M18 26h1m-2 2h1m-3 1h2m6 0h1m1 0h1m-13 1h1m7 0h1m-9 1h1m7 0h1"/><path stroke="#d1d1d1" d="M19 26h1m1 0h2m-6 1h2m-3 5h1m1 0h2m-3 1h1m-3 1h1"/><path stroke="#272626" d="M24 26h1m0 7h1m-6 3h1"/><path stroke="#1a1b1b" d="M11 27h1m0 7h1"/><path stroke="#a8a8a8" d="M13 27h2m-3 1h2m-1 1h1m11 1h1m-3 2h2m-4 1h2m-5 1h5m-6 1h4"/><path stroke="silver" d="M15 27h2m-5 2h1m-1 1h1m10 1h2m-5 1h1m1 0h1m-5 1h3m-4 1h1"/><path stroke="#d0d1d1" d="M19 27h1m-3 5h1m-2 1h1"/><path stroke="#ddd" d="M20 27h5m-9 3h1m-2 1h2m-4 1h3"/><path stroke="#0c3356" d="M14 28h2m2 0h3m1 0h2m-10 1h1m7 0h1m-9 1h1m3 0h1m3 0h1m-9 1h1m3 0h1m3 0h1"/><path stroke="#012547" d="M16 28h1"/><path stroke="#d0d0d0" d="M21 28h1m3 0h1m-9 1h1m1 0h1m1 0h1m-5 1h1m-4 3h1"/><path stroke="#002447" d="M24 28h1m-1 1h1"/><path stroke="#0c3256" d="M18 29h1"/><path stroke="#002547" d="M20 29h1m-6 1h1m4 0h1m2 0h2m-6 1h2"/><path stroke="#d0d0d1" d="M19 30h1"/><path stroke="#808180" d="M12 31h1"/><path stroke="#d0d1d0" d="M17 31h1"/><path stroke="#767676" d="M25 31h1"/><path stroke="#c1c0c0" d="M21 32h1"/><path stroke="#d1d1d0" d="M15 33h1"/><path stroke="#d1d0d1" d="M16 34h1"/><path stroke="#272627" d="M24 34h1m0 3h1"/><path stroke="#262726" d="M25 34h1m-11 3h1"/><path stroke="#1a1a1b" d="M12 36h1"/></svg>