<svg xmlns="http://www.w3.org/2000/svg" shape-rendering="crispEdges" viewBox="0 -0.5 38 38"><path stroke="#ffb7be" d="M27 23h2m-3 1h1m5 0h1m-8 1h1m5 0h1M6 32h2m-1 1h2m1 0h3"/><path stroke="#f685a0" d="M29 23h2m-3 1h1m1 0h1m-5 1h5m-6 1h1m1 0h1m-2 1h1m-1 1h2m-1 1h1m0 1h1m-2 1h1m-3 1h2m1 0h1M5 33h2m6 0h1m6 0h2m1 0h1m3 0h1M7 34h6m1 0h1m1 0h7m1 0h2M8 35h1m1 0h1m1 0h8m1 0h1"/><path stroke="#f785a0" d="M27 24h1m-2 2h1m1 3h1m-1 2h1m-7 2h1m1 0h1m1 0h1M5 34h2m8 0h1m4 1h1"/><path stroke="#08061c" d="M29 24h1"/><path stroke="#feb7be" d="M31 24h1"/><path stroke="#9e505f" d="M32 25h2m-3 1h1m1 0h2m-3 1h3m-2 1h2"/><path stroke="#eb5e86" d="M28 26h1m1 0h1m-4 1h1m1 2h1m-1 1h1M7 31h1m21 0h2M8 32h2m19 0h2m-3 1h3m-5 1h4M6 35h2m14 0h4m1 0h2M8 36h1m1 0h5m1 0h5m1 0h5m-17 1h14"/><path stroke="#eb5f86" d="M29 26h1"/><path stroke="#9e515f" d="M32 26h1"/><path stroke="#f684a0" d="M28 28h1m-2 4h1m-3 1h1m-3 1h1"/><path stroke="#f685a1" d="M27 30h1m-15 4h1m-5 1h1m1 0h1"/><path stroke="#eb5e87" d="M30 30h1M8 31h1m0 5h1m5 0h1"/><path stroke="#ffb7bf" d="M9 33h1"/><path stroke="#ea5e86" d="M26 35h1m-6 1h1"/></svg>