<svg xmlns="http://www.w3.org/2000/svg" shape-rendering="crispEdges" viewBox="0 -0.5 38 38"><path stroke="#dbcdaf" d="M12 25h1m12 0h1m-10 1h1m-5 1h1m4 0h1m-6 1h1m-1 1h1m10 0h1m-13 1h2m-2 1h2m-2 1h2m-2 1h2m-2 2h2m-2 1h2m-2 1h2"/><path stroke="#f2e7ce" d="M13 25h2m-2 1h3m9 0h1m-13 1h4m7 0h2m-13 1h1m1 0h3m6 0h2m-13 1h2m1 0h3m5 0h2m-13 1h6m4 0h2m-12 1h1m1 0h1m1 0h3m3 0h3m-13 1h2m1 0h5m2 0h3m-13 1h10m1 0h2m-12 1h1m1 0h2m1 0h7m-12 1h1m1 0h4m2 0h4m-13 1h3m1 0h3m2 0h4m-12 1h5m1 0h4m1 0h1"/><path stroke="#22232c" d="M19 25h2m1 0h1m-2 1h2m-2 1h1m-1 1h2m-1 1h1m-2 1h2m-2 1h1m-1 1h1"/><path stroke="#22232d" d="M21 25h1m-1 4h1m0 2h1"/><path stroke="#dacdaf" d="M11 26h2m5 2h1m-8 6h1"/><path stroke="#2f2f3c" d="M19 26h2m-1 1h1m-2 1h2m-2 1h2m-1 1h1m-1 1h1"/><path stroke="rgba(24,24,34,0.20784313725490197)" d="M24 26h1m-6 1h1m3 1h1"/><path stroke="#dbcdae" d="M11 27h1m-1 2h1m0 5h1"/><path stroke="rgba(25,24,34,0.20784313725490197)" d="M18 27h1m3 0h2"/><path stroke="#dbccaf" d="M11 28h1"/><path stroke="#f3e7ce" d="M14 28h1m0 1h1m-2 2h1m1 0h1m-4 4h1m10 2h1"/><path stroke="#2f2e3c" d="M19 30h1"/><path stroke="#f2e7cf" d="M25 30h1m-11 2h1m6 0h1m0 1h1m-9 2h1m0 1h1m-4 1h1m5 0h1"/><path stroke="#f2e6ce" d="M13 34h1m1 0h1"/><path stroke="#f3e7cf" d="M18 34h1"/><path stroke="#ffb83f" d="M20 35h1"/><path stroke="#feb83f" d="M21 35h1"/><path stroke="#d49730" d="M20 36h2"/></svg>