<svg xmlns="http://www.w3.org/2000/svg" shape-rendering="crispEdges" viewBox="0 -0.5 38 38"><path stroke="#006aff" d="M12 25h1m-2 1h2m-1 1h1m-2 1h2m-2 1h2m-2 1h2m-2 1h2m-2 1h1m-1 1h2m-2 1h2m-2 1h1m-1 1h2m-2 1h2"/><path stroke="#0184ff" d="M13 25h1m7 0h1m-2 1h1m4 0h1m-7 1h2m-3 1h1m-5 4h1m1 2h4"/><path stroke="#0085ff" d="M14 25h1m-1 1h1m4 0h1m0 2h1m-7 1h1m0 5h1"/><path stroke="#0084ff" d="M15 25h6m1 0h2m-11 1h1m1 0h4m2 0h2m1 0h1m-12 1h6m2 0h5m-10 1h2m1 0h1m4 0h2m-10 1h1m5 0h4m-12 1h1m1 0h1m1 0h1m1 0h1m2 0h1m1 0h1m-10 1h1m3 0h1m1 0h4m-10 1h1m2 0h2m1 0h2m1 0h1m-11 1h2m3 0h1m1 0h2m1 0h1m-13 1h2m5 0h6m-13 1h13m-13 1h1m1 0h3m1 0h5m1 0h1m-13 1h4m1 0h2m1 0h5"/><path stroke="#2093ff" d="M24 25h2"/><path stroke="#0084fe" d="M23 26h1m-9 2h1m4 1h1m-7 2h1m3 1h1m-5 4h1m3 0h1m5 0h1m-8 1h1m2 0h1"/><path stroke="#006bff" d="M11 27h1m0 5h1m-1 3h1"/><path stroke="#000f53" d="M13 28h2m6 0h3m-11 1h1m1 0h1m1 0h2m2 0h1m-9 1h1m1 0h1m1 0h1m4 0h1m-8 1h1m1 0h3m-7 1h1m1 0h1m1 0h1m3 0h1m2 0h1m-12 1h2m2 0h3m1 0h1m2 0h1"/><path stroke="#010f53" d="M19 29h1m4 1h1"/><path stroke="#000e53" d="M19 30h1m1 1h1"/><path stroke="#000f52" d="M21 30h1m-9 1h1"/></svg>