<svg xmlns="http://www.w3.org/2000/svg" shape-rendering="crispEdges" viewBox="0 -0.5 38 38"><path stroke="#b8b3a7" d="M12 25h1m-2 1h1m-1 7h1"/><path stroke="#ddd3bd" d="M13 25h2m-2 1h3m-2 1h3m7 0h2m-13 1h3m1 0h1m6 0h2m-13 1h6m5 0h1m-12 1h4m1 0h1m4 0h1m1 0h1m-13 1h7m3 0h3m-13 1h3m1 0h3m2 0h4m-12 1h3m1 0h5m1 0h2m-13 1h4m1 0h8m-12 1h1m1 0h1m1 0h2m2 0h4m-13 1h5m5 0h1m1 0h1m-13 1h13"/><path stroke="#c18a2d" d="M19 25h1m1 0h2m-1 1h1"/><path stroke="#c18b2d" d="M20 25h1"/><path stroke="#b9b3a7" d="M25 25h1m-14 1h1m3 0h1m-6 1h2m4 0h1m-7 1h2m5 0h1m-8 1h2m10 0h1m-13 1h2m-2 1h2m-2 1h2m-1 1h1m-2 1h2m-2 1h2m-2 1h2m-2 1h2"/><path stroke="#fec84b" d="M19 26h1"/><path stroke="#ffb83f" d="M20 26h2m-2 1h1m-1 1h1m-2 1h2m-1 1h1m-1 1h1m-1 4h1"/><path stroke="rgba(24,24,34,0.20784313725490197)" d="M24 26h1m-7 1h2m2 0h2m-1 1h1"/><path stroke="#ddd3bc" d="M25 26h1m-13 1h1m11 2h1"/><path stroke="#d49730" d="M21 27h1m-1 1h2m-1 1h1m-2 1h2m-2 1h2m-2 1h1m-2 4h1"/><path stroke="#ddd2bd" d="M16 28h1m3 4h1m-8 1h1m9 0h1m-11 2h1m1 0h1m1 0h1m4 1h1m1 0h1"/><path stroke="#feb83e" d="M19 28h1"/><path stroke="#d59730" d="M21 29h1m-1 7h1"/><path stroke="#dcd3bd" d="M17 30h1m6 0h1m-9 2h1m0 2h1m0 2h2"/><path stroke="#ffb83e" d="M19 30h1m1 5h1"/><path stroke="#dcd3bc" d="M17 33h1"/></svg>