<svg xmlns="http://www.w3.org/2000/svg" shape-rendering="crispEdges" viewBox="0 -0.5 38 38"><path stroke="#7124ee" d="M12 25h1m1 0h5m1 0h4m-13 1h2m1 0h1m2 0h7m1 0h1m-15 1h2m1 0h5m1 0h3m-12 1h1m4 0h5m-4 1h3m-7 3h1m1 0h6m1 0h4m-11 1h3m1 0h7m-12 1h3m1 0h2m1 0h2m1 0h2"/><path stroke="#2b2b2b" d="M13 25h1m10 0h1m-1 1h1m-12 1h1m-2 4h1m5 0h2m5 0h1m-15 4h2"/><path stroke="#7124ef" d="M19 25h1m-1 2h1m-5 1h1m-2 4h1m2 2h1m2 0h1m2 0h1"/><path stroke="#2b2b2a" d="M13 26h1m10 1h1m-14 5h1"/><path stroke="#7e3aeb" d="M15 26h2m-5 2h1m-1 2h1"/><path stroke="#6514dd" d="M23 27h1m-3 1h2m2 0h1m-15 1h1m8 0h1m4 0h1m-8 1h2m5 0h1m-15 1h1m0 1h1m-2 1h3m-3 1h3m0 2h1m9 0h2m-11 1h1m7 0h2"/><path stroke="#7125ee" d="M25 27h1"/><path stroke="#3b3b3b" d="M13 28h2m8 0h2m-12 1h4m4 0h4m-12 1h3m1 0h1m2 0h5m-12 5h12m-8 1h7m-6 1h3"/><path stroke="#7f3aeb" d="M12 29h1"/><path stroke="#6514dc" d="M11 30h1m1 6h1"/><path stroke="#3b3b3a" d="M16 30h1m-1 6h1"/><path stroke="#343434" d="M13 31h5m2 0h1m1 0h2m-9 5h1m0 1h2m3 0h1"/><path stroke="#353434" d="M21 31h1"/><path stroke="#343534" d="M24 31h1"/><path stroke="#7025ee" d="M21 32h1"/><path stroke="#7024ee" d="M14 33h1"/><path stroke="#7125ef" d="M18 33h1"/><path stroke="#2a2b2b" d="M25 35h1"/><path stroke="#5519af" d="M11 36h1"/><path stroke="#5519ae" d="M12 36h1m-2 1h2m1 0h1"/><path stroke="#5419ae" d="M13 37h1"/><path stroke="#6515dd" d="M22 37h1"/><path stroke="#5518ae" d="M25 37h1"/></svg>