<svg xmlns="http://www.w3.org/2000/svg" shape-rendering="crispEdges" viewBox="0 -0.5 38 38"><path stroke="#042552" d="M12 25h1m1 0h1m1 0h8m-13 1h1m1 0h3m1 0h7m1 0h1m-15 1h1m2 0h12m-15 1h1m4 0h5m3 0h2m-15 1h1m4 0h1m3 0h1m1 0h2m1 0h1m-14 1h1m1 0h1m1 0h1m1 0h1m1 0h1m2 0h1m1 0h1m-15 1h2m3 0h1m3 0h1m1 0h2m-13 1h2m1 0h1m3 0h2m2 0h2m-12 1h1m2 0h1m4 0h1m1 0h1m2 0h1m-14 1h1m4 0h9m-15 1h2m3 0h7m1 0h2m-15 1h7m1 0h2m1 0h4m-12 1h5m2 0h5"/><path stroke="#052552" d="M13 25h1m0 4h1m-4 1h1m8 2h1m2 1h1m-6 3h1m-8 1h1m7 0h2"/><path stroke="#042553" d="M15 25h1m0 1h1m-4 1h1m10 2h1m-1 2h1m-9 1h1m-6 2h1"/><path stroke="#093a7e" d="M24 25h2"/><path stroke="#001a50" d="M12 26h1"/><path stroke="#042452" d="M24 26h1m-10 2h1m-2 3h1m-4 2h1m4 0h1m6 2h1m-3 1h1m-9 1h1"/><path stroke="#011a50" d="M12 27h1m-1 1h1m-1 1h1m-1 8h1"/><path stroke="#e9f7ff" d="M13 28h2m6 0h3m-11 1h1m1 0h1m1 0h3m1 0h1m-9 1h1m1 0h1m1 0h1m1 0h1m2 0h1m1 0h1m-12 1h1m1 0h1m1 0h3m1 0h1m-9 1h1m1 0h1m1 0h1m3 0h1m-8 1h1m2 0h1m1 0h1m1 0h1m2 0h1"/><path stroke="#e9f6ff" d="M21 30h1"/><path stroke="#002559" d="M25 31h1m-1 1h1m-13 2h1m1 0h2m-4 1h3"/><path stroke="#f8fcff" d="M24 32h1"/><path stroke="#e8f7fe" d="M13 33h1"/><path stroke="#f9fcff" d="M18 33h1"/><path stroke="#012459" d="M14 34h1"/></svg>