<svg xmlns="http://www.w3.org/2000/svg" shape-rendering="crispEdges" viewBox="0 -0.5 38 38"><path stroke="#7024ee" d="M12 25h1m3 1h1m1 0h1m5 0h1m-14 2h1m1 1h1m11 1h1m-5 1h1"/><path stroke="#7124ee" d="M13 25h11m-11 1h2m2 0h1m1 0h2m1 0h2m-13 1h3m1 0h5m1 0h1m1 0h1m1 0h1m-14 1h6m1 0h3m2 0h1m-11 1h7m1 0h4m-13 1h12m-12 1h3m1 0h2m1 0h1m2 0h3m-12 1h11"/><path stroke="#7e3aeb" d="M24 25h1"/><path stroke="#7125ee" d="M11 26h1m13 0h1m-12 1h1m5 0h1m1 0h1m1 0h1m-7 1h1m3 0h1m-2 1h1m0 2h1"/><path stroke="#7124ef" d="M12 26h1m2 0h1m5 0h1m1 2h1m1 0h1m-10 3h1m2 0h1m5 1h1"/><path stroke="#6514dd" d="M11 29h2m-2 1h2m-1 1h1m-2 1h1m1 0h1m-3 1h5m3 0h1m3 0h2"/><path stroke="#6514dc" d="M11 31h1"/><path stroke="#6414dd" d="M12 32h1"/><path stroke="#ffdce5" d="M16 33h2m3 0h2m-6 1h2m1 0h2"/><path stroke="#ffbcd5" d="M18 33h1m1 0h1m-5 1h1m2 0h1m2 0h1"/><path stroke="#6515dd" d="M25 33h1"/><path stroke="#ca57a8" d="M11 34h1"/><path stroke="#ff5ac2" d="M12 34h1"/><path stroke="#ff5bc2" d="M13 34h3"/><path stroke="#f56ac1" d="M23 34h1m1 0h1"/><path stroke="#f56ac0" d="M24 34h1"/><path stroke="#d27e58" d="M11 35h1"/><path stroke="#d2695c" d="M12 35h1"/><path stroke="#fe8163" d="M13 35h1"/><path stroke="#ff8163" d="M14 35h3m1 0h2m1 0h5"/><path stroke="#ff8162" d="M17 35h1m2 0h1"/><path stroke="#d2b030" d="M11 36h1"/><path stroke="#d28749" d="M12 36h1m6 0h1"/><path stroke="#ffa64b" d="M13 36h1m1 0h1m1 0h1m2 0h4"/><path stroke="#ffa74b" d="M14 36h1m10 0h1"/><path stroke="#fea64b" d="M16 36h1"/><path stroke="#fea64a" d="M18 36h1"/><path stroke="#ffa64a" d="M24 36h1"/><path stroke="#d2b130" d="M11 37h2m6 0h1"/><path stroke="#ffda30" d="M13 37h5m2 0h1m1 0h4"/><path stroke="#feda31" d="M18 37h1"/><path stroke="#ffdb30" d="M21 37h1"/></svg>