<svg xmlns="http://www.w3.org/2000/svg" shape-rendering="crispEdges" viewBox="0 -0.5 38 38"><path stroke="#b14560" d="M12 25h1m-2 1h2m-1 1h1m-2 1h2m-2 1h1m-1 1h2m-2 1h2m-2 1h2m-1 1h1m-2 1h2m-2 1h2m-2 1h2m-2 1h2"/><path stroke="#dd6281" d="M13 25h2m-2 1h3m9 0h1m-12 1h2m8 0h2m-11 1h3m6 0h2m-12 1h5m5 0h2m-13 1h2m1 0h3m4 0h3m-13 1h7m3 0h3m-12 1h7m2 0h1m-11 1h1m1 0h1m1 0h2m1 0h6m-11 1h3m1 0h7m-12 1h2m1 0h3m2 0h2m1 0h1m-13 1h7m2 0h1m1 0h2m-13 1h13"/><path stroke="#2d385e" d="M19 25h4m-1 1h1m-3 10h1"/><path stroke="#bb4b67" d="M25 25h1m-10 1h1m0 1h1m5 2h1"/><path stroke="#4d5782" d="M19 26h1"/><path stroke="#444f7a" d="M20 26h2m-3 2h2m-2 1h2m-2 1h2m-1 1h1"/><path stroke="rgba(24,24,34,0.20784313725490197)" d="M24 26h1m-3 1h1m0 1h1"/><path stroke="#b04560" d="M11 27h1"/><path stroke="#dd6280" d="M13 27h1m-1 1h1m-1 1h1m0 5h1m-2 1h1m10 0h1"/><path stroke="#dd6380" d="M16 27h1"/><path stroke="rgba(24,24,35,0.20784313725490197)" d="M18 27h1m4 0h1"/><path stroke="rgba(24,25,34,0.20784313725490197)" d="M19 27h1"/><path stroke="#444f7b" d="M20 27h1"/><path stroke="#3b456d" d="M21 27h1m-1 1h2m-1 1h1m-2 1h2m-2 1h2m-2 1h1m-2 3h2"/><path stroke="#dd6381" d="M14 28h1m0 2h1m6 2h1m1 0h2m-10 1h1m-4 1h1m4 0h1"/><path stroke="#ba4b67" d="M18 28h1"/><path stroke="#b14561" d="M12 29h1"/><path stroke="#3b456c" d="M21 29h1"/><path stroke="#dc6281" d="M13 32h1m0 1h1m4 0h1m-4 2h1m6 1h1"/><path stroke="#b14460" d="M11 33h1"/><path stroke="#2d385f" d="M21 36h1"/></svg>