<svg xmlns="http://www.w3.org/2000/svg" shape-rendering="crispEdges" viewBox="0 -0.5 38 38"><path stroke="#f08800" d="M12 25h1m-2 1h2m-2 1h1m-1 1h1m-1 1h1m-1 2h1m-1 1h1m-1 1h2m-2 1h1m-1 1h2m-2 1h2m-1 1h1"/><path stroke="#ff9b34" d="M13 25h6m1 0h1m1 0h2m-11 1h1m10 0h2m-1 5h1m-1 1h1m-13 1h1m-1 1h2m8 0h3m-13 1h3m8 0h2m-13 1h5m2 0h1m1 0h1m2 0h1m-13 1h2m2 0h2m1 0h1m2 0h3"/><path stroke="#fe9b34" d="M19 25h1m1 0h1m3 8h1m-3 2h1m-1 1h2m-10 1h1m5 0h1"/><path stroke="#ffb83f" d="M24 25h2"/><path stroke="gray" d="M14 26h1m2 0h1m2 0h1m4 1h1m-10 8h1m4 0h1m-4 1h1"/><path stroke="#a8a9a8" d="M15 26h1m-3 2h1m11 2h1"/><path stroke="#a8a8a8" d="M16 26h1m-4 1h2m-3 1h1m0 1h1m9 3h2m-4 1h2m-5 1h3m1 0h1m-6 1h2m1 0h1"/><path stroke="#bfbfbf" d="M18 26h1m-2 2h1m-3 1h2m6 0h1m-11 1h1m-1 1h1m7 0h1"/><path stroke="#d1d1d1" d="M19 26h1m1 0h2m-5 1h2m-4 5h3m-4 1h3m-3 1h1"/><path stroke="#808081" d="M23 26h1"/><path stroke="#808180" d="M12 27h1m-1 4h1m10 2h1m-5 3h1"/><path stroke="silver" d="M15 27h2m-5 3h1m10 1h2m-4 1h1m-3 1h1m-3 1h1"/><path stroke="#d0d1d1" d="M17 27h1"/><path stroke="#ddd" d="M20 27h5m-9 3h1m-2 1h2m-4 1h2"/><path stroke="#0c3356" d="M14 28h2m2 0h3m1 0h1m-9 1h1m3 0h1m3 0h1m-9 1h1m3 0h1m3 0h1m-9 1h1m3 0h1"/><path stroke="#002547" d="M16 28h1m7 0h1m-5 1h1m3 0h1m-10 1h1m4 0h1m2 0h1m-5 1h1"/><path stroke="#d0d0d0" d="M21 28h1m3 0h1m-7 1h1m1 0h1m-5 1h1m1 0h1m-3 1h1m-4 2h1"/><path stroke="#0c3357" d="M23 28h1"/><path stroke="#c1c0c0" d="M12 29h1m7 3h1m-1 1h1"/><path stroke="#d0d1d0" d="M17 29h1"/><path stroke="#bfbebf" d="M25 29h1"/><path stroke="#f08801" d="M11 30h1m0 2h1m-1 2h1"/><path stroke="#bfbfbe" d="M21 30h1"/><path stroke="#002447" d="M24 30h1"/><path stroke="#002546" d="M20 31h1"/><path stroke="#0d3356" d="M22 31h1"/><path stroke="#dddcdd" d="M15 32h1"/><path stroke="#d1d0d1" d="M19 32h1"/><path stroke="#c0c0c1" d="M22 32h1m-5 1h1"/><path stroke="#ff9b35" d="M24 33h1m-3 2h1m-2 1h1m0 1h1"/><path stroke="#d1d1d0" d="M16 34h1"/><path stroke="#a9a8a8" d="M21 34h1"/><path stroke="#a9a8a9" d="M19 35h1"/><path stroke="#f18800" d="M11 37h1"/><path stroke="#ff9a34" d="M16 37h1"/><path stroke="#fe9a34" d="M19 37h1"/></svg>