<svg xmlns="http://www.w3.org/2000/svg" shape-rendering="crispEdges" viewBox="0 -0.5 38 38"><path stroke="#e00018" d="M12 25h1m-2 1h2m-1 1h1m-2 1h3m5 0h1m-9 1h3m5 0h1m-9 1h4m4 0h1m5 0h1m-15 1h4m4 0h1m1 0h1m1 0h2m-14 1h5m3 0h1m3 0h1m-13 1h2m1 0h3m1 0h2m-8 1h5m2 0h1m-9 1h7m1 0h1m1 0h1m-11 1h5m3 0h1m2 0h1m-12 1h1m1 0h10"/><path stroke="#ff364c" d="M13 25h2m9 0h2m-10 2h1m4 0h2m1 0h2m-10 1h2m7 0h1m-8 4h1m2 0h2m-5 2h1m2 0h1"/><path stroke="#ff0420" d="M15 25h1m1 0h7m-11 1h2m4 0h1m5 0h1m-13 1h1m5 0h1m-6 1h1m6 0h2m1 0h1m-11 1h1m2 0h1m7 0h1m-10 1h2m3 0h2m1 0h1m0 1h1m-10 1h1m3 0h1m4 0h1m-5 1h3m1 0h1m-9 1h1m2 0h1m1 0h2m1 0h1m-4 1h4m-9 1h2m1 0h1m2 0h3m-3 1h3"/><path stroke="#ff0520" d="M16 25h1m7 4h1m-1 3h1m-4 4h1"/><path stroke="#fff" d="M15 26h3m3 0h1m1 0h1m-6 1h1m4 0h1m-6 1h1m4 0h1"/><path stroke="#fffeff" d="M18 26h1m1 1h1"/><path stroke="#fffffe" d="M20 26h1m-6 1h1"/><path stroke="#feffff" d="M22 26h1"/><path stroke="#fe0420" d="M24 26h1m-9 3h1"/><path stroke="#e10018" d="M11 27h1m1 6h1m2 3h1m-5 1h1"/><path stroke="#ff364d" d="M14 27h1m2 5h1"/><path stroke="#fe364c" d="M17 27h1"/><path stroke="#efefef" d="M15 28h1m4 0h1m-6 1h1m5 0h3m-6 1h1"/><path stroke="#eeefef" d="M18 29h1m1 0h1m-1 1h1"/><path stroke="#d0d5e0" d="M15 30h1m-1 1h4"/><path stroke="#ff0421" d="M23 30h1m0 3h1m-1 1h1"/><path stroke="#d0d5e1" d="M20 31h1"/><path stroke="#e00019" d="M22 31h1m-12 3h1m8 1h1"/><path stroke="#e00118" d="M17 33h1m0 2h1"/><path stroke="#e10118" d="M20 33h1"/></svg>