<svg xmlns="http://www.w3.org/2000/svg" shape-rendering="crispEdges" viewBox="0 -0.5 38 38"><path stroke="#7124ee" d="M12 25h10m1 0h1m-12 1h14m-15 1h5m1 0h3m1 0h5m-14 1h1m1 0h1m2 0h9m-13 1h6m1 0h6m-13 1h1m1 0h9m1 0h1m-13 1h2m1 0h4m1 0h2m1 0h2m-12 1h3m1 0h8"/><path stroke="#7024ee" d="M22 25h1m1 5h1m-10 1h1m7 0h1"/><path stroke="#7e3aeb" d="M24 25h1"/><path stroke="#7024ef" d="M11 26h1"/><path stroke="#7124ef" d="M16 27h1m3 0h1m-6 1h2m2 1h1m-6 1h1m2 2h1"/><path stroke="#7125ee" d="M11 28h1m8 3h1"/><path stroke="#7025ee" d="M13 28h1"/><path stroke="#6514dd" d="M11 29h2m-2 1h2m-2 1h1m-1 1h3m-3 1h3m5 0h1m3 0h3"/><path stroke="#6414dd" d="M12 31h1"/><path stroke="#6515dd" d="M14 33h1"/><path stroke="#6514dc" d="M15 33h1"/><path stroke="#3dcaf5" d="M16 33h2m2 0h3m-7 1h7"/><path stroke="#3dcbf5" d="M18 33h1"/><path stroke="#1e89ba" d="M11 34h1"/><path stroke="#289bd9" d="M12 34h4m7 0h3m-13 1h5m1 0h3m1 0h3m-13 1h1m1 0h2m1 0h1m1 0h6m-12 1h4m2 0h3m1 0h2"/><path stroke="#1e88ba" d="M11 35h2m-2 1h2m6 0h1m-9 1h2"/><path stroke="#299bd9" d="M18 35h1m4 2h1"/><path stroke="#289bd8" d="M22 35h1m-6 1h1m-5 1h1"/><path stroke="#289ad9" d="M14 36h1m3 1h1"/><path stroke="#1f88bb" d="M19 37h1"/></svg>