<svg xmlns="http://www.w3.org/2000/svg" shape-rendering="crispEdges" viewBox="0 -0.5 38 38"><path stroke="#1a1a23" d="M12 25h1m-2 1h1m-1 1h2m-2 1h2m-2 1h2m-2 1h2m-2 1h2m-2 1h2m-2 1h2m-2 1h2m-2 1h2m-2 1h2m-2 1h2"/><path stroke="#252534" d="M13 25h2m-2 1h1m1 0h1m9 0h1m-13 1h3m8 0h2m-13 1h4m7 0h1m-12 1h5m6 0h2m-13 1h1m1 0h4m4 0h1m1 0h1m-13 1h7m4 0h2m-13 1h6m1 0h1m1 0h1m1 0h2m-13 1h1m1 0h11m-13 1h2m1 0h10m-13 1h7m2 0h4m-13 1h3m1 0h3m2 0h1m2 0h1m-13 1h1m1 0h2m1 0h5m1 0h2"/><path stroke="#c52133" d="M19 25h4m-1 1h1m-2 1h1m-1 1h2m-2 1h2m-2 1h2m-2 1h2m-2 1h1"/><path stroke="#373642" d="M25 25h1"/><path stroke="#1a1a22" d="M12 26h1"/><path stroke="#242534" d="M14 26h1m2 2h1m-4 2h1m0 4h1"/><path stroke="#363643" d="M16 26h1m0 1h1m0 1h1m4 1h1"/><path stroke="#fc4559" d="M19 26h1"/><path stroke="#fb0621" d="M20 26h2m-3 2h2m-2 1h2m-2 1h2m-1 1h1"/><path stroke="rgba(24,24,34,0.20784313725490197)" d="M24 26h1m-7 1h2m2 0h1m0 1h1"/><path stroke="#252535" d="M16 27h1m8 1h1m-3 4h1m-7 5h1"/><path stroke="#fb0620" d="M20 27h1"/><path stroke="rgba(25,24,34,0.20784313725490197)" d="M23 27h1"/><path stroke="#252434" d="M18 29h1m5 1h1m-2 1h1m-5 1h1m-6 1h1m8 3h2m-11 1h1m8 0h1"/><path stroke="#ffb83f" d="M20 35h2"/><path stroke="#242434" d="M16 36h1"/><path stroke="#d49730" d="M20 36h2"/></svg>