<svg xmlns="http://www.w3.org/2000/svg" shape-rendering="crispEdges" viewBox="0 -0.5 38 38"><path stroke="#0783ff" d="M9 24h3m14 0h2M8 25h2m17 0h1M7 26h2m20 0h1M7 27h1m-1 2h2m-2 1h1m-1 1h2"/><path stroke="#0065fe" d="M12 24h1m13 1h1M9 26h1m17 0h2M9 27h1m19 0h1M9 28h1m18 0h1M9 29h1m18 0h1M9 30h1m18 0h1M9 31h1m-2 1h2m-1 1h1"/><path stroke="#0783fe" d="M28 24h1m0 1h1M8 30h1"/><path stroke="#0165fe" d="M10 25h1m18 5h1"/><path stroke="#0056e8" d="M11 25h1m13 0h1m-16 1h1m19 0h1m-1 1h1m-1 1h1m-1 1h1m-4 1h1m2 0h1m-21 1h1m15 0h4m-4 1h3m-19 1h1"/><path stroke="#0683ff" d="M28 25h1M8 27h1"/><path stroke="#0064fe" d="M28 27h1m0 1h1"/><path stroke="#0782ff" d="M7 28h2"/><path stroke="#0164fe" d="M29 29h1"/><path stroke="#0156e8" d="M10 32h1"/></svg>