<svg xmlns="http://www.w3.org/2000/svg" shape-rendering="crispEdges" viewBox="0 -0.5 38 38"><path stroke="#c8c8c9" d="M12 25h1m-2 4h1"/><path stroke="#ebebeb" d="M13 25h11m-11 1h4m1 0h1m2 0h5m-12 1h1m1 0h2m5 0h3m-13 1h4m6 0h1m1 0h1m-13 1h1m1 0h2m6 0h3m-13 1h3m9 0h1m-12 1h2m9 0h1m-12 1h3m6 0h1m1 0h1m-13 1h2m1 0h2m4 0h2m1 0h1m-13 1h3m2 0h1m2 0h1m2 0h2m-13 1h3m3 0h2m3 0h2m-13 1h4m6 0h3m-13 1h3m1 0h1m4 0h4"/><path stroke="#fff" d="M24 25h2"/><path stroke="#c8c8c8" d="M11 26h1m-1 1h2m-2 1h2m-1 1h1m-2 1h2m-1 1h1m-2 1h2m-2 1h2m-2 1h2m-2 1h2m-2 1h2m-2 1h2"/><path stroke="#c8c9c8" d="M12 26h1"/><path stroke="#ebeaeb" d="M17 26h1m-5 1h1m10 1h1m-12 3h1m10 0h1m-12 1h1"/><path stroke="#906ef9" d="M19 26h1m0 5h1m0 5h1"/><path stroke="#37f6e7" d="M20 26h1m-1 1h2m-2 1h3m-3 1h3m0 1h1"/><path stroke="#eaeaeb" d="M15 27h1"/><path stroke="#906ff9" d="M18 27h1m-2 1h3m-3 1h2m-3 1h2m2 0h2m-1 1h3m-4 1h3m-2 1h1m-2 1h1m2 0h1m-3 1h2m-3 1h1m1 0h1m-3 1h2"/><path stroke="#906ff8" d="M19 27h1m-1 2h1m2 5h1"/><path stroke="#eaebeb" d="M22 27h1m-9 2h1m9 1h1"/><path stroke="#3965ee" d="M18 30h2m-4 1h3m-2 1h3m-2 1h2m-4 1h2m1 0h1m-3 1h1m-1 1h3m-2 1h2"/><path stroke="#36f6e7" d="M22 30h1"/><path stroke="#c9c8c8" d="M11 31h1"/><path stroke="#3965ef" d="M19 31h1m-2 4h1"/><path stroke="#ebebea" d="M24 32h1m-9 5h1"/><path stroke="#7995ed" d="M15 33h1"/><path stroke="#906ef8" d="M20 33h1"/><path stroke="#b19cf4" d="M24 33h1"/><path stroke="#acbced" d="M16 35h1"/><path stroke="#cbbff0" d="M23 35h1"/></svg>