<svg xmlns="http://www.w3.org/2000/svg" shape-rendering="crispEdges" viewBox="0 -0.5 38 38"><path stroke="#000f0b" d="M12 25h1m-2 1h2m-1 1h1m-2 1h2m-2 1h2m-2 1h1m-1 1h2m-2 1h2m-2 1h2m-1 1h1m-2 1h2m-2 1h2"/><path stroke="#0a1513" d="M13 25h2m10 11h1m-3 1h1"/><path stroke="#0b1512" d="M15 25h1m5 2h1m-9 1h1m1 1h1m-3 2h1m1 6h1"/><path stroke="#0a1512" d="M16 25h8m-10 1h4m4 0h3m-12 1h4m5 0h4m-12 1h2m9 0h1m-13 1h2m10 0h1m-13 1h1m1 0h1m-1 1h1m4 0h1m-8 1h1m5 0h2m-8 1h1m10 0h1m-1 1h2m-2 1h2m-13 1h6m4 0h2m-12 1h2m1 0h2m4 0h1m1 0h2"/><path stroke="#131c18" d="M24 25h1"/><path stroke="#121c19" d="M25 25h1"/><path stroke="#0a1412" d="M13 26h1m10 2h1"/><path stroke="#1a3727" d="M18 26h1m2 0h1m-2 1h1m-7 3h1m4 0h2m4 0h1m-8 1h1m2 0h1m-4 1h1m2 0h1m-8 1h1m5 0h1m4 0h1m-7 3h1m-2 1h1"/><path stroke="#7cfeb0" d="M19 26h2m-3 1h1m-2 1h1m1 0h2m-4 1h1m1 0h5m-7 1h1m4 0h3m-11 1h1m1 0h2m4 0h1m1 0h1m-11 1h4m4 0h2m-9 1h3m4 0h1m-5 1h5m-4 1h4m-3 1h2m-3 1h2"/><path stroke="#0a1413" d="M25 26h1"/><path stroke="#000e0b" d="M11 27h1m-1 10h2"/><path stroke="#5df8a3" d="M17 27h1m3 1h2m-7 1h1m7 0h1m-9 1h1m1 0h1m2 0h1m-1 3h1m1 0h1m-1 1h1m-7 1h2m3 1h1"/><path stroke="#7cfeb1" d="M19 27h1m3 4h1"/><path stroke="#44e48c" d="M16 28h1m6 0h1m-8 7h1m6 0h1"/><path stroke="#7dfeb0" d="M18 28h1m-2 6h1"/><path stroke="#7cffb1" d="M18 29h1"/><path stroke="#010f0b" d="M12 30h1m-2 4h1"/><path stroke="#0b1412" d="M19 31h1"/><path stroke="#86ffb7" d="M25 31h1m-1 1h1m-10 2h1"/><path stroke="#193a28" d="M24 32h1"/><path stroke="#60ffa8" d="M18 33h1m-4 1h1"/><path stroke="#1a3627" d="M19 33h1m1 4h1"/><path stroke="#0a1613" d="M13 34h2m-2 1h3"/></svg>