<svg xmlns="http://www.w3.org/2000/svg" shape-rendering="crispEdges" viewBox="0 -0.5 38 38"><path stroke="#fffc84" d="M9 24h1m1 0h1m14 0h3M8 25h2m17 0h2m0 1h1M7 27h2m-2 1h1m-1 1h2m-2 1h2m-2 1h2"/><path stroke="#fffc85" d="M10 24h1"/><path stroke="#d8b534" d="M12 24h1"/><path stroke="#f1e24a" d="M10 25h1m15 0h1M9 26h1m17 0h2M9 27h1m18 0h2M9 28h1m18 0h2M9 29h1m18 0h2M9 30h1m18 0h1M9 31h1m-2 1h2m-1 1h1"/><path stroke="#d8b535" d="M11 25h1m13 0h1m-16 1h1m19 0h1m-1 1h1m-1 1h1m-4 2h1m2 0h1m-21 1h1m15 0h4m-20 1h1m15 0h2m-18 1h1"/><path stroke="#fefc84" d="M29 25h1M8 26h1"/><path stroke="#fefd84" d="M7 26h1"/><path stroke="#fffd84" d="M8 28h1"/><path stroke="#d9b535" d="M30 29h1"/><path stroke="#f1e34a" d="M29 30h1"/><path stroke="#d8b435" d="M28 32h1"/></svg>