<svg xmlns="http://www.w3.org/2000/svg" shape-rendering="crispEdges" viewBox="0 -0.5 38 38"><path stroke="#0077f4" d="M12 25h1"/><path stroke="#008ff5" d="M13 25h8m1 0h2m-11 1h5m2 0h4m-11 1h2m1 0h10m-11 1h1m3 0h1m3 0h1m-11 1h1m1 0h1m3 0h1m3 0h1m1 0h1m-9 1h1m1 0h1m3 0h1m1 0h1m-13 1h3m1 0h1m1 0h1m1 0h1m1 0h1m-11 1h3m3 0h1m-7 1h7m1 0h2m1 0h2m-13 1h13m-13 1h7m1 0h1m2 0h2m-10 1h1m1 0h8m-13 1h13"/><path stroke="#018ff5" d="M21 25h1m-3 1h1m4 0h1m-10 1h1m-1 3h1m5 0h1m-2 5h1m2 0h1m-11 1h1m3 0h1"/><path stroke="#00aafe" d="M24 25h1"/><path stroke="#0af" d="M25 25h1"/><path stroke="#0076f5" d="M11 26h2m-2 1h1m-1 1h1m-1 4h1m-1 1h2m-2 1h2m-2 1h2m-2 1h2m-2 1h2"/><path stroke="#008ef5" d="M18 26h1m-2 3h1m5 4h1"/><path stroke="#008ff4" d="M25 26h1m-1 2h1m-5 1h1m3 2h1m-3 1h1m-4 1h1m1 2h1m-9 1h2"/><path stroke="#0077f5" d="M12 27h1"/><path stroke="#001249" d="M12 28h3m1 0h2m2 0h3m1 0h1m-13 1h1m3 0h1m1 0h1m1 0h1m1 0h1m1 0h1m-13 1h3m1 0h1m1 0h1m5 0h1m-13 1h1m3 0h1m1 0h1m1 0h1m1 0h1m-7 1h3m1 0h3m1 0h2"/><path stroke="#001248" d="M18 28h1m3 2h1"/><path stroke="#0176f5" d="M11 29h1m-1 2h1"/><path stroke="#001349" d="M14 29h1m9 2h1"/><path stroke="#0076f4" d="M11 30h1"/><path stroke="#011249" d="M20 30h1m-9 2h1"/></svg>