<svg xmlns="http://www.w3.org/2000/svg" shape-rendering="crispEdges" viewBox="0 -0.5 38 38"><path stroke="#6bf53d" d="M9 24h3m15 0h2M8 25h2m17 0h3M8 26h1m20 0h1M7 27h2m-2 1h2m-2 1h2m-2 1h2m-2 1h1"/><path stroke="#28d940" d="M12 24h1m-3 1h1m-2 1h1m17 0h1M9 27h1m18 0h2M9 28h1m18 0h2M9 29h1m18 0h2M9 30h1m18 0h2M9 31h1m-1 1h1m-1 1h1"/><path stroke="#6af43c" d="M26 24h1"/><path stroke="#1eba64" d="M11 25h1m13 0h1m-16 1h1m19 1h1m-1 1h1m-1 1h1m-4 1h1m2 0h1m-21 1h1m15 0h3m-3 1h3"/><path stroke="#28d841" d="M26 25h1"/><path stroke="#6bf43d" d="M7 26h1"/><path stroke="#28d840" d="M28 26h1"/><path stroke="#1ebb64" d="M30 26h1m-21 6h1"/><path stroke="#6bf53c" d="M8 31h1"/><path stroke="#1fba64" d="M29 31h1"/><path stroke="#29d940" d="M8 32h1"/><path stroke="#1eba65" d="M10 33h1"/></svg>