<svg xmlns="http://www.w3.org/2000/svg" shape-rendering="crispEdges" viewBox="0 -0.5 38 38"><path stroke="#e56482" d="M12 25h1m-2 1h1m-1 1h1m-1 1h1m-1 1h1m-1 1h1m-1 1h2m-2 1h2m-2 1h2m-2 1h1m-1 1h2m-2 1h2m-2 1h2"/><path stroke="#e78290" d="M13 25h3m1 0h1m1 0h2m2 0h1m-10 1h1m1 0h3m2 0h5m-13 1h13m-11 1h3m2 0h1m4 0h1m-12 1h1m5 0h1m1 0h3m-11 1h1m1 0h1m3 0h1m2 0h1m1 0h1m-12 1h1m1 0h1m3 0h1m1 0h2m1 0h1m-12 1h1m1 0h1m1 0h3m1 0h1m2 0h1m-11 1h2m3 0h1m2 0h1m1 0h1m-13 1h6m1 0h1m1 0h4m-13 1h2m1 0h10m-13 1h10m1 0h2m-13 1h1m1 0h9m1 0h1"/><path stroke="#e78390" d="M16 25h1m3 1h1m-3 2h2m-4 1h1m7 2h1m-6 3h1m-6 3h1"/><path stroke="#e68290" d="M18 25h1m3 0h1m1 3h1m-7 2h1m-4 5h1m7 1h1"/><path stroke="#e78291" d="M21 25h1m-9 1h1m1 0h1m3 0h1m5 3h1m-3 3h1m-3 2h1m2 3h1"/><path stroke="#ffb7be" d="M24 25h2"/><path stroke="#e56582" d="M12 26h1m-1 1h1m-1 1h1m-1 1h1m-1 5h1"/><path stroke="#2f0911" d="M13 28h2m6 0h1m1 0h1m-11 1h1m1 0h1m1 0h1m1 0h1m-7 1h1m1 0h1m1 0h1m1 0h1m2 0h1m-10 1h1m1 0h1m1 0h3m1 0h1m-9 1h1m1 0h1m1 0h1m3 0h1m2 0h1m-12 1h2m2 0h1m1 0h1m1 0h1m2 0h1"/><path stroke="#2f0910" d="M22 28h1m-5 1h1m-1 4h1"/><path stroke="#2e0911" d="M21 29h1"/><path stroke="#e46482" d="M12 30h1"/><path stroke="#2f0811" d="M21 30h1"/><path stroke="#2e0910" d="M24 30h1"/><path stroke="#e78391" d="M22 33h1"/></svg>