<svg xmlns="http://www.w3.org/2000/svg" shape-rendering="crispEdges" viewBox="0 -0.5 38 38"><path stroke="#f2ea61" d="M14 2h3m-5 1h3m-4 1h3m-3 1h1"/><path stroke="#2b92d1" d="M17 2h2m-2 1h4m-6 1h1m1 0h2m1 0h2m-9 1h3m1 0h5m-9 1h7m1 0h2M13 7h1m1 0h5"/><path stroke="#da9aa3" d="M19 2h5m-3 1h3m-1 1h3m-4 1h4m-3 1h1m1 0h2m-4 1h4"/><path stroke="#2b93d1" d="M15 3h1m-2 4h1m7 0h1"/><path stroke="#2a93d1" d="M16 3h1"/><path stroke="#db9aa2" d="M24 3h1"/><path stroke="#2b92d0" d="M14 4h1m1 1h1"/><path stroke="#2a92d1" d="M16 4h1m2 0h1m0 2h1m-1 1h2"/><path stroke="#da9ba3" d="M22 4h1m1 2h1"/><path stroke="#f3eb61" d="M10 5h1"/><path stroke="#e1d949" d="M12 5h1m-2 1h2m-3 1h3"/><path stroke="#f2ea60" d="M10 6h1"/><path stroke="#008574" d="M10 8h8m1 0h8m1 0h1M12 9h1m1 0h7m1 0h3m1 0h5"/><path stroke="#008575" d="M18 8h1m8 0h1M11 9h1m9 0h1"/><path stroke="#018574" d="M13 9h1m11 0h1"/><path stroke="#00b982" d="M12 10h6m1 0h2m2 0h2m1 0h5"/><path stroke="#00b983" d="M18 10h1"/><path stroke="#00b882" d="M21 10h1m3 0h1"/><path stroke="#01b982" d="M22 10h1"/></svg>