<svg xmlns="http://www.w3.org/2000/svg" shape-rendering="crispEdges" viewBox="0 -0.5 38 38"><path stroke="#6bf53d" d="M14 2h2m2 0h6M11 3h2m1 0h2m-5 1h3m-4 1h2m-2 1h1"/><path stroke="#6af53d" d="M16 2h1m-1 1h1"/><path stroke="#6bf43d" d="M17 2h1"/><path stroke="#6bf53c" d="M13 3h1"/><path stroke="#29d940" d="M17 3h1m5 0h2M11 7h1m10 3h1m6 0h1"/><path stroke="#28d940" d="M18 3h5m2 0h1M14 4h9m1 0h2M12 5h3m1 0h2m1 0h8M11 6h7m1 0h8M12 7h7m1 0h7m-14 3h9m1 0h3m1 0h2"/><path stroke="#28d840" d="M23 4h1m-9 1h1m-6 2h1m8 0h1m10 3h1"/><path stroke="#28d941" d="M18 5h1m-1 1h1m7 4h1"/><path stroke="#1eba65" d="M10 8h1m2 0h1"/><path stroke="#1eba64" d="M11 8h2m1 0h12m1 0h2M11 9h16m1 0h2"/><path stroke="#1fba64" d="M26 8h1"/><path stroke="#1ebb64" d="M27 9h1m2 0h1"/></svg>