<svg xmlns="http://www.w3.org/2000/svg" shape-rendering="crispEdges" viewBox="0 -0.5 38 38"><path stroke="#858585" d="M7 8h1m1 0h5m-1 1h5m1 0h7M6 10h3m1 0h1m1 0h1m1 0h12m-13 1h1m1 0h3m1 0h7M5 12h1m1 0h5m1 0h1m6 0h1m4 0h1M8 13h3m2 0h1m5 0h2m-9 1h2m5 0h2m4 0h1m-13 1h1m6 0h1m4 0h1m-14 1h2m5 0h2m4 0h1m-13 1h2m5 0h1m4 0h1m-14 1h1m2 0h2m1 0h3m1 0h4m-13 1h2m1 0h1m7 0h2m-14 1h4m8 0h1m-12 1h4m8 0h1m-13 1h7m5 0h1"/><path stroke="#848585" d="M8 8h1m9 1h1m-8 1h1m1 0h1m-8 2h1m5 0h1m5 0h2m-5 7h1m-4 3h1"/><path stroke="#aaa" d="M14 8h3m1 0h3m1 0h1m-9 4h1"/><path stroke="#aaaaab" d="M17 8h1"/><path stroke="#abaaaa" d="M21 8h1"/><path stroke="#636363" d="M9 9h1m-2 2h1m17 1h1m-1 1h1M8 14h1m1 0h1m15 0h1m-1 1h1m-16 1h1m14 0h1m-16 1h1m6 0h1m7 0h1m-16 2h1m14 0h1m-1 1h1m-13 4h10"/><path stroke="#777676" d="M10 9h1m1 8h1m11 0h1m-2 6h1"/><path stroke="#454545" d="M11 9h1m10 10h2"/><path stroke="#767676" d="M12 9h1m-4 2h2m1 0h1m-7 2h2m3 1h1m0 1h1m8 2h3m-12 2h1m4 2h1m-6 2h8m1 0h2m1 0h2"/><path stroke="#858485" d="M9 10h1m9 5h1m-1 2h1m-3 1h1m3 0h1m-6 2h1"/><path stroke="#454544" d="M11 11h1"/><path stroke="#858584" d="M14 11h1m3 0h1m6 2h1m-13 5h2m10 2h1"/><path stroke="#ae9393" d="M15 12h1m1 0h1m-4 1h1m-1 3h1"/><path stroke="#bc8484" d="M16 12h1m-3 2h1m-1 1h1"/><path stroke="#000100" d="M21 12h1"/><path stroke="#000" d="M22 12h3m-4 1h3m-3 1h1m-1 1h2m-2 1h1m-2 4h1"/><path stroke="#454445" d="M11 13h1"/><path stroke="#767677" d="M12 13h1"/><path stroke="#e70019" d="M15 13h1m1 0h1m-3 3h1"/><path stroke="#ff0c27" d="M16 13h1m-2 1h1m1 0h1m-3 1h1m0 1h1"/><path stroke="#745353" d="M18 13h1m-1 3h1m-2 1h1"/><path stroke="#191919" d="M24 13h1m-1 2h1m-3 1h3"/><path stroke="#636263" d="M9 14h1m16 4h1m-16 2h1"/><path stroke="#fff" d="M16 14h1m-1 1h1"/><path stroke="#814747" d="M18 14h1m-1 1h1m-3 2h1"/><path stroke="#010000" d="M22 14h1m-1 6h1"/><path stroke="#bebebe" d="M23 14h1m-1 1h1"/><path stroke="#191819" d="M24 14h1"/><path stroke="#626363" d="M11 15h1m-1 3h1"/><path stroke="#ff0d27" d="M17 15h1"/><path stroke="#e70119" d="M17 16h1"/><path stroke="#745253" d="M15 17h1"/><path stroke="#353535" d="M17 19h5m-5 1h3m3 0h1m-6 1h3m1 0h2m-4 1h2m1 0h2"/><path stroke="#353435" d="M21 20h1m2 1h1"/><path stroke="#767776" d="M12 21h1"/><path stroke="#353534" d="M21 21h1m0 1h1"/><path stroke="#767777" d="M20 23h1"/></svg>