<svg xmlns="http://www.w3.org/2000/svg" shape-rendering="crispEdges" viewBox="0 -0.5 38 38"><path stroke="#7124ee" d="M7 6h1m0 1h1m1 1h1m1 0h2m1 0h6m1 0h1M6 9h1m6 0h9m1 0h2M7 10h13m1 0h5M5 11h1m5 0h1m1 0h8m1 0h4M6 12h8m4 0h2m5 0h1M8 13h5m5 0h3m4 0h1m-14 1h2m4 0h3m4 0h1m-14 1h2m4 0h3m4 0h1m-14 1h2m4 0h3m4 0h1m-14 1h2m5 0h2m-9 1h4m1 0h9m-14 1h2m1 0h2m8 0h1m-14 1h5m7 0h2m-13 1h4m8 0h1m-13 1h2m1 0h4m5 0h1"/><path stroke="#6514dd" d="M8 8h1m1 1h1m-2 2h1m-3 2h1m3 1h1m2 3h1m1 0h2m4 0h3m-13 4h1m-1 1h1m-1 1h5m2 0h4m1 0h1"/><path stroke="#7125ee" d="M9 8h1m2 1h1m-3 2h1m2 2h1m2 5h1m-3 1h1"/><path stroke="#7024ef" d="M11 8h1"/><path stroke="#7124ef" d="M14 8h1m7 1h1m-11 2h1m12 6h1m-11 5h1"/><path stroke="#7024ee" d="M21 8h1M11 9h1m13 0h1m-6 1h1m-1 2h1m-3 5h1m5 2h1"/><path stroke="#5519ae" d="M9 9h1m-2 2h1m17 1h1m-1 1h1M8 14h3m15 0h1m-1 1h1m-16 1h1m14 0h1m-16 1h1m14 0h1m-16 1h1m14 0h1m-1 1h1m-16 1h1m14 0h1m-13 4h10"/><path stroke="#7025ee" d="M21 11h1"/><path stroke="#cedef6" d="M14 12h1m6 0h1m-8 1h1m6 0h1m-8 1h2m5 0h2m-8 1h1m5 0h2m-8 1h1m5 0h2"/><path stroke="#c4e5f8" d="M15 12h1m6 0h1"/><path stroke="#000049" d="M16 12h2m5 0h2m-8 1h1m5 0h2m-8 1h1m5 0h2m-9 1h2m5 0h2m-9 1h1m7 0h1"/><path stroke="#def0fb" d="M15 13h1m6 0h1"/><path stroke="#000149" d="M16 13h1m0 3h1m5 0h1"/><path stroke="#010049" d="M16 14h1"/><path stroke="#5518ae" d="M11 15h1m-1 4h1"/><path stroke="#cedef7" d="M14 15h1m-1 1h1"/><path stroke="#6515dc" d="M15 17h1"/><path stroke="#6514dc" d="M21 17h1m-5 6h1m5 0h1m1 0h1"/><path stroke="#ff7f08" d="M17 19h1m1 0h3m-4 1h2m1 0h1m-2 1h5m-3 1h3"/><path stroke="#ff7e08" d="M18 19h1"/><path stroke="#ff9112" d="M22 19h2"/><path stroke="#f26c00" d="M17 20h1"/><path stroke="#a7421c" d="M20 20h1"/><path stroke="#a7431c" d="M22 20h1"/><path stroke="#fe7f09" d="M23 20h1"/><path stroke="#6515dd" d="M17 21h1"/><path stroke="#f26d00" d="M18 21h2m1 1h1"/><path stroke="#f26d01" d="M20 22h1"/><path stroke="#6414dc" d="M18 23h1"/></svg>