<svg xmlns="http://www.w3.org/2000/svg" shape-rendering="crispEdges" viewBox="0 -0.5 38 38"><path stroke="#7124ee" d="M13 3h1m-4 1h1m1 0h2m9 0h1M9 5h1m2 0h2m4 0h2M9 6h2m1 0h3m7 0h1M10 7h1m3 0h3m5 0h1M6 8h1m3 0h4m2 0h5m3 0h1m2 0h1M6 9h3m2 0h12M7 10h4m2 0h6m1 0h2m1 0h2m-15 1h6m1 0h1m1 0h7m4 0h1M6 12h2m4 0h2m4 0h3m4 0h1m3 0h1M8 13h1m3 0h2m4 0h1m1 0h1m4 0h1m1 0h2m-18 1h3m4 0h2m5 0h1M6 15h4m2 0h2m4 0h3m4 0h1M4 16h1m4 0h2m1 0h2m4 0h3m4 0h1m-14 1h2m4 0h3m4 0h1m-14 1h2m1 0h2m1 0h7m-13 1h4m8 0h2m-14 1h1m1 0h3m7 0h2m-13 1h3m9 0h1m-13 1h6m6 0h1"/><path stroke="#7125ee" d="M18 4h1m8 3h1m-17 5h1m-3 1h1m9 0h1M8 14h1m-4 1h1m11 3h1m-2 1h1m2 3h1"/><path stroke="#7124ef" d="M23 5h1m1 3h2M7 13h1m2 0h1m14 5h1m-13 2h1m2 1h1"/><path stroke="#641ecc" d="M19 6h1m-7 1h1m4 0h2m1 0h1m-8 1h2m5 0h2M10 9h1m12 0h4m-16 1h2m12 0h1M9 11h1m19 2h1M9 14h2m0 1h1m-5 1h2m5 1h1m6 0h4m-13 4h1m4 0h1m-6 1h1m-1 1h14"/><path stroke="#7024ef" d="M23 6h1m-8 5h1"/><path stroke="#7024ee" d="M9 7h1m9 3h1m2 0h1m-5 1h1m-8 2h1m8 1h1m-11 1h1m3 3h1"/><path stroke="#5519ae" d="M8 11h1m1 1h1m15 0h1m-1 1h1m-1 1h2m-17 2h1m-3 1h3m14 0h1m-16 1h1m14 0h1m-16 1h1m14 0h1m-16 1h1m14 0h1m-13 4h4m1 0h5"/><path stroke="#651ecc" d="M8 12h1m6 5h3"/><path stroke="#5419ae" d="M9 12h1m18 2h1m-3 2h1m-9 8h1"/><path stroke="#c4e5f8" d="M14 12h2m5 0h1"/><path stroke="#010149" d="M16 12h1"/><path stroke="#000049" d="M17 12h1m5 0h2m-8 1h1m5 0h1m-10 1h3m4 0h4m-11 1h4m3 0h4m-11 1h4m3 0h4"/><path stroke="#c5e5f9" d="M22 12h1"/><path stroke="#def0fb" d="M14 13h2m5 0h2"/><path stroke="#000048" d="M16 13h1m0 1h1"/><path stroke="#010049" d="M24 13h1"/><path stroke="#5518ae" d="M26 15h1"/><path stroke="#7125ef" d="M5 16h1"/><path stroke="#ff7f08" d="M17 19h5m-4 1h2m1 0h1m1 0h1m-4 1h2m1 0h2m-3 1h1m1 0h1"/><path stroke="#ff9112" d="M22 19h1"/><path stroke="#ff9012" d="M23 19h1"/><path stroke="#f26d00" d="M17 20h1m0 1h2m0 1h2"/><path stroke="#a7431c" d="M20 20h1m1 0h1"/><path stroke="#ff7f09" d="M22 21h1"/><path stroke="#ff7e08" d="M23 22h1"/></svg>