<svg xmlns="http://www.w3.org/2000/svg" shape-rendering="crispEdges" viewBox="0 -0.5 38 38"><path stroke="#44424c" d="M14 2h3m1 0h3m1 0h2M11 3h6m-6 1h1m1 0h1m-4 1h2m-2 1h1"/><path stroke="#44434c" d="M17 2h1m3 0h1M12 4h1"/><path stroke="#212121" d="M17 3h2m1 0h3m1 0h2M14 4h2m2 0h1m6 0h1M12 5h3m3 0h1m2 0h1m2 0h3M11 6h5m2 0h1m2 0h1m2 0h3M10 7h2m1 0h1m1 0h2m1 0h6m1 0h1m-14 3h12m1 0h6"/><path stroke="#212021" d="M19 3h1m1 1h1m-7 1h1m-4 2h1m4 0h1"/><path stroke="#212120" d="M23 3h1M14 7h1m9 0h1m1 0h1"/><path stroke="#fa4fdb" d="M16 4h1m2 0h1m2 0h1m-7 1h2m1 0h1m2 0h2m-8 1h1m2 0h1m2 0h2"/><path stroke="#fb4fdb" d="M17 4h1m2 1h1"/><path stroke="#480f3e" d="M20 4h1"/><path stroke="#ac2493" d="M23 4h1m-4 2h1"/><path stroke="#202121" d="M24 4h1m-1 6h1"/><path stroke="#490f3e" d="M17 6h1"/><path stroke="#111" d="M10 8h1m1 0h6m1 0h5m1 0h4M11 9h1m1 0h1m3 0h4m2 0h4m1 0h3"/><path stroke="#111011" d="M11 8h1m15 1h1"/><path stroke="#101111" d="M18 8h1m-7 1h1m1 0h1m1 0h1m5 0h1"/><path stroke="#101110" d="M24 8h1"/><path stroke="#111110" d="M15 9h1m5 0h1"/></svg>