<svg xmlns="http://www.w3.org/2000/svg" shape-rendering="crispEdges" viewBox="0 -0.5 38 38"><path stroke="#7124ee" d="M7 6h1m0 1h1m0 1h3m1 0h1m2 0h2m1 0h3M6 9h1m4 0h15M7 10h4m1 0h4m2 0h5m2 0h1M5 11h1m4 0h1m1 0h5m1 0h2m1 0h3m1 0h1M6 12h8m4 0h1m1 0h1M8 13h6m5 0h2m4 0h1m-14 1h2m4 0h3m4 0h1m-14 1h2m4 0h3m4 0h1m-14 1h1m5 0h3m-9 1h1m5 0h1m1 0h1m4 0h1m-14 1h2m1 0h1m1 0h5m1 0h3m-14 1h1m1 0h1m9 0h2m-14 1h5m8 0h1m-12 1h1m1 0h1m8 0h1m-13 1h1m1 0h2m1 0h2m5 0h1"/><path stroke="#641ecc" d="M8 8h1m1 1h1m-2 2h1m-3 2h1m3 1h1m0 7h1m4 0h1m-6 2h11m1 0h1"/><path stroke="#7024ef" d="M12 8h1m3 2h1"/><path stroke="#7125ee" d="M14 8h1m9 3h1m-7 2h1m-6 3h1m11 0h1m-13 1h1m1 2h1m-3 2h1m1 0h1"/><path stroke="#7124ef" d="M15 8h1m-5 2h1m5 0h1m6 0h1m-8 1h1m2 0h1m4 1h1m-12 6h1m7 0h1m-10 1h1m3 3h1"/><path stroke="#7024ee" d="M18 8h1m3 0h1m-12 3h1m7 1h1m-1 5h1m-4 1h1m-1 1h1m7 1h1m-11 2h1"/><path stroke="#5519ae" d="M9 9h1m-2 2h1m17 1h1m-1 1h1M9 14h2m15 0h1m-16 1h1m-1 1h1m-1 1h1m14 0h1m-16 2h1m14 0h1m-16 1h1m14 0h1m-12 4h2m1 0h1m2 0h3"/><path stroke="#7125ef" d="M23 10h1"/><path stroke="#effff6" d="M14 12h2m5 0h2"/><path stroke="#c9ffe2" d="M16 12h2m5 0h2m-8 1h1m6 0h1"/><path stroke="#51fa92" d="M14 13h2m5 0h1"/><path stroke="#0bf168" d="M16 13h1m6 0h1m-8 1h1m6 0h1m-8 1h1m6 0h1"/><path stroke="#50fa92" d="M22 13h1"/><path stroke="#5519af" d="M8 14h1m17 2h1m-1 2h1m-13 6h1m2 0h1"/><path stroke="#7afac7" d="M14 14h1"/><path stroke="#0a5a27" d="M15 14h1m6 0h1"/><path stroke="#aaffd1" d="M17 14h1m6 0h1m-1 1h1"/><path stroke="#7afbc7" d="M21 14h1m-8 1h1m6 0h1m-8 1h2m1 0h1m3 0h1m1 0h2"/><path stroke="#0e9445" d="M15 15h1m6 0h1"/><path stroke="#aaffd0" d="M17 15h1"/><path stroke="#5419ae" d="M26 15h1m-8 9h1"/><path stroke="#7afbc6" d="M16 16h1m5 0h1"/><path stroke="#315074" d="M14 17h2m1 0h1m3 0h2m1 0h1"/><path stroke="#315075" d="M16 17h1m6 0h1"/><path stroke="#5518ae" d="M11 18h1m8 6h1"/><path stroke="#ff7f08" d="M17 19h5m-4 1h2m3 0h1m-4 1h2m1 0h2m-3 1h3"/><path stroke="#ff9112" d="M22 19h2"/><path stroke="#f26d00" d="M17 20h1m0 1h2m0 1h2"/><path stroke="#a7431c" d="M20 20h1"/><path stroke="#ff7e08" d="M21 20h1"/><path stroke="#a7421c" d="M22 20h1"/><path stroke="#fe7f08" d="M22 21h1"/><path stroke="#651ecc" d="M12 22h1m12 1h1"/><path stroke="#641fcc" d="M23 23h1"/></svg>