<svg xmlns="http://www.w3.org/2000/svg" shape-rendering="crispEdges" viewBox="0 -0.5 38 38"><path stroke="#7124ee" d="M7 6h1m0 1h1m0 1h6m1 0h6M6 9h1m5 0h1m1 0h5m2 0h1m2 0h2M7 10h8m1 0h9M5 11h1m4 0h4m1 0h5m1 0h2m1 0h1M7 12h2m1 0h4m4 0h1m1 0h1m4 0h1M8 13h6m4 0h1m1 0h1m4 0h1m-14 1h2m4 0h3m4 0h1m-14 1h2m4 0h3m4 0h1m-14 1h2m4 0h3m4 0h1m-13 1h1m5 0h2m4 0h1m-14 1h6m1 0h2m1 0h4m-14 1h3m1 0h1m7 0h2m-14 1h2m2 0h1m7 0h2m-13 1h4m8 0h1m-13 1h7m5 0h1"/><path stroke="#6514dd" d="M8 8h1m1 1h1m-2 2h1m-3 2h1m3 1h1m2 3h4m4 0h3m-8 4h1m-6 2h1m1 0h1m1 0h7m1 0h2"/><path stroke="#7125ee" d="M15 8h1m4 1h1m2 0h1m1 1h1m-8 7h1m-4 2h1"/><path stroke="#7024ee" d="M22 8h1M13 9h1m5 0h1m-5 1h1m4 1h1m2 0h1m-5 2h1m-8 4h1m5 1h1m-4 2h1"/><path stroke="#5519ae" d="M9 9h1m-2 2h1m17 1h1m-1 1h1m-17 1h1m0 1h1m14 0h1m-1 1h1m-16 1h1m-1 1h1m-1 1h1m14 1h1m-13 4h10"/><path stroke="#7124ef" d="M11 9h1m2 2h1m10 0h1M6 12h1m2 0h1m9 0h1m1 6h1"/><path stroke="#7024ef" d="M22 9h1m-9 11h1"/><path stroke="#c4e5f8" d="M14 12h2m5 0h2"/><path stroke="#000049" d="M16 12h1m7 0h1m-9 1h2m5 0h2m-11 1h1m1 0h2m4 0h3m-11 1h2m5 0h2"/><path stroke="#000149" d="M17 12h1"/><path stroke="#000048" d="M23 12h1m-9 2h1m5 0h1m-7 2h1m6 0h1"/><path stroke="#def0fb" d="M14 13h2m5 0h2"/><path stroke="#5519af" d="M8 14h1m17 0h1m-16 2h1m-1 4h1"/><path stroke="#5419ae" d="M9 14h1m16 4h1"/><path stroke="#becee2" d="M16 15h2"/><path stroke="#becfe2" d="M23 15h1"/><path stroke="#becee3" d="M24 15h1"/><path stroke="#a8c4df" d="M14 16h1m1 0h2m3 0h1m1 0h2"/><path stroke="#6514dc" d="M21 17h1m-9 6h1m9 0h1"/><path stroke="#5518ae" d="M26 17h1m-1 2h1"/><path stroke="#ff7f08" d="M17 19h5m-4 1h2m1 0h1m1 0h1m-4 1h5m-3 1h2"/><path stroke="#ff9112" d="M22 19h2"/><path stroke="#f26c00" d="M17 20h1"/><path stroke="#a7431c" d="M20 20h1"/><path stroke="#a7431d" d="M22 20h1"/><path stroke="#6414dd" d="M12 21h1m-1 1h1m2 1h1"/><path stroke="#f26d00" d="M18 21h2m0 1h2"/><path stroke="#ff7e08" d="M24 22h1"/></svg>