<svg xmlns="http://www.w3.org/2000/svg" shape-rendering="crispEdges" viewBox="0 -0.5 38 38"><path stroke="#7124ef" d="M7 6h1m8 2h1m-3 1h1m-6 1h1m1 0h1m11 0h1m-14 1h1m4 0h1m-1 1h1m-6 1h1m2 3h1"/><path stroke="#7124ee" d="M8 7h1m0 1h6m3 0h5M6 9h1m4 0h2m2 0h1m1 0h3m1 0h1m1 0h3M7 10h2m1 0h1m1 0h11m1 0h2M5 11h1m5 0h2m1 0h1m1 0h10M6 12h4m2 0h2m2 0h2m1 0h2m2 0h2M8 13h2m2 0h2m2 0h1m2 0h2m2 0h1m-11 1h2m3 0h3m4 0h1m-14 1h3m3 0h4m3 0h1m-14 1h1m3 0h1m2 0h2m2 0h1m-12 1h2m1 0h11m-14 1h14m-14 1h4m8 0h2m-14 1h1m1 0h3m7 0h2m-12 1h2m9 0h1m-13 1h7"/><path stroke="#641ecc" d="M8 8h1m1 1h1m-2 2h1m4 2h1m3 0h1m2 0h1m3 0h1m-15 1h1m5 0h1m-1 2h1m6 0h1m-8 5h1m-6 2h2m1 0h4m2 0h1m1 0h3"/><path stroke="#7025ee" d="M15 8h1"/><path stroke="#7125ee" d="M17 8h1m-8 4h1m1 2h1m3 5h1m-4 1h1m-1 1h1"/><path stroke="#5519ae" d="M9 9h1m-2 2h1m17 1h1m-1 1h1M8 14h3m4 0h1m6 0h1m3 0h1m-11 1h1m6 0h1m2 0h1m-16 1h1m3 0h1m6 0h1m-12 1h1m14 0h1m-16 1h1m14 0h1m-16 1h1m14 0h1m-16 1h1m2 4h9"/><path stroke="#7125ef" d="M13 9h1"/><path stroke="#7024ee" d="M16 9h1m3 0h1m1 0h1m-10 2h1m-3 1h1m10 0h1m-12 1h1m9 1h1m-8 3h1m1 4h1m8 1h1"/><path stroke="#000049" d="M14 12h1m10 0h1m-11 1h1m1 0h1m4 0h1m1 0h1m-9 1h1m6 0h1m-9 1h1m1 0h1m4 0h1m1 0h1m-11 1h1m3 0h1m2 0h1"/><path stroke="#000148" d="M18 12h1"/><path stroke="#000048" d="M21 12h1m3 4h1"/><path stroke="#651ecc" d="M7 13h1m4 8h1m1 2h1m4 0h1"/><path stroke="#641ecd" d="M24 14h1m-13 8h1m7 1h1m1 0h1"/><path stroke="#5518ae" d="M11 15h1m14 1h1m-4 8h1"/><path stroke="#ff7f08" d="M17 19h2m1 0h2m-4 1h2m1 0h1m1 0h1m-4 1h5m-2 1h2"/><path stroke="#ff7f09" d="M19 19h1"/><path stroke="#ff9112" d="M22 19h2"/><path stroke="#f26d00" d="M17 20h1m1 1h1m0 1h1"/><path stroke="#a7431c" d="M20 20h1"/><path stroke="#a7421c" d="M22 20h1"/><path stroke="#5519af" d="M26 20h1"/><path stroke="#f26c00" d="M18 21h1"/><path stroke="#f26d01" d="M21 22h1"/><path stroke="#ff7e08" d="M22 22h1"/></svg>