<svg xmlns="http://www.w3.org/2000/svg" shape-rendering="crispEdges" viewBox="0 -0.5 38 38"><path stroke="#e8939b" d="M17 3h1m-4 1h3m2 0h1m-7 1h3m1 0h5M12 6h3m1 0h9M12 7h2m1 0h5m1 0h6M13 8h2m1 0h11M14 9h1m1 0h1m3 0h1m1 0h1m1 0h1m1 0h1"/><path stroke="#f4aeb5" d="M18 3h1m1 1h3m-1 1h3m0 1h1"/><path stroke="#e45c69" d="M17 4h2m-8 3h1m-2 1h3m-1 1h2m1 0h1m1 0h1m1 0h1m3 0h1m1 0h1m1 0h1m-18 1h4m1 0h5m1 0h7"/><path stroke="#e8929b" d="M16 5h1"/><path stroke="#e9939b" d="M15 6h1m4 1h1"/><path stroke="#e8939a" d="M14 7h1m3 2h1"/><path stroke="#e9929b" d="M15 8h1"/><path stroke="#e45d69" d="M10 9h1m3 1h1m5 0h1"/><path stroke="#e45c68" d="M11 9h1"/><path stroke="#e55c68" d="M21 9h1"/></svg>