<svg xmlns="http://www.w3.org/2000/svg" shape-rendering="crispEdges" viewBox="0 -0.5 38 38"><path stroke="#28d941" d="M17 3h1"/><path stroke="#6bf53d" d="M18 3h1m1 1h2m1 1h2m0 1h1"/><path stroke="#28d940" d="M14 4h3m2 0h1m-7 1h5m1 0h3m-9 1h3m1 0h7M12 7h9m1 0h5M13 8h10m1 0h3M14 9h1m1 0h1m1 0h1m1 0h1m1 0h1m1 0h1m1 0h1"/><path stroke="#1eba64" d="M17 4h2m-8 3h1m-2 1h3m-3 1h2m1 0h1m3 0h1m1 0h1m1 0h1m1 0h1m1 0h1m1 0h1m-16 1h10m1 0h5"/><path stroke="#6bf53c" d="M22 4h1m-1 1h1"/><path stroke="#28d840" d="M18 5h1m-3 1h1m7 0h1m-2 2h1"/><path stroke="#29d840" d="M12 6h1"/><path stroke="#29d940" d="M21 7h1"/><path stroke="#1fba64" d="M12 9h1m-3 1h1m11 0h1"/><path stroke="#1eba65" d="M15 9h1m-5 1h1"/></svg>