<svg xmlns="http://www.w3.org/2000/svg" shape-rendering="crispEdges" viewBox="0 -0.5 38 38"><path stroke="#41a6ff" d="M17 3h1m1 1h1m-7 1h5m1 0h2m-9 1h13M12 7h4m1 0h5m1 0h2m1 0h1M14 8h10m2 0h1M16 9h1m5 0h1m1 0h1m1 0h1"/><path stroke="#43ccfe" d="M18 3h1m1 1h3m-1 1h3m0 1h1"/><path stroke="#41a6fe" d="M14 4h1m3 1h1m-3 2h1m7 1h2m-8 1h1"/><path stroke="#40a6fe" d="M15 4h1"/><path stroke="#41a7ff" d="M16 4h1m8 3h1M14 9h1m5 0h1"/><path stroke="#3291ff" d="M17 4h2m-8 3h1m-2 1h3m-3 1h4m1 0h1m1 0h1m1 0h1m3 0h1m1 0h1m1 0h1m-18 1h13m1 0h4"/><path stroke="#40a6ff" d="M21 5h1m0 2h1"/><path stroke="#40a7ff" d="M13 8h1"/><path stroke="#3291fe" d="M21 9h1"/><path stroke="#3391ff" d="M23 10h1"/></svg>