<svg xmlns="http://www.w3.org/2000/svg" shape-rendering="crispEdges" viewBox="0 -0.5 38 38"><path stroke="#efaf37" d="M13 0h2m-3 1h2m1 0h1m9 0h2M12 2h1m2 0h1m8 0h3M11 3h1m4 0h1m5 0h4M11 4h1m12 0h1M11 5h1m-2 1h1M8 22h1m3 0h1m14 0h1M8 23h6m1 0h1m9 0h2m1 0h1m-19 1h9m1 0h1m1 0h6m-14 1h5m1 0h1m1 0h2m1 0h1"/><path stroke="#bf810b" d="M14 1h1m-2 1h2m-1 1h2m10 0h1m-1 1h1M17 5h1m2 0h1m4 0h2M13 6h1m3 0h1m2 0h1m3 0h1M13 7h1m10 0h1m-9 2h1m0 1h3M9 24h1m18 0h2m-19 1h2m14 0h1m-14 1h3m1 0h6"/><path stroke="#efaf36" d="M16 2h1m-5 1h1m14 20h1m-4 2h1"/><path stroke="#bf810a" d="M13 3h1m12 22h1m-2 1h1"/><path stroke="#efae37" d="M12 4h1m15 18h1m-8 2h1m-3 1h1"/><path stroke="#efc45b" d="M13 4h1m-1 1h1M8 18h1m-2 1h1"/><path stroke="#efc45a" d="M14 4h10M12 5h1m5 0h2m-2 1h2M9 7h1m7 0h2m1 0h1M9 8h1M9 9h1m-2 1h2m-2 1h2m-2 1h2m-2 1h2m-3 1h2m-2 1h1m-1 1h2m-2 1h2m-2 1h1m1 0h1m19 0h1M8 19h2m20 0h1M7 20h4m17 0h2M7 21h1m1 0h3m16 0h3M9 22h3m17 0h2"/><path stroke="#be810b" d="M25 4h1"/><path stroke="#fff" d="M14 5h1m6 0h1m-8 1h1m6 0h1m-8 1h1m6 0h1"/><path stroke="#606060" d="M15 5h1m6 0h2"/><path stroke="#606061" d="M16 5h1"/><path stroke="#eec45a" d="M24 5h1m-6 2h1m10 13h1M8 21h1"/><path stroke="#fcfcc4" d="M11 6h2m12 0h1M10 7h1m1 0h1m12 0h3M10 8h5m1 0h2m3 0h4m1 0h2M10 9h6m1 0h2m1 0h7m-17 1h3m12 0h4m-19 1h2m14 0h3m-19 1h1m17 0h1m-19 1h1m16 0h3M9 14h1m17 0h3M9 15h2m16 0h3M9 16h2m16 0h2M9 17h2m16 0h3m-20 1h1m17 0h1m-19 1h2m15 0h2m-18 1h1"/><path stroke="#22100f" d="M15 6h2m5 0h2m-9 1h2m5 0h2m-6 1h3m-2 1h1"/><path stroke="#fcfdc5" d="M26 6h1M15 8h1"/><path stroke="#fdfcc4" d="M11 7h1m13 1h1m1 1h1m-18 5h1m16 4h1"/><path stroke="#e1dcb4" d="M13 10h1m1 0h2m3 0h1m1 0h2m-12 1h1m-2 1h1m14 1h1m-15 7h1m14 0h1m-16 1h1m13 0h2m-15 1h1m12 0h1"/><path stroke="#e0dcb4" d="M14 10h1"/><path stroke="#e1dcb5" d="M21 10h1m2 0h1m1 2h1"/><path stroke="#fcfdc4" d="M27 12h1"/><path stroke="#efc55a" d="M8 15h1m20 4h1"/><path stroke="#fcfcc5" d="M29 16h1"/><path stroke="#eeaf37" d="M14 23h1m14 0h1m-11 1h1m1 1h1"/><path stroke="#bf800b" d="M10 25h1m2 0h1m10 1h1"/><path stroke="#bf800a" d="M17 26h1"/></svg>