<svg xmlns="http://www.w3.org/2000/svg" shape-rendering="crispEdges" viewBox="0 -0.5 38 38"><path stroke="#27272b" d="M11 3h1m1 0h1m1 0h8m-9 1h6m2 0h3M14 5h7m1 0h3M14 6h5m2 0h3M14 7h11M15 9h4m1 0h2m1 0h6"/><path stroke="#26272b" d="M12 3h1m1 0h1m6 2h1m-2 1h1m1 3h1"/><path stroke="#323237" d="M23 3h3m-1 1h1m-1 2h1m-1 1h1"/><path stroke="#212127" d="M11 4h3m-3 1h2m-2 1h1m1 0h1m-3 1h3M8 9h7m-7 1h9m1 0h6m1 0h2m1 0h1"/><path stroke="#27262b" d="M20 4h2m-3 2h1m-1 3h1"/><path stroke="#202126" d="M13 5h1"/><path stroke="#323236" d="M25 5h1"/><path stroke="#212126" d="M12 6h1"/><path stroke="#27272a" d="M24 6h1"/><path stroke="#c8002b" d="M11 8h1m5 0h1"/><path stroke="#c8002a" d="M12 8h3m3 0h5m1 0h1"/><path stroke="#c8012a" d="M15 8h1"/><path stroke="#c9002a" d="M16 8h1m6 0h1"/><path stroke="#dc1740" d="M25 8h1"/><path stroke="#212027" d="M17 10h1m9 0h1"/><path stroke="#202127" d="M24 10h1"/></svg>