<svg xmlns="http://www.w3.org/2000/svg" shape-rendering="crispEdges" viewBox="0 -0.5 38 38"><path stroke="#7124ee" d="M7 6h1m0 1h1m0 1h7m1 0h6M6 9h1m4 0h15M7 10h4m1 0h11m1 0h1M5 11h1m4 0h8m1 0h1m1 0h2m2 0h1M6 12h1m1 0h2m3 0h1m4 0h4m3 0h1M8 13h6m4 0h3m4 0h1m-14 1h2m4 0h3m-8 1h1m4 0h3m4 0h1m-14 1h1m5 0h3m4 0h1m-14 1h2m4 0h3m4 0h1m-14 1h3m2 0h3m1 0h5m-10 1h1m7 0h1m-13 1h3m1 0h1m7 0h2m-13 1h2m1 0h1m8 0h1m-13 1h2m1 0h4m5 0h1"/><path stroke="#6514dd" d="M8 8h1m0 3h1m-3 2h1m3 1h1m2 3h4m3 0h4m-13 4h1m4 0h1m-6 1h1m-1 1h10m1 0h3"/><path stroke="#7125ee" d="M16 8h1m8 2h1m-1 4h1m-11 4h1m4 0h1m-9 1h1m1 0h1"/><path stroke="#5519ae" d="M9 9h1m-2 2h1m7 1h1m5 0h1m3 0h1m-10 1h1m8 0h1M8 14h1m1 0h1m15 0h1m-16 1h1m14 0h1m-16 1h1m14 0h1m-16 1h1m14 0h1m-16 1h1m14 0h1m-16 1h1m14 0h1m-16 1h1m14 0h1m-12 4h2m1 0h4m1 0h1"/><path stroke="#6414dd" d="M10 9h1"/><path stroke="#7024ee" d="M11 10h1m12 1h1m-13 1h1m4 0h1m-5 4h1m-1 3h1"/><path stroke="#7024ef" d="M23 10h1m-1 1h1"/><path stroke="#7124ef" d="M18 11h1m1 0h1M7 12h1m2 0h2m0 3h1m3 3h1m-2 1h1m9 0h1m-11 1h1m-1 1h1m-1 1h1"/><path stroke="#cedef6" d="M14 12h1m-1 3h1m6 0h1m-8 1h1m6 0h1"/><path stroke="#000049" d="M15 12h1m7 0h2m-10 1h2m5 0h2m-9 1h1m6 0h1m-8 1h3m6 0h1m-10 1h3m4 0h3"/><path stroke="#cedef7" d="M14 13h1"/><path stroke="#5418ae" d="M21 13h1m-8 11h1"/><path stroke="#000048" d="M24 13h1m-2 2h1"/><path stroke="#5518ae" d="M9 14h1m12 10h1"/><path stroke="#dff0fb" d="M14 14h1"/><path stroke="#626a9c" d="M16 14h2m5 0h1"/><path stroke="#def0fb" d="M21 14h1"/><path stroke="#636a9c" d="M24 14h1"/><path stroke="#010049" d="M22 15h1"/><path stroke="#ff7f08" d="M17 19h1m1 0h2m-3 1h2m1 0h1m1 0h1m-4 1h5m-3 1h3"/><path stroke="#ff7e08" d="M18 19h1m2 0h1"/><path stroke="#ff9013" d="M22 19h1"/><path stroke="#ff9112" d="M23 19h1"/><path stroke="#f26d00" d="M17 20h1m0 1h1m1 1h2"/><path stroke="#a7431c" d="M20 20h1"/><path stroke="#a6431c" d="M22 20h1"/><path stroke="#f26c00" d="M19 21h1"/><path stroke="#6515dd" d="M22 23h1"/><path stroke="#5519af" d="M17 24h1"/></svg>