<svg xmlns="http://www.w3.org/2000/svg" shape-rendering="crispEdges" viewBox="0 -0.5 38 38"><path stroke="#fffc84" d="M9 3h2M9 4h2m2 14h1"/><path stroke="#f1e24a" d="M12 4h2m1 0h4m1 0h3m1 0h1m1 0h1M9 5h1m2 0h1M9 6h1m2 0h1M9 7h1m2 0h1M9 8h1m2 0h1m6 0h1m-2 1h1M9 10h1m-1 1h1m-1 1h1m-1 1h1m-1 1h1m-1 2h1m-1 1h1m1 2h2"/><path stroke="#f1e24b" d="M14 4h1m10 0h1M9 15h1"/><path stroke="#f1e34a" d="M19 4h1M9 9h1m-1 9h1"/><path stroke="#f0e24a" d="M23 4h1"/><path stroke="#d8b535" d="M10 5h1m3 0h5m1 0h1m1 0h2m1 0h2M10 6h2m14 0h1M10 7h2m14 0h1M10 8h1m15 0h1M13 9h1m5 0h2m4 0h1m-12 1h1m1 0h3m1 0h5m-15 1h1m-1 1h1m-1 1h1m-1 1h1m-1 1h1m-1 1h1m-1 1h1m-1 1h1m-1 1h1m2 0h2m-4 1h3"/><path stroke="#d8b534" d="M13 5h1m5 0h1"/><path stroke="#d8b435" d="M21 5h1m2 0h1m-10 5h1"/><path stroke="#c0ebfe" d="M13 6h1m11 2h1"/><path stroke="#c0ebff" d="M14 6h1m4 0h1m1 0h1m-9 1h1m4 0h3m4 0h1M16 8h3m4 0h2M15 9h3m4 0h3"/><path stroke="#c1ebff" d="M15 6h1"/><path stroke="#e0faff" d="M16 6h3m3 0h4M14 7h4m3 0h1m1 0h1M14 8h2m4 0h2m-8 1h1m6 0h1"/><path stroke="#c0eaff" d="M20 6h1"/><path stroke="#e0fafe" d="M22 7h1m-1 1h1"/><path stroke="#e1faff" d="M24 7h1M13 8h1"/><path stroke="#d9b535" d="M10 9h1m-1 1h1"/><path stroke="#fffd84" d="M14 18h1"/></svg>