<svg xmlns="http://www.w3.org/2000/svg" shape-rendering="crispEdges" viewBox="0 -0.5 38 38"><path stroke="#7124ee" d="M7 6h1m0 1h1m0 1h5m1 0h6M6 9h1m5 0h14M7 10h6m1 0h1m1 0h10m-15 1h2m1 0h6m1 0h2m1 0h2M6 12h2m1 0h1m1 0h3m5 0h2m4 0h1M8 13h2m1 0h1m1 0h1m4 0h3m4 0h1m-14 1h2m4 0h3m-9 1h1m6 0h2m4 0h1m-7 1h2m4 0h1m-14 1h2m4 0h3m4 0h1m-14 1h4m1 0h5m1 0h3m-14 1h5m-5 1h5m7 0h2m-13 1h4m8 0h1m-13 1h7m5 0h1"/><path stroke="#641ecc" d="M8 8h1m1 1h1m-2 2h1m-3 2h1m3 1h1m2 3h4m3 0h4m-13 4h1m4 0h1m-6 1h1m-1 1h8m1 0h3m1 0h1"/><path stroke="#7125ee" d="M14 8h1m6 0h1M11 9h1m1 1h1m-1 1h1m6 0h1m2 0h1m-6 1h1m-7 1h1m0 2h1"/><path stroke="#7124ef" d="M22 8h1m-8 2h1m-8 2h1m9 3h1m5 4h1"/><path stroke="#5519ae" d="M9 9h1m-2 2h1m17 2h1M8 14h1m1 0h1m15 0h1m-16 1h1m14 0h1m-16 1h1m14 0h1m-16 1h1m14 0h1m-1 1h1m-16 1h1m14 0h1m-16 1h1m14 0h1m-13 4h6m1 0h3"/><path stroke="#7024ee" d="M5 11h1m4 0h1m-1 1h1m-1 1h1m14 1h1m-13 2h1m4 0h1m-3 2h1m5 0h1m2 1h1"/><path stroke="#def0fb" d="M14 12h2m6 0h1m-9 1h1"/><path stroke="#c4e5f8" d="M16 12h1m6 0h1m-10 2h1m6 0h1"/><path stroke="#cedef6" d="M17 12h1m6 0h1m-8 1h1m6 0h1m-8 1h1m6 0h1m-11 1h1m2 0h1m3 0h1m2 0h1m-11 1h4m4 0h1m1 0h1"/><path stroke="#dff1fb" d="M21 12h1"/><path stroke="#5419ae" d="M26 12h1"/><path stroke="#000049" d="M15 13h2m-2 1h2m6 0h1m-8 1h1m5 0h2"/><path stroke="#dff0fb" d="M21 13h1"/><path stroke="#000048" d="M22 13h1"/><path stroke="#000149" d="M23 13h1m-2 1h1m-8 1h1"/><path stroke="#5518ae" d="M9 14h1m10 10h1"/><path stroke="#7025ee" d="M12 16h1"/><path stroke="#cedff6" d="M21 16h1"/><path stroke="#cfdef6" d="M23 16h1"/><path stroke="#5519af" d="M11 18h1"/><path stroke="#ff7f08" d="M17 19h4m-3 1h1m2 0h1m1 0h1m-4 1h5m-3 1h3"/><path stroke="#fe7f08" d="M21 19h1"/><path stroke="#ff9112" d="M22 19h2"/><path stroke="#f26d00" d="M17 20h1m1 1h1m1 1h1"/><path stroke="#ff7e08" d="M19 20h1"/><path stroke="#a6431c" d="M20 20h1"/><path stroke="#a7431c" d="M22 20h1"/><path stroke="#f36d00" d="M18 21h1m1 1h1"/><path stroke="#651ecc" d="M20 23h1"/><path stroke="#641ecd" d="M24 23h1"/></svg>