<svg xmlns="http://www.w3.org/2000/svg" shape-rendering="crispEdges" viewBox="0 -0.5 38 38"><path stroke="#a8a8a8" d="M31 24h1m-4 1h2m-3 1h1"/><path stroke="#858585" d="M32 24h1m-1 1h1m-5 1h3m-5 1h4m-3 1h2m-2 1h1"/><path stroke="#848585" d="M30 25h1"/><path stroke="#858584" d="M31 25h1"/><path stroke="#a8a9a8" d="M26 26h1"/><path stroke="#858485" d="M31 26h1"/><path stroke="#767776" d="M30 27h1"/><path stroke="#636363" d="M26 28h1m2 1h1m-4 1h1m1 0h1m-2 1h1m-2 1h1"/><path stroke="#767676" d="M29 28h1m-4 1h1m1 0h1m-2 1h1m-2 1h1"/></svg>