<svg xmlns="http://www.w3.org/2000/svg" shape-rendering="crispEdges" viewBox="0 -0.5 38 38"><path stroke="#50353d" d="M12 25h1m-2 1h2m-2 1h2m-2 1h2m-2 1h2m-1 1h1m-1 1h1m-2 1h2m-2 1h1m-1 1h2m-1 1h1m-1 1h1m-2 1h2"/><path stroke="#64403e" d="M13 25h2m-2 1h3m8 0h2m-12 1h3m7 0h1m-12 1h4m7 0h2m-12 1h4m2 0h2m2 0h1m-12 1h3m1 0h1m1 0h1m2 0h4m-13 1h4m1 0h2m2 0h4m-13 1h1m1 0h1m1 0h1m2 0h4m1 0h1m-13 1h1m1 0h1m1 0h6m1 0h2m-12 1h6m2 0h1m1 0h2m-13 1h7m2 0h2m-11 1h4m1 0h6m1 0h1m-13 1h6m2 0h2m1 0h2"/><path stroke="#7e5f5e" d="M24 25h1"/><path stroke="#7f5f5e" d="M25 25h1"/><path stroke="#64413e" d="M16 26h1m1 6h2m-4 1h1m6 0h1m0 2h1m-8 1h1m6 0h1"/><path stroke="rgba(24,24,34,0.20784313725490197)" d="M17 26h1m2 0h2"/><path stroke="#12c446" d="M18 26h1m3 0h2m-3 1h1"/><path stroke="#12c447" d="M19 26h1"/><path stroke="#64403f" d="M13 27h1m11 2h1m-8 1h1m-5 2h1m-2 2h1m9 0h1m1 1h1m-7 2h2"/><path stroke="#019458" d="M17 27h1m3 1h1"/><path stroke="#12c546" d="M18 27h1"/><path stroke="#0ead54" d="M19 27h2m1 0h2m-6 1h2m2 0h1"/><path stroke="#65403e" d="M25 27h1m-13 2h1m2 1h1m0 1h1m-2 1h1m7 0h1m-11 1h1m8 4h1"/><path stroke="#009458" d="M17 28h1m2 0h1m2 0h1m-6 1h1m3 0h2"/><path stroke="#009558" d="M19 29h1"/><path stroke="#50353c" d="M11 30h1m-1 6h1"/><path stroke="#9cb3b9" d="M20 30h1m-1 4h2"/><path stroke="#9cb2b9" d="M21 30h1"/><path stroke="#51353d" d="M11 31h1"/><path stroke="#7e9398" d="M20 31h2m-2 4h2"/><path stroke="#50343d" d="M12 33h1m-2 2h1"/></svg>