<svg xmlns="http://www.w3.org/2000/svg" shape-rendering="crispEdges" viewBox="0 -0.5 38 38"><path stroke="#1a1a23" d="M12 25h1m-2 1h2m-2 1h2m-2 1h1m-1 1h2m-2 1h1m0 1h1m-2 1h2m-2 1h2m-1 1h1m-2 1h2m-2 1h2m-2 1h2"/><path stroke="#252534" d="M13 25h2m-2 1h2m10 0h1m-12 1h1m9 0h2m-13 1h5m6 0h2m-13 1h6m6 0h1m-13 1h4m6 0h3m-13 1h3m1 0h1m6 0h1m-10 1h6m1 0h4m-12 1h12m-13 1h3m1 0h4m1 0h2m1 0h1m-13 1h7m2 0h3m-12 1h2m2 0h1m1 0h1m3 0h3m-13 1h1m1 0h6m1 0h1m1 0h2"/><path stroke="#202ca9" d="M19 25h3m0 1h1"/><path stroke="#202ca8" d="M22 25h1"/><path stroke="#373643" d="M25 25h1"/><path stroke="#252435" d="M15 26h1"/><path stroke="#363643" d="M16 26h1m0 1h1m0 1h1m4 1h1"/><path stroke="#4f5dfa" d="M19 26h1"/><path stroke="#3745d3" d="M20 26h2m-2 1h1m-2 1h2m-2 1h2m-2 1h2m-1 1h1"/><path stroke="rgba(24,24,34,0.20784313725490197)" d="M24 26h1m-6 1h1m2 0h1m0 1h1"/><path stroke="#252434" d="M13 27h1m3 3h1m5 1h1m-3 3h1m-1 3h1"/><path stroke="#252535" d="M15 27h1m2 3h1m-3 1h1m1 0h2m-6 1h1m-2 1h1m10 1h1m0 1h1m-4 1h1m-9 1h1m8 0h1"/><path stroke="#242534" d="M16 27h1m8 4h1m-13 1h1m2 2h1m-2 2h2m1 0h1"/><path stroke="rgba(24,24,35,0.20784313725490197)" d="M18 27h1"/><path stroke="#212fc5" d="M21 27h1m-1 1h2m-2 1h2m-2 1h2m-2 1h2m-2 1h1"/><path stroke="rgba(24,25,34,0.20784313725490197)" d="M23 27h1"/><path stroke="#1a1a22" d="M12 28h1"/><path stroke="#242434" d="M24 29h1"/><path stroke="#1a1b23" d="M12 30h1m-2 4h1"/><path stroke="#1b1a22" d="M11 31h1"/><path stroke="#ffb83f" d="M20 35h2"/><path stroke="#d49730" d="M20 36h1"/><path stroke="#d49630" d="M21 36h1"/></svg>