<svg xmlns="http://www.w3.org/2000/svg" shape-rendering="crispEdges" viewBox="0 -0.5 38 38"><path stroke="#1a1b23" d="M12 25h1m-2 12h1"/><path stroke="#252534" d="M13 25h2m-2 1h3m8 0h2m-11 1h2m7 0h2m-13 1h4m7 0h1m-12 1h1m1 0h1m1 0h1m2 0h2m2 0h1m-12 1h7m2 0h4m-13 1h2m1 0h4m3 0h3m-11 1h5m1 0h5m-12 1h3m1 0h2m1 0h5m-11 1h2m1 0h2m3 0h2m-11 1h6m2 0h2m1 0h1m-13 1h1m1 0h6m2 0h3m-13 1h11m1 0h1"/><path stroke="#363643" d="M24 25h2"/><path stroke="#1a1a23" d="M11 26h2m-2 1h2m-2 1h2m-2 1h1m-1 1h2m-1 1h1m-2 1h2m-1 1h1m-2 1h2m-2 1h1m-1 1h2m-1 1h1"/><path stroke="#252535" d="M16 26h1m-3 1h1m-2 5h1m-1 1h1m3 0h1m2 0h1m4 1h1m-2 1h1"/><path stroke="rgba(24,24,34,0.20784313725490197)" d="M17 26h1m2 0h1"/><path stroke="#fc4559" d="M18 26h1m3 0h2m-6 1h1"/><path stroke="#fc4459" d="M19 26h1"/><path stroke="rgba(24,24,35,0.20784313725490197)" d="M21 26h1"/><path stroke="#252434" d="M13 27h1m11 1h1m-10 1h1m8 0h1m-13 5h2m-1 2h1m6 0h2m1 1h1"/><path stroke="#c52133" d="M17 27h1m-1 1h1m2 0h2m-4 1h2m2 0h2"/><path stroke="#fb0621" d="M19 27h1m2 0h1m-5 1h2m2 0h1"/><path stroke="#fb0620" d="M20 27h1"/><path stroke="#fd4559" d="M21 27h1"/><path stroke="#fb0721" d="M23 27h1"/><path stroke="#c52132" d="M23 28h1"/><path stroke="#1b1a23" d="M12 29h1m-2 2h1"/><path stroke="#242534" d="M14 29h1m0 2h1m6 0h1m-9 1h1m5 0h1m-8 3h1"/><path stroke="#ffb83f" d="M20 30h2m-2 4h2"/><path stroke="#d49730" d="M20 31h2m-2 4h1"/><path stroke="#1a1a22" d="M11 33h1m0 2h1"/><path stroke="#242434" d="M17 34h1"/><path stroke="#242535" d="M22 34h1"/><path stroke="#d59730" d="M21 35h1"/></svg>