<svg xmlns="http://www.w3.org/2000/svg" shape-rendering="crispEdges" viewBox="0 -0.5 38 38"><path stroke="#8e7566" d="M12 25h1m-2 1h2"/><path stroke="#8e747c" d="M13 25h1m-1 2h2m10 0h1m-13 4h3m1 0h1m1 0h1m2 0h2m1 0h1m-13 4h1m1 0h1m1 0h3m2 0h1m2 0h1m-8 2h1m3 0h1"/><path stroke="#866d7d" d="M14 25h1"/><path stroke="#dfb594" d="M24 25h2"/><path stroke="#b79076" d="M13 26h1m1 0h1"/><path stroke="#937a83" d="M14 26h1"/><path stroke="#aa8868" d="M16 26h1"/><path stroke="rgba(24,24,34,0.20784313725490197)" d="M17 26h1m2 0h2"/><path stroke="#01c383" d="M18 26h2"/><path stroke="#00c383" d="M22 26h2m-6 1h1m2 0h1"/><path stroke="#aa8968" d="M24 26h1m-9 2h1m7 0h1m-9 2h1m7 0h1m-9 2h1m3 0h1m3 0h1m-9 2h1m7 0h1m-9 2h1m3 0h1m3 0h1"/><path stroke="#b58f70" d="M25 26h1m-13 2h1m1 0h1m9 0h1m-11 2h1m1 0h1m5 0h1m1 0h1m-13 2h1m1 0h1m1 0h1m3 0h1m1 0h1m1 0h1m-11 2h1m1 0h1m1 0h1m3 0h1m1 0h1m-13 2h1m1 0h1m1 0h1m1 0h1m1 0h1m1 0h1m1 0h1"/><path stroke="#8b7863" d="M11 27h2m-2 4h1m-1 4h1"/><path stroke="#8e757c" d="M15 27h1m2 4h1"/><path stroke="#8c7171" d="M16 27h1m7 0h1m-11 2h1m1 2h1m-3 2h1m3 0h1m3 0h1m-7 2h1m7 0h1"/><path stroke="#008181" d="M17 27h1m-1 1h1m2 0h2m-4 1h2m2 0h1"/><path stroke="#00a389" d="M19 27h2m-3 1h2m2 0h1"/><path stroke="#00a388" d="M22 27h2"/><path stroke="#947862" d="M11 28h2m-2 2h1m-1 2h2m-1 2h1m-2 2h2"/><path stroke="#967d7a" d="M14 28h1m-1 2h1m3 0h1m-5 2h1m3 0h1m3 0h1m-9 2h1m3 0h1m3 0h1m-9 2h1m3 0h1"/><path stroke="#008081" d="M23 28h1"/><path stroke="#8b7662" d="M11 29h2m-2 4h1m-1 4h1"/><path stroke="#a07e5c" d="M13 29h1m1 0h3m2 0h1m3 0h2m-13 4h1m1 0h3m1 0h3m1 0h1m1 0h1m-13 4h1m2 0h2m1 0h3m1 0h3"/><path stroke="#a17e5c" d="M21 29h1"/><path stroke="#018081" d="M23 29h1"/><path stroke="#947962" d="M12 30h1"/><path stroke="#b58e70" d="M13 30h1"/><path stroke="#b58f71" d="M19 30h1"/><path stroke="#bdc2c5" d="M20 30h2m-2 4h2"/><path stroke="#967c7a" d="M22 30h1"/><path stroke="#8a7863" d="M12 31h1"/><path stroke="#a3a8aa" d="M20 31h1"/><path stroke="#a3a8ab" d="M21 31h1m-2 4h2"/><path stroke="#8c7071" d="M24 31h1"/><path stroke="#b48f70" d="M19 32h1m-7 2h1"/><path stroke="#8a7662" d="M12 33h1"/><path stroke="#a17f5c" d="M24 33h1"/><path stroke="#947963" d="M11 34h1"/><path stroke="#8b7862" d="M12 35h1"/><path stroke="#8e757d" d="M14 35h1"/><path stroke="#8e747d" d="M23 35h1"/><path stroke="#967d7b" d="M22 36h1"/><path stroke="#8b7663" d="M12 37h1"/><path stroke="#8f747c" d="M14 37h1"/><path stroke="#a07f5c" d="M15 37h1"/></svg>