<svg xmlns="http://www.w3.org/2000/svg" shape-rendering="crispEdges" viewBox="0 -0.5 38 38"><path stroke="#dbcdaf" d="M12 25h1m12 0h1m-15 1h2m3 0h1m-6 1h1m5 0h1m-6 1h1m5 0h1m-8 1h2m10 0h1m-13 1h2m-2 1h2m-2 1h2m-1 1h1m-2 1h2m-2 1h2m-2 1h2m-2 1h2"/><path stroke="#f2e7ce" d="M13 25h2m-2 1h2m10 0h1m-13 1h4m7 0h2m-13 1h5m7 0h1m-13 1h1m1 0h2m1 0h1m5 0h1m-12 1h6m5 0h2m-13 1h7m3 0h3m-13 1h8m1 0h4m-13 1h1m1 0h5m1 0h5m-13 1h2m1 0h4m1 0h3m1 0h1m-13 1h2m1 0h1m2 0h1m2 0h4m-13 1h1m1 0h5m2 0h1m1 0h2m-13 1h2m1 0h1m2 0h7"/><path stroke="#a5002f" d="M19 25h4"/><path stroke="#f2e7cf" d="M15 26h1m8 2h1m-8 1h1m7 0h1m-3 1h1m0 4h1m-8 1h1m-3 2h1"/><path stroke="#fa0099" d="M19 26h2m-1 1h1m-2 1h2m-2 1h2m-2 1h2m-1 1h1"/><path stroke="#d1005c" d="M21 26h1m-1 1h1m-1 1h1m0 1h1m-2 1h2m-2 1h2m-2 1h1"/><path stroke="#a5012f" d="M22 26h1"/><path stroke="rgba(24,24,34,0.20784313725490197)" d="M24 26h1m-6 1h1m2 0h2m-1 1h1"/><path stroke="#dbccaf" d="M12 27h1"/><path stroke="rgba(24,25,34,0.20784313725490197)" d="M18 27h1"/><path stroke="#dbcdae" d="M11 28h1"/><path stroke="#d0005c" d="M22 28h1m-2 1h1"/><path stroke="#f2e6ce" d="M14 29h1m-1 4h1m2 4h2"/><path stroke="#dacdaf" d="M11 33h1"/><path stroke="#f3e7ce" d="M20 33h1m-6 1h1m4 0h1m-6 1h1m2 0h1m-5 1h1m8 0h1"/><path stroke="#ae6667" d="M20 35h2"/><path stroke="#8c5656" d="M20 36h2"/></svg>