<svg xmlns="http://www.w3.org/2000/svg" shape-rendering="crispEdges" viewBox="0 -0.5 38 38"><path stroke="#ffb7be" d="M9 24h3m14 0h3M8 25h2m17 0h2M7 26h1m21 0h1M8 27h1m-2 1h2m-2 1h1m-1 1h2m-2 1h2"/><path stroke="#e78290" d="M12 24h1m-3 1h1m15 0h1M9 26h1m17 0h2M9 27h1m18 0h2M9 28h1m18 0h2m-2 1h2M9 30h1m18 0h2M9 31h1m-1 1h1"/><path stroke="#e56582" d="M11 25h1"/><path stroke="#e56482" d="M25 25h1m-16 1h1m19 2h1m-1 1h1m-21 2h1m15 0h4m-20 1h1m15 0h3"/><path stroke="#feb6be" d="M29 25h1"/><path stroke="#ffb6be" d="M8 26h1m-1 3h1"/><path stroke="#e46482" d="M30 26h1m-1 4h1m-21 3h1"/><path stroke="#ffb7bf" d="M7 27h1"/><path stroke="#e56483" d="M30 27h1"/><path stroke="#e68290" d="M9 29h1"/><path stroke="#e46582" d="M27 30h1"/><path stroke="#e78390" d="M8 32h1"/><path stroke="#e78291" d="M9 33h1"/></svg>