<svg xmlns="http://www.w3.org/2000/svg" shape-rendering="crispEdges" viewBox="0 -0.5 38 38"><path stroke="#fddc24" d="M21 12h5m-5 1h1m-1 1h1m-1 1h1m-1 1h1m5 1h1m0 1h1"/><path stroke="rgba(166,217,236,0.47058823529411764)" d="M22 13h3m-3 1h3m-3 1h3"/><path stroke="#f0bf0f" d="M25 13h1m-1 1h1m-1 1h1m-2 1h1m1 1h1"/><path stroke="#f0bf0e" d="M22 16h2"/><path stroke="#da9f22" d="M25 16h1"/><path stroke="#fddd24" d="M28 19h1"/><path stroke="#f1bf0f" d="M28 20h1m-1 1h1"/><path stroke="#db9f22" d="M27 22h1m-2 1h1"/></svg>