<svg xmlns="http://www.w3.org/2000/svg" shape-rendering="crispEdges" viewBox="0 -0.5 38 38"><path stroke="#feffff" d="M32 8h1"/><path stroke="#ffffea" d="M33 8h1"/><path stroke="#fffeea" d="M34 8h1m-4 4h1m0 4h1"/><path stroke="#eafffe" d="M32 9h1m-4 4h1"/><path stroke="#feeaff" d="M34 9h1m-1 1h1m-4 4h1m0 3h1"/><path stroke="#eaffec" d="M32 10h2m-5 4h2m0 3h1"/><path stroke="#fff" d="M29 12h2m0 4h1m0 3h1"/><path stroke="#ffeaff" d="M31 13h1"/><path stroke="#eafeff" d="M30 18h1"/><path stroke="#64403e" d="M30 20h1m2 0h1m-3 1h2m-6 1h4"/><path stroke="#7e4e4b" d="M31 20h2"/><path stroke="#64413e" d="M25 21h2"/><path stroke="#64403f" d="M27 21h1"/><path stroke="#50343d" d="M30 21h1"/><path stroke="#50353d" d="M33 21h1m-9 1h2m0 1h1m1 0h1"/><path stroke="#50343c" d="M31 22h1"/><path stroke="#3b242b" d="M32 22h1"/><path stroke="#51353d" d="M28 23h1"/></svg>