<svg xmlns="http://www.w3.org/2000/svg" shape-rendering="crispEdges" viewBox="0 -0.5 38 38"><path stroke="#ff006b" d="M3 18h2m-3 1h1m-1 1h1"/><path stroke="#6bf53d" d="M9 18h1m-1 1h1"/><path stroke="#d00157" d="M3 19h1"/><path stroke="#7e2e0b" d="M4 20h1"/><path stroke="rgba(255,254,255,0.6784313725490196)" d="M5 20h1M4 30h1"/><path stroke="rgba(254,255,255,0.6784313725490196)" d="M6 20h1m-5 5h1"/><path stroke="rgba(255,255,255,0.43137254901960786)" d="M7 20h1m-1 1h1m0 2h1m0 1h1m-1 1h1m-1 1h1m-1 1h1m-7 2h1m4 0h2m-5 1h3m-2 1h1m-1 1h1m-1 1h1m-1 1h1m1 0h1"/><path stroke="#28d940" d="M8 20h1m-1 1h1"/><path stroke="rgba(255,255,255,0.6784313725490196)" d="M4 21h1m-2 1h1m-1 1h1m-2 1h1m-1 2h1m-1 1h1m-1 1h1m2 3h1m-1 1h1m-1 1h1m-3 1h2"/><path stroke="#fff6db" d="M5 21h2m-3 1h1m-2 3h1m-1 1h1"/><path stroke="#bc874c" d="M5 22h2"/><path stroke="#1ebb64" d="M7 22h1"/><path stroke="rgba(255,255,254,0.43137254901960786)" d="M8 22h1"/><path stroke="#f3e7c3" d="M4 23h2m-2 1h2m-2 1h1m1 0h2m-4 1h1m1 0h1m-4 1h1m1 0h2m-4 1h2m-1 1h1"/><path stroke="#c4d88c" d="M6 23h1m-1 1h1m-2 2h1m-2 1h1"/><path stroke="#e3d2b9" d="M7 23h1m0 2h1m-1 1h1m-2 1h2m-4 1h3m-3 1h3"/><path stroke="#f3e7c2" d="M3 24h1"/><path stroke="#f2e7c3" d="M7 24h1"/><path stroke="#e2d2b9" d="M8 24h1"/><path stroke="#c4d88d" d="M5 25h1"/><path stroke="#e2d3b9" d="M7 26h1"/><path stroke="#e3d3b9" d="M8 28h1"/><path stroke="rgba(254,255,255,0.43137254901960786)" d="M9 28h1m-8 1h1"/><path stroke="rgba(254,254,255,0.43137254901960786)" d="M5 34h1"/><path stroke="rgba(255,254,255,0.43137254901960786)" d="M7 34h1"/></svg>