<svg xmlns="http://www.w3.org/2000/svg" shape-rendering="crispEdges" viewBox="0 -0.5 38 38"><path stroke="#bd5b02" d="M2 18h1m6 0h1"/><path stroke="#b04b00" d="M3 18h1m4 0h1"/><path stroke="#ffc96d" d="M4 18h4"/><path stroke="#a24501" d="M1 19h1"/><path stroke="#a24400" d="M2 19h1"/><path stroke="#873800" d="M3 19h1"/><path stroke="#ffb83f" d="M4 19h4m-4 1h4"/><path stroke="#843800" d="M8 19h2m-9 1h2"/><path stroke="#873900" d="M3 20h1m4 0h2m-4 3h1"/><path stroke="#6d2200" d="M2 21h2m4 0h1m-4 1h2"/><path stroke="#f0a424" d="M4 21h2"/><path stroke="#f0a629" d="M6 21h1"/><path stroke="#f1a728" d="M7 21h1"/><path stroke="#6d2201" d="M9 21h1"/><path stroke="#873901" d="M5 23h1"/><path stroke="#964407" d="M5 24h1"/><path stroke="#964507" d="M6 24h1"/><path stroke="#6a2100" d="M5 25h2m-2 3h2m-2 1h1"/><path stroke="#813902" d="M5 26h1"/><path stroke="#813802" d="M6 26h1m-2 1h2"/><path stroke="#6a2000" d="M6 29h1"/></svg>