<svg xmlns="http://www.w3.org/2000/svg" shape-rendering="crispEdges" viewBox="0 -0.5 38 38"><path stroke="#b3d9e9" d="M3 19h3m-6 1h3m-3 1h1m5 3h2m-3 1h1"/><path stroke="#707777" d="M6 19h1"/><path stroke="#929b9c" d="M7 19h1m-8 7h1m-1 3h1m4 0h1m-4 1h1m0 1h1m1 2h2"/><path stroke="#939b9c" d="M8 19h1M4 29h1m-1 1h1"/><path stroke="#889ea8" d="M3 20h2m-5 2h1m0 1h2m0 2h2m-1 1h2"/><path stroke="#707677" d="M5 20h1m0 1h1m-7 2h1m0 3h3m-4 1h5m-5 1h4m2 1h1m-2 1h1m0 2h1"/><path stroke="#717677" d="M6 20h1"/><path stroke="#707676" d="M7 20h1"/><path stroke="#53565c" d="M8 20h2m-3 1h2m-2 1h1m-8 2h2m-2 1h3m1 3h2m-5 1h3m2 1h1m-3 1h3m-1 3h1"/><path stroke="#9cbed1" d="M1 21h1m2 1h1m1 3h2m-2 1h1"/><path stroke="#64747e" d="M2 21h2m-2 1h2"/><path stroke="#5d6569" d="M4 21h1"/><path stroke="#899ea8" d="M5 21h1"/><path stroke="#5c6569" d="M1 22h1"/><path stroke="#7e9cb3" d="M5 22h1m-3 1h4m-2 1h1m2 1h1m-2 1h2m-2 1h1"/><path stroke="#697586" d="M6 22h1"/><path stroke="rgba(147,155,155,0.5725490196078431)" d="M10 22h1m-1 6h1m-4 5h2"/><path stroke="rgba(155,190,210,0.5725490196078431)" d="M11 22h1m-1 6h1m-4 4h1"/><path stroke="rgba(178,217,232,0.5725490196078431)" d="M12 23h1m-1 3h1m-1 1h1m-4 4h1"/><path stroke="#697487" d="M2 24h2m5 1h1m-5 2h1m1 2h1"/><path stroke="#7e9db3" d="M4 24h1"/><path stroke="#a5bdc6" d="M8 24h1m-2 4h1"/><path stroke="#697486" d="M6 27h1"/><path stroke="rgba(155,191,210,0.5725490196078431)" d="M11 27h1"/><path stroke="#a5bcc6" d="M6 28h1"/><path stroke="#929b9d" d="M1 30h1m1 0h1"/><path stroke="rgba(84,86,93,0.5725490196078431)" d="M2 32h1"/><path stroke="#929a9c" d="M5 32h1"/><path stroke="rgba(155,190,211,0.5725490196078431)" d="M9 32h1"/></svg>