<svg xmlns="http://www.w3.org/2000/svg" shape-rendering="crispEdges" viewBox="0 -0.5 38 38"><path stroke="#6bf53d" d="M7 16h1m-2 2h1m-2 1h2m-2 1h2m-3 2h2m-1 1h1m-2 1h1m-1 1h1m-2 1h2m-1 1h1m-2 1h1m-2 1h1m-1 1h2m-2 1h1m-2 2h2m-2 1h2m-2 2h1"/><path stroke="#28d940" d="M8 16h2m-3 1h1m1 0h1m-3 1h2m-2 1h1m-1 1h1m-2 1h1m-1 1h1m-2 2h1m-1 1h1m-2 3h1m-2 3h1m-1 1h1m-2 3h1m-1 1h1"/><path stroke="#6bf43d" d="M6 17h1M2 32h1"/><path stroke="#178463" d="M8 17h1"/><path stroke="#1eba64" d="M9 18h1m-2 1h1m-1 1h1m-2 1h1m-1 1h1m-2 1h1m-1 1h1m-1 1h1m-2 1h1m-1 2h1m-2 1h1m-1 1h1m-1 1h1m-1 1h1m-2 1h1m-1 1h1m-1 1h1m-1 2h1"/><path stroke="#6af53d" d="M5 21h1"/><path stroke="#6bf53c" d="M4 23h1m-2 4h1m-1 2h1m-3 6h1m-1 2h1"/><path stroke="#1eba65" d="M5 27h1"/><path stroke="#1fbb64" d="M3 36h1"/><path stroke="#28d840" d="M2 37h1"/></svg>