<svg xmlns="http://www.w3.org/2000/svg" shape-rendering="crispEdges" viewBox="0 -0.5 38 38"><path stroke="#fffc84" d="M7 16h1m-2 1h1m-2 2h1m-1 1h1m-1 1h1m-2 1h2m-2 1h2m-2 1h1m-1 1h1m-1 1h1m-2 1h2m-2 1h1m-2 1h2m-2 1h1m-1 1h1m-1 1h1m-2 1h2m-2 1h2m-2 1h1m-1 1h1m-1 1h1"/><path stroke="#f1e24a" d="M8 16h2m-3 1h1m1 0h1m-3 1h2m-2 1h1m-1 1h1m-3 5h1m-2 3h1m-2 3h1m-1 1h1m-2 3h1m-1 1h1m-1 1h1"/><path stroke="#b88d12" d="M8 17h1"/><path stroke="#fefc84" d="M6 18h1m-1 1h1"/><path stroke="#d8b535" d="M9 18h1m-2 1h1m-1 1h1m-2 1h1m-1 1h1m-2 1h1m-1 1h1m-1 1h1m-2 1h1m-1 1h1m-1 1h1m-2 1h1m-1 2h1m-1 1h1m-2 1h1m-1 2h1m-1 1h1m-1 1h1"/><path stroke="#fffd84" d="M6 20h1m-4 6h1"/><path stroke="#f1e34a" d="M6 21h1"/><path stroke="#f0e24a" d="M6 22h1"/><path stroke="#f1e24b" d="M5 24h1"/><path stroke="#fefd84" d="M3 30h1"/><path stroke="#d8b435" d="M4 30h1"/><path stroke="#d8b534" d="M3 34h1"/></svg>