<svg xmlns="http://www.w3.org/2000/svg" shape-rendering="crispEdges" viewBox="0 -0.5 38 38"><path stroke="#0783ff" d="M7 16h1m-2 2h1m-2 1h2m-2 1h2m-2 1h1m-2 1h2m-2 1h2m-2 1h1m-1 1h1m-2 1h2m-2 1h2m-3 2h2m-1 1h1m-2 1h1m-1 1h1m-2 1h2m-2 1h1m-1 2h1"/><path stroke="#0065fe" d="M8 16h2m-3 1h1m1 0h1m-2 1h1m-2 1h1m-1 1h1m-2 1h1m-1 1h1m-2 2h1m-1 1h1m-2 3h1m-2 3h1m-1 1h1m-2 4h1"/><path stroke="#0782ff" d="M6 17h1M2 30h1m-2 7h1"/><path stroke="#072ec0" d="M8 17h1"/><path stroke="#0065ff" d="M7 18h1M2 35h1m-1 2h1"/><path stroke="#0056e8" d="M9 18h1m-2 1h1m-1 1h1m-2 2h1m-2 2h1m-1 1h1m-2 1h1m-1 1h1m-1 1h1m-2 1h1m-1 1h1m-1 1h1m-1 1h1m-2 1h1m-1 2h1m-1 2h1"/><path stroke="#0056e9" d="M7 21h1M3 34h1"/><path stroke="#0057e8" d="M6 23h1"/><path stroke="#0783fe" d="M3 28h1m-2 6h1m-2 1h1"/><path stroke="#0156e8" d="M3 36h1"/></svg>