<svg xmlns="http://www.w3.org/2000/svg" shape-rendering="crispEdges" viewBox="0 -0.5 38 38"><path stroke="#4d5076" d="M4 20h1m1 0h1m-4 1h1m4 0h1m-7 1h1m2 0h2m2 0h1m-8 1h1m2 0h1m1 0h1m1 0h1m-8 1h1m2 0h1m3 0h1m-8 1h1m2 0h1m3 0h1m-7 1h1m4 0h1m-5 1h2"/><path stroke="#4c5076" d="M5 20h1"/><path stroke="#4d5077" d="M7 20h1m-2 4h1m0 3h1"/><path stroke="#feffff" d="M4 21h1"/><path stroke="#fff" d="M5 21h1m-3 1h1"/><path stroke="#fafafa" d="M6 21h2m-4 1h1m2 0h1m-5 1h2m-2 1h2m2 0h1m-4 1h1m1 0h1"/><path stroke="#f7f7f7" d="M8 22h1m-1 2h1m-2 1h2m-3 1h2"/><path stroke="#fbfafa" d="M6 23h1"/><path stroke="#f7f7f6" d="M8 23h1"/><path stroke="#fafafb" d="M3 25h1"/><path stroke="#f7f6f7" d="M4 26h1"/><path stroke="#f6f7f7" d="M5 26h1"/><path stroke="#4d5176" d="M6 27h1"/><path stroke="#64366a" d="M3 28h1m5 1h1m-1 1h1m-8 1h3m2 0h3"/><path stroke="#eabee2" d="M4 28h4m-5 1h2m2 0h2"/><path stroke="#65366a" d="M8 28h1"/><path stroke="#64376a" d="M2 29h1m2 1h1"/><path stroke="#c894bf" d="M5 29h2m-3 1h1m2 0h2"/><path stroke="#64366b" d="M2 30h1m3 0h1"/><path stroke="#ebbee2" d="M3 30h1"/></svg>