<svg xmlns="http://www.w3.org/2000/svg" shape-rendering="crispEdges" viewBox="0 -0.5 38 38"><path stroke="#dfab88" d="M13 2h1m1 0h2m-5 1h1m4 0h3m-7 1h1m6 0h1m7 0h1M7 5h1m4 0h4m7 0h2m3 0h1M7 6h1m4 0h7m3 0h3m2 0h3M6 7h4m2 0h11m1 0h1m1 0h2M7 8h4m3 0h4m1 0h5"/><path stroke="#dfaa88" d="M14 2h1m3 6h1"/><path stroke="#cc9d76" d="M17 2h2m1 0h1m-1 1h2m-1 1h2M8 6h1m2 1h1m13 0h1m2 0h2M11 8h3m10 0h1m1 0h3M8 9h5m1 0h9m1 0h3m-14 1h11"/><path stroke="#cc9c76" d="M19 2h1m5 6h1"/><path stroke="#efc1a1" d="M21 2h2m-9 1h3m5 0h2M14 4h6m3 0h1m5 0h1M6 5h1m9 0h1m1 0h5m-4 1h2"/><path stroke="#eec1a1" d="M13 3h1m3 2h1"/><path stroke="#deab88" d="M12 4h1"/><path stroke="#ab8570" d="M24 4h1m0 1h1M11 6h1m13 0h1"/><path stroke="#c4876c" d="M10 5h1m15 0h1M10 6h1m15 0h1M10 7h1"/><path stroke="#ab8571" d="M11 5h1"/><path stroke="#cd9d76" d="M27 5h1M13 9h1m9 0h1"/><path stroke="#efc0a1" d="M29 5h1"/><path stroke="#efc0a0" d="M6 6h1"/><path stroke="#c4866c" d="M9 6h1"/><path stroke="#efc1a0" d="M21 6h1"/><path stroke="#dfab89" d="M23 7h1"/></svg>