<svg xmlns="http://www.w3.org/2000/svg" shape-rendering="crispEdges" viewBox="0 -0.5 38 38"><path stroke="#41d6ff" d="M9 3h2M9 4h2"/><path stroke="#003ef2" d="M12 4h4m1 0h5m1 0h2m1 0h1M9 5h1m2 0h1M9 6h1m2 0h1m-1 1h1M9 8h1m2 0h1m6 0h1M9 9h1m8 0h1M9 10h1m-1 1h1m-1 2h1m-1 1h1m-1 1h1m-1 1h1m-1 1h1m-1 1h1m1 1h2"/><path stroke="#013ef2" d="M16 4h1m8 0h1"/><path stroke="#003ff2" d="M22 4h1M9 12h1"/><path stroke="#1823e1" d="M10 5h1m2 0h3m1 0h9M10 6h2m14 0h1M10 7h2m-2 1h1m15 0h1M10 9h1m8 0h2m4 0h1m-11 1h4m1 0h5m-15 2h1m-1 1h1m-1 1h1m-1 1h1m-1 1h1m-1 1h1m-1 1h1m2 1h1m-3 1h3"/><path stroke="#1923e1" d="M16 5h1m9 0h1M13 9h1m-4 10h1"/><path stroke="#c0ebff" d="M13 6h3m3 0h1m1 0h1m-9 1h1m4 0h3m4 0h1M16 8h3m5 0h2M15 9h3m5 0h1"/><path stroke="#e0faff" d="M16 6h3m3 0h4M14 7h4m3 0h2m1 0h1M13 8h3m4 0h3m-9 1h1"/><path stroke="#c1ebff" d="M20 6h1"/><path stroke="#003ef3" d="M9 7h1"/><path stroke="#e1faff" d="M23 7h1"/><path stroke="#1923e0" d="M26 7h1"/><path stroke="#c0eaff" d="M23 8h1m0 1h1"/><path stroke="#e0fbff" d="M21 9h1"/><path stroke="#c0eafe" d="M22 9h1"/><path stroke="#1823e0" d="M10 10h1m3 0h1m-5 1h1"/><path stroke="#32c4ff" d="M13 18h2"/><path stroke="#1822e1" d="M14 19h1"/></svg>