<svg xmlns="http://www.w3.org/2000/svg" shape-rendering="crispEdges" viewBox="0 -0.5 38 38"><path stroke="#ffb6be" d="M14 2h1m5 0h1"/><path stroke="#ffb7be" d="M15 2h3m1 0h1m1 0h3M11 3h6m-6 1h3m-4 1h2m-2 1h1"/><path stroke="#ffb7bf" d="M18 2h1"/><path stroke="#e78290" d="M17 3h1m1 0h7M14 4h11M13 5h14M11 6h11m1 0h1m2 0h1M10 7h7m2 0h3m1 0h4m-15 3h8m1 0h4m1 0h5"/><path stroke="#e78390" d="M18 3h1m-7 2h1m11 1h1"/><path stroke="#e68290" d="M25 4h1m-4 2h1m-6 1h1m4 0h1m-3 3h1"/><path stroke="#e78291" d="M25 6h1m-8 1h1"/><path stroke="#e56482" d="M10 8h3m1 0h1m1 0h1m1 0h9m1 0h1M11 9h8m1 0h3m1 0h4m1 0h2"/><path stroke="#e46482" d="M13 8h1m9 1h1m4 0h1"/><path stroke="#e56483" d="M15 8h1m3 1h1"/><path stroke="#e56582" d="M17 8h1m9 0h1"/><path stroke="#e78391" d="M25 10h1"/></svg>