<svg xmlns="http://www.w3.org/2000/svg" shape-rendering="crispEdges" viewBox="0 -0.5 38 38"><path stroke="#003ef2" d="M14 2h2m1 0h1m1 0h3m1 0h1M12 3h5m-6 1h3m-4 1h2m-2 1h1"/><path stroke="#003ef3" d="M16 2h1m-6 1h1"/><path stroke="#003ff2" d="M18 2h1"/><path stroke="#013ef2" d="M22 2h1"/><path stroke="#1823e1" d="M17 3h1m2 0h6M14 4h2m1 0h9M12 5h2m3 0h10M11 6h10m1 0h5M10 7h4m2 0h9m1 0h1m-13 3h15m1 0h1"/><path stroke="#1823e0" d="M18 3h1m-4 2h2m4 1h1m-8 1h1"/><path stroke="#1923e1" d="M19 3h1m-4 1h1m-2 3h1m13 3h1"/><path stroke="#1822e1" d="M14 5h1m10 2h1m-13 3h1"/><path stroke="#0b15c9" d="M10 8h11m1 0h7M12 9h2m1 0h1m1 0h6m1 0h7"/><path stroke="#0b15c8" d="M21 8h1"/><path stroke="#0b14c9" d="M11 9h1m4 0h1"/><path stroke="#0a15c9" d="M14 9h1m8 0h1"/></svg>