<svg xmlns="http://www.w3.org/2000/svg" shape-rendering="crispEdges" viewBox="0 -0.5 38 38"><path stroke="#7124ee" d="M10 3h3m3 0h1M9 4h3m5 0h1m1 0h1M10 5h2m1 0h3m4 0h2M7 6h3m2 0h2m2 0h1m2 0h2m-7 1h4m4 0h2M6 8h1m3 0h4m1 0h2m4 0h3M5 9h1m1 0h3m-3 1h2"/><path stroke="#6514dd" d="M13 3h1m1 0h1m3 0h1m-8 1h1m1 0h1m5 0h2M9 5h1M6 6h1m10 0h1M6 7h5M7 8h3m-4 2h1m-2 1h4m-3 1h2"/><path stroke="#5611bc" d="M14 3h1m0 1h1m0 1h1M5 12h1m0 1h2"/><path stroke="#7024ee" d="M17 3h1M8 4h1m3 1h1m5 0h1m5 3h1M6 9h1"/><path stroke="#7124ef" d="M18 3h1"/><path stroke="#6314d9" d="M13 4h1m2 0h1m0 1h1m4 0h1m-9 1h1m3 0h1m2 0h1m1 0h2M11 7h3m4 0h3m3 0h1M14 8h1m2 0h4"/><path stroke="#7125ee" d="M18 4h1M7 5h2m10 0h1"/><path stroke="#6315d9" d="M23 5h1m-2 1h1m-2 1h1"/><path stroke="#6515dd" d="M10 6h1"/><path stroke="#7025ee" d="M11 6h1"/><path stroke="#6214d9" d="M15 6h1"/><path stroke="#6514dc" d="M5 10h1"/></svg>