<svg xmlns="http://www.w3.org/2000/svg" shape-rendering="crispEdges" viewBox="0 -0.5 38 38"><path stroke="#a9693b" d="M13 2h4m-5 1h1m4 0h3m-7 1h1m-2 1h4m7 0h2m3 0h1M7 6h1m4 0h7m3 0h3m2 0h3M6 7h4m2 0h6m2 0h4m2 0h2M8 8h3m3 0h10"/><path stroke="#955d34" d="M17 2h4m-1 1h2m-1 1h2m4 1h1M8 6h1m2 1h1m13 0h1m2 0h2M11 8h3m10 0h2m1 0h2M8 9h2m1 0h7m1 0h7m-13 1h12"/><path stroke="#c48456" d="M21 2h2M13 3h4m5 0h2M14 4h1m1 0h3m4 0h1m5 0h1M6 5h1m9 0h6m7 0h1M20 6h2"/><path stroke="#a9683b" d="M12 4h1"/><path stroke="#c48556" d="M15 4h1"/><path stroke="#c48457" d="M19 4h1M6 6h1"/><path stroke="#a8693b" d="M20 4h1m-3 3h2"/><path stroke="#664832" d="M24 4h1M11 5h1m13 0h1M11 6h1m13 0h1"/><path stroke="#a9693a" d="M28 4h1M7 5h1m16 2h1M7 8h1"/><path stroke="#7e5537" d="M10 5h1m15 0h1M9 6h2m15 0h1M10 7h1"/><path stroke="#c58456" d="M22 5h1m-4 1h1"/><path stroke="#945d34" d="M26 8h1m-1 1h1"/><path stroke="#955c34" d="M10 9h1m7 0h1"/></svg>