<svg xmlns="http://www.w3.org/2000/svg" shape-rendering="crispEdges" viewBox="0 -0.5 38 38"><path stroke="#ffd767" d="M21 3h1M10 4h1m3 0h1m-5 1h1m2 0h1m5 0h2m-9 1h1m6 0h1"/><path stroke="#fed767" d="M20 4h1"/><path stroke="#ffd766" d="M21 4h1"/><path stroke="#fbca42" d="M22 4h1m-9 1h1m8 0h1m2 0h1M15 6h2m6 0h1M12 7h1m2 0h3m1 0h2m2 0h1m1 0h1M11 8h13m1 0h2M10 9h1"/><path stroke="#b1891c" d="M25 4h1M11 5h1m5 0h1m7 0h1M11 6h1m13 0h1"/><path stroke="#fbcb42" d="M15 5h1m8 2h1M10 8h1"/><path stroke="#ff0748" d="M21 5h1m0 1h1"/><path stroke="#ff7484" d="M22 5h1"/><path stroke="#00ef31" d="M10 6h1"/><path stroke="#fbca43" d="M13 6h1m6 0h1M11 7h1m6 0h1m5 1h1"/><path stroke="#2860ff" d="M14 6h1"/><path stroke="#b1881c" d="M17 6h1"/><path stroke="#ffd667" d="M18 6h1"/><path stroke="#d80037" d="M21 6h1m-1 1h2"/><path stroke="#faca42" d="M24 6h1M13 7h1"/><path stroke="#ef26e6" d="M26 6h1"/><path stroke="#00d257" d="M10 7h1"/><path stroke="#1348e4" d="M14 7h1"/><path stroke="#bc1de6" d="M26 7h1"/><path stroke="#e7b018" d="M11 9h4m1 0h2m2 0h1m1 0h5"/><path stroke="#e7b118" d="M15 9h1m2 0h1"/><path stroke="#e7b019" d="M19 9h1m1 0h1"/></svg>