<svg xmlns="http://www.w3.org/2000/svg" shape-rendering="crispEdges" viewBox="0 -0.5 38 38"><path stroke="#fff" d="M14 3h1m1 0h9M13 4h12m1 0h1M11 5h12m1 0h4M10 6h2m3 0h3m1 0h1m1 0h2m1 0h5M10 7h2m1 0h3m1 0h3m1 0h1m1 0h5M11 8h3m3 0h2m3 0h3m1 0h2m-3 1h2m-1 1h1"/><path stroke="#fffffe" d="M15 3h1m9 1h1M12 6h2"/><path stroke="#feffff" d="M12 4h1m10 1h1M14 6h1m5 0h1m-1 1h1"/><path stroke="#fffeff" d="M18 6h1m-7 1h1m12 1h1"/><path stroke="#e1d6ba" d="M23 6h1m-2 1h1m0 2h1M9 11h1m16 0h1"/><path stroke="#f5f0d3" d="M9 7h1m18 0h1M10 8h1m17 0h1M9 9h3m15 0h2M9 10h1m17 0h2"/><path stroke="#e1d7ba" d="M16 7h1m-3 1h3m2 0h3M12 9h2m2 0h3m3 0h1m1 0h1m-15 1h2m13 0h1m-16 1h1m-2 1h1m17 0h1"/><path stroke="#f5f1d3" d="M9 8h1"/><path stroke="#c1ae9a" d="M19 9h1m-8 1h1m4 0h1"/><path stroke="#f4f0d3" d="M27 11h1"/></svg>