<svg xmlns="http://www.w3.org/2000/svg" shape-rendering="crispEdges" viewBox="0 -0.5 38 38"><path stroke="#ffb7be" d="M9 3h2M9 4h1m3 14h2"/><path stroke="#feb7be" d="M10 4h1"/><path stroke="#e78290" d="M12 4h13M9 5h1m2 0h1M9 6h1m2 0h1M9 7h1m2 0h1M9 8h1m2 0h1M9 9h1m8 0h1M9 10h1m-1 1h1m-1 1h1m-1 1h1m-1 1h1m-1 1h1m-1 2h1m-1 1h1m1 1h2"/><path stroke="#e68391" d="M25 4h1"/><path stroke="#e78291" d="M26 4h1m-8 4h1"/><path stroke="#e56482" d="M10 5h1m2 0h5m2 0h2m1 0h1m1 0h2M10 6h1m-1 1h2m14 0h1M10 8h1m15 0h1M10 9h1m8 0h2m4 0h1m-16 1h1m5 0h1m1 0h1m1 0h5m-15 1h1m-1 2h1m-1 1h1m-1 1h1m-1 1h1m-1 1h1m-1 1h1m-1 1h1m2 0h2m-4 1h1m1 0h1"/><path stroke="#e46482" d="M18 5h1m5 0h1M11 6h1m1 3h1m0 1h1m-3 10h1"/><path stroke="#e56483" d="M19 5h1m6 1h1m-17 6h1"/><path stroke="#e56582" d="M22 5h1m-6 5h1"/><path stroke="#c0ebff" d="M13 6h3m3 0h3m-4 1h3m4 0h1M16 8h1m1 0h1m4 0h3M16 9h2m5 0h2"/><path stroke="#e0faff" d="M16 6h2m5 0h3M14 7h4m3 0h4M13 8h3m4 0h3m-2 1h1"/><path stroke="#e0fafe" d="M18 6h1"/><path stroke="#e0fbff" d="M22 6h1"/><path stroke="#c1ebff" d="M13 7h1m1 2h1"/><path stroke="#c0eaff" d="M17 8h1"/><path stroke="#e1faff" d="M14 9h1"/><path stroke="#c0eafe" d="M22 9h1"/><path stroke="#e46483" d="M15 10h1"/><path stroke="#e68290" d="M9 16h1"/></svg>