<svg xmlns="http://www.w3.org/2000/svg" shape-rendering="crispEdges" viewBox="0 -0.5 38 38"><path stroke="#fcfcfc" d="M14 2h3M9 3h2m1 0h1m6 0h4M6 4h2m16 0h3M6 6h1M6 7h1M6 8h1m-2 2h1m-1 1h1m-1 1h1m-1 1h1m-1 1h1m-2 2h1m-1 1h1"/><path stroke="#ebd7c4" d="M17 2h1m-5 1h1m1 0h3M9 4h1m2 0h3m1 0h3m1 0h1m1 0h1M6 5h5m1 0h1m1 0h2m1 0h3m1 0h3m1 0h2M8 6h4m1 0h1m12 0h2M9 7h2m16 0h1M7 8h2m1 0h1m16 0h1M6 9h4m-2 1h1m-1 1h1m-3 1h2m-2 1h4m-4 1h1m-2 1h3m-3 2h2m-2 1h1m1 0h2m-4 1h1m1 0h1m-2 1h1"/><path stroke="#fcfcfd" d="M11 3h1"/><path stroke="#dbbfa8" d="M14 3h1m3 0h1m-9 1h1m4 0h1M7 6h1m6 0h3m1 0h3m1 0h1M11 7h2m1 0h1m-4 1h1m-3 2h2m-2 1h1m-2 3h3m-6 2h2m-3 3h1m3 0h1m-4 1h1"/><path stroke="#fcfdfc" d="M8 4h1"/><path stroke="#ebd6c4" d="M11 4h1m1 1h1m-7 5h1m-2 1h1m-1 8h1m0 1h1"/><path stroke="#baa192" d="M19 4h1m2 3h1m3 0h1m0 2h1m-16 3h1m14 8h1"/><path stroke="#ebd7c5" d="M21 4h1M7 7h1M6 18h1m2 0h1"/><path stroke="#dabfa8" d="M23 4h1M6 10h1m1 5h1"/><path stroke="#baa093" d="M11 5h1m6 4h1m-6 1h1m-3 3h1m-4 4h1"/><path stroke="#baa092" d="M16 5h1m3 0h1m-9 1h1m4 0h1m7 0h1M8 7h1m4 0h1m3 0h2m2 0h1m3 0h1M9 8h1m4 0h1m2 0h2m2 0h1m3 0h2M10 9h2m2 0h3m2 0h3m1 0h2m-14 1h2m14 0h2M7 11h1m4 0h1m15 0h1M8 12h1m19 0h1m-19 1h1m16 0h3m-19 1h1m17 0h1m-19 1h1m17 0h1m-19 1h1m15 0h1m1 0h2M7 17h1m1 0h1m17 0h1m2 0h1m-21 1h1m16 0h1m2 0h1M9 19h2m16 0h1m2 0h1M8 20h1m19 0h1m1 0h1M6 21h3"/><path stroke="#dbbea8" d="M24 5h1"/><path stroke="#bba092" d="M21 6h1m0 2h1M9 12h1m18 4h1m0 4h1"/><path stroke="#dbbfa9" d="M23 6h1M8 16h1"/><path stroke="#dbbea9" d="M24 6h1"/><path stroke="#897276" d="M15 7h1"/><path stroke="#897277" d="M16 7h1m2 0h2m2 0h2M12 8h2m1 0h1m3 0h2m3 0h1M12 9h2m11 0h1m0 1h1m-17 1h2m14 0h2m-18 1h2m15 2h2M9 15h2m16 0h2M9 16h2m17 1h2m-2 1h2m-2 1h2M9 20h2m-2 1h2"/><path stroke="#897377" d="M16 8h1m9 1h1m0 3h1"/><path stroke="#887277" d="M23 8h1"/><path stroke="#ead7c4" d="M7 14h1"/><path stroke="#ebd6c5" d="M7 16h1"/><path stroke="#baa193" d="M10 17h1"/><path stroke="#fdfcfd" d="M4 18h1"/></svg>